<?xml version="1.0" encoding="utf-8"?>
<!-- Generator: Adobe Illustrator 23.0.1, SVG Export Plug-In . SVG Version: 6.00 Build 0)  -->
<svg version="1.1" id="Layer_1" xmlns="http://www.w3.org/2000/svg" xmlns:xlink="http://www.w3.org/1999/xlink" x="0px" y="0px"
	 viewBox="0 0 520 450" style="enable-background:new 0 0 520 450;" xml:space="preserve">
<path d="M315.699,91.262c-36.039,0-71.976,0-108.613,0C140.104,183.438,72.877,275.95,5.151,369.149
	c10.979,6.785,21.385,13.642,32.18,19.818c61.632,35.26,127.893,55.119,198.82,59.275c1.625,0.095,3.233,0.499,4.848,0.758
	c13.667,0,27.333,0,41,0c10.064-0.985,20.147-1.799,30.187-2.983c73.818-8.705,141.508-33.922,203.068-75.581
	c0.661-0.448,1.219-1.048,2.025-1.751C450.022,276.122,382.898,183.744,315.699,91.262z"/>
</svg>
