<svg xmlns="http://www.w3.org/2000/svg" width="22" height="22" viewBox="0 0 22 22">
    <path fill="#000" fill-rule="evenodd" stroke="#FFF" stroke-width=".5" d="M11.015 2.537A8.278 8.278 0 0 0 4.495 5.7a8.573 8.573 0 0 0-1.637 7.151l-1.35 1.372c-1.34-4.11.028-8.63 3.408-11.264a9.863 9.863 0 0 1 11.585-.415L16.28.973a.853.853 0 0 1 .716-.965c.46-.065.885.26.95.729l.555 3.95a.857.857 0 0 1-.157.63.83.83 0 0 1-.548.33l-3.887.565h-.117a.84.84 0 0 1-.89-.788.844.844 0 0 1 .774-.906l2.27-.327a8.19 8.19 0 0 0-4.93-1.654zm9.479 5.261l.005-.006c1.372 4.24-.14 8.893-3.724 11.47a9.864 9.864 0 0 1-11.879-.254l.283 2.032a.857.857 0 0 1-.157.629.83.83 0 0 1-.548.331h-.117a.838.838 0 0 1-.821-.728L2.98 17.32a.857.857 0 0 1 .157-.629.83.83 0 0 1 .549-.331l3.886-.564c.46-.066.886.26.95.728a.853.853 0 0 1-.716.965L6 17.75a8.218 8.218 0 0 0 9.508.358c2.931-1.913 4.382-5.48 3.635-8.938l1.35-1.372z"/>
</svg>
