<?xml version="1.0" encoding="utf-8"?>
<!-- Generator: Adobe Illustrator 23.0.1, SVG Export Plug-In . SVG Version: 6.00 Build 0)  -->
<svg version="1.1" id="Layer_1" xmlns="http://www.w3.org/2000/svg" xmlns:xlink="http://www.w3.org/1999/xlink" x="0px" y="0px"
	 viewBox="0 0 1521.3 1080" style="enable-background:new 0 0 1521.3 1080;" xml:space="preserve">
<style type="text/css">
	.st0{fill:#FFFFFF;}
	.st1{stroke:#FFFFFF;stroke-miterlimit:10;}
	.st2{fill:#FFFFFF;stroke:#000000;stroke-width:0.3;stroke-miterlimit:10;}
	.st3{fill:#FF0000;}
	.st4{fill:#00FF00;}
	.st5{fill:none;stroke:#000000;stroke-miterlimit:10;}
	.st6{clip-path:url(#SVGID_2_);}
	.st7{fill:none;stroke:#000000;stroke-width:0.2;stroke-miterlimit:10;}
	.st8{display:none;}
	.st9{display:inline;fill:none;stroke:#000000;stroke-width:0.2;stroke-miterlimit:10;}
	.st10{fill:#FFFFFF;stroke:#000000;stroke-miterlimit:10;}
</style>
<g>
	<path class="st0" d="M924.8,517.9c-1.2,0-2.2-1.6-2.2-3.5v-51.6c0-1.9,1-3.5,2.2-3.5h0.1l0.1-0.1c32.5-20,66.8-30.1,101.9-30.1
		l0.4,0c35,0.1,69.2,10.2,101.6,30.1l0.1,0.1l0.1,0c0.2,0,0.9,0.1,1.5,1c0.5,0.7,0.7,1.6,0.7,2.5v51.6c0,1.9-1,3.5-2.2,3.5H924.8z"
		/>
	<path d="M1027,428.6v1l0.4,0c34.9,0.1,69,10.2,101.3,30l0.2,0.1l0.3,0c0.1,0,0.6,0.1,1.1,0.7c0.4,0.6,0.6,1.4,0.6,2.3v51.6
		c0,1.7-0.9,3-1.7,3H924.8c-0.8,0-1.7-1.3-1.7-3v-51.6c0-1.7,0.9-3,1.7-3h0.3l0.2-0.1c32.4-19.9,66.6-30,101.7-30V428.6 M1027,428.6
		c-45.8,0-81.5,17.5-102.2,30.2c-1.5,0-2.7,1.8-2.7,4v51.6c0,2.2,1.2,4,2.7,4h204.4c1.5,0,2.7-1.8,2.7-4v-51.6
		c0-1.1-0.3-2.1-0.8-2.8c-0.8-1.1-1.7-1.2-1.9-1.2c-20.7-12.7-56.3-30.1-101.8-30.2C1027.2,428.6,1027.1,428.6,1027,428.6
		L1027,428.6z"/>
</g>
<image style="overflow:visible;" width="771" height="547" xlink:href="../../../Downloads/cihseit.jpg"  transform="matrix(0.4209 0 0 0.4209 476.8434 174.7818)">
</image>
<rect x="431.4" y="402.1" class="st1" width="35.2" height="56.7"/>
<g>
	<path class="st0" d="M333.6,517.9c-1.9,0-3.5-1.6-3.5-3.5v-51.6c0-1.9,1.6-3.5,3.5-3.5h0.3l0.1-0.2c1.7-2.8,15.6-10.3,34.8-20.8
		c5.7-3.1,12-6.5,18.6-10.1c86,0.8,152,14.1,195.6,22.9c23.9,4.8,41.2,8.3,53.3,8.3h0.2c29.9,0,115.2,0.2,119,1.1
		c0.6,0.7,1,1.5,1,2.4v51.6c0,1.9-1.6,3.5-3.5,3.5H333.6z"/>
	<path d="M387.5,428.6c85.9,0.8,151.8,14.1,195.4,22.9c24,4.8,41.3,8.3,53.4,8.3l0.2,0c29.3,0,113.2,0.2,118.7,1.1
		c0.5,0.5,0.7,1.2,0.7,1.9v51.6c0,1.7-1.3,3-3,3H333.6c-1.7,0-3-1.3-3-3v-51.6c0-1.7,1.3-3,3-3h0.6l0.3-0.5
		c1.6-2.7,16.2-10.6,34.7-20.6C374.7,435.6,381,432.2,387.5,428.6 M387.3,427.6c-29.3,16.1-51.5,27.4-53.7,31.2c-2.2,0-4,1.8-4,4
		v51.6c0,2.2,1.8,4,4,4h419.4c2.2,0,4-1.8,4-4v-51.6c0-1.1-0.4-2.1-1.2-2.8c-1.1-1.1-116.8-1.2-119.2-1.2c0,0,0,0,0,0
		c-0.1,0-0.1,0-0.2,0C601.5,458.8,518.8,428.8,387.3,427.6L387.3,427.6z"/>
</g>
<rect x="366.6" y="255.9" class="st1" width="132.4" height="12.5"/>
<rect x="499.2" y="258.2" class="st1" width="9.1" height="7.8"/>
<g>
	<g>
		<path class="st0" d="M335.1,885.2c-3.3,0-6-2.7-6-6v-299c0-3.3,2.7-6,6-6h416.2c3.3,0,6,2.7,6,6v299c0,3.3-2.7,6-6,6H335.1z"/>
		<path d="M751.3,578.2c1.1,0,2,0.9,2,2v299c0,1.1-0.9,2-2,2H335.1c-1.1,0-2-0.9-2-2v-299c0-1.1,0.9-2,2-2H751.3 M751.3,570.2H335.1
			c-5.5,0-10,4.5-10,10v299c0,5.5,4.5,10,10,10h416.2c5.5,0,10-4.5,10-10v-299C761.3,574.7,756.8,570.2,751.3,570.2L751.3,570.2z"/>
	</g>
	<g>
		<path class="st0" d="M365.1,888.7c-21.8,0-39.5-17.7-39.5-39.5v-239c0-21.8,17.7-39.5,39.5-39.5h356.2c21.8,0,39.5,17.7,39.5,39.5
			v239c0,21.8-17.7,39.5-39.5,39.5H365.1z"/>
		<path d="M721.3,571.2c21.5,0,39,17.5,39,39v239c0,21.5-17.5,39-39,39H365.1c-21.5,0-39-17.5-39-39v-239c0-21.5,17.5-39,39-39
			H721.3 M721.3,570.2H365.1c-22,0-40,18-40,40v239c0,22,18,40,40,40h356.2c22,0,40-18,40-40v-239
			C761.3,588.2,743.3,570.2,721.3,570.2L721.3,570.2z"/>
	</g>
	<g>
		<g>
			<circle class="st0" cx="683.6" cy="626.7" r="39.6"/>
			<path d="M683.6,587.4c21.7,0,39.4,17.7,39.4,39.4s-17.7,39.4-39.4,39.4s-39.4-17.7-39.4-39.4S661.9,587.4,683.6,587.4 M683.6,587
				c-22,0-39.8,17.8-39.8,39.8s17.8,39.8,39.8,39.8c22,0,39.8-17.8,39.8-39.8S705.6,587,683.6,587L683.6,587z"/>
		</g>
		<g>
			<circle class="st0" cx="683.6" cy="832.6" r="39.6"/>
			<path d="M683.6,793.2c21.7,0,39.4,17.7,39.4,39.4S705.3,872,683.6,872s-39.4-17.7-39.4-39.4S661.9,793.2,683.6,793.2
				 M683.6,792.8c-22,0-39.8,17.8-39.8,39.8c0,22,17.8,39.8,39.8,39.8c22,0,39.8-17.8,39.8-39.8
				C723.4,810.6,705.6,792.8,683.6,792.8L683.6,792.8z"/>
		</g>
		<g>
			
				<ellipse transform="matrix(0.9239 -0.3827 0.3827 0.9239 -209.1763 201.8795)" class="st0" cx="402.9" cy="626.7" rx="39.6" ry="39.6"/>
			<path d="M402.9,587.4c21.7,0,39.4,17.7,39.4,39.4s-17.7,39.4-39.4,39.4c-21.7,0-39.4-17.7-39.4-39.4S381.2,587.4,402.9,587.4
				 M402.9,587c-22,0-39.8,17.8-39.8,39.8s17.8,39.8,39.8,39.8s39.8-17.8,39.8-39.8S424.8,587,402.9,587L402.9,587z"/>
		</g>
		<g>
			
				<ellipse transform="matrix(0.9239 -0.3827 0.3827 0.9239 -287.9593 217.5503)" class="st0" cx="402.9" cy="832.6" rx="39.6" ry="39.6"/>
			<path d="M402.9,793.2c21.7,0,39.4,17.7,39.4,39.4S424.6,872,402.9,872c-21.7,0-39.4-17.7-39.4-39.4S381.2,793.2,402.9,793.2
				 M402.9,792.8c-22,0-39.8,17.8-39.8,39.8c0,22,17.8,39.8,39.8,39.8s39.8-17.8,39.8-39.8C442.6,810.6,424.8,792.8,402.9,792.8
				L402.9,792.8z"/>
		</g>
	</g>
	<g>
		
			<rect x="432.5" y="711" transform="matrix(-1.836970e-16 1 -1 -1.836970e-16 1180.9048 278.4471)" class="st1" width="37.4" height="37.4"/>
		
			<rect x="438.4" y="716.8" transform="matrix(-1.836970e-16 1 -1 -1.836970e-16 1180.9048 278.4471)" class="st1" width="25.7" height="25.7"/>
		
			<rect x="443" y="721.5" transform="matrix(-1.836970e-16 1 -1 -1.836970e-16 1180.9048 278.4471)" class="st1" width="16.4" height="16.4"/>
	</g>
	<g>
		<g>
			
				<rect x="517.5" y="772.1" transform="matrix(-1.836970e-16 1 -1 -1.836970e-16 1376.913 290.439)" class="st2" width="51.5" height="123.2"/>
			<circle class="st2" cx="543.2" cy="833.7" r="18.6"/>
			
				<rect x="540.1" y="822.9" transform="matrix(-1.836970e-16 1 -1 -1.836970e-16 1376.913 290.439)" class="st2" width="6.2" height="21.5"/>
		</g>
		<g>
			<circle class="st3" cx="568.3" cy="833.6" r="2.7"/>
			<circle class="st4" cx="518.2" cy="833.6" r="2.7"/>
		</g>
	</g>
	<g>
		<g>
			
				<rect x="517.5" y="565.1" transform="matrix(-1.836970e-16 1 -1 -1.836970e-16 1169.9203 83.4463)" class="st2" width="51.5" height="123.2"/>
			<circle class="st2" cx="543.2" cy="626.7" r="18.6"/>
			
				<rect x="540.1" y="615.9" transform="matrix(-1.836970e-16 1 -1 -1.836970e-16 1169.9203 83.4463)" class="st2" width="6.2" height="21.5"/>
		</g>
		<g>
			<circle class="st3" cx="568.3" cy="626.6" r="2.7"/>
			<circle class="st4" cx="518.2" cy="626.6" r="2.7"/>
		</g>
	</g>
	<g>
		<path d="M647,691.2h-12v1h12V691.2L647,691.2L647,691.2z M623,691.2h-12v1h12V691.2L623,691.2z M599,691.2h-12v1h12V691.2
			L599,691.2z M575,691.2h-12v1h12V691.2L575,691.2z M551,691.2h-12v1h12V691.2L551,691.2z M527,691.2h-12v1h12V691.2L527,691.2z
			 M503,691.2h-12v1h12V691.2L503,691.2z M479,691.2h-12v1h12V691.2L479,691.2z M455,691.2h-12v1h12V691.2L455,691.2z M431,691.2
			h-12v1h12V691.2L431,691.2z M407,691.2h-12v1h12V691.2L407,691.2z M386.5,693.7h-1v12h1V693.7L386.5,693.7z M386.5,717.7h-1v12h1
			V717.7L386.5,717.7z M386.5,741.7h-1v12h1V741.7L386.5,741.7z M386.5,765.7h-1v2.4h1l0,0l0,0l0,0l0,0c2.9,0,5.7,0,8.6,0v-1h-8.6
			V765.7L386.5,765.7z M419.1,767.2h-12v1c4,0,8,0,12,0V767.2L419.1,767.2z M443.1,767.2h-12v1c4,0,8,0,12,0V767.2L443.1,767.2z
			 M467.1,767.2h-12v1c4,0,8,0,12,0V767.2L467.1,767.2z M491.1,767.2h-12v1c4,0,8,0,12,0V767.2L491.1,767.2z M515.1,767.2h-12v1
			c4,0,8,0,12,0V767.2L515.1,767.2z M539.1,767.2h-12v1c4,0,8,0,12,0V767.2L539.1,767.2z M563.1,767.2h-12v1c4,0,8,0,12,0V767.2
			L563.1,767.2z M587.1,767.2h-12v1c4,0,8,0,12,0V767.2L587.1,767.2z M611.1,767.2h-12v1c4,0,8,0,12,0V767.2L611.1,767.2z
			 M635.1,767.2h-12v1c4,0,8,0,12,0V767.2L635.1,767.2z M657,762.2c-2.6,2.4-5.9,4-10.2,4.9l0.2,1c1.9-0.4,3.5-0.9,5-1.5l0,0
			c0,0,0,0,0,0l0,0c0,0,0,0,0,0c0,0,0,0,0,0c0,0,0,0,0,0c0,0,0,0,0,0c0,0,0,0,0,0c0,0,0,0,0,0c0,0,0,0,0,0c0,0,0,0,0,0c0,0,0,0,0,0
			c0,0,0,0,0,0c0,0,0,0,0,0c0,0,0,0,0,0c0,0,0,0,0,0c0,0,0,0,0,0c0,0,0,0,0,0c0,0,0,0,0,0c0,0,0,0,0,0c0,0,0,0,0,0c0,0,0,0,0,0
			c0,0,0,0,0,0c0,0,0,0,0,0c0,0,0,0,0,0c0,0,0,0,0,0c0,0,0,0,0,0c0,0,0,0,0,0c0,0,0,0,0,0c0,0,0,0,0,0c0,0,0,0,0,0c0,0,0,0,0,0
			c0,0,0,0,0,0c0,0,0,0,0,0c0,0,0,0,0,0c0,0,0,0,0,0c0,0,0,0,0,0c0,0,0,0,0,0c0,0,0,0,0,0c0,0,0,0,0,0c0,0,0,0,0,0c0,0,0,0,0,0
			c0,0,0,0,0,0c0,0,0,0,0,0c0,0,0,0,0,0c0,0,0,0,0,0c0,0,0,0,0,0c0,0,0,0,0,0c0,0,0,0,0,0c0,0,0,0,0,0c0,0,0,0,0,0c0,0,0,0,0,0
			c0,0,0,0,0,0c0,0,0,0,0,0c0,0,0,0,0,0c0,0,0,0,0,0c0,0,0,0,0,0c0,0,0,0,0,0c0,0,0,0,0,0c0,0,0,0,0,0c0,0,0,0,0,0c0,0,0,0,0,0
			c0,0,0,0,0,0c0,0,0,0,0,0c0,0,0,0,0,0c0,0,0,0,0,0c0,0,0,0,0,0c0,0,0,0,0,0c0,0,0,0,0,0c0,0,0,0,0,0c0,0,0,0,0,0c0,0,0,0,0,0
			c0,0,0,0,0,0c0,0,0,0,0,0c0,0,0,0,0,0c0,0,0,0,0,0c0,0,0,0,0,0c0,0,0,0,0,0c0,0,0,0,0,0c0,0,0,0,0,0c0,0,0,0,0,0c0,0,0,0,0,0
			c0,0,0,0,0,0c0,0,0,0,0,0c0,0,0,0,0,0c0,0,0,0,0,0c0,0,0,0,0,0c0,0,0,0,0,0c0,0,0,0,0,0c0,0,0,0,0,0c0,0,0,0,0,0c0,0,0,0,0,0
			c0.1,0,0.1-0.1,0.2-0.1l0,0c0,0,0,0,0,0l0,0c0,0,0,0,0,0c0,0,0,0,0,0c0,0,0,0,0,0c0,0,0,0,0,0c0,0,0,0,0,0c0,0,0,0,0,0
			c0,0,0,0,0,0c0,0,0,0,0,0c0,0,0,0,0,0c0,0,0,0,0,0c0,0,0,0,0,0c0,0,0,0,0,0c0,0,0,0,0,0c0,0,0,0,0,0c0,0,0,0,0,0c0,0,0,0,0,0
			c0,0,0,0,0,0c0,0,0,0,0,0c0,0,0,0,0,0c0,0,0,0,0,0c0,0,0,0,0,0c0,0,0,0,0,0c0,0,0,0,0,0c0,0,0,0,0,0c0,0,0,0,0,0c0,0,0,0,0,0
			c0,0,0,0,0,0c0,0,0,0,0,0c0,0,0,0,0,0c0,0,0,0,0,0c0,0,0,0,0,0c0,0,0,0,0,0c0,0,0,0,0,0c0,0,0,0,0,0c0,0,0,0,0,0c0,0,0,0,0,0
			c0,0,0,0,0,0c0,0,0,0,0,0c0,0,0,0,0,0c0,0,0,0,0,0c0,0,0,0,0,0c0,0,0,0,0,0c0,0,0,0,0,0c0,0,0,0,0,0c0,0,0,0,0,0c0,0,0,0,0,0
			c0,0,0,0,0,0c0,0,0,0,0,0c0,0,0,0,0,0c0,0,0,0,0,0c0,0,0,0,0,0c0,0,0,0,0,0c0,0,0,0,0,0c0,0,0,0,0,0c0,0,0,0,0,0c0,0,0,0,0,0
			c0,0,0,0,0,0c0,0,0,0,0,0c0,0,0,0,0,0c0,0,0,0,0,0c0,0,0,0,0,0c0,0,0,0,0,0c0,0,0,0,0,0c0,0,0,0,0,0c0,0,0,0,0,0c0,0,0,0,0,0
			c0,0,0,0,0,0l0,0c0,0,0,0,0,0c0,0,0,0,0,0c0,0,0,0,0,0l0,0c0,0,0,0,0,0c0,0,0,0,0,0c1.1-0.6,2.1-1.3,3-2l0,0c0,0,0,0,0.1-0.1l0,0
			c0,0,0,0,0,0c0,0,0,0,0,0c0,0,0,0,0,0l0,0c0,0,0,0,0,0l0,0c0,0,0,0,0,0l0,0c0,0,0,0,0,0l0,0c0,0,0,0,0,0l0,0c0,0,0,0,0,0l0,0
			c0,0,0,0,0,0c0,0,0,0,0,0c0,0,0,0,0,0c0,0,0,0,0,0c0,0,0,0,0,0c0,0,0,0,0,0c0,0,0,0,0,0c0,0,0,0,0,0c0,0,0,0,0,0c0,0,0,0,0,0
			c0,0,0,0,0,0l0,0c0,0,0,0,0,0l0,0c0,0,0,0,0,0l0,0c0,0,0,0,0,0l0,0c0,0,0,0,0.1-0.1l0,0c0.1-0.1,0.2-0.2,0.4-0.3c0,0,0,0,0,0
			L657,762.2L657,762.2z M663.9,740.7c-0.1,4.8-0.6,8.5-1.4,11.7l1,0.3c0.9-3.6,1.3-7.6,1.5-11.9L663.9,740.7L663.9,740.7z
			 M664.5,716.7l-1,0.1c0.1,2.6,0.2,5.2,0.3,8.1c0,1,0,2,0.1,3l0,0.9l1,0c0-0.1,0-0.3,0-0.4c0-0.1,0-0.1,0-0.2c0-0.1,0-0.1,0-0.2
			c0-0.2,0-0.4,0-0.6c0,0,0,0,0,0c0,0,0,0,0,0c0-0.5,0-1,0-1.4c0,0,0,0,0,0c0,0,0,0,0,0c0-0.3,0-0.6,0-0.9c0-1.3-0.1-2.5-0.1-3.7
			c0,0,0,0,0,0c0,0,0,0,0-0.1c0,0,0,0,0,0c0,0,0,0,0,0c0,0,0,0,0,0c0,0,0,0,0,0c0,0,0,0,0,0c0,0,0,0,0,0c0,0,0,0,0,0c0,0,0,0,0-0.1
			c0,0,0,0,0,0c0,0,0,0,0,0c0,0,0,0,0,0c0,0,0,0,0,0c0,0,0,0,0-0.1c0,0,0,0,0,0c0-0.1,0-0.2,0-0.2l0,0
			C664.6,719.2,664.5,717.9,664.5,716.7L664.5,716.7z M656.2,695l-0.6,0.8c2.9,2.2,4.9,5.2,6.1,9.3l1-0.3c-0.3-0.9-0.6-1.8-0.9-2.6
			l0,0c0-0.1-0.1-0.1-0.1-0.2c0,0,0,0,0,0c0,0,0,0,0,0l0,0c0,0,0,0,0-0.1c0,0,0,0,0,0c0,0,0,0,0,0c0,0,0,0,0,0c0,0,0-0.1,0-0.1l0,0
			c0,0,0,0,0,0l0,0c0,0,0-0.1,0-0.1l0,0c0,0,0-0.1,0-0.1l0,0c0,0,0,0,0,0c0,0,0,0,0,0c0,0,0,0,0,0l0,0c0,0,0,0,0-0.1c0,0,0,0,0,0
			c0,0,0,0,0,0c0,0,0,0,0,0c0,0,0,0,0-0.1c0,0,0,0,0,0c0,0,0,0,0,0c0,0,0,0,0,0c0,0,0,0,0,0c0,0,0,0,0,0c0,0,0,0,0,0c0,0,0,0,0,0
			c0,0,0,0,0,0c0,0,0,0,0,0c0,0,0,0,0,0c0,0,0,0,0,0c0,0,0,0,0-0.1c0,0,0,0,0,0c0,0,0,0,0,0c0,0,0,0,0,0c0,0,0,0,0,0c0,0,0,0,0,0
			c0,0,0,0,0-0.1c0,0,0,0,0,0c0,0,0,0,0,0c0,0,0,0,0,0c0,0,0,0,0,0c0,0,0,0,0,0c0,0,0,0,0,0c0,0,0,0,0,0c0,0,0,0,0,0c0,0,0,0,0,0
			c0,0,0,0,0,0c0,0,0,0,0,0c0,0,0,0,0,0l0,0c0,0,0,0,0,0c0,0,0,0,0,0c0,0,0,0,0,0c0,0,0,0,0,0c0,0,0,0,0,0c0,0,0,0,0,0c0,0,0,0,0,0
			l0,0c0,0,0,0,0,0c0,0,0,0,0,0c0,0,0,0,0,0c0,0,0,0,0,0c0,0,0,0,0,0c0,0,0,0,0,0c0,0,0,0,0,0c0,0,0,0,0,0c0,0,0,0,0,0c0,0,0,0,0,0
			c0,0,0,0,0,0c0,0,0,0,0,0c0,0,0,0,0,0c0,0,0,0,0,0c0,0,0,0,0,0c0,0,0,0,0,0c0,0,0,0,0,0c0,0,0,0,0,0c0,0,0,0,0,0c0,0,0,0,0,0
			c0,0,0,0,0,0c0,0,0,0,0,0c0,0,0,0,0,0c0,0,0,0,0,0c0,0,0,0,0,0c0,0,0,0,0,0c0,0,0,0,0,0c0,0,0,0,0,0c0,0,0,0,0,0c0,0,0,0,0,0
			c0,0,0,0,0,0c0,0,0,0,0,0c0,0,0,0,0,0c0,0,0,0,0,0c0,0,0,0,0,0c0,0,0,0,0,0c0,0,0,0,0,0c0,0,0,0,0,0c0,0,0,0,0,0c0,0,0,0,0,0
			c0,0,0,0,0,0c0,0,0,0,0,0c0,0,0,0,0,0c0,0,0,0,0,0c0,0,0,0,0,0c0,0,0,0,0,0c0,0,0,0,0,0c0,0,0,0,0,0c0,0,0,0,0,0c0,0,0,0,0,0
			c0,0,0,0,0,0c0,0,0,0,0,0c0,0,0,0,0,0c0,0,0,0,0,0c0,0,0,0,0,0c0,0,0,0,0,0c0,0,0,0,0,0c0,0,0,0,0,0c0,0,0,0,0,0c0,0,0,0,0,0
			c0,0,0,0,0,0c0,0,0,0,0,0c0,0,0,0,0,0c0,0,0,0,0,0c0,0,0,0,0,0c0,0,0,0,0,0c0,0,0,0,0,0c0,0,0,0,0,0c0,0,0,0,0,0c0,0,0,0,0,0
			c0,0,0,0,0,0c0,0,0,0,0,0c0,0,0,0,0,0c0,0,0,0,0,0c0,0,0,0,0,0c0,0,0,0,0,0c0,0,0,0,0,0c0,0,0,0,0,0c0,0,0,0,0,0c0,0,0,0,0,0
			c0,0,0,0,0,0c0,0,0,0,0,0c0,0,0,0,0,0c0,0,0,0,0,0c0,0,0,0,0,0c0,0,0,0,0,0c0,0,0,0,0,0c0,0,0,0,0,0c0,0,0,0,0,0c0,0,0,0,0,0
			c0,0,0,0,0,0c0,0,0,0,0,0c0,0,0,0,0,0c0,0,0,0,0,0c0,0,0,0,0,0c0,0,0,0,0,0c0,0,0,0,0,0c0,0,0,0,0,0c0,0,0,0,0,0c0,0,0,0,0,0
			c0,0,0,0,0,0c0,0,0,0,0,0c0,0,0,0,0,0c0,0,0,0,0,0c0,0,0,0,0,0c0,0,0,0,0,0c0,0,0,0,0,0c0,0,0,0,0,0c0,0,0,0,0,0c0,0,0,0,0,0
			c0,0,0,0,0,0c0,0,0,0,0,0c0,0,0,0,0,0c0,0,0,0,0,0c0,0,0,0,0,0c0,0,0,0,0,0c0,0,0,0,0,0c0,0,0,0,0,0c0,0,0,0,0,0c0,0,0,0,0,0
			c0,0,0,0,0,0c0,0,0,0,0,0c0,0,0,0,0,0c0,0,0,0,0,0c0,0,0,0,0,0c0,0,0,0,0,0c0,0,0,0,0,0c0,0,0,0,0,0c0,0,0,0,0,0c0,0,0,0,0,0
			c0,0,0,0,0,0c0,0,0,0,0,0c0,0,0,0,0,0c0,0,0,0,0,0c0,0,0,0,0,0c0,0,0,0,0,0c0,0,0,0,0,0c0,0,0,0,0,0c0,0,0,0,0,0c0,0,0,0,0,0
			c0,0,0,0,0,0c0,0,0,0,0,0c0,0,0,0,0,0c0,0,0,0,0,0c0,0,0,0,0,0c0,0,0,0,0,0c0,0,0,0,0,0c0,0,0,0,0,0c0,0,0,0,0,0c0,0,0,0,0,0
			c0,0,0,0,0,0c0,0,0,0,0,0c0,0,0,0,0,0c0,0,0,0,0,0c0,0,0,0,0,0c0,0,0,0,0,0c0,0,0,0,0,0c0,0,0,0,0,0c0,0,0,0,0,0c0,0,0,0,0,0
			c0,0,0,0,0,0c0,0,0,0,0,0c0,0,0,0,0,0c0,0,0,0,0,0c0,0,0,0,0,0c0,0,0,0,0,0c0,0,0,0,0,0c0,0,0,0,0,0c0,0,0,0,0,0c0,0,0,0,0,0
			c0,0,0,0,0,0c0,0,0,0,0,0c0,0,0,0,0,0c0,0,0,0,0,0c0,0,0,0,0,0c0,0,0,0,0,0c0,0,0,0,0,0c0,0,0,0,0,0c0,0,0,0,0,0c0,0,0,0,0,0
			c0,0,0,0,0,0c0,0,0,0,0,0c0,0,0,0,0,0c0,0,0,0,0,0c0,0,0,0,0,0c0,0,0,0,0,0c0,0,0,0,0,0c0,0,0,0,0,0c0,0,0,0,0,0c0,0,0,0,0-0.1
			c0,0,0,0,0,0c0,0,0,0,0,0c0,0,0,0,0,0c0,0,0,0,0,0c0,0,0,0,0,0c0,0,0,0,0,0c0,0,0,0,0,0c0,0,0,0,0,0c0,0,0,0,0,0c0,0,0,0,0,0
			c0,0,0,0,0,0c0,0,0,0,0-0.1c0,0,0,0,0,0c0,0,0,0,0,0c0,0,0,0,0,0c0,0,0,0,0,0c0,0,0,0,0,0c0,0,0,0,0-0.1c0,0,0,0,0,0c0,0,0,0,0,0
			c0,0,0,0,0,0c0,0,0,0,0,0c0,0,0,0,0,0c0,0,0,0,0,0c0,0,0,0,0,0c0,0,0,0,0,0c0,0,0,0,0,0c0,0,0,0,0,0c0,0,0,0,0,0c0,0,0,0,0-0.1
			c0,0,0,0,0,0c0,0,0,0,0,0c0,0,0,0,0,0c0,0,0,0-0.1-0.1c0,0,0,0,0,0c0,0,0,0,0,0c0,0,0,0,0,0c0,0,0,0-0.1-0.1c0,0,0,0,0,0
			c0,0,0,0-0.1-0.1l0,0c0,0,0,0,0,0c0,0,0,0,0,0c0,0,0,0-0.1-0.1c0,0,0,0,0,0c0,0,0,0,0,0l0,0c0,0,0,0-0.1-0.1c0,0,0,0,0,0
			C658.4,697,657.4,695.9,656.2,695L656.2,695z"/>
	</g>
	<g>
		<polygon class="st0" points="329.8,815.5 329.8,643.9 388.6,689.9 388.6,768.5 		"/>
		<path d="M329.8,643.9v12h1v-11.2L329.8,643.9L329.8,643.9z M330.8,667.9h-1v12h1V667.9L330.8,667.9z M330.8,691.9h-1v12h1V691.9
			L330.8,691.9z M330.8,715.9h-1v12h1V715.9L330.8,715.9z M330.8,739.9h-1v12h1V739.9L330.8,739.9z M330.8,763.9h-1v12h1V763.9
			L330.8,763.9z M330.8,787.9h-1v12h1V787.9L330.8,787.9z M335.8,809.4l-5,4v-1.5h-1c0,0,0,1.3,0,2.3l0,0v1.3l0,0l0,0l0,0l0,0l0,0
			l0,0l0,0l1-0.8l0,0c1.8-1.5,5.6-4.5,5.6-4.5L335.8,809.4L335.8,809.4z M354.5,794.4l-9.4,7.5l0.6,0.8l6.3-5c0,0,0,0,0,0l0,0
			c0,0,0,0,0,0l0,0c1.7-1.3,3-2.4,3-2.4L354.5,794.4L354.5,794.4z M373.3,779.4l-9.4,7.5l0.6,0.8l0,0c0,0,0.1-0.1,0.4-0.3l0,0
			c0.1-0.1,0.3-0.2,0.5-0.4l0,0c0.1-0.1,0.2-0.1,0.3-0.2l0,0c0,0,0.1-0.1,0.2-0.1l0,0c0,0,0.1-0.1,0.1-0.1l0,0c0,0,0,0,0,0l0,0
			c0.1,0,0.1-0.1,0.2-0.1l0,0c0.1,0,0.1-0.1,0.2-0.1l0,0c0.1-0.1,0.2-0.1,0.3-0.2l0,0c0,0,0.1,0,0.1-0.1l0,0c0,0,0,0,0,0l0,0
			c0,0,0,0,0,0l0,0c0,0,0.1,0,0.1-0.1l0,0c0,0,0.1,0,0.1-0.1l0,0c0.1-0.1,0.1-0.1,0.2-0.2l0,0c0,0,0,0,0,0l0,0c0,0,0,0,0,0l0,0
			c0,0,0,0,0,0l0,0c0,0,0,0,0,0l0,0c0,0,0,0,0,0l0,0c0,0,0,0,0,0l0,0c0,0,0,0,0,0l0,0c0,0,0,0,0,0l0,0c0,0,0,0,0,0l0,0c0,0,0,0,0,0
			l0,0c0,0,0,0,0,0l0,0c0,0,0,0,0,0l0,0c0,0,0,0,0,0l0,0c0,0,0,0,0,0l0.1,0c0,0,0,0,0,0l0,0c0,0,0,0,0,0l0,0c0,0,0,0,0,0l0,0
			c0,0,0,0,0,0l0,0c0,0,0,0,0,0l0,0c0,0,0,0,0,0l0,0c0,0,0,0,0,0l0,0c0,0,0,0,0,0l0,0c0,0,0,0,0,0l0,0c0,0,0,0,0,0l0,0c0,0,0,0,0,0
			l0,0c0,0,0,0,0,0l0,0c0,0,0,0,0,0l0,0l0,0l0.1,0c0,0,0,0,0,0l0,0c0,0,0,0,0,0l0,0c0,0,0,0,0,0l0,0c0,0,0.1,0,0.1-0.1l0,0
			c0,0,0,0,0,0l0,0c0,0,0,0,0,0l0,0c0,0,0,0,0,0l0,0c0,0,0,0,0,0l0,0c0,0,0,0,0,0l0,0c0,0,0,0,0,0l0,0c0,0,0,0,0,0l0.1-0.1
			c0,0,0,0,0,0l0,0c0,0,0,0,0,0l0,0c0,0,0,0,0,0l0,0c0,0,0,0,0,0l0.1,0c0,0,0,0,0,0l0,0c0,0,0,0,0,0l0,0c0,0,0,0,0,0l0,0
			c0,0,0,0,0,0l0,0c0,0,0,0,0,0l0,0c0,0,0,0,0,0l0,0c0,0,0,0,0,0l0,0c0,0,0,0,0,0l0,0c0,0,0,0,0,0l0.1-0.1c0,0,0,0,0,0l0.1-0.1
			c0,0,0,0,0,0l0,0c0,0,0,0,0,0l0.6-0.4c0,0,0,0,0,0l0,0c0,0,0,0,0,0l0,0l0,0l0.1-0.1c0,0,0,0,0,0l0.3-0.2l0,0l0.1-0.1c0,0,0,0,0,0
			l0,0c0,0,0,0,0,0l0,0c0,0,0,0,0,0l0.3-0.2c0,0,0,0,0,0l0,0c0,0,0,0,0,0l0,0l0,0l0,0c0,0,0,0,0,0l0,0c0,0,0,0,0,0l0.1-0.1
			c0,0,0,0,0,0l0,0c0,0,0,0,0,0l0.1,0c0,0,0,0,0,0l3.5-2.8L373.3,779.4L373.3,779.4z M388.6,763.3h-1v4.7l-4.9,4l0.6,0.8l4.7-3.8
			c0,0,0,0,0,0l0,0l0,0l0,0c0,0,0,0,0,0l0,0c0,0,0,0,0,0l0,0c0,0,0,0,0,0l0,0c0,0,0,0,0,0l0,0c0,0,0,0,0,0l0,0c0,0,0,0,0,0l0,0
			c0,0,0,0,0,0l0,0c0,0,0,0,0,0l0,0c0,0,0,0,0,0l0,0c0,0,0,0,0,0l0,0c0,0,0,0,0,0l0,0c0,0,0,0,0,0l0,0c0,0,0,0,0,0l0,0c0,0,0,0,0,0
			l0,0c0,0,0,0,0,0l0,0c0,0,0,0,0,0l0,0c0,0,0,0,0,0l0,0c0,0,0,0,0,0l0,0c0,0,0,0,0,0l0,0c0,0,0,0,0,0l0,0c0,0,0,0,0,0l0,0
			c0,0,0,0,0,0l0,0c0,0,0,0,0,0l0,0c0,0,0,0,0,0l0,0c0,0,0,0,0,0l0,0c0,0,0,0,0,0l0,0c0,0,0,0,0,0l0,0c0,0,0,0,0,0l0,0
			c0.1-0.1,0.2-0.1,0.2-0.1l0,0l0,0l0,0l0,0l0,0l0,0l0,0l0,0l0,0l0,0l0,0l0,0l0,0V763.3L388.6,763.3z M388.6,739.3h-1v12h1V739.3
			L388.6,739.3z M388.6,715.3h-1v12h1V715.3L388.6,715.3z M388.6,691.3h-1v12h1V691.3L388.6,691.3z M370.8,676l-0.6,0.8l9.5,7.4
			l0.6-0.8L370.8,676L370.8,676z M351.9,661.2l-0.6,0.8l9.5,7.4l0.6-0.8l-0.2-0.1c0,0,0,0,0,0l0,0c0,0,0,0,0,0l0,0c0,0,0,0,0,0l0,0
			c0,0,0,0,0,0l-0.1-0.1c0,0,0,0,0,0l0,0c0,0,0,0,0,0l0,0c0,0,0,0,0,0l0,0c0,0,0,0,0,0l0,0c0,0,0,0,0,0l-0.2-0.1c0,0,0,0,0,0l0,0
			c0,0,0,0,0,0l0,0c0,0,0,0,0,0l0,0c0,0,0,0,0,0l0,0c0,0,0,0,0,0l0,0c0,0,0,0,0,0l0,0l0,0l0,0c0,0,0,0,0,0l0,0c0,0,0,0,0,0l0,0
			c0,0,0,0,0,0l0,0c0,0,0,0,0,0l0,0c0,0,0,0,0,0l0,0c0,0,0,0,0,0l0,0c0,0,0,0,0,0l0,0c0,0,0,0,0,0l0,0c0,0,0,0,0,0l0,0c0,0,0,0,0,0
			l0,0c0,0,0,0,0,0l0,0c0,0,0,0,0,0l0,0c0,0,0,0,0,0l0,0c0,0,0,0,0,0l0,0c0,0,0,0,0,0l0,0c0,0,0,0,0,0l0,0c0,0,0,0,0,0l0,0
			c0,0,0,0,0,0l0,0c0,0,0,0,0,0l0,0c0,0-0.1-0.1-0.1-0.1l0,0c0,0-0.1-0.1-0.2-0.1l0,0c0,0-0.1,0-0.1-0.1l0,0c0,0-0.1,0-0.1-0.1l0,0
			C357.2,665.3,351.9,661.2,351.9,661.2L351.9,661.2z M333,646.4l-0.6,0.8l9.5,7.4l0.6-0.8L333,646.4L333,646.4z"/>
	</g>
	<rect x="702.1" y="691.2" width="46.6" height="76.9"/>
	<g>
		<g>
			<path class="st4" d="M573.9,875.2h-61.2c-1,0-1.8-0.8-1.8-1.8l0,0c0-1,0.8-1.8,1.8-1.8h61.2c1,0,1.8,0.8,1.8,1.8l0,0
				C575.6,874.4,574.8,875.2,573.9,875.2z"/>
		</g>
		<g>
			<path class="st4" d="M573.9,588.7h-61.2c-1,0-1.8-0.8-1.8-1.8l0,0c0-1,0.8-1.8,1.8-1.8h61.2c1,0,1.8,0.8,1.8,1.8l0,0
				C575.6,587.9,574.8,588.7,573.9,588.7z"/>
		</g>
	</g>
	<g>
		<path class="st4" d="M689,760.3v-61.2c0-1,0.8-1.8,1.8-1.8l0,0c1,0,1.8,0.8,1.8,1.8v61.2c0,1-0.8,1.8-1.8,1.8l0,0
			C689.8,762.1,689,761.3,689,760.3z"/>
	</g>
	<rect x="335.1" y="691.2" width="46.6" height="76.9"/>
</g>
<rect x="438" y="258.7" class="st1" width="22" height="86.6"/>
<rect x="434.4" y="334.1" class="st1" width="29.2" height="68"/>
<g>
	<path class="st0" d="M333.6,517.9c-1.9,0-3.5-1.6-3.5-3.5v-51.6c0-1.9,1.6-3.5,3.5-3.5h419.4c1.9,0,3.5,1.6,3.5,3.5v51.6
		c0,1.9-1.6,3.5-3.5,3.5H333.6z"/>
	<path d="M752.9,459.8c1.7,0,3,1.3,3,3v51.6c0,1.7-1.3,3-3,3H333.6c-1.7,0-3-1.3-3-3v-51.6c0-1.7,1.3-3,3-3H752.9 M752.9,458.8
		H333.6c-2.2,0-4,1.8-4,4v51.6c0,2.2,1.8,4,4,4h419.4c2.2,0,4-1.8,4-4v-51.6C756.9,460.6,755.1,458.8,752.9,458.8L752.9,458.8z"/>
</g>
<g>
	<path d="M335.1,514.6c-3.3,0-6-2.7-6-6v-24.3c0-3.3,2.7-6,6-6h416.2c3.3,0,6,2.7,6,6v24.3c0,3.3-2.7,6-6,6H335.1z"/>
	<path d="M751.3,482.3c1.1,0,2,0.9,2,2v24.3c0,1.1-0.9,2-2,2H335.1c-1.1,0-2-0.9-2-2v-24.3c0-1.1,0.9-2,2-2H751.3 M751.3,474.3
		H335.1c-5.5,0-10,4.5-10,10v24.3c0,5.5,4.5,10,10,10h416.2c5.5,0,10-4.5,10-10v-24.3C761.3,478.8,756.8,474.3,751.3,474.3
		L751.3,474.3z"/>
</g>
<g>
	<rect x="474.5" y="306.5" class="st1" width="4.8" height="36.9"/>
	<rect x="473.7" y="269.1" class="st1" width="6.4" height="44.2"/>
	<rect x="472.6" y="242.8" class="st1" width="8.5" height="38.6"/>
</g>
<g>
	<g>
		<path class="st0" d="M377.2,288.6c-8.5,0-15.4-11.6-15.4-25.8c0-14.2,6.9-25.8,15.4-25.8c8.5,0,15.4,11.6,15.4,25.8
			C392.6,277,385.7,288.6,377.2,288.6z"/>
		<path d="M377.2,237.5c8.2,0,14.9,11.4,14.9,25.3c0,14-6.7,25.3-14.9,25.3s-14.9-11.4-14.9-25.3
			C362.2,248.8,368.9,237.5,377.2,237.5 M377.2,236.5c-8.8,0-15.9,11.8-15.9,26.3s7.1,26.3,15.9,26.3s15.9-11.8,15.9-26.3
			S386,236.5,377.2,236.5L377.2,236.5z"/>
	</g>
	<g>
		<rect x="375.7" y="237.1" class="st0" width="87.5" height="50.8"/>
		<path d="M462.7,237.6v49.8h-86.5v-49.8H462.7 M463.7,236.6h-88.5v51.8h88.5V236.6L463.7,236.6z"/>
	</g>
</g>
<path class="st5" d="M439.8,329.4c1.3-11.1-22.3-24-23.5-40.4"/>
<path class="st5" d="M439.8,329.4c-9.1-9.8-14.5-31.4-23.5-40.4"/>
<rect x="375.4" y="288.5" class="st1" width="86.2" height="5.7"/>
<rect x="381" y="287.2" class="st1" width="34.8" height="4.1"/>
<rect x="436.5" y="288.7" class="st1" width="25" height="5.7"/>
<g>
	<rect x="492.5" y="270.5" class="st1" width="4.8" height="36.9"/>
	<rect x="491.7" y="253.1" class="st1" width="6.4" height="44.2"/>
	<rect x="490.6" y="242.8" class="st1" width="8.5" height="38.6"/>
</g>
<rect x="497.3" y="338.7" class="st1" width="32.4" height="3.1"/>
<rect x="433.7" y="283.5" class="st1" width="30.5" height="4.9"/>
<g>
	<rect x="481.6" y="242.8" class="st1" width="8.5" height="38.6"/>
	<rect x="482.7" y="266.1" class="st1" width="6.4" height="10.1"/>
	<rect x="483.5" y="269.5" class="st1" width="4.8" height="5.1"/>
	<rect x="508.1" y="270.8" class="st1" width="32.6" height="2.6"/>
	<rect x="488.1" y="270.5" class="st1" width="32.4" height="3.1"/>
</g>
<rect x="500.3" y="339" class="st1" width="32.4" height="2.6"/>
<rect x="479.3" y="338.7" class="st1" width="32.4" height="3.1"/>
<rect x="500.3" y="304" class="st1" width="32.4" height="2.6"/>
<rect x="497.4" y="303.7" class="st1" width="32.4" height="3.1"/>
<g>
	<g>
		<g>
			<path class="st0" d="M672.4,509.1h-8.8c-2.2,0-4-1.8-4-4v-17.4c0-2.2,1.8-4,4-4h8.8c2.2,0,4,1.8,4,4v17.4
				C676.4,507.3,674.6,509.1,672.4,509.1z"/>
		</g>
		<g>
			<path class="st0" d="M622.8,509.1h-8.8c-2.2,0-4-1.8-4-4v-17.4c0-2.2,1.8-4,4-4h8.8c2.2,0,4,1.8,4,4v17.4
				C626.8,507.3,625,509.1,622.8,509.1z"/>
		</g>
	</g>
	<g>
		<rect x="636.8" y="489.9" class="st0" width="12.8" height="13"/>
		
			<image style="overflow:visible;" width="1600" height="1600" xlink:href="../../../Downloads/qr.png"  transform="matrix(8.060831e-03 0 0 8.060831e-03 636.7884 489.9758)">
		</image>
	</g>
</g>
<g>
	<g>
		<g>
			<path class="st0" d="M472.4,509.1h-8.8c-2.2,0-4-1.8-4-4v-17.4c0-2.2,1.8-4,4-4h8.8c2.2,0,4,1.8,4,4v17.4
				C476.4,507.3,474.6,509.1,472.4,509.1z"/>
		</g>
		<g>
			<path class="st0" d="M422.8,509.1h-8.8c-2.2,0-4-1.8-4-4v-17.4c0-2.2,1.8-4,4-4h8.8c2.2,0,4,1.8,4,4v17.4
				C426.8,507.3,425,509.1,422.8,509.1z"/>
		</g>
	</g>
	<g>
		<rect x="436.8" y="489.9" class="st0" width="12.8" height="13"/>
		
			<image style="overflow:visible;" width="1600" height="1600" xlink:href="../../../Downloads/qr.png"  transform="matrix(8.060831e-03 0 0 8.060831e-03 436.7882 489.9758)">
		</image>
	</g>
</g>
<rect x="366.6" y="723.4" class="st1" width="132.4" height="12.5"/>
<g>
	<g>
		<path class="st0" d="M444.3,751.4c-4.3,0-7.8-3.5-7.8-7.8v-27.9c0-4.3,3.5-7.8,7.8-7.8h145.4c4.3,0,7.8,3.5,7.8,7.8v27.9
			c0,4.3-3.5,7.8-7.8,7.8H444.3z"/>
		<path d="M589.7,708.1c4.2,0,7.6,3.4,7.6,7.6v27.9c0,4.2-3.4,7.6-7.6,7.6H444.3c-4.2,0-7.6-3.4-7.6-7.6v-27.9
			c0-4.2,3.4-7.6,7.6-7.6H589.7 M589.7,707.7H444.3c-4.4,0-8,3.6-8,8v27.9c0,4.4,3.6,8,8,8h145.4c4.4,0,8-3.6,8-8v-27.9
			C597.7,711.3,594.1,707.7,589.7,707.7L589.7,707.7z"/>
	</g>
	<g>
		<defs>
			<path id="SVGID_1_" d="M589.7,751.6H444.3c-4.4,0-8-3.6-8-8v-27.9c0-4.4,3.6-8,8-8h145.4c4.4,0,8,3.6,8,8v27.9
				C597.7,748,594.1,751.6,589.7,751.6z"/>
		</defs>
		<clipPath id="SVGID_2_">
			<use xlink:href="#SVGID_1_"  style="overflow:visible;"/>
		</clipPath>
		<g class="st6">
			<g>
				<line class="st7" x1="411.7" y1="700.2" x2="411.7" y2="759.4"/>
			</g>
			<g>
				<line class="st7" x1="420.6" y1="700.2" x2="420.6" y2="759.4"/>
			</g>
			<g>
				<line class="st7" x1="429.5" y1="700.2" x2="429.5" y2="759.4"/>
			</g>
			<g>
				<line class="st7" x1="438.5" y1="700.2" x2="438.5" y2="759.4"/>
			</g>
			<g>
				<line class="st7" x1="447.4" y1="700.2" x2="447.4" y2="759.4"/>
			</g>
			<g>
				<line class="st7" x1="456.3" y1="700.2" x2="456.3" y2="759.4"/>
			</g>
			<g>
				<line class="st7" x1="465.3" y1="700.2" x2="465.3" y2="759.4"/>
			</g>
			<g>
				<line class="st7" x1="474.2" y1="700.2" x2="474.2" y2="759.4"/>
			</g>
			<g>
				<line class="st7" x1="483.1" y1="700.2" x2="483.1" y2="759.4"/>
			</g>
			<g>
				<line class="st7" x1="492.1" y1="700.2" x2="492.1" y2="759.4"/>
			</g>
			<g>
				<line class="st7" x1="501" y1="700.2" x2="501" y2="759.4"/>
			</g>
			<line class="st7" x1="402.8" y1="700.2" x2="402.8" y2="759.4"/>
			<g>
				<line class="st7" x1="393.8" y1="700.2" x2="393.8" y2="759.4"/>
			</g>
			<g>
				<line class="st7" x1="527.8" y1="700.2" x2="527.8" y2="759.4"/>
			</g>
			<g>
				<line class="st7" x1="536.7" y1="700.2" x2="536.7" y2="759.4"/>
			</g>
			<g>
				<line class="st7" x1="545.6" y1="700.2" x2="545.6" y2="759.4"/>
			</g>
			<g>
				<line class="st7" x1="554.6" y1="700.2" x2="554.6" y2="759.4"/>
			</g>
			<g class="st8">
				<line class="st9" x1="494.8" y1="688.2" x2="494.8" y2="747.4"/>
			</g>
			<g class="st8">
				<line class="st9" x1="500.1" y1="688.2" x2="500.1" y2="747.4"/>
			</g>
			<g class="st8">
				<line class="st9" x1="505.4" y1="688.2" x2="505.4" y2="747.4"/>
			</g>
			<g class="st8">
				<line class="st9" x1="510.7" y1="688.2" x2="510.7" y2="747.4"/>
			</g>
			<g>
				<line class="st7" x1="563.5" y1="700.2" x2="563.5" y2="759.4"/>
			</g>
			<g>
				<line class="st7" x1="572.4" y1="700.2" x2="572.4" y2="759.4"/>
			</g>
			<line class="st7" x1="518.8" y1="700.2" x2="518.8" y2="759.4"/>
			<g>
				<line class="st7" x1="509.9" y1="700.2" x2="509.9" y2="759.4"/>
			</g>
			<g>
				<line class="st7" x1="581.3" y1="700.2" x2="581.3" y2="759.4"/>
			</g>
			<g>
				<line class="st7" x1="590.3" y1="700.2" x2="590.3" y2="759.4"/>
			</g>
			<g>
				<line class="st7" x1="599.2" y1="700.2" x2="599.2" y2="759.4"/>
			</g>
			<g>
				<line class="st7" x1="608.1" y1="700.2" x2="608.1" y2="759.4"/>
			</g>
			<g>
				<line class="st7" x1="617.1" y1="700.2" x2="617.1" y2="759.4"/>
			</g>
			<g>
				<line class="st7" x1="626" y1="700.2" x2="626" y2="759.4"/>
			</g>
			<g>
				<line class="st7" x1="634.9" y1="700.2" x2="634.9" y2="759.4"/>
			</g>
			<g>
				<line class="st7" x1="643.9" y1="700.2" x2="643.9" y2="759.4"/>
			</g>
		</g>
	</g>
</g>
<g>
	<rect x="1009.4" y="402.1" class="st1" width="35.2" height="56.7"/>
	<rect x="1016" y="258.7" class="st1" width="22" height="86.6"/>
	<rect x="1012.4" y="334.1" class="st1" width="29.2" height="68"/>
	<rect x="1014.5" y="288.7" class="st1" width="25" height="5.7"/>
	<rect x="1011.7" y="283.5" class="st1" width="30.5" height="4.9"/>
</g>
<g>
	<path class="st0" d="M963.1,504.5c-0.6,0-1.2-1.1-1.2-2.6v-39.8c0-1.5,0.6-2.6,1.2-2.6h0.2l0.1-0.1c20.3-15.4,41.7-23.2,63.6-23.2
		l0.2,0c21.8,0.1,43.1,7.9,63.3,23.2l0.1,0.1l0.2,0c0.1,0,0.4,0,0.7,0.6c0.3,0.5,0.4,1.2,0.4,1.9v39.8c0,1.5-0.6,2.6-1.2,2.6H963.1z
		"/>
	<path d="M1027,435.7v1l0.2,0c21.7,0.1,42.9,7.8,63,23.1l0.2,0.2l0.3,0c0,0,0.2,0.1,0.3,0.4c0.2,0.4,0.4,1.1,0.4,1.7v39.8
		c0,1.3-0.5,2-0.7,2.1l-127.7,0c-0.2-0.1-0.7-0.8-0.7-2.1v-39.8c0-1.3,0.5-2,0.7-2.1h0.3l0.3-0.2c20.2-15.3,41.5-23.1,63.3-23.1
		V435.7 M1027,435.7c-28.6,0-50.9,13.5-63.9,23.3c-0.9,0-1.7,1.4-1.7,3.1v39.8c0,1.7,0.8,3.1,1.7,3.1h127.7c0.9,0,1.7-1.4,1.7-3.1
		v-39.8c0-0.8-0.2-1.6-0.5-2.2c-0.5-0.9-1.1-0.9-1.2-0.9c-12.9-9.8-35.2-23.2-63.6-23.3C1027.1,435.7,1027.1,435.7,1027,435.7
		L1027,435.7z"/>
</g>
<rect x="499.2" y="725.7" class="st1" width="9.1" height="7.8"/>
<g>
	<rect x="474.5" y="668" class="st1" width="4.8" height="36.9"/>
	<rect x="473.7" y="686.6" class="st1" width="6.4" height="44.2"/>
	<rect x="472.6" y="710.3" class="st1" width="8.5" height="38.6"/>
</g>
<g>
	<rect x="492.5" y="738" class="st1" width="4.8" height="36.9"/>
	<rect x="491.7" y="720.6" class="st1" width="6.4" height="44.2"/>
	<rect x="490.6" y="710.3" class="st1" width="8.5" height="38.6"/>
</g>
<g>
	<rect x="481.6" y="710.3" class="st1" width="8.5" height="38.6"/>
	<rect x="482.7" y="733.6" class="st1" width="6.4" height="10.1"/>
	<rect x="483.5" y="737" class="st1" width="4.8" height="5.1"/>
	<rect x="508.1" y="738.3" class="st1" width="32.6" height="2.6"/>
	<rect x="488.1" y="738" class="st1" width="32.4" height="3.1"/>
	<rect x="508.1" y="770" class="st1" width="32.6" height="2.6"/>
	<rect x="497.3" y="769.8" class="st1" width="32.4" height="3.1"/>
	<rect x="508.1" y="670.3" class="st1" width="32.6" height="2.6"/>
	<rect x="479.5" y="670" class="st1" width="32.4" height="3.1"/>
</g>
<rect x="443" y="721.5" transform="matrix(-1.836970e-16 1 -1 -1.836970e-16 1180.9048 278.4471)" class="st1" width="16.4" height="16.4"/>
<g>
	<path class="st0" d="M874.7,517.9c-1.9,0-3.5-1.6-3.5-3.5v-51.6c0-1.9,1.6-3.5,3.5-3.5h304.5c1.9,0,3.5,1.6,3.5,3.5v51.6
		c0,1.9-1.6,3.5-3.5,3.5H874.7z"/>
	<path d="M1179.2,459.8c1.7,0,3,1.3,3,3v51.6c0,1.7-1.3,3-3,3H874.7c-1.7,0-3-1.3-3-3v-51.6c0-1.7,1.3-3,3-3H1179.2 M1179.2,458.8
		H874.7c-2.2,0-4,1.8-4,4v51.6c0,2.2,1.8,4,4,4h304.5c2.2,0,4-1.8,4-4v-51.6C1183.2,460.6,1181.4,458.8,1179.2,458.8L1179.2,458.8z"
		/>
</g>
<circle class="st10" cx="1027" cy="262.5" r="25.7"/>
<g>
	<path d="M877.5,514.6c-3.3,0-6-2.7-6-6v-24.3c0-3.3,2.7-6,6-6h299c3.3,0,6,2.7,6,6v24.3c0,3.3-2.7,6-6,6H877.5z"/>
	<path d="M1176.5,482.3c1.1,0,2,0.9,2,2v24.3c0,1.1-0.9,2-2,2h-299c-1.1,0-2-0.9-2-2v-24.3c0-1.1,0.9-2,2-2H1176.5 M1176.5,474.3
		h-299c-5.5,0-10,4.5-10,10v24.3c0,5.5,4.5,10,10,10h299c5.5,0,10-4.5,10-10v-24.3C1186.5,478.8,1182,474.3,1176.5,474.3
		L1176.5,474.3z"/>
</g>
<g>
	<g>
		<g>
			<path class="st0" d="M1056.2,509.1h-8.8c-2.2,0-4-1.8-4-4v-17.4c0-2.2,1.8-4,4-4h8.8c2.2,0,4,1.8,4,4v17.4
				C1060.2,507.3,1058.4,509.1,1056.2,509.1z"/>
		</g>
		<g>
			<path class="st0" d="M1006.6,509.1h-8.8c-2.2,0-4-1.8-4-4v-17.4c0-2.2,1.8-4,4-4h8.8c2.2,0,4,1.8,4,4v17.4
				C1010.6,507.3,1008.8,509.1,1006.6,509.1z"/>
		</g>
	</g>
	<g>
		<rect x="1020.6" y="489.9" class="st0" width="12.8" height="13"/>
		
			<image style="overflow:visible;" width="1600" height="1600" xlink:href="../../../Downloads/qr.png"  transform="matrix(8.060831e-03 0 0 8.060831e-03 1020.5355 489.9758)">
		</image>
	</g>
</g>
<g>
	<g>
		<circle class="st0" cx="953" cy="496.4" r="2.5"/>
		<circle class="st0" cx="961.5" cy="496.4" r="2.5"/>
	</g>
	<g>
		<circle class="st0" cx="1092.5" cy="496.4" r="2.5"/>
		<circle class="st0" cx="1100.9" cy="496.4" r="2.5"/>
	</g>
</g>
<g>
	<g>
		<circle class="st0" cx="569.3" cy="496.4" r="2.5"/>
		<circle class="st0" cx="577.8" cy="496.4" r="2.5"/>
	</g>
	<g>
		<circle class="st0" cx="708.7" cy="496.4" r="2.5"/>
		<circle class="st0" cx="717.2" cy="496.4" r="2.5"/>
	</g>
</g>
<g>
	<g>
		<circle class="st0" cx="370.4" cy="496.4" r="2.5"/>
		<circle class="st0" cx="378.9" cy="496.4" r="2.5"/>
	</g>
	<g>
		<circle class="st0" cx="509.9" cy="496.4" r="2.5"/>
		<circle class="st0" cx="518.4" cy="496.4" r="2.5"/>
	</g>
</g>
<g>
	<circle class="st0" cx="902.2" cy="496.4" r="13.6"/>
	<circle class="st10" cx="902.2" cy="496.4" r="10.5"/>
</g>
<g>
	<circle class="st0" cx="1155.1" cy="496.4" r="13.6"/>
	<circle class="st10" cx="1155.1" cy="496.4" r="10.5"/>
</g>
<g>
	<g>
		<path class="st0" d="M377.2,755.4c-8.5,0-15.4-11.6-15.4-25.8s6.9-25.8,15.4-25.8c8.5,0,15.4,11.6,15.4,25.8
			S385.7,755.4,377.2,755.4z"/>
		<path d="M377.2,704.3c8.2,0,14.9,11.4,14.9,25.3c0,14-6.7,25.3-14.9,25.3s-14.9-11.4-14.9-25.3
			C362.2,715.7,368.9,704.3,377.2,704.3 M377.2,703.3c-8.8,0-15.9,11.8-15.9,26.3s7.1,26.3,15.9,26.3s15.9-11.8,15.9-26.3
			S386,703.3,377.2,703.3L377.2,703.3z"/>
	</g>
	<g>
		<rect x="375.7" y="703.9" class="st0" width="87.5" height="50.8"/>
		<path d="M462.7,704.4v49.8h-86.5v-49.8H462.7 M463.7,703.4h-88.5v51.8h88.5V703.4L463.7,703.4z"/>
	</g>
</g>
<g>
	
		<rect x="1057.5" y="280.2" transform="matrix(0.7562 -0.6544 0.6544 0.7562 63.0055 766.3663)" class="st1" width="4.8" height="36.9"/>
	
		<rect x="1040.2" y="254.2" transform="matrix(0.7562 -0.6544 0.6544 0.7562 71.3838 750.9307)" class="st1" width="6.4" height="50.9"/>
	<circle class="st1" cx="1069.7" cy="309.9" r="1.3"/>
</g>
<g>
	
		<rect x="988.2" y="270.2" transform="matrix(0.5983 0.8012 -0.8012 0.5983 629.1404 -677.7882)" class="st1" width="4.8" height="36.9"/>
	
		<rect x="1003.7" y="250.9" transform="matrix(0.5983 0.8012 -0.8012 0.5983 625.8256 -695.7769)" class="st1" width="6.4" height="50.9"/>
	<circle class="st1" cx="978.6" cy="297.6" r="1.3"/>
</g>
<g>
	
		<rect x="1004.6" y="301.7" transform="matrix(0.9457 0.3251 -0.3251 0.9457 158.7532 -309.9652)" class="st1" width="4.8" height="36.9"/>
	
		<rect x="1015.8" y="259.6" transform="matrix(0.9457 0.3251 -0.3251 0.9457 148.0044 -315.7907)" class="st1" width="6.4" height="50.9"/>
	<circle class="st1" cx="1002.1" cy="334.2" r="1.3"/>
</g>
<g>
	<circle class="st1" cx="1027" cy="262.1" r="20.1"/>
	<circle class="st1" cx="1027" cy="262.1" r="6"/>
</g>
</svg>
