<?xml version="1.0" encoding="utf-8"?>
<!-- Generator: Adobe Illustrator 23.0.1, SVG Export Plug-In . SVG Version: 6.00 Build 0)  -->
<svg version="1.1" id="Layer_1" xmlns="http://www.w3.org/2000/svg" xmlns:xlink="http://www.w3.org/1999/xlink" x="0px" y="0px"
	 viewBox="0 0 1920 1080" style="enable-background:new 0 0 1920 1080;" xml:space="preserve">
<style type="text/css">
	.st0{fill:#FFFFFF;}
	.st1{fill:#00FF00;}
	.st2{fill:#FCEE21;}
	.st3{fill:none;stroke:#000000;stroke-miterlimit:10;}
	.st4{fill:#FFFFFF;stroke:#000000;stroke-miterlimit:10;}
	.st5{fill:#FFFFFF;stroke:#000000;stroke-width:0.3;stroke-miterlimit:10;}
	.st6{fill:#FF0000;}
	.st7{fill:#E6E6E6;stroke:#000000;stroke-width:0.3;stroke-miterlimit:10;}
	.st8{fill:none;stroke:#000000;stroke-width:0.3;stroke-miterlimit:10;}
	.st9{fill:none;stroke:#000000;stroke-width:8;stroke-linecap:round;stroke-linejoin:round;stroke-miterlimit:10;}
	.st10{font-family:'MyriadPro-Regular';}
	.st11{font-size:12px;}
	.st12{fill:none;stroke:#000000;stroke-miterlimit:10;stroke-dasharray:12;}
</style>
<g>
	<path class="st0" d="M246.1,265.5c-5.2,0-9.5-4.3-9.5-9.5v-20.8c0-5.2,4.3-9.5,9.5-9.5h616c5.2,0,9.5,4.3,9.5,9.5V256
		c0,5.2-4.3,9.5-9.5,9.5H246.1z"/>
	<path d="M862.1,226.1c5,0,9,4,9,9V256c0,5-4,9-9,9h-616c-5,0-9-4-9-9v-20.8c0-5,4-9,9-9H862.1 M862.1,225.1h-616
		c-5.5,0-10,4.5-10,10V256c0,5.5,4.5,10,10,10h616c5.5,0,10-4.5,10-10v-20.8C872.1,229.6,867.6,225.1,862.1,225.1L862.1,225.1z"/>
</g>
<g>
	<path class="st0" d="M196.1,265.5c-5.2,0-9.5-4.3-9.5-9.5v-53.4c0-5.2,4.3-9.5,9.5-9.5h107.2c5.2,0,9.5,4.3,9.5,9.5V256
		c0,5.2-4.3,9.5-9.5,9.5H196.1z"/>
	<path d="M303.3,193.6c5,0,9,4,9,9V256c0,5-4,9-9,9H196.1c-5,0-9-4-9-9v-53.4c0-5,4-9,9-9H303.3 M303.3,192.6H196.1
		c-5.5,0-10,4.5-10,10V256c0,5.5,4.5,10,10,10h107.2c5.5,0,10-4.5,10-10v-53.4C313.3,197.1,308.8,192.6,303.3,192.6L303.3,192.6z"/>
</g>
<g>
	<path d="M211.1,256.9c-3.3,0-6-2.7-6-6v-14.1c0-3.3,2.7-6,6-6h77.2c3.3,0,6,2.7,6,6v14.1c0,3.3-2.7,6-6,6H211.1z"/>
	<path d="M288.3,234.7c1.1,0,2,0.9,2,2v14.1c0,1.1-0.9,2-2,2h-77.2c-1.1,0-2-0.9-2-2v-14.1c0-1.1,0.9-2,2-2H288.3 M288.3,226.7
		h-77.2c-5.5,0-10,4.5-10,10v14.1c0,5.5,4.5,10,10,10h77.2c5.5,0,10-4.5,10-10v-14.1C298.3,231.2,293.8,226.7,288.3,226.7
		L288.3,226.7z"/>
</g>
<g>
	<g>
		<g>
			<path class="st0" d="M278.9,256.5h-8.8c-2.2,0-4-1.8-4-4v-17.4c0-2.2,1.8-4,4-4h8.8c2.2,0,4,1.8,4,4v17.4
				C282.9,254.7,281.1,256.5,278.9,256.5z"/>
		</g>
		<g>
			<path class="st0" d="M229.3,256.5h-8.8c-2.2,0-4-1.8-4-4v-17.4c0-2.2,1.8-4,4-4h8.8c2.2,0,4,1.8,4,4v17.4
				C233.3,254.7,231.5,256.5,229.3,256.5z"/>
		</g>
	</g>
	<g>
		<rect x="243.3" y="237.3" class="st0" width="12.8" height="13"/>
		
			<image style="overflow:visible;" width="1600" height="1600" xlink:href="../../../Downloads/qr.png"  transform="matrix(8.060831e-03 0 0 8.060831e-03 243.2497 237.3578)">
		</image>
	</g>
</g>
<g>
	<path class="st1" d="M280.3,212.7h-61.2c-1,0-1.8-0.8-1.8-1.8l0,0c0-1,0.8-1.8,1.8-1.8h61.2c1,0,1.8,0.8,1.8,1.8l0,0
		C282.1,211.9,281.3,212.7,280.3,212.7z"/>
</g>
<g>
	<path class="st0" d="M526.1,265.5c-5.2,0-9.5-4.3-9.5-9.5v-53.4c0-5.2,4.3-9.5,9.5-9.5h107.2c5.2,0,9.5,4.3,9.5,9.5V256
		c0,5.2-4.3,9.5-9.5,9.5H526.1z"/>
	<path d="M633.3,193.6c5,0,9,4,9,9V256c0,5-4,9-9,9H526.1c-5,0-9-4-9-9v-53.4c0-5,4-9,9-9H633.3 M633.3,192.6H526.1
		c-5.5,0-10,4.5-10,10V256c0,5.5,4.5,10,10,10h107.2c5.5,0,10-4.5,10-10v-53.4C643.3,197.1,638.8,192.6,633.3,192.6L633.3,192.6z"/>
</g>
<g>
	<path class="st0" d="M819.9,265.5c-5.2,0-9.5-4.3-9.5-9.5V172c0-5.2,4.3-9.5,9.5-9.5h160.1c5.2,0,9.5,4.3,9.5,9.5V256
		c0,5.2-4.3,9.5-9.5,9.5H819.9z"/>
	<path d="M980.1,163c5,0,9,4,9,9V256c0,5-4,9-9,9H819.9c-5,0-9-4-9-9V172c0-5,4-9,9-9H980.1 M980.1,162H819.9c-5.5,0-10,4.5-10,10
		V256c0,5.5,4.5,10,10,10h160.1c5.5,0,10-4.5,10-10V172C990.1,166.5,985.6,162,980.1,162L980.1,162z"/>
</g>
<g>
	<path d="M541.1,256.9c-3.3,0-6-2.7-6-6v-14.1c0-3.3,2.7-6,6-6h77.2c3.3,0,6,2.7,6,6v14.1c0,3.3-2.7,6-6,6H541.1z"/>
	<path d="M618.3,234.7c1.1,0,2,0.9,2,2v14.1c0,1.1-0.9,2-2,2h-77.2c-1.1,0-2-0.9-2-2v-14.1c0-1.1,0.9-2,2-2H618.3 M618.3,226.7
		h-77.2c-5.5,0-10,4.5-10,10v14.1c0,5.5,4.5,10,10,10h77.2c5.5,0,10-4.5,10-10v-14.1C628.3,231.2,623.8,226.7,618.3,226.7
		L618.3,226.7z"/>
</g>
<g>
	<path d="M814.6,256.2c-3.3,0-6-2.7-6-6v-12.7c0-3.3,2.7-6,6-6h171.3c3.3,0,6,2.7,6,6v12.7c0,3.3-2.7,6-6,6H814.6z"/>
	<path d="M985.9,235.5c1.1,0,2,0.9,2,2v12.7c0,1.1-0.9,2-2,2H814.6c-1.1,0-2-0.9-2-2v-12.7c0-1.1,0.9-2,2-2H985.9 M985.9,227.5
		H814.6c-5.5,0-10,4.5-10,10v12.7c0,5.5,4.5,10,10,10h171.3c5.5,0,10-4.5,10-10v-12.7C995.9,232,991.4,227.5,985.9,227.5
		L985.9,227.5z"/>
</g>
<g>
	<g>
		<g>
			<path class="st0" d="M608.9,256.5h-8.8c-2.2,0-4-1.8-4-4v-17.4c0-2.2,1.8-4,4-4h8.8c2.2,0,4,1.8,4,4v17.4
				C612.9,254.7,611.1,256.5,608.9,256.5z"/>
		</g>
		<g>
			<path class="st0" d="M559.3,256.5h-8.8c-2.2,0-4-1.8-4-4v-17.4c0-2.2,1.8-4,4-4h8.8c2.2,0,4,1.8,4,4v17.4
				C563.3,254.7,561.5,256.5,559.3,256.5z"/>
		</g>
	</g>
	<g>
		<rect x="573.3" y="237.3" class="st0" width="12.8" height="13"/>
		
			<image style="overflow:visible;" width="1600" height="1600" xlink:href="../../../Downloads/qr.png"  transform="matrix(8.060831e-03 0 0 8.060831e-03 573.2499 237.3578)">
		</image>
	</g>
</g>
<g>
	<path class="st2" d="M610.3,212.7h-61.2c-1,0-1.8-0.8-1.8-1.8l0,0c0-1,0.8-1.8,1.8-1.8h61.2c1,0,1.8,0.8,1.8,1.8l0,0
		C612.1,211.9,611.3,212.7,610.3,212.7z"/>
</g>
<g>
	<line class="st3" x1="342" y1="225.2" x2="342" y2="265.3"/>
</g>
<g>
	<g>
		<line class="st3" x1="487.1" y1="225.2" x2="487.1" y2="265.3"/>
	</g>
	<g>
		<line class="st3" x1="672.3" y1="225.2" x2="672.3" y2="265.3"/>
	</g>
</g>
<g>
	<line class="st3" x1="784.9" y1="225.2" x2="784.9" y2="265.3"/>
</g>
<g>
	<path class="st0" d="M239.3,453.2c-5.2,0-9.5-4.3-9.5-9.5v-20.8c0-5.2,4.3-9.5,9.5-9.5h670.3c5.2,0,9.5,4.3,9.5,9.5v20.8
		c0,5.2-4.3,9.5-9.5,9.5H239.3z"/>
	<path d="M909.5,413.9c4.9,0,9,4,9,9v20.8c0,5-4,9-9,9H239.3c-4.9,0-9-4-9-9v-20.8c0-5,4-9,9-9H909.5 M909.5,412.9H239.3
		c-5.5,0-10,4.5-10,10v20.8c0,5.5,4.5,10,10,10h670.3c5.5,0,10-4.5,10-10v-20.8C919.5,417.4,915,412.9,909.5,412.9L909.5,412.9z"/>
</g>
<g>
	<path class="st0" d="M239.3,579.2c-5.2,0-9.5-4.3-9.5-9.5V422.9c0-5.2,4.3-9.5,9.5-9.5h20.8c5.2,0,9.5,4.3,9.5,9.5v146.8
		c0,5.2-4.3,9.5-9.5,9.5H239.3z"/>
	<path d="M260.1,413.9c5,0,9,4,9,9v146.8c0,5-4,9-9,9h-20.8c-5,0-9-4-9-9V422.9c0-5,4-9,9-9H260.1 M260.1,412.9h-20.8
		c-5.5,0-10,4.5-10,10v146.8c0,5.5,4.5,10,10,10h20.8c5.5,0,10-4.5,10-10V422.9C270.1,417.4,265.6,412.9,260.1,412.9L260.1,412.9z"
		/>
</g>
<path class="st4" d="M269.2,519.7l-39.6-0.4l-43.5,34.3V607c0,5.5,9.5,47.8,15,47.8h97.2c5.5,0,15-42.3,15-47.8v-53.4L269.2,519.7z"
	/>
<g>
	<path d="M207.2,656.9c-1.1,0-2.1-1-2.1-2.1s1-2.1,2.1-2.1h85c1.1,0,2.1,1,2.1,2.1s-1,2.1-2.1,2.1H207.2z"/>
	<path d="M292.2,648.6h-85c-3.4,0-6.1,2.8-6.1,6.1s2.8,6.1,6.1,6.1h85c3.4,0,6.1-2.8,6.1-6.1S295.6,648.6,292.2,648.6L292.2,648.6z"
		/>
</g>
<g>
	<path class="st1" d="M280.3,626.8h-61.2c-1,0-1.8-0.8-1.8-1.8l0,0c0-1,0.8-1.8,1.8-1.8h61.2c1,0,1.8,0.8,1.8,1.8l0,0
		C282.1,626,281.3,626.8,280.3,626.8z"/>
</g>
<g>
	<path class="st0" d="M229.8,475.1v-52.3c0-5.2,4.3-9.5,9.5-9.5h102.3v39.8h-71.9v21.9H229.8z"/>
	<path d="M341,413.9v38.8h-70.9h-1v1v20.9h-38.8v-30.9v-20.8c0-5,4-9,9-9h20.8H341 M342,412.9h-81.9h-20.8c-5.5,0-10,4.5-10,10v20.8
		v31.9h40.8v-21.9H342V412.9L342,412.9z"/>
</g>
<g>
	<path class="st0" d="M569.3,579.2c-5.2,0-9.5-4.3-9.5-9.5V422.9c0-5.2,4.3-9.5,9.5-9.5h20.8c5.2,0,9.5,4.3,9.5,9.5v146.8
		c0,5.2-4.3,9.5-9.5,9.5H569.3z"/>
	<path d="M590.1,413.9c5,0,9,4,9,9v146.8c0,5-4,9-9,9h-20.8c-5,0-9-4-9-9V422.9c0-5,4-9,9-9H590.1 M590.1,412.9h-20.8
		c-5.5,0-10,4.5-10,10v146.8c0,5.5,4.5,10,10,10h20.8c5.5,0,10-4.5,10-10V422.9C600.1,417.4,595.6,412.9,590.1,412.9L590.1,412.9z"
		/>
</g>
<g>
	<path class="st0" d="M889.6,579.2c-5.2,0-9.5-4.3-9.5-9.5V422.9c0-5.2,4.3-9.5,9.5-9.5h20.8c5.2,0,9.5,4.3,9.5,9.5v146.8
		c0,5.2-4.3,9.5-9.5,9.5H889.6z"/>
	<path d="M910.4,413.9c5,0,9,4,9,9v146.8c0,5-4,9-9,9h-20.8c-5,0-9-4-9-9V422.9c0-5,4-9,9-9H910.4 M910.4,412.9h-20.8
		c-5.5,0-10,4.5-10,10v146.8c0,5.5,4.5,10,10,10h20.8c5.5,0,10-4.5,10-10V422.9C920.4,417.4,915.9,412.9,910.4,412.9L910.4,412.9z"
		/>
</g>
<path class="st4" d="M599.2,519.7l-39.6-0.4l-43.5,34.3V607c0,5.5,9.5,47.8,15,47.8h97.2c5.5,0,15-42.3,15-47.8v-53.4L599.2,519.7z"
	/>
<g>
	<path d="M537.2,656.9c-1.1,0-2.1-1-2.1-2.1s1-2.1,2.1-2.1h85c1.1,0,2.1,1,2.1,2.1s-1,2.1-2.1,2.1H537.2z"/>
	<path d="M622.2,648.6h-85c-3.4,0-6.1,2.8-6.1,6.1s2.8,6.1,6.1,6.1h85c3.4,0,6.1-2.8,6.1-6.1S625.6,648.6,622.2,648.6L622.2,648.6z"
		/>
</g>
<g>
	<path class="st2" d="M610.3,626.8h-61.2c-1,0-1.8-0.8-1.8-1.8l0,0c0-1,0.8-1.8,1.8-1.8h61.2c1,0,1.8,0.8,1.8,1.8l0,0
		C612.1,626,611.3,626.8,610.3,626.8z"/>
</g>
<g>
	<polygon class="st0" points="559.8,475.1 559.8,453.2 487.9,453.2 487.9,413.4 671.5,413.4 671.5,453.2 599.6,453.2 599.6,475.1 	
		"/>
	<path d="M671,413.9v38.8h-70.9h-1v1l0,20.9h-38.8v-20.9v-1h-1h-70.9v-38.8h80.9h20.8H671 M672,412.9h-81.9h0h-20.8h0h-81.9v40.8
		h71.9v21.9h0h40.8h0v-21.9H672V412.9L672,412.9z"/>
</g>
<g>
	<path class="st0" d="M880.1,475.1v-21.9h-71.9v-39.8h102.3c5.2,0,9.5,4.3,9.5,9.5v52.3H880.1z"/>
	<path d="M910.4,413.9c5,0,9,4,9,9v20.8v30.9h-38.8v-20.9v-1h-1h-70.9v-38.8h80.9H910.4 M910.4,412.9h-20.8h-81.9v40.8h71.9v21.9
		h40.8v-31.9v-20.8C920.4,417.4,915.9,412.9,910.4,412.9L910.4,412.9z"/>
</g>
<path class="st4" d="M809.9,923V529.3c0-5.5,4.5-10,10-10h160.1c5.5,0,10,4.5,10,10V923c0,5.5-4.5,10-10,10H819.9
	C814.4,933,809.9,928.5,809.9,923z"/>
<g>
	<g>
		
			<rect x="866.7" y="624.6" transform="matrix(-1.836970e-16 1 -1 -1.836970e-16 1578.5951 -206.1693)" class="st5" width="51.5" height="123.2"/>
		<circle class="st5" cx="892.4" cy="686.2" r="18.6"/>
		
			<rect x="889.3" y="675.5" transform="matrix(-1.836970e-16 1 -1 -1.836970e-16 1578.5951 -206.1693)" class="st5" width="6.2" height="21.5"/>
	</g>
	<g>
		<circle class="st6" cx="917.4" cy="686.1" r="2.7"/>
		<circle class="st1" cx="867.3" cy="686.1" r="2.7"/>
	</g>
</g>
<g>
	<g>
		
			<rect x="866.7" y="688.6" transform="matrix(-1.836970e-16 1 -1 -1.836970e-16 1642.6018 -142.1624)" class="st5" width="51.5" height="123.2"/>
		<circle class="st5" cx="892.4" cy="750.2" r="18.6"/>
		
			<rect x="889.3" y="739.5" transform="matrix(-1.836970e-16 1 -1 -1.836970e-16 1642.6018 -142.1624)" class="st5" width="6.2" height="21.5"/>
	</g>
	<g>
		<circle class="st6" cx="917.4" cy="750.1" r="2.7"/>
		<circle class="st1" cx="867.3" cy="750.1" r="2.7"/>
	</g>
</g>
<g>
	<g>
		
			<rect x="866.7" y="752.6" transform="matrix(-1.836970e-16 1 -1 -1.836970e-16 1706.6086 -78.1556)" class="st7" width="51.5" height="123.2"/>
	</g>
</g>
<g>
	<g>
		
			<rect x="866.7" y="816.6" transform="matrix(-1.836970e-16 1 -1 -1.836970e-16 1770.6155 -14.1488)" class="st5" width="51.5" height="123.2"/>
		<circle class="st5" cx="892.4" cy="878.2" r="18.6"/>
		
			<rect x="889.3" y="867.5" transform="matrix(-1.836970e-16 1 -1 -1.836970e-16 1770.6155 -14.1488)" class="st5" width="6.2" height="21.5"/>
	</g>
	<g>
		<circle class="st6" cx="917.4" cy="878.1" r="2.7"/>
		<circle class="st1" cx="867.3" cy="878.1" r="2.7"/>
	</g>
</g>
<path class="st8" d="M810.9,547.5h109.4c0.8,0,1.5,0.7,1.5,1.5l0,0c0,0.8-0.7,1.5-1.5,1.5H810.9"/>
<g>
	<path class="st1" d="M961,765.8v-31.2c0-1,0.8-1.8,1.8-1.8l0,0c1,0,1.8,0.8,1.8,1.8v31.2c0,1-0.8,1.8-1.8,1.8l0,0
		C961.8,767.6,961,766.8,961,765.8z"/>
</g>
<g>
	<path class="st2" d="M961,829.8v-31.2c0-1,0.8-1.8,1.8-1.8l0,0c1,0,1.8,0.8,1.8,1.8v31.2c0,1-0.8,1.8-1.8,1.8l0,0
		C961.8,831.6,961,830.8,961,829.8z"/>
</g>
<g>
	<path class="st1" d="M961,701.8v-31.2c0-1,0.8-1.8,1.8-1.8l0,0c1,0,1.8,0.8,1.8,1.8v31.2c0,1-0.8,1.8-1.8,1.8l0,0
		C961.8,703.6,961,702.8,961,701.8z"/>
</g>
<g>
	<path class="st1" d="M961,893.9v-31.2c0-1,0.8-1.8,1.8-1.8l0,0c1,0,1.8,0.8,1.8,1.8v31.2c0,1-0.8,1.8-1.8,1.8l0,0
		C961.8,895.6,961,894.8,961,893.9z"/>
</g>
<path class="st8" d="M810.9,560.9h109.4c0.8,0,1.5,0.7,1.5,1.5l0,0c0,0.8-0.7,1.5-1.5,1.5H810.9"/>
<path class="st8" d="M810.9,574.3h109.4c0.8,0,1.5,0.7,1.5,1.5l0,0c0,0.8-0.7,1.5-1.5,1.5H810.9"/>
<path class="st8" d="M810.9,587.8h109.4c0.8,0,1.5,0.7,1.5,1.5l0,0c0,0.8-0.7,1.5-1.5,1.5H810.9"/>
<path class="st8" d="M810.9,601.2h109.4c0.8,0,1.5,0.7,1.5,1.5l0,0c0,0.8-0.7,1.5-1.5,1.5H810.9"/>
<path class="st8" d="M810.9,614.6h109.4c0.8,0,1.5,0.7,1.5,1.5l0,0c0,0.8-0.7,1.5-1.5,1.5H810.9"/>
<path class="st8" d="M810.9,628h109.4c0.8,0,1.5,0.7,1.5,1.5l0,0c0,0.8-0.7,1.5-1.5,1.5H810.9"/>
<rect x="953.6" y="547.4" width="25.5" height="84.6"/>
<g>
	<path class="st9" d="M806.2,691.2v233c0,5.7,4.7,10.4,10.4,10.4h166.8c5.7,0,10.4-4.7,10.4-10.4v-233"/>
</g>
<text transform="matrix(1 0 0 1 936.8445 217.7332)" class="st10 st11">InteliBelt</text>
<g>
	<path class="st0" d="M1325,265.5c-5.2,0-9.5-4.3-9.5-9.5V172c0-5.2,4.3-9.5,9.5-9.5h394.2c5.2,0,9.5,4.3,9.5,9.5V256
		c0,5.2-4.3,9.5-9.5,9.5H1325z"/>
	<path d="M1719.2,163c5,0,9,4,9,9V256c0,5-4,9-9,9H1325c-5,0-9-4-9-9V172c0-5,4-9,9-9H1719.2 M1719.2,162H1325c-5.5,0-10,4.5-10,10
		V256c0,5.5,4.5,10,10,10h394.2c5.5,0,10-4.5,10-10V172C1729.2,166.5,1724.7,162,1719.2,162L1719.2,162z"/>
</g>
<g>
	<path d="M1494.6,256.2c-3.3,0-6-2.7-6-6v-12.7c0-3.3,2.7-6,6-6h230c3.3,0,6,2.7,6,6v12.7c0,3.3-2.7,6-6,6H1494.6z"/>
	<path d="M1724.6,235.5c1.1,0,2,0.9,2,2v12.7c0,1.1-0.9,2-2,2h-230c-1.1,0-2-0.9-2-2v-12.7c0-1.1,0.9-2,2-2H1724.6 M1724.6,227.5
		h-230c-5.5,0-10,4.5-10,10v12.7c0,5.5,4.5,10,10,10h230c5.5,0,10-4.5,10-10v-12.7C1734.6,232,1730.1,227.5,1724.6,227.5
		L1724.6,227.5z"/>
</g>
<g>
	<path class="st8" d="M1343.2,265.3v-96.4c0-0.8,0.7-1.5,1.5-1.5l0,0c0.8,0,1.5,0.7,1.5,1.5v96.4"/>
	<path class="st8" d="M1356.6,265.3v-96.4c0-0.8,0.7-1.5,1.5-1.5l0,0c0.8,0,1.5,0.7,1.5,1.5v96.4"/>
	<path class="st8" d="M1370,265.3v-96.4c0-0.8,0.7-1.5,1.5-1.5l0,0c0.8,0,1.5,0.7,1.5,1.5v96.4"/>
	<path class="st8" d="M1383.5,265.3v-96.4c0-0.8,0.7-1.5,1.5-1.5l0,0c0.8,0,1.5,0.7,1.5,1.5v96.4"/>
	<path class="st8" d="M1396.9,265.3v-96.4c0-0.8,0.7-1.5,1.5-1.5h0c0.8,0,1.5,0.7,1.5,1.5v96.4"/>
	<path class="st8" d="M1410.3,265.3v-96.4c0-0.8,0.7-1.5,1.5-1.5l0,0c0.8,0,1.5,0.7,1.5,1.5v96.4"/>
	<path class="st8" d="M1423.7,265.3v-96.4c0-0.8,0.7-1.5,1.5-1.5l0,0c0.8,0,1.5,0.7,1.5,1.5v96.4"/>
</g>
<path class="st12" d="M1315,232c0-5.5,4.8-8.2,10-10c21.3-7.3,105.3-40.5,141-52.7c10.7-3.4,27.3-7.2,38.6-7.3"/>
<g>
	<g>
		<path class="st0" d="M1218.6,265.4c-5.2,0-9.5-4.3-9.5-9.5v-20.8c0-5.2,4.3-9.5,9.5-9.5h146.8c5.2,0,9.5,4.3,9.5,9.5v20.8
			c0,5.2-4.3,9.5-9.5,9.5H1218.6z"/>
		<path d="M1365.4,226.1c5,0,9,4,9,9v20.8c0,5-4,9-9,9h-146.8c-5,0-9-4-9-9v-20.8c0-5,4-9,9-9H1365.4 M1365.4,225.1h-146.8
			c-5.5,0-10,4.5-10,10v20.8c0,5.5,4.5,10,10,10h146.8c5.5,0,10-4.5,10-10v-20.8C1375.4,229.6,1370.9,225.1,1365.4,225.1
			L1365.4,225.1z"/>
	</g>
	<g>
		<path class="st1" d="M1420.6,201.7l-2-1.4c-0.8-0.6-1-1.7-0.4-2.5l0,0c0.6-0.8,1.7-1,2.5-0.4l2,1.4c0.8,0.6,1,1.7,0.4,2.5l0,0
			C1422.5,202.1,1421.4,202.2,1420.6,201.7z"/>
	</g>
	<g>
		<path d="M1450.5,256.9c-1.1,0-2.1-1-2.1-2.1v-21.9c0-1.1,1-2.1,2.1-2.1s2.1,1,2.1,2.1v21.9
			C1452.6,255.9,1451.6,256.9,1450.5,256.9z"/>
		<path d="M1450.5,226.7c-3.4,0-6.1,2.8-6.1,6.1v21.9c0,3.4,2.8,6.1,6.1,6.1c3.4,0,6.1-2.8,6.1-6.1v-21.9
			C1456.6,229.5,1453.8,226.7,1450.5,226.7L1450.5,226.7z"/>
	</g>
	<g>
		<path class="st0" d="M1332.4,265.5c-5.2,0-9.5-4.3-9.5-9.5v-30.3c0-5.1,17.7-32.6,25.4-32.6h56.7c12.4,0.5,23.9,13,35.1,25.1
			c3.1,3.4,6.1,6.6,9.1,9.5V256c0,5.2-4.3,9.5-9.5,9.5H1332.4z"/>
		<path d="M1348.2,192.6l0,1l56.6,0c12.2,0.5,23.7,12.9,34.7,24.9c3.1,3.3,6,6.5,8.9,9.4V256c0,5-4,9-9,9h-107.2c-5,0-9-4-9-9v-30.3
			c0-5.4,18-32.1,24.9-32.1L1348.2,192.6 M1348.2,192.6c-7.8,0-25.9,27.6-25.9,33.1V256c0,5.5,4.5,10,10,10h107.2
			c5.5,0,10-4.5,10-10v-28.5c-13.9-13.7-28.5-34.2-44.6-34.9L1348.2,192.6C1348.2,192.6,1348.2,192.6,1348.2,192.6L1348.2,192.6z"/>
	</g>
</g>
<path class="st2" d="M229.3,920.7V722.9c0-5.5,4.5-10,10-10h20.8c5.5,0,10,4.5,10,10v197.8"/>
<path class="st2" d="M559.3,920.7V722.9c0-5.5,4.5-10,10-10h20.8c5.5,0,10,4.5,10,10v197.8"/>
</svg>
