<?xml version="1.0" encoding="utf-8"?>
<!-- Generator: Adobe Illustrator 23.0.1, SVG Export Plug-In . SVG Version: 6.00 Build 0)  -->
<svg version="1.1" id="Layer_1" xmlns="http://www.w3.org/2000/svg" xmlns:xlink="http://www.w3.org/1999/xlink" x="0px" y="0px"
	 viewBox="0 0 2295.2 1080" style="enable-background:new 0 0 2295.2 1080;" xml:space="preserve">
<style type="text/css">
	.st0{fill:#FFFFFF;}
	.st1{fill:#00FF00;}
	.st2{fill:#FCEE21;}
	.st3{fill:none;stroke:#000000;stroke-miterlimit:10;}
	.st4{fill:#FFFFFF;stroke:#000000;stroke-miterlimit:10;}
	.st5{fill:#FFFFFF;stroke:#000000;stroke-width:0.3;stroke-miterlimit:10;}
	.st6{fill:#FF0000;}
	.st7{fill:#E6E6E6;stroke:#000000;stroke-width:0.3;stroke-miterlimit:10;}
	.st8{fill:none;stroke:#000000;stroke-width:0.3;stroke-miterlimit:10;}
	.st9{fill:none;stroke:#000000;stroke-width:8;stroke-linecap:round;stroke-linejoin:round;stroke-miterlimit:10;}
	.st10{font-family:'MyriadPro-Regular';}
	.st11{font-size:12px;}
	.st12{fill:none;stroke:#000000;stroke-miterlimit:10;stroke-dasharray:12;}
</style>
<g>
	<g>
		<path class="st0" d="M433.4,265.5c-5.2,0-9.5-4.3-9.5-9.5v-20.8c0-5.2,4.3-9.5,9.5-9.5h616c5.2,0,9.5,4.3,9.5,9.5V256
			c0,5.2-4.3,9.5-9.5,9.5H433.4z"/>
		<path d="M1049.3,226.1c5,0,9,4,9,9V256c0,5-4,9-9,9h-616c-5,0-9-4-9-9v-20.8c0-5,4-9,9-9H1049.3 M1049.3,225.1h-616
			c-5.5,0-10,4.5-10,10V256c0,5.5,4.5,10,10,10h616c5.5,0,10-4.5,10-10v-20.8C1059.3,229.6,1054.8,225.1,1049.3,225.1L1049.3,225.1z
			"/>
	</g>
	<g>
		<path class="st0" d="M383.4,265.5c-5.2,0-9.5-4.3-9.5-9.5v-53.4c0-5.2,4.3-9.5,9.5-9.5h107.2c5.2,0,9.5,4.3,9.5,9.5V256
			c0,5.2-4.3,9.5-9.5,9.5H383.4z"/>
		<path d="M490.6,193.6c5,0,9,4,9,9V256c0,5-4,9-9,9H383.4c-5,0-9-4-9-9v-53.4c0-5,4-9,9-9H490.6 M490.6,192.6H383.4
			c-5.5,0-10,4.5-10,10V256c0,5.5,4.5,10,10,10h107.2c5.5,0,10-4.5,10-10v-53.4C500.6,197.1,496.1,192.6,490.6,192.6L490.6,192.6z"
			/>
	</g>
	<g>
		<path d="M398.4,256.9c-3.3,0-6-2.7-6-6v-14.1c0-3.3,2.7-6,6-6h77.2c3.3,0,6,2.7,6,6v14.1c0,3.3-2.7,6-6,6H398.4z"/>
		<path d="M475.6,234.7c1.1,0,2,0.9,2,2v14.1c0,1.1-0.9,2-2,2h-77.2c-1.1,0-2-0.9-2-2v-14.1c0-1.1,0.9-2,2-2H475.6 M475.6,226.7
			h-77.2c-5.5,0-10,4.5-10,10v14.1c0,5.5,4.5,10,10,10h77.2c5.5,0,10-4.5,10-10v-14.1C485.6,231.2,481.1,226.7,475.6,226.7
			L475.6,226.7z"/>
	</g>
	<g>
		<g>
			<g>
				<path class="st0" d="M466.2,256.5h-8.8c-2.2,0-4-1.8-4-4v-17.4c0-2.2,1.8-4,4-4h8.8c2.2,0,4,1.8,4,4v17.4
					C470.2,254.7,468.4,256.5,466.2,256.5z"/>
			</g>
			<g>
				<path class="st0" d="M416.6,256.5h-8.8c-2.2,0-4-1.8-4-4v-17.4c0-2.2,1.8-4,4-4h8.8c2.2,0,4,1.8,4,4v17.4
					C420.6,254.7,418.8,256.5,416.6,256.5z"/>
			</g>
		</g>
		<g>
			<rect x="430.6" y="237.3" class="st0" width="12.8" height="13"/>
			
				<image style="overflow:visible;" width="1600" height="1600" xlink:href="../../../Downloads/qr.png"  transform="matrix(8.060831e-03 0 0 8.060831e-03 430.5225 237.3578)">
			</image>
		</g>
	</g>
	<g>
		<path class="st1" d="M467.6,212.7h-61.2c-1,0-1.8-0.8-1.8-1.8l0,0c0-1,0.8-1.8,1.8-1.8h61.2c1,0,1.8,0.8,1.8,1.8l0,0
			C469.4,211.9,468.6,212.7,467.6,212.7z"/>
	</g>
	<g>
		<path class="st0" d="M713.4,265.5c-5.2,0-9.5-4.3-9.5-9.5v-53.4c0-5.2,4.3-9.5,9.5-9.5h107.2c5.2,0,9.5,4.3,9.5,9.5V256
			c0,5.2-4.3,9.5-9.5,9.5H713.4z"/>
		<path d="M820.6,193.6c5,0,9,4,9,9V256c0,5-4,9-9,9H713.4c-5,0-9-4-9-9v-53.4c0-5,4-9,9-9H820.6 M820.6,192.6H713.4
			c-5.5,0-10,4.5-10,10V256c0,5.5,4.5,10,10,10h107.2c5.5,0,10-4.5,10-10v-53.4C830.6,197.1,826.1,192.6,820.6,192.6L820.6,192.6z"
			/>
	</g>
	<g>
		<path class="st0" d="M1007.2,265.5c-5.2,0-9.5-4.3-9.5-9.5V172c0-5.2,4.3-9.5,9.5-9.5h160.1c5.2,0,9.5,4.3,9.5,9.5V256
			c0,5.2-4.3,9.5-9.5,9.5H1007.2z"/>
		<path d="M1167.3,163c5,0,9,4,9,9V256c0,5-4,9-9,9h-160.1c-5,0-9-4-9-9V172c0-5,4-9,9-9H1167.3 M1167.3,162h-160.1
			c-5.5,0-10,4.5-10,10V256c0,5.5,4.5,10,10,10h160.1c5.5,0,10-4.5,10-10V172C1177.3,166.5,1172.8,162,1167.3,162L1167.3,162z"/>
	</g>
	<g>
		<path d="M728.4,256.9c-3.3,0-6-2.7-6-6v-14.1c0-3.3,2.7-6,6-6h77.2c3.3,0,6,2.7,6,6v14.1c0,3.3-2.7,6-6,6H728.4z"/>
		<path d="M805.6,234.7c1.1,0,2,0.9,2,2v14.1c0,1.1-0.9,2-2,2h-77.2c-1.1,0-2-0.9-2-2v-14.1c0-1.1,0.9-2,2-2H805.6 M805.6,226.7
			h-77.2c-5.5,0-10,4.5-10,10v14.1c0,5.5,4.5,10,10,10h77.2c5.5,0,10-4.5,10-10v-14.1C815.6,231.2,811.1,226.7,805.6,226.7
			L805.6,226.7z"/>
	</g>
	<g>
		<path d="M1001.8,256.2c-3.3,0-6-2.7-6-6v-12.7c0-3.3,2.7-6,6-6h171.3c3.3,0,6,2.7,6,6v12.7c0,3.3-2.7,6-6,6H1001.8z"/>
		<path d="M1173.2,235.5c1.1,0,2,0.9,2,2v12.7c0,1.1-0.9,2-2,2h-171.3c-1.1,0-2-0.9-2-2v-12.7c0-1.1,0.9-2,2-2H1173.2 M1173.2,227.5
			h-171.3c-5.5,0-10,4.5-10,10v12.7c0,5.5,4.5,10,10,10h171.3c5.5,0,10-4.5,10-10v-12.7C1183.2,232,1178.7,227.5,1173.2,227.5
			L1173.2,227.5z"/>
	</g>
	<g>
		<g>
			<g>
				<path class="st0" d="M796.2,256.5h-8.8c-2.2,0-4-1.8-4-4v-17.4c0-2.2,1.8-4,4-4h8.8c2.2,0,4,1.8,4,4v17.4
					C800.2,254.7,798.4,256.5,796.2,256.5z"/>
			</g>
			<g>
				<path class="st0" d="M746.6,256.5h-8.8c-2.2,0-4-1.8-4-4v-17.4c0-2.2,1.8-4,4-4h8.8c2.2,0,4,1.8,4,4v17.4
					C750.6,254.7,748.8,256.5,746.6,256.5z"/>
			</g>
		</g>
		<g>
			<rect x="760.6" y="237.3" class="st0" width="12.8" height="13"/>
			
				<image style="overflow:visible;" width="1600" height="1600" xlink:href="../../../Downloads/qr.png"  transform="matrix(8.060831e-03 0 0 8.060831e-03 760.5226 237.3578)">
			</image>
		</g>
	</g>
	<g>
		<path class="st2" d="M797.6,212.7h-61.2c-1,0-1.8-0.8-1.8-1.8l0,0c0-1,0.8-1.8,1.8-1.8h61.2c1,0,1.8,0.8,1.8,1.8l0,0
			C799.4,211.9,798.6,212.7,797.6,212.7z"/>
	</g>
	<g>
		<line class="st3" x1="529.3" y1="225.2" x2="529.3" y2="265.3"/>
	</g>
	<g>
		<g>
			<line class="st3" x1="674.4" y1="225.2" x2="674.4" y2="265.3"/>
		</g>
		<g>
			<line class="st3" x1="859.6" y1="225.2" x2="859.6" y2="265.3"/>
		</g>
	</g>
	<g>
		<line class="st3" x1="972.2" y1="225.2" x2="972.2" y2="265.3"/>
	</g>
	<g>
		<path class="st0" d="M426.5,453.2c-5.2,0-9.5-4.3-9.5-9.5v-20.8c0-5.2,4.3-9.5,9.5-9.5h670.3c5.2,0,9.5,4.3,9.5,9.5v20.8
			c0,5.2-4.3,9.5-9.5,9.5H426.5z"/>
		<path d="M1096.8,413.9c4.9,0,9,4,9,9v20.8c0,5-4,9-9,9H426.5c-4.9,0-9-4-9-9v-20.8c0-5,4-9,9-9H1096.8 M1096.8,412.9H426.5
			c-5.5,0-10,4.5-10,10v20.8c0,5.5,4.5,10,10,10h670.3c5.5,0,10-4.5,10-10v-20.8C1106.8,417.4,1102.3,412.9,1096.8,412.9
			L1096.8,412.9z"/>
	</g>
	<g>
		<path class="st0" d="M426.6,579.2c-5.2,0-9.5-4.3-9.5-9.5V422.9c0-5.2,4.3-9.5,9.5-9.5h20.8c5.2,0,9.5,4.3,9.5,9.5v146.8
			c0,5.2-4.3,9.5-9.5,9.5H426.6z"/>
		<path d="M447.4,413.9c5,0,9,4,9,9v146.8c0,5-4,9-9,9h-20.8c-5,0-9-4-9-9V422.9c0-5,4-9,9-9H447.4 M447.4,412.9h-20.8
			c-5.5,0-10,4.5-10,10v146.8c0,5.5,4.5,10,10,10h20.8c5.5,0,10-4.5,10-10V422.9C457.4,417.4,452.9,412.9,447.4,412.9L447.4,412.9z"
			/>
	</g>
	<path class="st4" d="M456.5,519.7l-39.6-0.4l-43.5,34.3V607c0,5.5,9.5,47.8,15,47.8h97.2c5.5,0,15-42.3,15-47.8v-53.4L456.5,519.7z
		"/>
	<g>
		<path d="M394.5,656.9c-1.1,0-2.1-1-2.1-2.1s1-2.1,2.1-2.1h85c1.1,0,2.1,1,2.1,2.1s-1,2.1-2.1,2.1H394.5z"/>
		<path d="M479.5,648.6h-85c-3.4,0-6.1,2.8-6.1,6.1s2.8,6.1,6.1,6.1h85c3.4,0,6.1-2.8,6.1-6.1S482.8,648.6,479.5,648.6L479.5,648.6z
			"/>
	</g>
	<g>
		<path class="st1" d="M467.6,626.8h-61.2c-1,0-1.8-0.8-1.8-1.8l0,0c0-1,0.8-1.8,1.8-1.8h61.2c1,0,1.8,0.8,1.8,1.8l0,0
			C469.4,626,468.6,626.8,467.6,626.8z"/>
	</g>
	<g>
		<path class="st0" d="M417.1,475.1v-52.3c0-5.2,4.3-9.5,9.5-9.5h102.3v39.8h-71.9v21.9H417.1z"/>
		<path d="M528.3,413.9v38.8h-70.9h-1v1v20.9h-38.8v-30.9v-20.8c0-5,4-9,9-9h20.8H528.3 M529.3,412.9h-81.9h-20.8
			c-5.5,0-10,4.5-10,10v20.8v31.9h40.8v-21.9h71.9V412.9L529.3,412.9z"/>
	</g>
	<g>
		<path class="st0" d="M756.6,579.2c-5.2,0-9.5-4.3-9.5-9.5V422.9c0-5.2,4.3-9.5,9.5-9.5h20.8c5.2,0,9.5,4.3,9.5,9.5v146.8
			c0,5.2-4.3,9.5-9.5,9.5H756.6z"/>
		<path d="M777.4,413.9c5,0,9,4,9,9v146.8c0,5-4,9-9,9h-20.8c-5,0-9-4-9-9V422.9c0-5,4-9,9-9H777.4 M777.4,412.9h-20.8
			c-5.5,0-10,4.5-10,10v146.8c0,5.5,4.5,10,10,10h20.8c5.5,0,10-4.5,10-10V422.9C787.4,417.4,782.9,412.9,777.4,412.9L777.4,412.9z"
			/>
	</g>
	<g>
		<path class="st0" d="M1076.9,579.2c-5.2,0-9.5-4.3-9.5-9.5V422.9c0-5.2,4.3-9.5,9.5-9.5h20.8c5.2,0,9.5,4.3,9.5,9.5v146.8
			c0,5.2-4.3,9.5-9.5,9.5H1076.9z"/>
		<path d="M1097.7,413.9c5,0,9,4,9,9v146.8c0,5-4,9-9,9h-20.8c-5,0-9-4-9-9V422.9c0-5,4-9,9-9H1097.7 M1097.7,412.9h-20.8
			c-5.5,0-10,4.5-10,10v146.8c0,5.5,4.5,10,10,10h20.8c5.5,0,10-4.5,10-10V422.9C1107.7,417.4,1103.2,412.9,1097.7,412.9
			L1097.7,412.9z"/>
	</g>
	<path class="st4" d="M786.5,519.7l-39.6-0.4l-43.5,34.3V607c0,5.5,9.5,47.8,15,47.8h97.2c5.5,0,15-42.3,15-47.8v-53.4L786.5,519.7z
		"/>
	<g>
		<path d="M724.5,656.9c-1.1,0-2.1-1-2.1-2.1s1-2.1,2.1-2.1h85c1.1,0,2.1,1,2.1,2.1s-1,2.1-2.1,2.1H724.5z"/>
		<path d="M809.5,648.6h-85c-3.4,0-6.1,2.8-6.1,6.1s2.8,6.1,6.1,6.1h85c3.4,0,6.1-2.8,6.1-6.1S812.8,648.6,809.5,648.6L809.5,648.6z
			"/>
	</g>
	<g>
		<path class="st2" d="M797.6,626.8h-61.2c-1,0-1.8-0.8-1.8-1.8l0,0c0-1,0.8-1.8,1.8-1.8h61.2c1,0,1.8,0.8,1.8,1.8l0,0
			C799.4,626,798.6,626.8,797.6,626.8z"/>
	</g>
	<g>
		<polygon class="st0" points="747.1,475.1 747.1,453.2 675.1,453.2 675.1,413.4 858.8,413.4 858.8,453.2 786.9,453.2 786.9,475.1 
					"/>
		<path d="M858.3,413.9v38.8h-70.9h-1v1l0,20.9h-38.8v-20.9v-1h-1h-70.9v-38.8h80.9h20.8H858.3 M859.3,412.9h-81.9h0h-20.8h0h-81.9
			v40.8h71.9v21.9h0h40.8h0v-21.9h71.9V412.9L859.3,412.9z"/>
	</g>
	<g>
		<path class="st0" d="M1067.4,475.1v-21.9h-71.9v-39.8h102.3c5.2,0,9.5,4.3,9.5,9.5v52.3H1067.4z"/>
		<path d="M1097.7,413.9c5,0,9,4,9,9v20.8v30.9h-38.8v-20.9v-1h-1h-70.9v-38.8h80.9H1097.7 M1097.7,412.9h-20.8h-81.9v40.8h71.9
			v21.9h40.8v-31.9v-20.8C1107.7,417.4,1103.2,412.9,1097.7,412.9L1097.7,412.9z"/>
	</g>
	<path class="st4" d="M997.2,923V529.3c0-5.5,4.5-10,10-10h160.1c5.5,0,10,4.5,10,10V923c0,5.5-4.5,10-10,10h-160.1
		C1001.7,933,997.2,928.5,997.2,923z"/>
	<g>
		<g>
			
				<rect x="1053.9" y="624.6" transform="matrix(-1.836970e-16 1 -1 -1.836970e-16 1765.8678 -393.442)" class="st5" width="51.5" height="123.2"/>
			<circle class="st5" cx="1079.7" cy="686.2" r="18.6"/>
			
				<rect x="1076.6" y="675.5" transform="matrix(-1.836970e-16 1 -1 -1.836970e-16 1765.8678 -393.442)" class="st5" width="6.2" height="21.5"/>
		</g>
		<g>
			<circle class="st6" cx="1104.7" cy="686.1" r="2.7"/>
			<circle class="st1" cx="1054.6" cy="686.1" r="2.7"/>
		</g>
	</g>
	<g>
		<g>
			
				<rect x="1053.9" y="688.6" transform="matrix(-1.836970e-16 1 -1 -1.836970e-16 1829.8746 -329.4352)" class="st5" width="51.5" height="123.2"/>
			<circle class="st5" cx="1079.7" cy="750.2" r="18.6"/>
			
				<rect x="1076.6" y="739.5" transform="matrix(-1.836970e-16 1 -1 -1.836970e-16 1829.8746 -329.4352)" class="st5" width="6.2" height="21.5"/>
		</g>
		<g>
			<circle class="st6" cx="1104.7" cy="750.1" r="2.7"/>
			<circle class="st1" cx="1054.6" cy="750.1" r="2.7"/>
		</g>
	</g>
	<g>
		<g>
			
				<rect x="1053.9" y="752.6" transform="matrix(-1.836970e-16 1 -1 -1.836970e-16 1893.8815 -265.4284)" class="st7" width="51.5" height="123.2"/>
		</g>
	</g>
	<g>
		<g>
			
				<rect x="1053.9" y="816.6" transform="matrix(-1.836970e-16 1 -1 -1.836970e-16 1957.8883 -201.4216)" class="st5" width="51.5" height="123.2"/>
			<circle class="st5" cx="1079.7" cy="878.2" r="18.6"/>
			
				<rect x="1076.6" y="867.5" transform="matrix(-1.836970e-16 1 -1 -1.836970e-16 1957.8883 -201.4216)" class="st5" width="6.2" height="21.5"/>
		</g>
		<g>
			<circle class="st6" cx="1104.7" cy="878.1" r="2.7"/>
			<circle class="st1" cx="1054.6" cy="878.1" r="2.7"/>
		</g>
	</g>
	<path class="st8" d="M998.2,547.5h109.4c0.8,0,1.5,0.7,1.5,1.5l0,0c0,0.8-0.7,1.5-1.5,1.5H998.2"/>
	<g>
		<path class="st1" d="M1148.2,765.8v-31.2c0-1,0.8-1.8,1.8-1.8l0,0c1,0,1.8,0.8,1.8,1.8v31.2c0,1-0.8,1.8-1.8,1.8l0,0
			C1149,767.6,1148.2,766.8,1148.2,765.8z"/>
	</g>
	<g>
		<path class="st2" d="M1148.2,829.8v-31.2c0-1,0.8-1.8,1.8-1.8l0,0c1,0,1.8,0.8,1.8,1.8v31.2c0,1-0.8,1.8-1.8,1.8l0,0
			C1149,831.6,1148.2,830.8,1148.2,829.8z"/>
	</g>
	<g>
		<path class="st1" d="M1148.2,701.8v-31.2c0-1,0.8-1.8,1.8-1.8l0,0c1,0,1.8,0.8,1.8,1.8v31.2c0,1-0.8,1.8-1.8,1.8l0,0
			C1149,703.6,1148.2,702.8,1148.2,701.8z"/>
	</g>
	<g>
		<path class="st1" d="M1148.2,893.9v-31.2c0-1,0.8-1.8,1.8-1.8l0,0c1,0,1.8,0.8,1.8,1.8v31.2c0,1-0.8,1.8-1.8,1.8l0,0
			C1149,895.6,1148.2,894.8,1148.2,893.9z"/>
	</g>
	<path class="st8" d="M998.2,560.9h109.4c0.8,0,1.5,0.7,1.5,1.5l0,0c0,0.8-0.7,1.5-1.5,1.5H998.2"/>
	<path class="st8" d="M998.2,574.3h109.4c0.8,0,1.5,0.7,1.5,1.5l0,0c0,0.8-0.7,1.5-1.5,1.5H998.2"/>
	<path class="st8" d="M998.2,587.8h109.4c0.8,0,1.5,0.7,1.5,1.5l0,0c0,0.8-0.7,1.5-1.5,1.5H998.2"/>
	<path class="st8" d="M998.2,601.2h109.4c0.8,0,1.5,0.7,1.5,1.5l0,0c0,0.8-0.7,1.5-1.5,1.5H998.2"/>
	<path class="st8" d="M998.2,614.6h109.4c0.8,0,1.5,0.7,1.5,1.5l0,0c0,0.8-0.7,1.5-1.5,1.5H998.2"/>
	<path class="st8" d="M998.2,628h109.4c0.8,0,1.5,0.7,1.5,1.5l0,0c0,0.8-0.7,1.5-1.5,1.5H998.2"/>
	<rect x="1140.9" y="547.4" width="25.5" height="84.6"/>
	<g>
		<path class="st9" d="M993.5,691.2v233c0,5.7,4.7,10.4,10.4,10.4h166.8c5.7,0,10.4-4.7,10.4-10.4v-233"/>
	</g>
	<text transform="matrix(1 0 0 1 1124.1173 217.7332)" class="st10 st11">InteliBelt</text>
	<g>
		<path class="st0" d="M1512.3,265.5c-5.2,0-9.5-4.3-9.5-9.5V172c0-5.2,4.3-9.5,9.5-9.5h394.2c5.2,0,9.5,4.3,9.5,9.5V256
			c0,5.2-4.3,9.5-9.5,9.5H1512.3z"/>
		<path d="M1906.4,163c5,0,9,4,9,9V256c0,5-4,9-9,9h-394.2c-5,0-9-4-9-9V172c0-5,4-9,9-9H1906.4 M1906.4,162h-394.2
			c-5.5,0-10,4.5-10,10V256c0,5.5,4.5,10,10,10h394.2c5.5,0,10-4.5,10-10V172C1916.4,166.5,1911.9,162,1906.4,162L1906.4,162z"/>
	</g>
	<g>
		<path d="M1681.9,256.2c-3.3,0-6-2.7-6-6v-12.7c0-3.3,2.7-6,6-6h230c3.3,0,6,2.7,6,6v12.7c0,3.3-2.7,6-6,6H1681.9z"/>
		<path d="M1911.9,235.5c1.1,0,2,0.9,2,2v12.7c0,1.1-0.9,2-2,2h-230c-1.1,0-2-0.9-2-2v-12.7c0-1.1,0.9-2,2-2H1911.9 M1911.9,227.5
			h-230c-5.5,0-10,4.5-10,10v12.7c0,5.5,4.5,10,10,10h230c5.5,0,10-4.5,10-10v-12.7C1921.9,232,1917.4,227.5,1911.9,227.5
			L1911.9,227.5z"/>
	</g>
	<g>
		<path class="st8" d="M1530.5,265.3v-96.4c0-0.8,0.7-1.5,1.5-1.5l0,0c0.8,0,1.5,0.7,1.5,1.5v96.4"/>
		<path class="st8" d="M1543.9,265.3v-96.4c0-0.8,0.7-1.5,1.5-1.5l0,0c0.8,0,1.5,0.7,1.5,1.5v96.4"/>
		<path class="st8" d="M1557.3,265.3v-96.4c0-0.8,0.7-1.5,1.5-1.5l0,0c0.8,0,1.5,0.7,1.5,1.5v96.4"/>
		<path class="st8" d="M1570.7,265.3v-96.4c0-0.8,0.7-1.5,1.5-1.5l0,0c0.8,0,1.5,0.7,1.5,1.5v96.4"/>
		<path class="st8" d="M1584.1,265.3v-96.4c0-0.8,0.7-1.5,1.5-1.5l0,0c0.8,0,1.5,0.7,1.5,1.5v96.4"/>
		<path class="st8" d="M1597.6,265.3v-96.4c0-0.8,0.7-1.5,1.5-1.5l0,0c0.8,0,1.5,0.7,1.5,1.5v96.4"/>
		<path class="st8" d="M1611,265.3v-96.4c0-0.8,0.7-1.5,1.5-1.5l0,0c0.8,0,1.5,0.7,1.5,1.5v96.4"/>
	</g>
	<path class="st12" d="M1502.3,232c0-5.5,4.8-8.2,10-10c21.3-7.3,105.3-40.5,141-52.7c10.7-3.4,27.3-7.2,38.6-7.3"/>
	<g>
		<g>
			<path class="st0" d="M1405.8,265.4c-5.2,0-9.5-4.3-9.5-9.5v-20.8c0-5.2,4.3-9.5,9.5-9.5h146.8c5.2,0,9.5,4.3,9.5,9.5v20.8
				c0,5.2-4.3,9.5-9.5,9.5H1405.8z"/>
			<path d="M1552.7,226.1c5,0,9,4,9,9v20.8c0,5-4,9-9,9h-146.8c-5,0-9-4-9-9v-20.8c0-5,4-9,9-9H1552.7 M1552.7,225.1h-146.8
				c-5.5,0-10,4.5-10,10v20.8c0,5.5,4.5,10,10,10h146.8c5.5,0,10-4.5,10-10v-20.8C1562.7,229.6,1558.2,225.1,1552.7,225.1
				L1552.7,225.1z"/>
		</g>
		<g>
			<path class="st1" d="M1607.9,201.7l-2-1.4c-0.8-0.6-1-1.7-0.4-2.5l0,0c0.6-0.8,1.7-1,2.5-0.4l2,1.4c0.8,0.6,1,1.7,0.4,2.5l0,0
				C1609.8,202.1,1608.7,202.2,1607.9,201.7z"/>
		</g>
		<g>
			<path d="M1637.7,256.9c-1.1,0-2.1-1-2.1-2.1v-21.9c0-1.1,1-2.1,2.1-2.1s2.1,1,2.1,2.1v21.9
				C1639.8,255.9,1638.9,256.9,1637.7,256.9z"/>
			<path d="M1637.7,226.7c-3.4,0-6.1,2.8-6.1,6.1v21.9c0,3.4,2.8,6.1,6.1,6.1c3.4,0,6.1-2.8,6.1-6.1v-21.9
				C1643.8,229.5,1641.1,226.7,1637.7,226.7L1637.7,226.7z"/>
		</g>
		<g>
			<path class="st0" d="M1519.7,265.5c-5.2,0-9.5-4.3-9.5-9.5v-30.3c0-5.1,17.7-32.6,25.4-32.6h56.7c12.4,0.5,23.9,13,35.1,25.1
				c3.1,3.4,6.1,6.6,9.1,9.5V256c0,5.2-4.3,9.5-9.5,9.5H1519.7z"/>
			<path d="M1535.5,192.6l0,1l56.6,0c12.2,0.5,23.7,12.9,34.7,24.9c3.1,3.3,6,6.5,8.9,9.4V256c0,5-4,9-9,9h-107.2c-5,0-9-4-9-9
				v-30.3c0-5.4,18-32.1,24.9-32.1L1535.5,192.6 M1535.5,192.6c-7.8,0-25.9,27.6-25.9,33.1V256c0,5.5,4.5,10,10,10h107.2
				c5.5,0,10-4.5,10-10v-28.5c-13.9-13.7-28.5-34.2-44.6-34.9L1535.5,192.6C1535.5,192.6,1535.5,192.6,1535.5,192.6L1535.5,192.6z"
				/>
		</g>
	</g>
	<path class="st2" d="M416.6,920.7V722.9c0-5.5,4.5-10,10-10h20.8c5.5,0,10,4.5,10,10v197.8"/>
	<path class="st2" d="M746.6,920.7V722.9c0-5.5,4.5-10,10-10h20.8c5.5,0,10,4.5,10,10v197.8"/>
</g>
</svg>
