<?xml version="1.0" encoding="utf-8"?>
<!-- Generator: Adobe Illustrator 23.0.1, SVG Export Plug-In . SVG Version: 6.00 Build 0)  -->
<svg version="1.1" id="Layer_1" xmlns="http://www.w3.org/2000/svg" xmlns:xlink="http://www.w3.org/1999/xlink" x="0px" y="0px"
	 viewBox="0 0 6068 2982" style="enable-background:new 0 0 6068 2982;" xml:space="preserve">
<style type="text/css">
	.st0{fill:#D9F8FF;}
	.st1{fill:#FFFFFF;}
	.st2{fill:none;stroke:#000000;stroke-width:18;stroke-miterlimit:10;}
	.st3{fill:#E59D6C;}
	.st4{fill:none;stroke:#FFDA00;stroke-width:8;stroke-miterlimit:10;}
	.st5{fill:#6DDAE2;}
	.st6{fill:#FF7F00;}
	.st7{fill:#FFFFFF;stroke:#FFDA00;stroke-width:8;stroke-miterlimit:10;}
	.st8{fill:#FFDA00;}
	.st9{display:none;fill:none;stroke:#FFDA00;stroke-width:8;stroke-miterlimit:10;}
	.st10{fill:#059E05;}
	.st11{fill:none;stroke:#4D4D4D;stroke-width:8;stroke-miterlimit:10;}
	.st12{fill:#727272;}
	.st13{fill:#07589B;}
	.st14{fill:#FFFFFF;stroke:#4D4D4D;stroke-width:8;stroke-miterlimit:10;}
	.st15{fill:#FFFCC3;stroke:#000000;stroke-miterlimit:10;}
	.st16{display:none;}
	.st17{display:inline;}
	.st18{fill:#993605;}
	.st19{font-family:'MyriadPro-Regular';}
	.st20{font-size:27.291px;}
</style>
<rect x="-4" y="2130" class="st0" width="6072" height="848"/>
<polygon class="st1" points="4053,2334 3613,2334 3398,2123 4053,2123 "/>
<g>
	<path d="M4777,1046v1068H2665V1046H4777 M4795,1028H2647v1104h2148V1028L4795,1028z"/>
</g>
<g>
	<rect x="3048" y="1394" class="st1" width="1346" height="729"/>
	<path d="M4385,1403v711H3057v-711H4385 M4403,1385H3039v747h1364V1385L4403,1385z"/>
</g>
<polyline class="st2" points="3398,2123 3613,2334 4053,2334 4053,2121 "/>
<rect x="3408" y="2113" class="st1" width="635.7" height="22"/>
<rect x="3355.2" y="2219.8" transform="matrix(0.7071 0.7071 -0.7071 0.7071 2604.6272 -1826.6263)" class="st3" width="304.1" height="22"/>
<g>
	<path class="st4" d="M4550,1772c0-8.8-7.2-16-16-16h-178c-8.8,0-16-7.2-16-16v-268c0-8.8-7.2-16-16-16h-850c-8.8,0-16,7.2-16,16v14
		c0,8.8,0,23.2,0,32v527c0,8.8,0,23.2,0,32v5.9c0,8.8,5.1,21.1,11.3,27.3l166.4,166.4c6.2,6.2,18.5,11.3,27.3,11.3H3976
		c8.8,0,16-7.2,16-16v-195c0-8.8,7.2-16,16-16h316c8.8,0,16-7.2,16-16v-86.8c0-8.8,7.2-16,16-16h178c8.8,0,16-7.2,16-16V1772z"/>
</g>
<rect x="4404" y="1699" class="st1" width="174" height="290"/>
<rect x="3976.1" y="2199.3" transform="matrix(-1.836970e-16 1 -1 -1.836970e-16 6263.2969 -1842.6964)" class="st5" width="153.9" height="22"/>
<rect x="4260.5" y="1837.5" transform="matrix(-1.836970e-16 1 -1 -1.836970e-16 6242.4966 -2545.4966)" class="st3" width="267" height="22"/>
<circle class="st4" cx="3724" cy="1849" r="267"/>
<circle class="st6" cx="3724" cy="1849" r="267"/>
<rect x="3458" y="1755" class="st7" width="131" height="197"/>
<circle class="st8" cx="3724" cy="1849" r="184"/>
<g>
	<g>
		<rect x="269.5" y="1734.5" class="st1" width="2779" height="388"/>
		<path d="M3039.5,1743.5v370h-2761v-370H3039.5 M3057.5,1725.5h-2797v406h2797V1725.5L3057.5,1725.5z"/>
	</g>
	
		<rect x="2665.2" y="1693.5" transform="matrix(-1 -1.224647e-16 1.224647e-16 -1 5704.7183 3452.9985)" class="st1" width="374.3" height="66"/>
	<g>
		<g>
			<path class="st8" d="M2948.2,1844.7c0-8.8-7.2-16-16-16H392.5c-8.8,0-16,7.2-16,16v9c0,8.8,7.2,16,16,16h2539.7
				c8.8,0,16-7.2,16-16V1844.7z"/>
		</g>
		<g>
			<path class="st8" d="M2948.2,2000.3c0-8.8-7.2-16-16-16H392.5c-8.8,0-16,7.2-16,16v9c0,8.8,7.2,16,16,16h2539.7
				c8.8,0,16-7.2,16-16V2000.3z"/>
		</g>
	</g>
	<g>
		<rect x="269" y="1039.5" class="st1" width="388" height="694.5"/>
		<path d="M648,1048.5V1725H278v-676.5H648 M666,1030.5H260V1743h406V1030.5L666,1030.5z"/>
	</g>
	
		<rect x="278.2" y="1690.5" transform="matrix(-1 -1.224647e-16 1.224647e-16 -1 926.3387 3446.9985)" class="st1" width="370" height="66"/>
	<g>
		<g>
			<path class="st8" d="M541.9,2025.5c8.8,0,16-7.2,16-16v-905c0-8.8-7.2-16-16-16h-9c-8.8,0-16,7.2-16,16v905c0,8.8,7.2,16,16,16
				H541.9z"/>
		</g>
		<g>
			<path class="st8" d="M386.4,2025.5c8.8,0,16-7.2,16-16v-905c0-8.8-7.2-16-16-16h-9c-8.8,0-16,7.2-16,16v905c0,8.8,7.2,16,16,16
				H386.4z"/>
		</g>
	</g>
	
		<rect x="402.5" y="1816.5" transform="matrix(-1 -1.224647e-16 1.224647e-16 -1 919.3933 3698.9971)" class="st1" width="114.4" height="66"/>
	
		<rect x="486.5" y="1893.9" transform="matrix(-1.836970e-16 1 -1 -1.836970e-16 2470.6116 1383.2186)" class="st1" width="114.4" height="66"/>
</g>
<g>
	<rect x="3446" y="1759" class="st1" width="23" height="189"/>
</g>
<rect x="2776" y="1828.5" class="st8" width="1054" height="41"/>
<g>
	<path class="st8" d="M3184.6,1858c-8.8,0-16-7.2-16-16v-317c0-8.8,7.2-16,16-16h9c8.8,0,16,7.2,16,16v317c0,8.8-7.2,16-16,16
		H3184.6z"/>
</g>
<g>
	<path class="st8" d="M3340.1,1858c-8.8,0-16-7.2-16-16v-317c0-8.8,7.2-16,16-16h9c8.8,0,16,7.2,16,16v317c0,8.8-7.2,16-16,16
		H3340.1z"/>
</g>
<rect x="2913.5" y="1837.5" transform="matrix(-1.836970e-16 1 -1 -1.836970e-16 4895.4966 -1198.4966)" class="st3" width="267" height="22"/>
<rect x="3355.2" y="2219.8" transform="matrix(0.7071 0.7071 -0.7071 0.7071 2604.6272 -1826.6263)" class="st5" width="304.1" height="22"/>
<polygon class="st9" points="4340,1456 3458,1456 3458,1502 3458,2061 3458,2098.9 3647.1,2288 3992,2288 3992,2061 4340,2061 "/>
<path class="st10" d="M3802.2,1829.9l-43.5-64.7c-10.5-15.6-6.3-36.7,9.2-47.2l64.7-43.5c15.6-10.5,36.7-6.3,47.2,9.2l43.5,64.7
	c10.5,15.6,6.3,36.7-9.2,47.2l-64.7,43.5C3833.8,1849.6,3812.7,1845.5,3802.2,1829.9z"/>
<path class="st10" d="M2220,2043v-78c0-18.8,15.2-34,34-34h78c18.8,0,34,15.2,34,34v78c0,18.8-15.2,34-34,34h-78
	C2235.2,2077,2220,2061.8,2220,2043z"/>
<path class="st11" d="M3189,1500L3189,1500c-5.5,0-10-4.5-10-10v-52c0-5.5,4.5-10,10-10l0,0c5.5,0,10,4.5,10,10v52
	C3199,1495.5,3194.5,1500,3189,1500z"/>
<path class="st10" d="M3228.1,1558h-78c-18.8,0-34-15.2-34-34v0c0-18.8,15.2-34,34-34h78c18.8,0,34,15.2,34,34v0
	C3262.1,1542.8,3246.8,1558,3228.1,1558z"/>
<g>
	<g>
		<path class="st12" d="M3977.8,1679.7c8.3,3,13.2,10.6,10.9,16.8s-10.9,8.8-19.2,5.7l-48.6-17.8c-8.3-3-13.2-10.6-10.9-16.8
			c2.3-6.2,10.9-8.8,19.2-5.7L3977.8,1679.7z"/>
	</g>
	<g>
		<circle cx="3949.3" cy="1682.1" r="22"/>
	</g>
</g>
<g>
	<path class="st13" d="M3961.4,1806.1L3961.4,1806.1c-12.6-10.3-14.4-28.8-4.1-41.4l36.3-44.2c10.3-12.6,28.8-14.4,41.4-4.1v0
		c12.6,10.3,14.4,28.8,4.1,41.4l-36.3,44.2C3992.5,1814.6,3973.9,1816.4,3961.4,1806.1z"/>
	<circle class="st1" cx="3997.7" cy="1733.7" r="3"/>
	<circle class="st1" cx="3993" cy="1739.5" r="3"/>
	<circle class="st1" cx="4020.5" cy="1748.5" r="8.5"/>
	<circle class="st1" cx="3980.5" cy="1764.5" r="5.5"/>
	<circle class="st1" cx="3988.3" cy="1745.3" r="3"/>
	<circle class="st1" cx="4017" cy="1728" r="7"/>
</g>
<path class="st11" d="M3344,1498L3344,1498c-5.5,0-10-4.5-10-10v-52c0-5.5,4.5-10,10-10l0,0c5.5,0,10,4.5,10,10v52
	C3354,1493.5,3349.5,1498,3344,1498z"/>
<path class="st14" d="M3398.9,1474h-264c-5.5,0-10-4.5-10-10v-39c0-5.5,4.5-10,10-10h264c5.5,0,10,4.5,10,10v39
	C3408.9,1469.5,3404.4,1474,3398.9,1474z"/>
<g>
	<rect x="2656" y="1004" class="st1" width="2779" height="388"/>
	<path d="M5426,1013v370H2665v-370H5426 M5444,995H2647v406h2797V995L5444,995z"/>
</g>
<g>
	<rect x="2656" y="1006" class="st1" width="2779" height="388"/>
	<path d="M5426,1015v370H2665v-370H5426 M5444,997H2647v406h2797V997L5444,997z"/>
</g>
<rect x="2665" y="1367" class="st1" width="374" height="66"/>
<g>
	<g>
		<path class="st8" d="M2770.6,2025.3c-8.8,0-16-7.2-16-16V1116c0-8.8,7.2-16,16-16h9c8.8,0,16,7.2,16,16v893.3c0,8.8-7.2,16-16,16
			H2770.6z"/>
	</g>
	<g>
		<path class="st8" d="M2926.1,2025.3c-8.8,0-16-7.2-16-16V1116c0-8.8,7.2-16,16-16h9c8.8,0,16,7.2,16,16v893.3c0,8.8-7.2,16-16,16
			H2926.1z"/>
	</g>
</g>
<g>
	<path class="st4" d="M3986,1907h195c8.8,0,16-7.2,16-16v-239"/>
</g>
<g>
	<path class="st4" d="M4197,1657v-75c0-8.8-7.2-16-16-16h-597c-8.8,0-16,7.2-16,16v44"/>
</g>
<g>
	<path class="st8" d="M4339.1,1842l-1.2,0.4c0,0,0,0,0,0l0,0c0.1,0.1,0.1,0.1,0.2,0.2l1.8,2.5l0.4,0.5l3.5-1.2l8.4-6.2
		c0,0,0.1-0.1,0.1-0.1c0,0,0,0,0,0c0.1-0.1,0.2-0.3,0.2-0.5c0,0,0,0,0,0c0,0,0,0,0,0c0-0.2,0-0.3-0.1-0.5l-1.3-1.8
		c-0.2-0.3-0.7-0.4-1.1-0.2l-7.9,5.8L4339.1,1842z"/>
	<path class="st8" d="M4353,1852.5c0-0.3-0.2-0.6-0.5-0.6l-10.2-1.5l-3.3-3.3l-0.7-1l-1.8-2.5c-0.1-0.2-0.3-0.3-0.5-0.4
		c-0.3-0.2-0.6-0.3-0.9-0.3h-0.7l-5.3,0.1l-3.9,0.1l3-2.7l4.6-1.5c0.5-0.2,0.7-0.6,0.7-1c0-0.1,0-0.2-0.1-0.3l-0.5-1.5
		c-0.2-0.6-0.8-0.9-1.4-0.7l-5.3,1.8l-6.2,5.7c-0.3,0.2-0.4,0.6-0.4,1c0,0.1,0,0.1,0,0.2l0.7,4.5c0.1,0.4,0.3,0.7,0.7,0.9l4.2,3.2
		l1.9,6c0.2,0.5,0.7,0.8,1.2,0.6l1.8-0.6c0.4-0.1,0.7-0.5,0.7-0.9c0-0.1,0-0.2,0-0.3l-1.6-5.3l-1.1-1.7l-0.5-0.9h8.7l4.5,4.4
		l11.5,1.6c0.3,0.1,0.6-0.2,0.7-0.5L4353,1852.5C4353,1852.5,4353,1852.5,4353,1852.5z"/>
	<path class="st8" d="M4318.1,1847.9c0.2-0.4,0.3-0.9,0.3-1.3c0-0.8-0.3-1.6-0.8-2.2v0c-0.7-0.8-1.7-1.4-2.8-1.4
		c-2,0-3.6,1.6-3.6,3.6c0,2,1.6,3.6,3.6,3.6C4316.3,1850.2,4317.6,1849.2,4318.1,1847.9z"/>
</g>
<g>
	<path class="st8" d="M3832.1,1504l-1.2,0.4c0,0,0,0,0,0l0,0c0.1,0.1,0.1,0.1,0.2,0.2l1.8,2.5l0.4,0.5l3.5-1.2l8.4-6.2
		c0,0,0.1-0.1,0.1-0.1c0,0,0,0,0,0c0.1-0.1,0.2-0.3,0.2-0.5c0,0,0,0,0,0c0,0,0,0,0,0c0-0.2,0-0.3-0.1-0.5l-1.3-1.8
		c-0.2-0.3-0.7-0.4-1.1-0.2l-7.9,5.8L3832.1,1504z"/>
	<path class="st8" d="M3846,1514.5c0-0.3-0.2-0.6-0.5-0.6l-10.2-1.5l-3.3-3.3l-0.7-1l-1.8-2.5c-0.1-0.2-0.3-0.3-0.5-0.4
		c-0.3-0.2-0.6-0.3-0.9-0.3h-0.7l-5.3,0.1l-3.9,0.1l3-2.7l4.6-1.5c0.5-0.2,0.7-0.6,0.7-1c0-0.1,0-0.2-0.1-0.3l-0.5-1.5
		c-0.2-0.6-0.8-0.9-1.4-0.7l-5.3,1.8l-6.2,5.7c-0.3,0.2-0.4,0.6-0.4,1c0,0.1,0,0.1,0,0.2l0.7,4.5c0.1,0.4,0.3,0.7,0.7,0.9l4.2,3.2
		l1.9,6c0.2,0.5,0.7,0.8,1.2,0.6l1.8-0.6c0.4-0.1,0.7-0.5,0.7-0.9c0-0.1,0-0.2,0-0.3l-1.6-5.3l-1.1-1.7l-0.5-0.9h8.7l4.5,4.4
		l11.5,1.6c0.3,0.1,0.6-0.2,0.7-0.5L3846,1514.5C3846,1514.5,3846,1514.5,3846,1514.5z"/>
	<path class="st8" d="M3811.1,1509.9c0.2-0.4,0.3-0.9,0.3-1.3c0-0.8-0.3-1.6-0.8-2.2v0c-0.7-0.8-1.7-1.4-2.8-1.4
		c-2,0-3.6,1.6-3.6,3.6c0,2,1.6,3.6,3.6,3.6C3809.3,1512.2,3810.6,1511.2,3811.1,1509.9z"/>
</g>
<g>
	<path class="st8" d="M3842.1,2186l-1.2,0.4c0,0,0,0,0,0l0,0c0.1,0.1,0.1,0.1,0.2,0.2l1.8,2.5l0.4,0.5l3.5-1.2l8.4-6.2
		c0,0,0.1-0.1,0.1-0.1c0,0,0,0,0,0c0.1-0.1,0.2-0.3,0.2-0.5c0,0,0,0,0,0c0,0,0,0,0,0c0-0.2,0-0.3-0.1-0.5l-1.3-1.8
		c-0.2-0.3-0.7-0.4-1.1-0.2l-7.9,5.8L3842.1,2186z"/>
	<path class="st8" d="M3856,2196.5c0-0.3-0.2-0.6-0.5-0.6l-10.2-1.5l-3.3-3.3l-0.7-1l-1.8-2.5c-0.1-0.2-0.3-0.3-0.5-0.4
		c-0.3-0.2-0.6-0.3-0.9-0.3h-0.7l-5.3,0.1l-3.9,0.1l3-2.7l4.6-1.5c0.5-0.2,0.7-0.6,0.7-1c0-0.1,0-0.2-0.1-0.3l-0.5-1.5
		c-0.2-0.6-0.8-0.9-1.4-0.7l-5.3,1.8l-6.2,5.7c-0.3,0.2-0.4,0.6-0.4,1c0,0.1,0,0.1,0,0.2l0.7,4.5c0.1,0.4,0.3,0.7,0.7,0.9l4.2,3.2
		l1.9,6c0.2,0.5,0.7,0.8,1.2,0.6l1.8-0.6c0.4-0.1,0.7-0.5,0.7-0.9c0-0.1,0-0.2,0-0.3l-1.6-5.3l-1.1-1.7l-0.5-0.9h8.7l4.5,4.4
		l11.5,1.6c0.3,0.1,0.6-0.2,0.7-0.5L3856,2196.5C3856,2196.5,3856,2196.5,3856,2196.5z"/>
	<path class="st8" d="M3821.1,2191.9c0.2-0.4,0.3-0.9,0.3-1.3c0-0.8-0.3-1.6-0.8-2.2v0c-0.7-0.8-1.7-1.4-2.8-1.4
		c-2,0-3.6,1.6-3.6,3.6c0,2,1.6,3.6,3.6,3.6C3819.3,2194.2,3820.6,2193.2,3821.1,2191.9z"/>
</g>
<g>
	<g>
		<path class="st8" d="M2756.3,1116.2c0-8.8,7.2-16,16-16H5312c8.8,0,16,7.2,16,16v9c0,8.8-7.2,16-16,16H2772.3c-8.8,0-16-7.2-16-16
			V1116.2z"/>
	</g>
	<g>
		<path class="st8" d="M2756.3,1271.8c0-8.8,7.2-16,16-16H5312c8.8,0,16,7.2,16,16v9c0,8.8-7.2,16-16,16H2772.3c-8.8,0-16-7.2-16-16
			V1271.8z"/>
	</g>
</g>
<path class="st10" d="M4678,1319v-78c0-18.8,15.2-34,34-34l0,0c18.8,0,34,15.2,34,34v78c0,18.8-15.2,34-34,34l0,0
	C4693.2,1353,4678,1337.8,4678,1319z"/>
<path class="st10" d="M3052,1157v-78c0-18.8,15.2-34,34-34l0,0c18.8,0,34,15.2,34,34v78c0,18.8-15.2,34-34,34l0,0
	C3067.2,1191,3052,1175.8,3052,1157z"/>
<path class="st10" d="M780,2044v-78c0-18.8,15.2-34,34-34h0c18.8,0,34,15.2,34,34v78c0,18.8-15.2,34-34,34h0
	C795.2,2078,780,2062.8,780,2044z"/>
<path class="st10" d="M1810,1889v-78c0-18.8,15.2-34,34-34l0,0c18.8,0,34,15.2,34,34v78c0,18.8-15.2,34-34,34l0,0
	C1825.2,1923,1810,1907.8,1810,1889z"/>
<g>
	<rect x="5047.5" y="311" class="st1" width="388" height="694.5"/>
	<path d="M5426.5,320v676.5h-370V320H5426.5 M5444.5,302h-406v712.5h406V302L5444.5,302z"/>
</g>
<rect x="5057" y="967" class="st1" width="369" height="66"/>
<g>
	<g>
		<path class="st8" d="M5162.6,1297c-8.8,0-16-7.2-16-16V376c0-8.8,7.2-16,16-16h9c8.8,0,16,7.2,16,16v905c0,8.8-7.2,16-16,16
			H5162.6z"/>
	</g>
	<g>
		<path class="st8" d="M5318.1,1297c-8.8,0-16-7.2-16-16V376c0-8.8,7.2-16,16-16h9c8.8,0,16,7.2,16,16v905c0,8.8-7.2,16-16,16
			H5318.1z"/>
	</g>
</g>
<rect x="5187.6" y="1088" class="st1" width="114.4" height="66"/>
<rect x="5103.6" y="1165.4" transform="matrix(-1.836970e-16 1 -1 -1.836970e-16 6359.2183 -3962.385)" class="st1" width="114.4" height="66"/>
<rect x="2795.7" y="1243" class="st1" width="114.4" height="66"/>
<rect x="2873.2" y="1165.5" transform="matrix(-1.836970e-16 1 -1 -1.836970e-16 4128.9263 -1731.9265)" class="st1" width="114.4" height="66"/>
<rect x="2795.7" y="1818" class="st1" width="114.4" height="66"/>
<rect x="2723" y="1893.8" transform="matrix(-1.836970e-16 1 -1 -1.836970e-16 4706.9268 -853.426)" class="st1" width="114.4" height="66"/>
<rect x="3816" y="2233.8" class="st15" width="204" height="90.2"/>
<rect x="4675" y="1888.8" class="st15" width="102" height="90.2"/>
<rect x="4634.5" y="1552.5" class="st15" width="141.9" height="228.5"/>
<rect x="4446.5" y="1404.5" class="st15" width="116.5" height="101.3"/>
<rect x="4182.5" y="1498.3" transform="matrix(-1.836970e-16 1 -1 -1.836970e-16 5883.418 -2779.4143)" class="st15" width="297.8" height="107.3"/>
<rect x="3926.7" y="2169.2" transform="matrix(0.9141 0.4055 -0.4055 0.9141 1228.4114 -1416.5944)" class="st15" width="61.3" height="43.1"/>
<rect x="4688.7" y="1467.2" transform="matrix(0.9141 0.4055 -0.4055 0.9141 1009.2008 -1785.9182)" class="st15" width="61.3" height="43.1"/>
<rect x="4562.7" y="1585.7" transform="matrix(-0.4579 -0.889 0.889 -0.4579 5267.623 6426.7598)" class="st15" width="61.3" height="43.1"/>
<rect x="4561.2" y="1680.2" transform="matrix(6.123234e-17 -1 1 6.123234e-17 2890.1121 6293.6187)" class="st15" width="61.3" height="43.1"/>
<rect x="3688" y="2233.8" class="st15" width="107.4" height="90.2"/>
<g class="st16">
	<g class="st17">
		<circle class="st18" cx="3830" cy="1809.3" r="23.7"/>
		<text transform="matrix(1 0 0 1 3822.9751 1817.3004)" class="st1 st19 st20">2</text>
	</g>
	<g class="st17">
		<circle class="st18" cx="4036.5" cy="1816.8" r="23.7"/>
		<text transform="matrix(1 0 0 1 4029.4746 1824.8004)" class="st1 st19 st20">3</text>
	</g>
	<g class="st17">
		<circle class="st18" cx="3983" cy="1644.3" r="23.7"/>
		<text transform="matrix(1 0 0 1 3975.9749 1652.3008)" class="st1 st19 st20">1</text>
	</g>
	<g class="st17">
		<circle class="st18" cx="4331.4" cy="1552" r="23.7"/>
		<text transform="matrix(1 0 0 1 4324.4165 1560.0118)" class="st1 st19 st20">7</text>
	</g>
	<g class="st17">
		<circle class="st18" cx="3928" cy="2282" r="23.7"/>
		<text transform="matrix(1 0 0 1 3913.9792 2289.9829)" class="st1 st19 st20">10</text>
	</g>
	<g class="st17">
		<circle class="st18" cx="3408" cy="2327" r="23.7"/>
		<text transform="matrix(1 0 0 1 3393.9805 2334.9829)" class="st1 st19 st20">11</text>
	</g>
	<g class="st17">
		<circle class="st18" cx="3621" cy="1846" r="23.7"/>
		<text transform="matrix(1 0 0 1 3613.98 1853.9839)" class="st1 st19 st20">4</text>
	</g>
	<g class="st17">
		<circle class="st18" cx="3189.1" cy="1524" r="23.7"/>
		<text transform="matrix(1 0 0 1 3182.0593 1532.0074)" class="st1 st19 st20">5</text>
	</g>
	<g class="st17">
		<circle class="st18" cx="4712" cy="1280" r="23.7"/>
		<text transform="matrix(1 0 0 1 4704.978 1287.9949)" class="st1 st19 st20">8</text>
	</g>
	<g class="st17">
		<circle class="st18" cx="3266.9" cy="1444.5" r="23.7"/>
		<text transform="matrix(1 0 0 1 3259.8718 1452.5101)" class="st1 st19 st20">6</text>
	</g>
	<g class="st17">
		<circle class="st18" cx="4595.4" cy="1844" r="23.7"/>
		<text transform="matrix(1 0 0 1 4588.416 1852.0117)" class="st1 st19 st20">9</text>
	</g>
</g>
</svg>
