<?xml version="1.0" encoding="utf-8"?>
<!-- Generator: Adobe Illustrator 23.0.1, SVG Export Plug-In . SVG Version: 6.00 Build 0)  -->
<svg version="1.1" id="Layer_1" xmlns="http://www.w3.org/2000/svg" xmlns:xlink="http://www.w3.org/1999/xlink" x="0px" y="0px"
	 viewBox="0 0 1685.5 1025.3" style="enable-background:new 0 0 1685.5 1025.3;" xml:space="preserve">
<style type="text/css">
	.st0{fill:none;stroke:#000000;stroke-miterlimit:10;}
	.st1{fill:#FFFFFF;}
	.st2{fill:#808080;stroke:#000000;stroke-width:0.5;stroke-miterlimit:10;}
	.st3{fill:#00FF00;}
	.st4{fill:#E6E6E6;}
	.st5{fill:#FFFFFF;stroke:#000000;stroke-linecap:round;stroke-linejoin:round;stroke-miterlimit:10;}
	.st6{fill:#FFFFFF;stroke:#000000;stroke-miterlimit:10;}
	.st7{fill:none;stroke:#000000;stroke-width:0.5;stroke-miterlimit:10;}
	.st8{stroke:#FFFFFF;stroke-miterlimit:10;}
	.st9{fill-rule:evenodd;clip-rule:evenodd;fill:#FFFFFF;stroke:#000000;stroke-miterlimit:10;}
	.st10{fill-rule:evenodd;clip-rule:evenodd;fill:#00FF00;}
	.st11{fill-rule:evenodd;clip-rule:evenodd;fill:#CCCCCC;}
	.st12{fill:#FF0000;}
	.st13{fill:none;stroke:#FFFFFF;stroke-miterlimit:10;}
	.st14{display:none;fill-rule:evenodd;clip-rule:evenodd;fill:#FFFFFF;stroke:#000000;stroke-miterlimit:10;}
	.st15{fill:#00FF00;stroke:#000000;stroke-miterlimit:10;}
</style>
<path class="st0" d="M1168.7,279.9h113c2.7,0,4.9-2.2,4.9-4.9l18.4-100.6c0-2.7-2.2-4.9-4.9-4.9h-149.8c-2.7,0-4.9,2.2-4.9,4.9
	l18.4,100.6C1163.8,277.7,1166,279.9,1168.7,279.9z"/>
<g>
	<path class="st1" d="M518.6,403.3c-3.6,0-6.9-1.4-9.4-3.9c-2.5-2.5-3.9-5.9-3.9-9.4c0-3.6,1.4-6.9,3.9-9.4l13.8-13.8
		c2.5-2.5,5.9-3.9,9.4-3.9c0,0,0,0,0,0c3.6,0,6.9,1.4,9.4,3.9s3.9,5.9,3.9,9.4c0,3.6-1.4,6.9-3.9,9.4L528,399.5
		C525.5,402,522.2,403.3,518.6,403.3z"/>
	<path d="M532.4,363.4c3.4,0,6.7,1.3,9.1,3.7c5,5,5,13.1,0,18.2l-13.8,13.8c-2.4,2.4-5.6,3.7-9.1,3.7c-3.4,0-6.7-1.3-9.1-3.7
		c-2.4-2.4-3.7-5.6-3.7-9.1c0-3.4,1.3-6.7,3.7-9.1l13.8-13.8C525.8,364.7,529,363.4,532.4,363.4 M532.4,362.4c-3.5,0-7.1,1.3-9.8,4
		l-13.8,13.8c-5.4,5.4-5.4,14.2,0,19.6v0c2.7,2.7,6.2,4,9.8,4c3.5,0,7.1-1.3,9.8-4l13.8-13.8c5.4-5.4,5.4-14.2,0-19.6v0
		C539.5,363.7,536,362.4,532.4,362.4L532.4,362.4z"/>
</g>
<g>
	<path class="st1" d="M596.7,417.2c-3.5,0-6.7-1.3-9.1-3.7c-2.4-2.4-3.7-5.7-3.7-9.1s1.3-6.7,3.7-9.1l29.5-29.5
		c2.4-2.4,5.7-3.7,9.1-3.7c3.5,0,6.7,1.3,9.1,3.7c5,5,5,13.2,0,18.2l-29.5,29.5C603.4,415.9,600.2,417.2,596.7,417.2z"/>
	<path d="M626.2,347c-7.2,0-14.3,2.7-19.7,8.1L577,384.6c-10.9,10.9-10.9,28.6,0,39.5l0,0c5.4,5.4,12.6,8.1,19.7,8.1
		c7.2,0,14.3-2.7,19.7-8.1l29.5-29.5c10.9-10.9,10.9-28.6,0-39.5v0C640.5,349.7,633.4,347,626.2,347L626.2,347z"/>
</g>
<g>
	<rect x="571.2" y="288.1" width="60.6" height="98.4"/>
</g>
<g>
	<rect x="923.4" y="184.9" class="st1" width="28.3" height="99.2"/>
	<path d="M951.2,185.4v98.2h-27.3v-98.2H951.2 M952.2,184.4h-29.3v100.2h29.3V184.4L952.2,184.4z"/>
</g>
<g>
	<polygon class="st1" points="475.4,279.6 655.2,189.5 922.8,189.5 922.8,279.6 	"/>
	<path d="M922.3,190v89.2h-368h-76.9L655.3,190H922.3 M923.3,189H655.1l-181.8,91.2h81.1h369V189L923.3,189z M473.3,280.1h-17.1
		H473.3L473.3,280.1z"/>
</g>
<g>
	<path d="M953,286.6c-1.5,0-2.8-1.3-2.8-2.8v-98.4c0-1.5,1.3-2.8,2.8-2.8s2.8,1.3,2.8,2.8v98.4C955.8,285.3,954.5,286.6,953,286.6z"
		/>
	<path d="M953,183c1.3,0,2.3,1,2.3,2.3v98.4c0,1.3-1,2.3-2.3,2.3s-2.3-1-2.3-2.3v-98.4C950.7,184.1,951.7,183,953,183 M953,182
		c-1.8,0-3.3,1.5-3.3,3.3v98.4c0,1.8,1.5,3.3,3.3,3.3s3.3-1.5,3.3-3.3v-98.4C956.3,183.5,954.8,182,953,182L953,182z"/>
</g>
<rect x="956" y="224.3" transform="matrix(-1 -1.224647e-16 1.224647e-16 -1 1972.3788 454.9212)" class="st2" width="60.4" height="6.3"/>
<rect x="956" y="231.8" transform="matrix(-1 -1.224647e-16 1.224647e-16 -1 1972.3788 469.8774)" class="st2" width="60.4" height="6.3"/>
<rect x="956" y="239.3" transform="matrix(-1 -1.224647e-16 1.224647e-16 -1 1972.3788 484.8336)" class="st2" width="60.4" height="6.3"/>
<g>
	<g>
		<path class="st1" d="M408.2,595.6c-10.6,0-20.5-4.1-27.9-11.5l-3.9-3.9c-7.4-7.4-11.5-17.3-11.5-27.9c0-10.6,4.1-20.5,11.5-27.9
			l193.7-193.7c7.4-7.4,17.3-11.5,27.9-11.5s20.5,4.1,27.9,11.5l3.9,3.9c15.4,15.4,15.4,40.5,0,55.9L436.1,584.1
			C428.7,591.5,418.8,595.6,408.2,595.6z"/>
		<path d="M598,319.6c10.4,0,20.2,4,27.6,11.4l3.9,3.9c7.3,7.3,11.4,17.1,11.4,27.6s-4,20.2-11.4,27.6L435.8,583.7
			c-7.3,7.3-17.1,11.4-27.6,11.4c-10.4,0-20.2-4-27.6-11.4l-3.9-3.9c-15.2-15.2-15.2-39.9,0-55.2l193.7-193.7
			C577.7,323.6,587.5,319.6,598,319.6 M598,318.6c-10.3,0-20.5,3.9-28.3,11.7L376,523.9c-15.6,15.6-15.6,41,0,56.6l3.9,3.9
			c7.8,7.8,18,11.7,28.3,11.7s20.5-3.9,28.3-11.7l193.7-193.7c15.6-15.6,15.6-41,0-56.6l-3.9-3.9C618.5,322.4,608.2,318.6,598,318.6
			L598,318.6z"/>
	</g>
	<g>
		<path d="M457.3,564.5c-1.6,0-3.2-0.6-4.3-1.8l-55.3-55.3c-2.4-2.4-2.4-6.3,0-8.7l109.4-109.4c1.2-1.2,2.7-1.8,4.3-1.8
			c1.6,0,3.2,0.6,4.3,1.8l55.3,55.3c2.4,2.4,2.4,6.3,0,8.7L461.6,562.7C460.5,563.9,458.9,564.5,457.3,564.5z"/>
		<path d="M511.4,388c1.5,0,2.9,0.6,4,1.6l55.3,55.3c2.2,2.2,2.2,5.8,0,8L461.3,562.4c-1.1,1.1-2.5,1.6-4,1.6c-1.5,0-2.9-0.6-4-1.6
			L398,507.1c-2.2-2.2-2.2-5.8,0-8l109.4-109.4C508.5,388.6,509.9,388,511.4,388 M511.4,387c-1.7,0-3.4,0.6-4.7,1.9L397.3,498.4
			c-2.6,2.6-2.6,6.8,0,9.4l55.3,55.3c1.3,1.3,3,1.9,4.7,1.9s3.4-0.6,4.7-1.9l109.4-109.4c2.6-2.6,2.6-6.8,0-9.4L516.1,389
			C514.8,387.7,513.1,387,511.4,387L511.4,387z"/>
	</g>
	<g>
		<path class="st1" d="M580.7,442.1c-1,0-1.9-0.4-2.5-1l-58.9-58.9c-1.4-1.4-1.4-3.7,0-5.1c0.7-0.7,1.6-1,2.5-1c1,0,1.9,0.4,2.5,1
			l58.9,58.9c1.4,1.4,1.4,3.7,0,5.1C582.6,441.7,581.7,442.1,580.7,442.1z"/>
		<path d="M521.8,376.5c0.8,0,1.6,0.3,2.2,0.9l58.9,58.9c1.2,1.2,1.2,3.2,0,4.3c-0.6,0.6-1.4,0.9-2.2,0.9c-0.8,0-1.6-0.3-2.2-0.9
			l-58.9-58.9c-1.2-1.2-1.2-3.2,0-4.3C520.2,376.9,521,376.5,521.8,376.5 M521.8,375.5c-1,0-2.1,0.4-2.9,1.2c-1.6,1.6-1.6,4.2,0,5.8
			l58.9,58.9c0.8,0.8,1.8,1.2,2.9,1.2c1,0,2.1-0.4,2.9-1.2c1.6-1.6,1.6-4.2,0-5.8l-58.9-58.9C523.9,375.9,522.9,375.5,521.8,375.5
			L521.8,375.5z"/>
	</g>
</g>
<g>
	<circle cx="601.5" cy="358.9" r="14.9"/>
</g>
<g>
	<circle class="st3" cx="384.2" cy="574.7" r="2.7"/>
	<circle class="st4" cx="379" cy="569.5" r="2.7"/>
	<circle class="st3" cx="389.4" cy="579.9" r="2.7"/>
</g>
<g>
	<path class="st1" d="M1222.4,599.7c-21.8,0-39.5-17.7-39.5-39.5V352.8c0-21.8,17.7-39.5,39.5-39.5h5.5c21.8,0,39.5,17.7,39.5,39.5
		v207.4c0,21.8-17.7,39.5-39.5,39.5H1222.4z"/>
	<path d="M1228,313.8c21.5,0,39,17.5,39,39v207.4c0,21.5-17.5,39-39,39h-5.5c-21.5,0-39-17.5-39-39V352.8c0-21.5,17.5-39,39-39H1228
		 M1228,312.8h-5.5c-22,0-40,18-40,40v207.4c0,22,18,40,40,40h5.5c22,0,40-18,40-40V352.8C1268,330.8,1250,312.8,1228,312.8
		L1228,312.8z"/>
</g>
<g>
	<path d="M1186.1,567.3c-3.4,0-6.1-2.8-6.1-6.1V455.6c0-3.4,2.8-6.1,6.1-6.1h78.2c3.4,0,6.1,2.8,6.1,6.1v105.6
		c0,3.4-2.8,6.1-6.1,6.1H1186.1z"/>
	<path d="M1264.3,449.9c3.1,0,5.6,2.5,5.6,5.6v105.6c0,3.1-2.5,5.6-5.6,5.6h-78.2c-3.1,0-5.6-2.5-5.6-5.6V455.6
		c0-3.1,2.5-5.6,5.6-5.6H1264.3 M1264.3,448.9h-78.2c-3.6,0-6.6,3-6.6,6.6v105.6c0,3.6,3,6.6,6.6,6.6h78.2c3.6,0,6.6-3,6.6-6.6
		V455.6C1270.9,451.9,1268,448.9,1264.3,448.9L1264.3,448.9z"/>
</g>
<g>
	<path class="st1" d="M1182.8,441.4c-1.5,0-2.8-1.3-2.8-2.8s1.3-2.8,2.8-2.8h84.9c1.5,0,2.8,1.3,2.8,2.8s-1.3,2.8-2.8,2.8H1182.8z"
		/>
	<path d="M1267.6,436.3c1.3,0,2.3,1,2.3,2.3s-1,2.3-2.3,2.3h-84.9c-1.3,0-2.3-1-2.3-2.3s1-2.3,2.3-2.3H1267.6 M1267.6,435.3h-84.9
		c-1.8,0-3.3,1.5-3.3,3.3c0,1.8,1.5,3.3,3.3,3.3h84.9c1.8,0,3.3-1.5,3.3-3.3C1270.9,436.7,1269.5,435.3,1267.6,435.3L1267.6,435.3z"
		/>
</g>
<g>
	<path d="M1211.5,340.9h27.4c4.4,0,8-3.6,8-8v-38c0-4.4-3.6-8-8-8h-27.4c-4.4,0-8,3.6-8,8v38
		C1203.5,337.3,1207.1,340.9,1211.5,340.9z"/>
</g>
<circle class="st5" cx="1225.2" cy="234.9" r="66"/>
<g>
	<g>
		<circle class="st6" cx="1225.2" cy="234.9" r="52.7"/>
		<circle class="st6" cx="1225.2" cy="234.9" r="48.2"/>
	</g>
	<circle class="st7" cx="1230.4" cy="234.9" r="0.5"/>
	<circle class="st7" cx="1231.7" cy="234.9" r="0.5"/>
	<circle class="st7" cx="1229.2" cy="234.9" r="0.5"/>
	<circle class="st7" cx="1227.9" cy="234.9" r="0.5"/>
	<circle class="st7" cx="1226.6" cy="234.9" r="0.5"/>
	<circle class="st7" cx="1225.4" cy="234.9" r="0.5"/>
	<circle class="st7" cx="1224.1" cy="234.9" r="0.5"/>
	<circle class="st7" cx="1222.8" cy="234.9" r="0.5"/>
	<circle class="st7" cx="1221.5" cy="234.9" r="0.5"/>
	<circle class="st7" cx="1220.3" cy="234.9" r="0.5"/>
	<circle class="st7" cx="1219" cy="234.9" r="0.5"/>
	<circle class="st7" cx="1230.4" cy="236.2" r="0.5"/>
	<circle class="st7" cx="1231.7" cy="236.2" r="0.5"/>
	<circle class="st7" cx="1229.2" cy="236.2" r="0.5"/>
	<circle class="st7" cx="1227.9" cy="236.2" r="0.5"/>
	<circle class="st7" cx="1226.6" cy="236.2" r="0.5"/>
	<circle class="st7" cx="1225.4" cy="236.2" r="0.5"/>
	<circle class="st7" cx="1224.1" cy="236.2" r="0.5"/>
	<circle class="st7" cx="1222.8" cy="236.2" r="0.5"/>
	<circle class="st7" cx="1221.5" cy="236.2" r="0.5"/>
	<circle class="st7" cx="1220.3" cy="236.2" r="0.5"/>
	<circle class="st7" cx="1219" cy="236.2" r="0.5"/>
	<circle class="st7" cx="1230.4" cy="237.5" r="0.5"/>
	<circle class="st7" cx="1231.7" cy="237.5" r="0.5"/>
	<circle class="st7" cx="1229.2" cy="237.5" r="0.5"/>
	<circle class="st7" cx="1227.9" cy="237.5" r="0.5"/>
	<circle class="st7" cx="1226.6" cy="237.5" r="0.5"/>
	<circle class="st7" cx="1225.4" cy="237.5" r="0.5"/>
	<circle class="st7" cx="1224.1" cy="237.5" r="0.5"/>
	<circle class="st7" cx="1222.8" cy="237.5" r="0.5"/>
	<circle class="st7" cx="1221.5" cy="237.5" r="0.5"/>
	<circle class="st7" cx="1220.3" cy="237.5" r="0.5"/>
	<circle class="st7" cx="1219" cy="237.5" r="0.5"/>
	<circle class="st7" cx="1230.4" cy="238.7" r="0.5"/>
	<circle class="st7" cx="1231.7" cy="238.7" r="0.5"/>
	<circle class="st7" cx="1229.2" cy="238.7" r="0.5"/>
	<circle class="st7" cx="1227.9" cy="238.7" r="0.5"/>
	<circle class="st7" cx="1226.6" cy="238.7" r="0.5"/>
	<circle class="st7" cx="1225.4" cy="238.7" r="0.5"/>
	<circle class="st7" cx="1224.1" cy="238.7" r="0.5"/>
	<circle class="st7" cx="1222.8" cy="238.7" r="0.5"/>
	<circle class="st7" cx="1221.5" cy="238.7" r="0.5"/>
	<circle class="st7" cx="1220.3" cy="238.7" r="0.5"/>
	<circle class="st7" cx="1219" cy="238.7" r="0.5"/>
	<circle class="st7" cx="1230.4" cy="240" r="0.5"/>
	<circle class="st7" cx="1229.2" cy="240" r="0.5"/>
	<circle class="st7" cx="1227.9" cy="240" r="0.5"/>
	<circle class="st7" cx="1226.6" cy="240" r="0.5"/>
	<circle class="st7" cx="1225.4" cy="240" r="0.5"/>
	<circle class="st7" cx="1224.1" cy="240" r="0.5"/>
	<circle class="st7" cx="1222.8" cy="240" r="0.5"/>
	<circle class="st7" cx="1221.5" cy="240" r="0.5"/>
	<circle class="st7" cx="1220.3" cy="240" r="0.5"/>
	<circle class="st7" cx="1229.2" cy="241.3" r="0.5"/>
	<circle class="st7" cx="1227.9" cy="241.3" r="0.5"/>
	<circle class="st7" cx="1226.6" cy="241.3" r="0.5"/>
	<circle class="st7" cx="1225.4" cy="241.3" r="0.5"/>
	<circle class="st7" cx="1224.1" cy="241.3" r="0.5"/>
	<circle class="st7" cx="1222.8" cy="241.3" r="0.5"/>
	<circle class="st7" cx="1221.5" cy="241.3" r="0.5"/>
	<circle class="st7" cx="1230.4" cy="233.7" r="0.5"/>
	<circle class="st7" cx="1231.7" cy="233.7" r="0.5"/>
	<circle class="st7" cx="1229.2" cy="233.7" r="0.5"/>
	<circle class="st7" cx="1227.9" cy="233.7" r="0.5"/>
	<circle class="st7" cx="1226.6" cy="233.7" r="0.5"/>
	<circle class="st7" cx="1225.4" cy="233.7" r="0.5"/>
	<circle class="st7" cx="1224.1" cy="233.7" r="0.5"/>
	<circle class="st7" cx="1222.8" cy="233.7" r="0.5"/>
	<circle class="st7" cx="1221.5" cy="233.7" r="0.5"/>
	<circle class="st7" cx="1220.3" cy="233.7" r="0.5"/>
	<circle class="st7" cx="1219" cy="233.7" r="0.5"/>
	<circle class="st7" cx="1230.4" cy="232.4" r="0.5"/>
	<circle class="st7" cx="1231.7" cy="232.4" r="0.5"/>
	<circle class="st7" cx="1229.2" cy="232.4" r="0.5"/>
	<circle class="st7" cx="1227.9" cy="232.4" r="0.5"/>
	<circle class="st7" cx="1226.6" cy="232.4" r="0.5"/>
	<circle class="st7" cx="1225.4" cy="232.4" r="0.5"/>
	<circle class="st7" cx="1224.1" cy="232.4" r="0.5"/>
	<circle class="st7" cx="1222.8" cy="232.4" r="0.5"/>
	<circle class="st7" cx="1221.5" cy="232.4" r="0.5"/>
	<circle class="st7" cx="1220.3" cy="232.4" r="0.5"/>
	<circle class="st7" cx="1219" cy="232.4" r="0.5"/>
	<circle class="st7" cx="1230.4" cy="231.1" r="0.5"/>
	<circle class="st7" cx="1231.7" cy="231.1" r="0.5"/>
	<circle class="st7" cx="1229.2" cy="231.1" r="0.5"/>
	<circle class="st7" cx="1227.9" cy="231.1" r="0.5"/>
	<circle class="st7" cx="1226.6" cy="231.1" r="0.5"/>
	<circle class="st7" cx="1225.4" cy="231.1" r="0.5"/>
	<circle class="st7" cx="1224.1" cy="231.1" r="0.5"/>
	<circle class="st7" cx="1222.8" cy="231.1" r="0.5"/>
	<circle class="st7" cx="1221.5" cy="231.1" r="0.5"/>
	<circle class="st7" cx="1220.3" cy="231.1" r="0.5"/>
	<circle class="st7" cx="1219" cy="231.1" r="0.5"/>
	<circle class="st7" cx="1230.4" cy="229.8" r="0.5"/>
	<circle class="st7" cx="1229.2" cy="229.8" r="0.5"/>
	<circle class="st7" cx="1227.9" cy="229.8" r="0.5"/>
	<circle class="st7" cx="1226.6" cy="229.8" r="0.5"/>
	<circle class="st7" cx="1225.4" cy="229.8" r="0.5"/>
	<circle class="st7" cx="1224.1" cy="229.8" r="0.5"/>
	<circle class="st7" cx="1222.8" cy="229.8" r="0.5"/>
	<circle class="st7" cx="1221.5" cy="229.8" r="0.5"/>
	<circle class="st7" cx="1220.3" cy="229.8" r="0.5"/>
	<circle class="st7" cx="1229.2" cy="228.6" r="0.5"/>
	<circle class="st7" cx="1227.9" cy="228.6" r="0.5"/>
	<circle class="st7" cx="1226.6" cy="228.6" r="0.5"/>
	<circle class="st7" cx="1225.4" cy="228.6" r="0.5"/>
	<circle class="st7" cx="1224.1" cy="228.6" r="0.5"/>
	<circle class="st7" cx="1222.8" cy="228.6" r="0.5"/>
	<circle class="st7" cx="1221.5" cy="228.6" r="0.5"/>
</g>
<path class="st8" d="M1217.6,432.8h15.1c4.4,0,8-3.6,8-8v-64.2c0-4.4-3.6-8-8-8h-15.1c-4.4,0-8,3.6-8,8v64.2
	C1209.6,429.2,1213.2,432.8,1217.6,432.8z"/>
<g>
	<rect x="923.4" y="704.9" class="st1" width="28.3" height="99.2"/>
	<path d="M951.2,705.4v98.2h-27.3v-98.2H951.2 M952.2,704.4h-29.3v100.2h29.3V704.4L952.2,704.4z"/>
</g>
<g>
	<path class="st1" d="M405.2,796.8c-21.8,0-39.5-17.7-39.5-39.5v-5.5c0-21.8,17.7-39.5,39.5-39.5h273.9c21.8,0,39.5,17.7,39.5,39.5
		v5.5c0,21.8-17.7,39.5-39.5,39.5H405.2z"/>
	<path d="M679.2,712.8c21.5,0,39,17.5,39,39v5.5c0,21.5-17.5,39-39,39H405.2c-21.5,0-39-17.5-39-39v-5.5c0-21.5,17.5-39,39-39H679.2
		 M679.2,711.8H405.2c-22,0-40,18-40,40v5.5c0,22,18,40,40,40h273.9c22,0,40-18,40-40v-5.5C719.2,729.8,701.2,711.8,679.2,711.8
		L679.2,711.8z"/>
</g>
<g>
	<polygon class="st1" points="406.1,799.6 655.2,709.5 922.8,709.5 922.8,799.6 	"/>
	<path d="M922.3,710v89.2H409L655.3,710H922.3 M923.3,709H655.1l-251.8,91.2h520.1V709L923.3,709z"/>
</g>
<g>
	<path d="M953,806.6c-1.5,0-2.8-1.3-2.8-2.8v-98.4c0-1.5,1.3-2.8,2.8-2.8s2.8,1.3,2.8,2.8v98.4C955.8,805.3,954.5,806.6,953,806.6z"
		/>
	<path d="M953,703c1.3,0,2.3,1,2.3,2.3v98.4c0,1.3-1,2.3-2.3,2.3s-2.3-1-2.3-2.3v-98.4C950.7,704.1,951.7,703,953,703 M953,702
		c-1.8,0-3.3,1.5-3.3,3.3v98.4c0,1.8,1.5,3.3,3.3,3.3s3.3-1.5,3.3-3.3v-98.4C956.3,703.5,954.8,702,953,702L953,702z"/>
</g>
<rect x="956" y="744.3" transform="matrix(-1 -1.224647e-16 1.224647e-16 -1 1972.3788 1494.9219)" class="st2" width="60.4" height="6.3"/>
<rect x="956" y="751.8" transform="matrix(-1 -1.224647e-16 1.224647e-16 -1 1972.3788 1509.8781)" class="st2" width="60.4" height="6.3"/>
<path class="st9" d="M805.7,820.6H400.9c-0.5,0-1-0.5-1-1v-130c0-0.6,0.5-1,1-1h404.7c0.5,0,1,0.4,1,1v130
	C806.7,820.1,806.2,820.6,805.7,820.6z"/>
<rect x="956" y="759.3" transform="matrix(-1 -1.224647e-16 1.224647e-16 -1 1972.3788 1524.8344)" class="st2" width="60.4" height="6.3"/>
<g>
	<path class="st1" d="M406.8,822.9c-4.1,0-7.5-3.4-7.5-7.5V693.7c0-4.1,3.4-7.5,7.5-7.5h277.3c4.1,0,7.5,3.4,7.5,7.5v121.8
		c0,4.1-3.4,7.5-7.5,7.5H406.8z"/>
	<path d="M684.1,686.7c3.9,0,7,3.1,7,7v121.8c0,3.9-3.1,7-7,7H406.8c-3.9,0-7-3.1-7-7V693.7c0-3.9,3.1-7,7-7H684.1 M684.1,685.7
		H406.8c-4.4,0-8,3.6-8,8v121.8c0,4.4,3.6,8,8,8h277.3c4.4,0,8-3.6,8-8V693.7C692.1,689.3,688.5,685.7,684.1,685.7L684.1,685.7z"/>
</g>
<g>
	<g>
		<g>
			<path class="st1" d="M450.6,803.3c-3.7,0-6.7-3-6.7-6.7v-84.1c0-3.7,3-6.7,6.7-6.7h28.1c3.7,0,6.7,3,6.7,6.7v84.1
				c0,3.7-3,6.7-6.7,6.7H450.6z"/>
			<path d="M478.7,705.9c3.6,0,6.6,3,6.6,6.6v84.1c0,3.6-3,6.6-6.6,6.6h-28.1c-3.6,0-6.6-3-6.6-6.6v-84.1c0-3.6,3-6.6,6.6-6.6H478.7
				 M478.7,705.8h-28.1c-3.7,0-6.7,3-6.7,6.7v84.1c0,3.7,3,6.7,6.7,6.7h28.1c3.7,0,6.7-3,6.7-6.7v-84.1
				C485.4,708.8,482.4,705.8,478.7,705.8L478.7,705.8z"/>
		</g>
	</g>
	<g>
		<polygon class="st10" points="464.6,779.4 480.3,769 480.3,761.3 464.6,771.8 448.9,761.3 448.9,769 		"/>
		<polygon class="st11" points="464.6,729.7 480.3,740.1 480.3,747.8 464.6,737.3 448.9,747.8 448.9,740.1 		"/>
	</g>
</g>
<g>
	
		<rect x="415.2" y="754.7" transform="matrix(-1 -1.224647e-16 1.224647e-16 -1 835.4762 1577.2831)" class="st3" width="5.1" height="67.9"/>
	
		<rect x="415.2" y="686.7" transform="matrix(-1 -1.224647e-16 1.224647e-16 -1 835.4762 1441.3345)" class="st12" width="5.1" height="67.9"/>
</g>
<g>
	<g>
		<path d="M664.2,803.2H521c-4.4,0-8-3.6-8-8v-81.3c0-4.4,3.6-8,8-8h143.2c4.4,0,8,3.6,8,8v81.3
			C672.2,799.6,668.6,803.2,664.2,803.2z"/>
	</g>
	<g>
		<path class="st1" d="M554.1,734.1c0.9-1.6,2.3-2.4,4.3-2.4h5.3c1.1,0,2.1,0.4,2.9,1.3c0.8,0.9,1.3,2.1,1.7,3.6h0.2
			c0.3-1.3,0.8-2.3,1.4-3c0.6-0.7,1.5-1,2.7-1h4.4c0.8,0,1.5,0.1,2.1,0.4c0.6,0.3,1.1,0.7,1.7,1.3c1,1.3,1.5,3.7,1.5,7.4
			s-0.5,6.1-1.5,7.4c-0.5,0.6-1.1,1-1.7,1.3c-0.6,0.3-1.3,0.4-2.1,0.4h-4.4c-1.1,0-2-0.3-2.7-1c-0.6-0.6-1.1-1.6-1.4-2.9h-0.2
			c-0.4,1.5-0.9,2.7-1.7,3.6c-0.8,0.9-1.7,1.3-2.9,1.3h-5.2c-2,0-3.5-0.8-4.4-2.3c-0.9-1.6-1.3-4.1-1.3-7.8
			C552.8,738.3,553.2,735.7,554.1,734.1z M556,746.3c0.4,0.9,1.2,1.3,2.2,1.3h5.3c1.5,0,2.4-0.6,2.8-1.9c0.2-0.6,0.3-1.2,0.3-1.7
			c0-0.5,0.1-1.3,0.1-2.2c0-1,0-1.7-0.1-2.2c0-0.5-0.2-1.1-0.3-1.7c-0.4-1.3-1.3-1.9-2.8-1.9h-5.3c-1,0-1.8,0.4-2.2,1.3
			c-0.4,0.9-0.7,2.4-0.7,4.5S555.5,745.5,556,746.3z M569.7,745.8c0.4,0.7,1.2,1.1,2.3,1.1h4.6c1.1,0,1.8-0.4,2.3-1.2
			c0.4-0.8,0.7-2.1,0.7-3.9s-0.2-3.1-0.7-3.9c-0.4-0.8-1.2-1.2-2.3-1.2H572c-1.1,0-1.9,0.4-2.3,1.1c-0.4,0.7-0.6,2.1-0.6,4
			S569.3,745.1,569.7,745.8z"/>
		<path class="st1" d="M553.6,757.9h3.1c-0.7,3.5-1.1,6.4-1.1,8.7c0,3.9,1.1,5.8,3.3,5.8h4.9c1.2,0,2-0.6,2.4-1.9
			c0.1-0.6,0.2-1.2,0.3-1.6c0-0.5,0.1-1.1,0.1-1.9v-5.5h2.7v4.7c0,0.8,0,1.4,0.1,1.8c0,0.5,0.2,1,0.3,1.6c0.1,0.6,0.4,1.1,0.8,1.5
			c0.4,0.3,0.9,0.5,1.6,0.5h5.1c1.5,0,2.2-1.7,2.2-5.2c0-2.3-0.2-5-0.7-8h3c0.3,2.5,0.4,5.2,0.4,8c0,3.2-0.4,5.6-1.1,7.1
			c-0.7,1.5-1.9,2.2-3.7,2.2h-5.5c-0.9,0-1.7-0.4-2.3-1.1c-0.6-0.7-1-1.7-1.2-2.8h-0.2c-0.1,0.7-0.2,1.3-0.4,1.7s-0.3,0.9-0.6,1.5
			c-0.5,1-1.4,1.5-2.8,1.5h-5.7c-1,0-1.9-0.2-2.7-0.7c-0.8-0.4-1.4-1-1.8-1.7c-0.4-0.6-0.7-1.4-1-2.3c-0.2-1-0.4-1.9-0.5-2.8
			c-0.1-1.1-0.1-2.1-0.1-2.9C552.8,763.7,553,761,553.6,757.9z"/>
	</g>
	<g>
		<path class="st1" d="M657.6,738.8v1h-3.1c0.5,0.1,0.8,0.7,0.8,1.8c0,0.7-0.1,1.2-0.4,1.5c-0.2,0.3-0.6,0.4-1.2,0.4h-4v-1h3.9
			c0.1,0,0.3,0,0.3,0c0.1,0,0.2-0.1,0.3-0.1c0.2-0.1,0.3-0.5,0.3-1c0-0.4,0-0.7-0.1-0.9c-0.1-0.2-0.1-0.4-0.3-0.4
			c-0.1-0.1-0.3-0.1-0.5-0.1h-3.9v-1H657.6z"/>
		<path class="st1" d="M651.4,745h2.1c0.7,0,1.1,0.2,1.4,0.6c0.3,0.4,0.4,1,0.4,1.8c0,0.8-0.1,1.4-0.4,1.7s-0.8,0.5-1.4,0.5h-1.2
			V746h-0.8c-0.4,0-0.6,0.1-0.8,0.4c-0.2,0.3-0.2,0.7-0.2,1.2c0,0.5,0.1,1.1,0.3,1.8h-0.8c-0.1-0.7-0.2-1.3-0.2-2
			C649.7,745.8,650.3,745,651.4,745z M653,748.6h0.9c0.3,0,0.6-0.1,0.7-0.3s0.2-0.5,0.2-1c0-0.5-0.1-0.8-0.2-1s-0.3-0.3-0.7-0.3H653
			V748.6z"/>
		<path class="st1" d="M652.6,752.4l2.6-1.9v1.1l-2,1.3l2,1.4v1.1l-2.6-1.9l-2.8,2v-1.1l2.1-1.5l-2.1-1.5v-1.1L652.6,752.4z"/>
		<path class="st1" d="M656.1,761.8l-1.4-2.2h0.9l1.5,2.2v1h-7.3v-1H656.1z"/>
		<path class="st1" d="M651.1,765.5c0.2,0,0.4,0,0.6,0.1c0.2,0.1,0.3,0.2,0.5,0.3c0.1,0.1,0.2,0.2,0.3,0.4s0.2,0.4,0.3,0.5
			c0.1,0.1,0.2,0.3,0.3,0.6l0.5,1.2c0.2,0.5,0.5,0.7,1,0.7h1c0.3,0,0.6-0.1,0.7-0.3c0.1-0.2,0.2-0.6,0.2-1.1c0-0.5-0.1-1.2-0.2-2.1
			h0.8c0.1,0.8,0.2,1.5,0.2,2.3c0,0.8-0.1,1.4-0.4,1.7c-0.2,0.4-0.6,0.5-1.2,0.5h-1.2c-0.3,0-0.5,0-0.7-0.1s-0.3-0.2-0.5-0.4
			c-0.1-0.2-0.3-0.5-0.5-0.9l-0.8-1.7c-0.2-0.5-0.6-0.7-1-0.7h-0.5v3.8h-0.8v-4.9H651.1z"/>
	</g>
	<g>
		<path class="st1" d="M528.6,712.8c0.2,0,0.5,0,0.7,0.1s0.4,0.2,0.6,0.3c0.1,0.1,0.3,0.3,0.4,0.5s0.3,0.4,0.4,0.6
			c0.1,0.2,0.2,0.4,0.3,0.7l0.6,1.4c0.2,0.6,0.6,0.8,1.2,0.8h1.2c0.4,0,0.7-0.1,0.8-0.4c0.1-0.2,0.2-0.7,0.2-1.3
			c0-0.6-0.1-1.5-0.3-2.5h0.9c0.2,0.9,0.3,1.8,0.3,2.8s-0.1,1.6-0.4,2.1c-0.3,0.4-0.8,0.6-1.4,0.6h-1.4c-0.3,0-0.6-0.1-0.8-0.2
			c-0.2-0.1-0.4-0.3-0.6-0.5c-0.2-0.2-0.3-0.6-0.6-1l-0.9-2c-0.3-0.6-0.7-0.9-1.2-0.9H528v4.6h-0.9v-5.8H528.6z"/>
		<path class="st1" d="M528.6,720.5c0.2,0,0.5,0,0.7,0.1s0.4,0.2,0.6,0.3c0.1,0.1,0.3,0.3,0.4,0.5s0.3,0.4,0.4,0.6
			c0.1,0.2,0.2,0.4,0.3,0.7l0.6,1.4c0.2,0.6,0.6,0.8,1.2,0.8h1.2c0.4,0,0.7-0.1,0.8-0.4c0.1-0.2,0.2-0.7,0.2-1.3
			c0-0.6-0.1-1.5-0.3-2.5h0.9c0.2,0.9,0.3,1.8,0.3,2.8s-0.1,1.6-0.4,2.1c-0.3,0.4-0.8,0.6-1.4,0.6h-1.4c-0.3,0-0.6-0.1-0.8-0.2
			c-0.2-0.1-0.4-0.3-0.6-0.5c-0.2-0.2-0.3-0.6-0.6-1l-0.9-2c-0.3-0.6-0.7-0.9-1.2-0.9H528v4.6h-0.9v-5.8H528.6z"/>
		<path class="st1" d="M534.5,731.5l-1.7-2.6h1.1l1.8,2.6v1.1h-8.6v-1.2H534.5z"/>
	</g>
	<g>
		<path class="st1" d="M527.2,783.2h1c-0.2,1-0.3,1.9-0.3,2.6c0,0.5,0.1,0.9,0.2,1.2c0.2,0.3,0.4,0.4,0.8,0.4h1.7
			c0.4,0,0.6-0.2,0.7-0.5c0-0.2,0.1-0.3,0.1-0.4c0-0.1,0-0.3,0-0.5v-2.5h4.3v5h-0.9v-3.8h-2.6v2c0,0.4,0,0.7-0.1,0.9
			c-0.1,0.3-0.2,0.5-0.4,0.7c-0.2,0.2-0.5,0.3-0.9,0.3h-2c-0.3,0-0.6-0.1-0.8-0.2c-0.2-0.1-0.4-0.3-0.6-0.4
			c-0.1-0.2-0.2-0.4-0.3-0.6c-0.1-0.3-0.1-0.5-0.1-0.8c0-0.3,0-0.6,0-0.8C527,785,527,784.2,527.2,783.2z"/>
		<path class="st1" d="M529,794.7v-4.3h1l5.7,3.9v1.5h-5.8v0.9H529v-0.9h-1.9v-1.1H529z M529.9,794.7h4.8l-4.8-3.2V794.7z"/>
	</g>
	<g>
		<path class="st13" d="M628.9,754.6c0-5.1-4.2-9.3-9.3-9.3c-5.1,0-9.3,4.2-9.3,9.3c0,5.1,4.2,9.3,9.3,9.3
			C624.7,763.8,628.9,759.7,628.9,754.6z M612.7,754.6c0-3.8,3.1-6.9,6.9-6.9c3.8,0,6.9,3.1,6.9,6.9c0,3.8-3.1,6.9-6.9,6.9
			C615.8,761.5,612.7,758.4,612.7,754.6z"/>
		<path class="st13" d="M633.2,746.8l-13.6-7.7l-13.6,7.7v15.4l13.6,7.7l13.6-7.7V746.8L633.2,746.8z"/>
	</g>
</g>
<line class="st0" x1="950.1" y1="719.7" x2="936.9" y2="719.7"/>
<path class="st0" d="M690.5,178.7c1.8,5.9,99.6,10.7,127.5,10.7"/>
<g>
	<polygon class="st1" points="815.8,191.1 655.8,191.3 677,184.2 702.4,186.9 	"/>
</g>
<path id="Whole_Rect" class="st14" d="M730.7,300.6H400.9c-0.5,0-1-0.5-1-1v-130c0-0.6,0.5-1,1-1h329.7c0.5,0,1,0.4,1,1v130
	C731.7,300.1,731.2,300.6,730.7,300.6z"/>
<g>
	<path class="st5" d="M805.7,168.6H673.4L405,300.6h400.7c0.5,0,1-0.4,1-1v-130C806.7,169,806.2,168.6,805.7,168.6z"/>
</g>
<g>
	
		<rect x="387.7" y="224.6" transform="matrix(0.902 -0.4318 0.4318 0.902 -46.2972 255.8684)" class="st1" width="305.3" height="10.7"/>
	<path d="M675.5,159.8l4.2,8.7L405.2,300l-4.2-8.7L675.5,159.8 M675.9,158.5L399.7,290.7l5,10.5L681,169L675.9,158.5L675.9,158.5z"
		/>
</g>
<rect x="425.6" y="275.5" transform="matrix(0.8899 -0.4563 0.4563 0.8899 -80.6369 227.7983)" class="st15" width="11.7" height="10.8"/>
<g>
	<path class="st1" d="M706.9,307.9c-5.2,0-9.5-4.3-9.5-9.5V170.7c0-5.2,4.3-9.5,9.5-9.5h69c5.2,0,9.5,4.3,9.5,9.5v127.7
		c0,5.2-4.3,9.5-9.5,9.5H706.9z"/>
	<path d="M776,161.7c5,0,9,4,9,9v127.7c0,5-4,9-9,9h-69c-5,0-9-4-9-9V170.7c0-5,4-9,9-9H776 M776,160.7h-69c-5.5,0-10,4.5-10,10
		v127.7c0,5.5,4.5,10,10,10h69c5.5,0,10-4.5,10-10V170.7C786,165.2,781.5,160.7,776,160.7L776,160.7z"/>
</g>
<g>
	<path class="st1" d="M706.9,827.9c-5.2,0-9.5-4.3-9.5-9.5V690.7c0-5.2,4.3-9.5,9.5-9.5h69c5.2,0,9.5,4.3,9.5,9.5v127.7
		c0,5.2-4.3,9.5-9.5,9.5H706.9z"/>
	<path d="M776,681.7c5,0,9,4,9,9v127.7c0,5-4,9-9,9h-69c-5,0-9-4-9-9V690.7c0-5,4-9,9-9H776 M776,680.7h-69c-5.5,0-10,4.5-10,10
		v127.7c0,5.5,4.5,10,10,10h69c5.5,0,10-4.5,10-10V690.7C786,685.2,781.5,680.7,776,680.7L776,680.7z"/>
</g>
</svg>
