<?xml version="1.0" encoding="utf-8"?>
<!-- Generator: Adobe Illustrator 23.0.1, SVG Export Plug-In . SVG Version: 6.00 Build 0)  -->
<svg version="1.1" id="Layer_1" xmlns="http://www.w3.org/2000/svg" xmlns:xlink="http://www.w3.org/1999/xlink" x="0px" y="0px"
	 viewBox="0 0 1700 1000" style="enable-background:new 0 0 1700 1000;" xml:space="preserve">
<style type="text/css">
	.st0{display:none;fill-rule:evenodd;clip-rule:evenodd;fill:#FFFFFF;stroke:#000000;stroke-miterlimit:10;}
	.st1{fill:none;stroke:#000000;stroke-miterlimit:10;}
	.st2{fill:#FFFFFF;}
	.st3{fill:#F2F2F2;}
	.st4{fill:#8CC63F;}
	.st5{fill:#E6E6E6;}
	.st6{fill:#FFFFFF;stroke:#000000;stroke-linecap:round;stroke-linejoin:round;stroke-miterlimit:10;}
	.st7{stroke:#000000;stroke-miterlimit:10;}
	.st8{fill:#FFFFFF;stroke:#000000;stroke-miterlimit:10;}
	.st9{fill:#666666;}
	.st10{stroke:#FFFFFF;stroke-miterlimit:10;}
	.st11{fill-rule:evenodd;clip-rule:evenodd;fill:#FFFFFF;stroke:#000000;stroke-miterlimit:10;}
	.st12{fill-rule:evenodd;clip-rule:evenodd;fill:#8CC63F;}
	.st13{fill-rule:evenodd;clip-rule:evenodd;fill:#E6E6E6;}
	.st14{fill:#FF1D25;}
	.st15{fill:none;stroke:#FFFFFF;stroke-miterlimit:10;}
	.st16{fill:none;stroke:#FFFFFF;stroke-width:0.6;stroke-linecap:round;stroke-linejoin:round;stroke-miterlimit:10;}
	.st17{fill:#8CC63F;stroke:#000000;stroke-miterlimit:10;}
	.st18{clip-path:url(#SVGID_2_);}
	.st19{clip-path:url(#SVGID_4_);}
</style>
<path id="Whole_Rect" class="st0" d="M605,315.3H275.3c-0.5,0-1-0.4-1-1v-130c0-0.6,0.5-1,1-1H605c0.5,0,1,0.4,1,1v130
	C606,314.8,605.6,315.3,605,315.3z"/>
<g>
	<path class="st1" d="M1105.7,339.8h104.1c2.5,0,4.5-2,4.5-4.5l17-92.7c0-2.5-2-4.5-4.5-4.5h-138c-2.5,0-4.5,2-4.5,4.5l17,92.7
		C1101.2,337.8,1103.2,339.8,1105.7,339.8z"/>
	<g>
		<path class="st2" d="M506.9,453.5c-3.3,0-6.4-1.3-8.7-3.6s-3.6-5.4-3.6-8.7s1.3-6.4,3.6-8.7l12.7-12.7c2.3-2.3,5.4-3.6,8.7-3.6
			c3.3,0,6.4,1.3,8.7,3.6c4.8,4.8,4.8,12.5,0,17.3l-12.7,12.7C513.2,452.2,510.2,453.5,506.9,453.5z"/>
		<path d="M519.6,416.8c3.1,0,6.1,1.2,8.3,3.4c2.2,2.2,3.4,5.2,3.4,8.3c0,3.1-1.2,6.1-3.4,8.3l-12.7,12.7c-2.2,2.2-5.2,3.4-8.3,3.4
			c-3.1,0-6.1-1.2-8.3-3.4c-2.2-2.2-3.4-5.2-3.4-8.3c0-3.1,1.2-6.1,3.4-8.3l12.7-12.7C513.5,418,516.5,416.8,519.6,416.8
			 M519.6,415.8c-3.3,0-6.5,1.2-9,3.7l-12.7,12.7c-5,5-5,13.1,0,18v0c2.5,2.5,5.7,3.7,9,3.7c3.3,0,6.5-1.2,9-3.7l12.7-12.7
			c5-5,5-13.1,0-18v0C526.2,417.1,522.9,415.8,519.6,415.8L519.6,415.8z"/>
	</g>
	<g>
		<path class="st2" d="M578.9,465.1c-2.9,0-5.6-1.1-7.6-3.1c-2-2-3.1-4.7-3.1-7.6c0-2.9,1.1-5.6,3.1-7.6l27.1-27.1
			c2-2,4.7-3.1,7.6-3.1s5.6,1.1,7.6,3.1c2,2,3.1,4.7,3.1,7.6s-1.1,5.6-3.1,7.6L586.4,462C584.4,464,581.7,465.1,578.9,465.1z"/>
		<path d="M606,401.7c-6.6,0-13.2,2.5-18.2,7.5l-27.1,27.1c-10,10-10,26.3,0,36.3c5,5,11.6,7.5,18.2,7.5c6.6,0,13.2-2.5,18.2-7.5
			l27.1-27.1c10-10,10-26.3,0-36.3C619.2,404.2,612.6,401.7,606,401.7L606,401.7z"/>
	</g>
	<g>
		<rect x="555.4" y="347.4" width="55.8" height="90.7"/>
	</g>
	<g>
		<rect x="879.8" y="252.4" class="st3" width="26" height="91.3"/>
		<path d="M905.2,252.9v90.3h-25v-90.3H905.2 M906.2,251.9h-27v92.3h27V251.9L906.2,251.9z"/>
	</g>
	<g>
		<polygon class="st3" points="467.2,339.6 632.7,256.6 879.2,256.6 879.2,339.6 		"/>
		<path d="M878.7,257.1v82H539.9h-70.5l163.5-82H878.7 M879.7,256.1H632.6l-167.5,84h74.7h339.8V256.1L879.7,256.1z M465.1,340.1
			h-15.7H465.1L465.1,340.1z"/>
	</g>
	<g>
		<path d="M907,346c-1.4,0-2.5-1.1-2.5-2.5v-90.7c0-1.4,1.1-2.5,2.5-2.5c1.4,0,2.5,1.1,2.5,2.5v90.7C909.5,344.8,908.4,346,907,346z
			"/>
		<path d="M907,250.7c1.1,0,2,0.9,2,2v90.7c0,1.1-0.9,2-2,2s-2-0.9-2-2v-90.7C905,251.6,905.9,250.7,907,250.7 M907,249.7
			c-1.7,0-3,1.4-3,3v90.7c0,1.7,1.4,3,3,3c1.7,0,3-1.4,3-3v-90.7C910,251.1,908.7,249.7,907,249.7L907,249.7z"/>
	</g>
	<g>
		<g>
			<path class="st2" d="M405.2,629.5c-10.4,0-20.2-4-27.5-11.3c-15.2-15.2-15.2-39.8,0-55l174.8-174.8c7.3-7.3,17.1-11.3,27.5-11.3
				c10.4,0,20.2,4,27.5,11.3c15.2,15.2,15.2,39.8,0,55L432.7,618.2C425.4,625.5,415.6,629.5,405.2,629.5z"/>
			<path d="M580,377.5c10.3,0,19.9,4,27.1,11.2c7.2,7.2,11.2,16.9,11.2,27.1c0,10.3-4,19.9-11.2,27.1L432.4,617.8
				c-7.2,7.2-16.9,11.2-27.1,11.2s-19.9-4-27.1-11.2c-15-15-15-39.3,0-54.3l174.8-174.8C560.1,381.5,569.7,377.5,580,377.5
				 M580,376.5c-10.1,0-20.2,3.8-27.9,11.5L377.4,562.8c-15.3,15.3-15.3,40.4,0,55.7l0,0c7.7,7.7,17.8,11.5,27.9,11.5
				c10.1,0,20.2-3.8,27.9-11.5l174.8-174.8c15.3-15.3,15.3-40.4,0-55.7v0C600.2,380.3,590.1,376.5,580,376.5L580,376.5z"/>
		</g>
		<g>
			<path d="M450.4,601.7c-1.6,0-3.2-0.6-4.3-1.8l-50.2-50.2c-2.4-2.4-2.4-6.3,0-8.7l100-100c1.2-1.2,2.7-1.8,4.3-1.8
				s3.2,0.6,4.3,1.8l50.2,50.2c2.4,2.4,2.4,6.3,0,8.7l-100,100C453.6,601.1,452.1,601.7,450.4,601.7z"/>
			<path d="M500.3,439.7c1.5,0,2.9,0.6,4,1.6l50.2,50.2c1.1,1.1,1.6,2.5,1.6,4c0,1.5-0.6,2.9-1.6,4l-100,100c-1.1,1.1-2.5,1.6-4,1.6
				s-2.9-0.6-4-1.6l-50.2-50.2c-2.2-2.2-2.2-5.8,0-8l100-100C497.3,440.3,498.8,439.7,500.3,439.7 M500.3,438.7
				c-1.7,0-3.4,0.6-4.7,1.9l-100,100c-2.6,2.6-2.6,6.8,0,9.4l50.2,50.2c1.3,1.3,3,1.9,4.7,1.9s3.4-0.6,4.7-1.9l100-100
				c2.6-2.6,2.6-6.8,0-9.4L505,440.7C503.7,439.4,502,438.7,500.3,438.7L500.3,438.7z"/>
		</g>
		<g>
			<path class="st2" d="M564.1,489.2c-0.9,0-1.7-0.3-2.3-0.9L507.6,434c-0.6-0.6-0.9-1.4-0.9-2.3s0.3-1.7,0.9-2.3
				c0.6-0.6,1.4-0.9,2.3-0.9c0.9,0,1.7,0.3,2.3,0.9l54.3,54.3c0.6,0.6,0.9,1.4,0.9,2.3c0,0.9-0.3,1.7-0.9,2.3S565,489.2,564.1,489.2
				z"/>
			<path d="M509.9,428.9c0.7,0,1.4,0.3,1.9,0.8l54.3,54.3c1.1,1.1,1.1,2.8,0,3.9c-0.5,0.5-1.2,0.8-1.9,0.8c-0.7,0-1.4-0.3-1.9-0.8
				l-54.3-54.3c-1.1-1.1-1.1-2.8,0-3.9C508.4,429.2,509.1,428.9,509.9,428.9 M509.9,427.9c-1,0-1.9,0.4-2.7,1.1
				c-1.5,1.5-1.5,3.8,0,5.3l54.3,54.3c0.7,0.7,1.7,1.1,2.7,1.1c1,0,1.9-0.4,2.7-1.1c1.5-1.5,1.5-3.8,0-5.3L512.5,429
				C511.8,428.3,510.8,427.9,509.9,427.9L509.9,427.9z"/>
		</g>
	</g>
	<g>
		<circle cx="583.3" cy="412.6" r="13.7"/>
	</g>
	<g>
		<circle class="st4" cx="383.1" cy="611.3" r="2.5"/>
		<circle class="st5" cx="378.3" cy="606.5" r="2.5"/>
		<circle class="st4" cx="387.9" cy="616.1" r="2.5"/>
	</g>
	<g>
		<path class="st2" d="M1157.7,634.3c-21.4,0-38.9-17.4-38.9-38.9V409.5c0-21.4,17.4-38.9,38.9-38.9s38.9,17.4,38.9,38.9v185.9
			C1196.6,616.9,1179.2,634.3,1157.7,634.3z"/>
		<path d="M1157.7,371.1c21.2,0,38.4,17.2,38.4,38.4v185.9c0,21.2-17.2,38.4-38.4,38.4s-38.4-17.2-38.4-38.4V409.5
			C1119.3,388.3,1136.6,371.1,1157.7,371.1 M1157.7,370.1L1157.7,370.1c-21.7,0-39.4,17.7-39.4,39.4v185.9
			c0,21.7,17.7,39.4,39.4,39.4h0c21.7,0,39.4-17.7,39.4-39.4V409.5C1197.1,387.8,1179.4,370.1,1157.7,370.1L1157.7,370.1z"/>
	</g>
	<g>
		<path d="M1122.2,604.5c-3.4,0-6.1-2.8-6.1-6.1v-96.2c0-3.4,2.8-6.1,6.1-6.1h71c3.4,0,6.1,2.8,6.1,6.1v96.2c0,3.4-2.8,6.1-6.1,6.1
			H1122.2z"/>
		<path d="M1193.2,496.5c3.1,0,5.6,2.5,5.6,5.6v96.2c0,3.1-2.5,5.6-5.6,5.6h-71c-3.1,0-5.6-2.5-5.6-5.6v-96.2c0-3.1,2.5-5.6,5.6-5.6
			H1193.2 M1193.2,495.5h-71c-3.6,0-6.6,3-6.6,6.6v96.2c0,3.6,3,6.6,6.6,6.6h71c3.6,0,6.6-3,6.6-6.6v-96.2
			C1199.8,498.5,1196.9,495.5,1193.2,495.5L1193.2,495.5z"/>
	</g>
	<g>
		<path class="st2" d="M1118.6,488.5c-1.4,0-2.5-1.1-2.5-2.5s1.1-2.5,2.5-2.5h78.2c1.4,0,2.5,1.1,2.5,2.5s-1.1,2.5-2.5,2.5H1118.6z"
			/>
		<path d="M1196.8,483.9c1.1,0,2,0.9,2,2c0,1.1-0.9,2-2,2h-78.2c-1.1,0-2-0.9-2-2c0-1.1,0.9-2,2-2H1196.8 M1196.8,482.9h-78.2
			c-1.7,0-3,1.4-3,3v0c0,1.7,1.4,3,3,3h78.2c1.7,0,3-1.4,3-3v0C1199.8,484.3,1198.5,482.9,1196.8,482.9L1196.8,482.9z"/>
	</g>
	<g>
		<path d="M1145.8,396h23.9c4.4,0,8-3.6,8-8v-33.8c0-4.4-3.6-8-8-8h-23.9c-4.4,0-8,3.6-8,8V388C1137.8,392.4,1141.4,396,1145.8,396z
			"/>
	</g>
	<circle class="st6" cx="1157.7" cy="298.4" r="67.1"/>
	<circle class="st6" cx="1157.7" cy="298.4" r="60.8"/>
	<g>
		<path class="st7" d="M1157.7,249.9c-26.8,0-48.5,21.7-48.5,48.5c0,26.8,21.7,48.5,48.5,48.5s48.5-21.7,48.5-48.5
			C1206.2,271.6,1184.5,249.9,1157.7,249.9z M1157.7,340.4c-23.2,0-42-18.8-42-42c0-23.2,18.8-42,42-42s42,18.8,42,42
			C1199.7,321.6,1180.9,340.4,1157.7,340.4z"/>
		
			<ellipse transform="matrix(0.3827 -0.9239 0.9239 0.3827 438.985 1253.8077)" class="st8" cx="1157.7" cy="298.4" rx="42" ry="42"/>
	</g>
	<g>
		<circle class="st9" cx="1160" cy="296.1" r="0.9"/>
		<circle class="st9" cx="1182.5" cy="296.1" r="0.9"/>
		<circle class="st9" cx="1184.8" cy="296.1" r="0.9"/>
		<circle class="st9" cx="1180.3" cy="296.1" r="0.9"/>
		<circle class="st9" cx="1178" cy="296.1" r="0.9"/>
		<circle class="st9" cx="1175.8" cy="296.1" r="0.9"/>
		<circle class="st9" cx="1173.5" cy="296.1" r="0.9"/>
		<circle class="st9" cx="1171.3" cy="296.1" r="0.9"/>
		<circle class="st9" cx="1169" cy="296.1" r="0.9"/>
		<circle class="st9" cx="1166.7" cy="296.1" r="0.9"/>
		<circle class="st9" cx="1164.5" cy="296.1" r="0.9"/>
		<circle class="st9" cx="1162.2" cy="296.1" r="0.9"/>
		<circle class="st9" cx="1196.1" cy="296.1" r="0.9"/>
		<circle class="st9" cx="1193.8" cy="296.1" r="0.9"/>
		<circle class="st9" cx="1191.6" cy="296.1" r="0.9"/>
		<circle class="st9" cx="1189.3" cy="296.1" r="0.9"/>
		<circle class="st9" cx="1187" cy="296.1" r="0.9"/>
		<circle class="st9" cx="1160" cy="293.8" r="0.9"/>
		<circle class="st9" cx="1182.5" cy="293.8" r="0.9"/>
		<circle class="st9" cx="1184.8" cy="293.8" r="0.9"/>
		<circle class="st9" cx="1180.3" cy="293.8" r="0.9"/>
		<circle class="st9" cx="1178" cy="293.8" r="0.9"/>
		<circle class="st9" cx="1175.8" cy="293.8" r="0.9"/>
		<circle class="st9" cx="1173.5" cy="293.8" r="0.9"/>
		<circle class="st9" cx="1171.3" cy="293.8" r="0.9"/>
		<circle class="st9" cx="1169" cy="293.8" r="0.9"/>
		<circle class="st9" cx="1166.7" cy="293.8" r="0.9"/>
		<circle class="st9" cx="1164.5" cy="293.8" r="0.9"/>
		<circle class="st9" cx="1162.2" cy="293.8" r="0.9"/>
		<circle class="st9" cx="1196.1" cy="293.8" r="0.9"/>
		<circle class="st9" cx="1193.8" cy="293.8" r="0.9"/>
		<circle class="st9" cx="1191.6" cy="293.8" r="0.9"/>
		<circle class="st9" cx="1189.3" cy="293.8" r="0.9"/>
		<circle class="st9" cx="1187" cy="293.8" r="0.9"/>
		<circle class="st9" cx="1160" cy="291.4" r="0.9"/>
		<circle class="st9" cx="1182.5" cy="291.4" r="0.9"/>
		<circle class="st9" cx="1184.8" cy="291.4" r="0.9"/>
		<circle class="st9" cx="1180.3" cy="291.4" r="0.9"/>
		<circle class="st9" cx="1178" cy="291.4" r="0.9"/>
		<circle class="st9" cx="1175.8" cy="291.4" r="0.9"/>
		<circle class="st9" cx="1173.5" cy="291.4" r="0.9"/>
		<circle class="st9" cx="1171.3" cy="291.4" r="0.9"/>
		<circle class="st9" cx="1169" cy="291.4" r="0.9"/>
		<circle class="st9" cx="1166.7" cy="291.4" r="0.9"/>
		<circle class="st9" cx="1164.5" cy="291.4" r="0.9"/>
		<circle class="st9" cx="1162.2" cy="291.4" r="0.9"/>
		<circle class="st9" cx="1196.1" cy="291.4" r="0.9"/>
		<circle class="st9" cx="1193.8" cy="291.4" r="0.9"/>
		<circle class="st9" cx="1191.6" cy="291.4" r="0.9"/>
		<circle class="st9" cx="1189.3" cy="291.4" r="0.9"/>
		<circle class="st9" cx="1187" cy="291.4" r="0.9"/>
		<circle class="st9" cx="1160" cy="289.1" r="0.9"/>
		<circle class="st9" cx="1182.5" cy="289.1" r="0.9"/>
		<circle class="st9" cx="1184.8" cy="289.1" r="0.9"/>
		<circle class="st9" cx="1180.3" cy="289.1" r="0.9"/>
		<circle class="st9" cx="1178" cy="289.1" r="0.9"/>
		<circle class="st9" cx="1175.8" cy="289.1" r="0.9"/>
		<circle class="st9" cx="1173.5" cy="289.1" r="0.9"/>
		<circle class="st9" cx="1171.3" cy="289.1" r="0.9"/>
		<circle class="st9" cx="1169" cy="289.1" r="0.9"/>
		<circle class="st9" cx="1166.7" cy="289.1" r="0.9"/>
		<circle class="st9" cx="1164.5" cy="289.1" r="0.9"/>
		<circle class="st9" cx="1162.2" cy="289.1" r="0.9"/>
		<circle class="st9" cx="1196.1" cy="289.1" r="0.9"/>
		<circle class="st9" cx="1193.8" cy="289.1" r="0.9"/>
		<circle class="st9" cx="1191.6" cy="289.1" r="0.9"/>
		<circle class="st9" cx="1189.3" cy="289.1" r="0.9"/>
		<circle class="st9" cx="1187" cy="289.1" r="0.9"/>
		<circle class="st9" cx="1160" cy="286.8" r="0.9"/>
		<circle class="st9" cx="1182.5" cy="286.8" r="0.9"/>
		<circle class="st9" cx="1184.8" cy="286.8" r="0.9"/>
		<circle class="st9" cx="1180.3" cy="286.8" r="0.9"/>
		<circle class="st9" cx="1178" cy="286.8" r="0.9"/>
		<circle class="st9" cx="1175.8" cy="286.8" r="0.9"/>
		<circle class="st9" cx="1173.5" cy="286.8" r="0.9"/>
		<circle class="st9" cx="1171.3" cy="286.8" r="0.9"/>
		<circle class="st9" cx="1169" cy="286.8" r="0.9"/>
		<circle class="st9" cx="1166.7" cy="286.8" r="0.9"/>
		<circle class="st9" cx="1164.5" cy="286.8" r="0.9"/>
		<circle class="st9" cx="1162.2" cy="286.8" r="0.9"/>
		<circle class="st9" cx="1196.1" cy="286.8" r="0.9"/>
		<circle class="st9" cx="1193.8" cy="286.8" r="0.9"/>
		<circle class="st9" cx="1191.6" cy="286.8" r="0.9"/>
		<circle class="st9" cx="1189.3" cy="286.8" r="0.9"/>
		<circle class="st9" cx="1187" cy="286.8" r="0.9"/>
		<circle class="st9" cx="1160" cy="284.5" r="0.9"/>
		<circle class="st9" cx="1182.5" cy="284.5" r="0.9"/>
		<circle class="st9" cx="1184.8" cy="284.5" r="0.9"/>
		<circle class="st9" cx="1180.3" cy="284.5" r="0.9"/>
		<circle class="st9" cx="1178" cy="284.5" r="0.9"/>
		<circle class="st9" cx="1175.8" cy="284.5" r="0.9"/>
		<circle class="st9" cx="1173.5" cy="284.5" r="0.9"/>
		<circle class="st9" cx="1171.3" cy="284.5" r="0.9"/>
		<circle class="st9" cx="1169" cy="284.5" r="0.9"/>
		<circle class="st9" cx="1166.7" cy="284.5" r="0.9"/>
		<circle class="st9" cx="1164.5" cy="284.5" r="0.9"/>
		<circle class="st9" cx="1162.2" cy="284.5" r="0.9"/>
		<circle class="st9" cx="1193.8" cy="284.5" r="0.9"/>
		<circle class="st9" cx="1191.6" cy="284.5" r="0.9"/>
		<circle class="st9" cx="1189.3" cy="284.5" r="0.9"/>
		<circle class="st9" cx="1187" cy="284.5" r="0.9"/>
		<circle class="st9" cx="1160" cy="282.1" r="0.9"/>
		<circle class="st9" cx="1182.5" cy="282.1" r="0.9"/>
		<circle class="st9" cx="1184.8" cy="282.1" r="0.9"/>
		<circle class="st9" cx="1180.3" cy="282.1" r="0.9"/>
		<circle class="st9" cx="1178" cy="282.1" r="0.9"/>
		<circle class="st9" cx="1175.8" cy="282.1" r="0.9"/>
		<circle class="st9" cx="1173.5" cy="282.1" r="0.9"/>
		<circle class="st9" cx="1171.3" cy="282.1" r="0.9"/>
		<circle class="st9" cx="1169" cy="282.1" r="0.9"/>
		<circle class="st9" cx="1166.7" cy="282.1" r="0.9"/>
		<circle class="st9" cx="1164.5" cy="282.1" r="0.9"/>
		<circle class="st9" cx="1162.2" cy="282.1" r="0.9"/>
		<circle class="st9" cx="1193.8" cy="282.1" r="0.9"/>
		<circle class="st9" cx="1191.6" cy="282.1" r="0.9"/>
		<circle class="st9" cx="1189.3" cy="282.1" r="0.9"/>
		<circle class="st9" cx="1187" cy="282.1" r="0.9"/>
		<circle class="st9" cx="1160" cy="279.8" r="0.9"/>
		<circle class="st9" cx="1182.5" cy="279.8" r="0.9"/>
		<circle class="st9" cx="1184.8" cy="279.8" r="0.9"/>
		<circle class="st9" cx="1180.3" cy="279.8" r="0.9"/>
		<circle class="st9" cx="1178" cy="279.8" r="0.9"/>
		<circle class="st9" cx="1175.8" cy="279.8" r="0.9"/>
		<circle class="st9" cx="1173.5" cy="279.8" r="0.9"/>
		<circle class="st9" cx="1171.3" cy="279.8" r="0.9"/>
		<circle class="st9" cx="1169" cy="279.8" r="0.9"/>
		<circle class="st9" cx="1166.7" cy="279.8" r="0.9"/>
		<circle class="st9" cx="1164.5" cy="279.8" r="0.9"/>
		<circle class="st9" cx="1162.2" cy="279.8" r="0.9"/>
		<circle class="st9" cx="1191.6" cy="279.8" r="0.9"/>
		<circle class="st9" cx="1189.3" cy="279.8" r="0.9"/>
		<circle class="st9" cx="1187" cy="279.8" r="0.9"/>
		<circle class="st9" cx="1160" cy="277.5" r="0.9"/>
		<circle class="st9" cx="1182.5" cy="277.5" r="0.9"/>
		<circle class="st9" cx="1184.8" cy="277.5" r="0.9"/>
		<circle class="st9" cx="1180.3" cy="277.5" r="0.9"/>
		<circle class="st9" cx="1178" cy="277.5" r="0.9"/>
		<circle class="st9" cx="1175.8" cy="277.5" r="0.9"/>
		<circle class="st9" cx="1173.5" cy="277.5" r="0.9"/>
		<circle class="st9" cx="1171.3" cy="277.5" r="0.9"/>
		<circle class="st9" cx="1169" cy="277.5" r="0.9"/>
		<circle class="st9" cx="1166.7" cy="277.5" r="0.9"/>
		<circle class="st9" cx="1164.5" cy="277.5" r="0.9"/>
		<circle class="st9" cx="1162.2" cy="277.5" r="0.9"/>
		<circle class="st9" cx="1191.6" cy="277.5" r="0.9"/>
		<circle class="st9" cx="1189.3" cy="277.5" r="0.9"/>
		<circle class="st9" cx="1187" cy="277.5" r="0.9"/>
		<circle class="st9" cx="1160" cy="275.2" r="0.9"/>
		<circle class="st9" cx="1182.5" cy="275.2" r="0.9"/>
		<circle class="st9" cx="1184.8" cy="275.2" r="0.9"/>
		<circle class="st9" cx="1180.3" cy="275.2" r="0.9"/>
		<circle class="st9" cx="1178" cy="275.2" r="0.9"/>
		<circle class="st9" cx="1175.8" cy="275.2" r="0.9"/>
		<circle class="st9" cx="1173.5" cy="275.2" r="0.9"/>
		<circle class="st9" cx="1171.3" cy="275.2" r="0.9"/>
		<circle class="st9" cx="1169" cy="275.2" r="0.9"/>
		<circle class="st9" cx="1166.7" cy="275.2" r="0.9"/>
		<circle class="st9" cx="1164.5" cy="275.2" r="0.9"/>
		<circle class="st9" cx="1162.2" cy="275.2" r="0.9"/>
		<circle class="st9" cx="1189.3" cy="275.2" r="0.9"/>
		<circle class="st9" cx="1187" cy="275.2" r="0.9"/>
		<circle class="st9" cx="1160" cy="272.8" r="0.9"/>
		<circle class="st9" cx="1182.5" cy="272.8" r="0.9"/>
		<circle class="st9" cx="1184.8" cy="272.8" r="0.9"/>
		<circle class="st9" cx="1180.3" cy="272.8" r="0.9"/>
		<circle class="st9" cx="1178" cy="272.8" r="0.9"/>
		<circle class="st9" cx="1175.8" cy="272.8" r="0.9"/>
		<circle class="st9" cx="1173.5" cy="272.8" r="0.9"/>
		<circle class="st9" cx="1171.3" cy="272.8" r="0.9"/>
		<circle class="st9" cx="1169" cy="272.8" r="0.9"/>
		<circle class="st9" cx="1166.7" cy="272.8" r="0.9"/>
		<circle class="st9" cx="1164.5" cy="272.8" r="0.9"/>
		<circle class="st9" cx="1162.2" cy="272.8" r="0.9"/>
		<circle class="st9" cx="1187" cy="272.8" r="0.9"/>
		<circle class="st9" cx="1160" cy="270.5" r="0.9"/>
		<circle class="st9" cx="1182.5" cy="270.5" r="0.9"/>
		<circle class="st9" cx="1184.8" cy="270.5" r="0.9"/>
		<circle class="st9" cx="1180.3" cy="270.5" r="0.9"/>
		<circle class="st9" cx="1178" cy="270.5" r="0.9"/>
		<circle class="st9" cx="1175.8" cy="270.5" r="0.9"/>
		<circle class="st9" cx="1173.5" cy="270.5" r="0.9"/>
		<circle class="st9" cx="1171.3" cy="270.5" r="0.9"/>
		<circle class="st9" cx="1169" cy="270.5" r="0.9"/>
		<circle class="st9" cx="1166.7" cy="270.5" r="0.9"/>
		<circle class="st9" cx="1164.5" cy="270.5" r="0.9"/>
		<circle class="st9" cx="1162.2" cy="270.5" r="0.9"/>
		<circle class="st9" cx="1160" cy="268.2" r="0.9"/>
		<circle class="st9" cx="1182.5" cy="268.2" r="0.9"/>
		<circle class="st9" cx="1180.3" cy="268.2" r="0.9"/>
		<circle class="st9" cx="1178" cy="268.2" r="0.9"/>
		<circle class="st9" cx="1175.8" cy="268.2" r="0.9"/>
		<circle class="st9" cx="1173.5" cy="268.2" r="0.9"/>
		<circle class="st9" cx="1171.3" cy="268.2" r="0.9"/>
		<circle class="st9" cx="1169" cy="268.2" r="0.9"/>
		<circle class="st9" cx="1166.7" cy="268.2" r="0.9"/>
		<circle class="st9" cx="1164.5" cy="268.2" r="0.9"/>
		<circle class="st9" cx="1162.2" cy="268.2" r="0.9"/>
		<circle class="st9" cx="1160" cy="265.9" r="0.9"/>
		<circle class="st9" cx="1180.3" cy="265.9" r="0.9"/>
		<circle class="st9" cx="1178" cy="265.9" r="0.9"/>
		<circle class="st9" cx="1175.8" cy="265.9" r="0.9"/>
		<circle class="st9" cx="1173.5" cy="265.9" r="0.9"/>
		<circle class="st9" cx="1171.3" cy="265.9" r="0.9"/>
		<circle class="st9" cx="1169" cy="265.9" r="0.9"/>
		<circle class="st9" cx="1166.7" cy="265.9" r="0.9"/>
		<circle class="st9" cx="1164.5" cy="265.9" r="0.9"/>
		<circle class="st9" cx="1162.2" cy="265.9" r="0.9"/>
		<circle class="st9" cx="1160" cy="263.5" r="0.9"/>
		<circle class="st9" cx="1175.8" cy="263.5" r="0.9"/>
		<circle class="st9" cx="1173.5" cy="263.5" r="0.9"/>
		<circle class="st9" cx="1171.3" cy="263.5" r="0.9"/>
		<circle class="st9" cx="1169" cy="263.5" r="0.9"/>
		<circle class="st9" cx="1166.7" cy="263.5" r="0.9"/>
		<circle class="st9" cx="1164.5" cy="263.5" r="0.9"/>
		<circle class="st9" cx="1162.2" cy="263.5" r="0.9"/>
		<circle class="st9" cx="1160" cy="261.2" r="0.9"/>
		<circle class="st9" cx="1171.3" cy="261.2" r="0.9"/>
		<circle class="st9" cx="1169" cy="261.2" r="0.9"/>
		<circle class="st9" cx="1166.7" cy="261.2" r="0.9"/>
		<circle class="st9" cx="1164.5" cy="261.2" r="0.9"/>
		<circle class="st9" cx="1162.2" cy="261.2" r="0.9"/>
		<circle class="st9" cx="1160" cy="258.9" r="0.9"/>
		<circle class="st9" cx="1162.2" cy="258.9" r="0.9"/>
		<circle class="st9" cx="1157.7" cy="296.1" r="0.9"/>
		<circle class="st9" cx="1155.5" cy="296.1" r="0.9"/>
		<circle class="st9" cx="1132.9" cy="296.1" r="0.9"/>
		<circle class="st9" cx="1130.6" cy="296.1" r="0.9"/>
		<circle class="st9" cx="1135.2" cy="296.1" r="0.9"/>
		<circle class="st9" cx="1137.4" cy="296.1" r="0.9"/>
		<circle class="st9" cx="1139.7" cy="296.1" r="0.9"/>
		<circle class="st9" cx="1141.9" cy="296.1" r="0.9"/>
		<circle class="st9" cx="1144.2" cy="296.1" r="0.9"/>
		<circle class="st9" cx="1146.4" cy="296.1" r="0.9"/>
		<circle class="st9" cx="1148.7" cy="296.1" r="0.9"/>
		<circle class="st9" cx="1151" cy="296.1" r="0.9"/>
		<circle class="st9" cx="1153.2" cy="296.1" r="0.9"/>
		<circle class="st9" cx="1119.4" cy="296.1" r="0.9"/>
		<circle class="st9" cx="1121.6" cy="296.1" r="0.9"/>
		<circle class="st9" cx="1123.9" cy="296.1" r="0.9"/>
		<circle class="st9" cx="1126.1" cy="296.1" r="0.9"/>
		<circle class="st9" cx="1128.4" cy="296.1" r="0.9"/>
		<circle class="st9" cx="1157.7" cy="293.8" r="0.9"/>
		<circle class="st9" cx="1155.5" cy="293.8" r="0.9"/>
		<circle class="st9" cx="1132.9" cy="293.8" r="0.9"/>
		<circle class="st9" cx="1130.6" cy="293.8" r="0.9"/>
		<circle class="st9" cx="1135.2" cy="293.8" r="0.9"/>
		<circle class="st9" cx="1137.4" cy="293.8" r="0.9"/>
		<circle class="st9" cx="1139.7" cy="293.8" r="0.9"/>
		<circle class="st9" cx="1141.9" cy="293.8" r="0.9"/>
		<circle class="st9" cx="1144.2" cy="293.8" r="0.9"/>
		<circle class="st9" cx="1146.4" cy="293.8" r="0.9"/>
		<circle class="st9" cx="1148.7" cy="293.8" r="0.9"/>
		<circle class="st9" cx="1151" cy="293.8" r="0.9"/>
		<circle class="st9" cx="1153.2" cy="293.8" r="0.9"/>
		<circle class="st9" cx="1119.4" cy="293.8" r="0.9"/>
		<circle class="st9" cx="1121.6" cy="293.8" r="0.9"/>
		<circle class="st9" cx="1123.9" cy="293.8" r="0.9"/>
		<circle class="st9" cx="1126.1" cy="293.8" r="0.9"/>
		<circle class="st9" cx="1128.4" cy="293.8" r="0.9"/>
		<circle class="st9" cx="1157.7" cy="291.4" r="0.9"/>
		<circle class="st9" cx="1155.5" cy="291.4" r="0.9"/>
		<circle class="st9" cx="1132.9" cy="291.4" r="0.9"/>
		<circle class="st9" cx="1130.6" cy="291.4" r="0.9"/>
		<circle class="st9" cx="1135.2" cy="291.4" r="0.9"/>
		<circle class="st9" cx="1137.4" cy="291.4" r="0.9"/>
		<circle class="st9" cx="1139.7" cy="291.4" r="0.9"/>
		<circle class="st9" cx="1141.9" cy="291.4" r="0.9"/>
		<circle class="st9" cx="1144.2" cy="291.4" r="0.9"/>
		<circle class="st9" cx="1146.4" cy="291.4" r="0.9"/>
		<circle class="st9" cx="1148.7" cy="291.4" r="0.9"/>
		<circle class="st9" cx="1151" cy="291.4" r="0.9"/>
		<circle class="st9" cx="1153.2" cy="291.4" r="0.9"/>
		<circle class="st9" cx="1119.4" cy="291.4" r="0.9"/>
		<circle class="st9" cx="1121.6" cy="291.4" r="0.9"/>
		<circle class="st9" cx="1123.9" cy="291.4" r="0.9"/>
		<circle class="st9" cx="1126.1" cy="291.4" r="0.9"/>
		<circle class="st9" cx="1128.4" cy="291.4" r="0.9"/>
		<circle class="st9" cx="1157.7" cy="289.1" r="0.9"/>
		<circle class="st9" cx="1155.5" cy="289.1" r="0.9"/>
		<circle class="st9" cx="1132.9" cy="289.1" r="0.9"/>
		<circle class="st9" cx="1130.6" cy="289.1" r="0.9"/>
		<circle class="st9" cx="1135.2" cy="289.1" r="0.9"/>
		<circle class="st9" cx="1137.4" cy="289.1" r="0.9"/>
		<circle class="st9" cx="1139.7" cy="289.1" r="0.9"/>
		<circle class="st9" cx="1141.9" cy="289.1" r="0.9"/>
		<circle class="st9" cx="1144.2" cy="289.1" r="0.9"/>
		<circle class="st9" cx="1146.4" cy="289.1" r="0.9"/>
		<circle class="st9" cx="1148.7" cy="289.1" r="0.9"/>
		<circle class="st9" cx="1151" cy="289.1" r="0.9"/>
		<circle class="st9" cx="1153.2" cy="289.1" r="0.9"/>
		<circle class="st9" cx="1119.4" cy="289.1" r="0.9"/>
		<circle class="st9" cx="1121.6" cy="289.1" r="0.9"/>
		<circle class="st9" cx="1123.9" cy="289.1" r="0.9"/>
		<circle class="st9" cx="1126.1" cy="289.1" r="0.9"/>
		<circle class="st9" cx="1128.4" cy="289.1" r="0.9"/>
		<circle class="st9" cx="1157.7" cy="286.8" r="0.9"/>
		<circle class="st9" cx="1155.5" cy="286.8" r="0.9"/>
		<circle class="st9" cx="1132.9" cy="286.8" r="0.9"/>
		<circle class="st9" cx="1130.6" cy="286.8" r="0.9"/>
		<circle class="st9" cx="1135.2" cy="286.8" r="0.9"/>
		<circle class="st9" cx="1137.4" cy="286.8" r="0.9"/>
		<circle class="st9" cx="1139.7" cy="286.8" r="0.9"/>
		<circle class="st9" cx="1141.9" cy="286.8" r="0.9"/>
		<circle class="st9" cx="1144.2" cy="286.8" r="0.9"/>
		<circle class="st9" cx="1146.4" cy="286.8" r="0.9"/>
		<circle class="st9" cx="1148.7" cy="286.8" r="0.9"/>
		<circle class="st9" cx="1151" cy="286.8" r="0.9"/>
		<circle class="st9" cx="1153.2" cy="286.8" r="0.9"/>
		<circle class="st9" cx="1119.4" cy="286.8" r="0.9"/>
		<circle class="st9" cx="1121.6" cy="286.8" r="0.9"/>
		<circle class="st9" cx="1123.9" cy="286.8" r="0.9"/>
		<circle class="st9" cx="1126.1" cy="286.8" r="0.9"/>
		<circle class="st9" cx="1128.4" cy="286.8" r="0.9"/>
		<circle class="st9" cx="1157.7" cy="284.5" r="0.9"/>
		<circle class="st9" cx="1155.5" cy="284.5" r="0.9"/>
		<circle class="st9" cx="1132.9" cy="284.5" r="0.9"/>
		<circle class="st9" cx="1130.6" cy="284.5" r="0.9"/>
		<circle class="st9" cx="1135.2" cy="284.5" r="0.9"/>
		<circle class="st9" cx="1137.4" cy="284.5" r="0.9"/>
		<circle class="st9" cx="1139.7" cy="284.5" r="0.9"/>
		<circle class="st9" cx="1141.9" cy="284.5" r="0.9"/>
		<circle class="st9" cx="1144.2" cy="284.5" r="0.9"/>
		<circle class="st9" cx="1146.4" cy="284.5" r="0.9"/>
		<circle class="st9" cx="1148.7" cy="284.5" r="0.9"/>
		<circle class="st9" cx="1151" cy="284.5" r="0.9"/>
		<circle class="st9" cx="1153.2" cy="284.5" r="0.9"/>
		<circle class="st9" cx="1121.6" cy="284.5" r="0.9"/>
		<circle class="st9" cx="1123.9" cy="284.5" r="0.9"/>
		<circle class="st9" cx="1126.1" cy="284.5" r="0.9"/>
		<circle class="st9" cx="1128.4" cy="284.5" r="0.9"/>
		<circle class="st9" cx="1157.7" cy="282.1" r="0.9"/>
		<circle class="st9" cx="1155.5" cy="282.1" r="0.9"/>
		<circle class="st9" cx="1132.9" cy="282.1" r="0.9"/>
		<circle class="st9" cx="1130.6" cy="282.1" r="0.9"/>
		<circle class="st9" cx="1135.2" cy="282.1" r="0.9"/>
		<circle class="st9" cx="1137.4" cy="282.1" r="0.9"/>
		<circle class="st9" cx="1139.7" cy="282.1" r="0.9"/>
		<circle class="st9" cx="1141.9" cy="282.1" r="0.9"/>
		<circle class="st9" cx="1144.2" cy="282.1" r="0.9"/>
		<circle class="st9" cx="1146.4" cy="282.1" r="0.9"/>
		<circle class="st9" cx="1148.7" cy="282.1" r="0.9"/>
		<circle class="st9" cx="1151" cy="282.1" r="0.9"/>
		<circle class="st9" cx="1153.2" cy="282.1" r="0.9"/>
		<circle class="st9" cx="1121.6" cy="282.1" r="0.9"/>
		<circle class="st9" cx="1123.9" cy="282.1" r="0.9"/>
		<circle class="st9" cx="1126.1" cy="282.1" r="0.9"/>
		<circle class="st9" cx="1128.4" cy="282.1" r="0.9"/>
		<circle class="st9" cx="1157.7" cy="279.8" r="0.9"/>
		<circle class="st9" cx="1155.5" cy="279.8" r="0.9"/>
		<circle class="st9" cx="1132.9" cy="279.8" r="0.9"/>
		<circle class="st9" cx="1130.6" cy="279.8" r="0.9"/>
		<circle class="st9" cx="1135.2" cy="279.8" r="0.9"/>
		<circle class="st9" cx="1137.4" cy="279.8" r="0.9"/>
		<circle class="st9" cx="1139.7" cy="279.8" r="0.9"/>
		<circle class="st9" cx="1141.9" cy="279.8" r="0.9"/>
		<circle class="st9" cx="1144.2" cy="279.8" r="0.9"/>
		<circle class="st9" cx="1146.4" cy="279.8" r="0.9"/>
		<circle class="st9" cx="1148.7" cy="279.8" r="0.9"/>
		<circle class="st9" cx="1151" cy="279.8" r="0.9"/>
		<circle class="st9" cx="1153.2" cy="279.8" r="0.9"/>
		<circle class="st9" cx="1123.9" cy="279.8" r="0.9"/>
		<circle class="st9" cx="1126.1" cy="279.8" r="0.9"/>
		<circle class="st9" cx="1128.4" cy="279.8" r="0.9"/>
		<circle class="st9" cx="1157.7" cy="277.5" r="0.9"/>
		<circle class="st9" cx="1155.5" cy="277.5" r="0.9"/>
		<circle class="st9" cx="1132.9" cy="277.5" r="0.9"/>
		<circle class="st9" cx="1130.6" cy="277.5" r="0.9"/>
		<circle class="st9" cx="1135.2" cy="277.5" r="0.9"/>
		<circle class="st9" cx="1137.4" cy="277.5" r="0.9"/>
		<circle class="st9" cx="1139.7" cy="277.5" r="0.9"/>
		<circle class="st9" cx="1141.9" cy="277.5" r="0.9"/>
		<circle class="st9" cx="1144.2" cy="277.5" r="0.9"/>
		<circle class="st9" cx="1146.4" cy="277.5" r="0.9"/>
		<circle class="st9" cx="1148.7" cy="277.5" r="0.9"/>
		<circle class="st9" cx="1151" cy="277.5" r="0.9"/>
		<circle class="st9" cx="1153.2" cy="277.5" r="0.9"/>
		<circle class="st9" cx="1123.9" cy="277.5" r="0.9"/>
		<circle class="st9" cx="1126.1" cy="277.5" r="0.9"/>
		<circle class="st9" cx="1128.4" cy="277.5" r="0.9"/>
		<circle class="st9" cx="1157.7" cy="275.2" r="0.9"/>
		<circle class="st9" cx="1155.5" cy="275.2" r="0.9"/>
		<circle class="st9" cx="1132.9" cy="275.2" r="0.9"/>
		<circle class="st9" cx="1130.6" cy="275.2" r="0.9"/>
		<circle class="st9" cx="1135.2" cy="275.2" r="0.9"/>
		<circle class="st9" cx="1137.4" cy="275.2" r="0.9"/>
		<circle class="st9" cx="1139.7" cy="275.2" r="0.9"/>
		<circle class="st9" cx="1141.9" cy="275.2" r="0.9"/>
		<circle class="st9" cx="1144.2" cy="275.2" r="0.9"/>
		<circle class="st9" cx="1146.4" cy="275.2" r="0.9"/>
		<circle class="st9" cx="1148.7" cy="275.2" r="0.9"/>
		<circle class="st9" cx="1151" cy="275.2" r="0.9"/>
		<circle class="st9" cx="1153.2" cy="275.2" r="0.9"/>
		<circle class="st9" cx="1126.1" cy="275.2" r="0.9"/>
		<circle class="st9" cx="1128.4" cy="275.2" r="0.9"/>
		<circle class="st9" cx="1157.7" cy="272.8" r="0.9"/>
		<circle class="st9" cx="1155.5" cy="272.8" r="0.9"/>
		<circle class="st9" cx="1132.9" cy="272.8" r="0.9"/>
		<circle class="st9" cx="1130.6" cy="272.8" r="0.9"/>
		<circle class="st9" cx="1135.2" cy="272.8" r="0.9"/>
		<circle class="st9" cx="1137.4" cy="272.8" r="0.9"/>
		<circle class="st9" cx="1139.7" cy="272.8" r="0.9"/>
		<circle class="st9" cx="1141.9" cy="272.8" r="0.9"/>
		<circle class="st9" cx="1144.2" cy="272.8" r="0.9"/>
		<circle class="st9" cx="1146.4" cy="272.8" r="0.9"/>
		<circle class="st9" cx="1148.7" cy="272.8" r="0.9"/>
		<circle class="st9" cx="1151" cy="272.8" r="0.9"/>
		<circle class="st9" cx="1153.2" cy="272.8" r="0.9"/>
		<circle class="st9" cx="1128.4" cy="272.8" r="0.9"/>
		<circle class="st9" cx="1157.7" cy="270.5" r="0.9"/>
		<circle class="st9" cx="1155.5" cy="270.5" r="0.9"/>
		<circle class="st9" cx="1132.9" cy="270.5" r="0.9"/>
		<circle class="st9" cx="1130.6" cy="270.5" r="0.9"/>
		<circle class="st9" cx="1135.2" cy="270.5" r="0.9"/>
		<circle class="st9" cx="1137.4" cy="270.5" r="0.9"/>
		<circle class="st9" cx="1139.7" cy="270.5" r="0.9"/>
		<circle class="st9" cx="1141.9" cy="270.5" r="0.9"/>
		<circle class="st9" cx="1144.2" cy="270.5" r="0.9"/>
		<circle class="st9" cx="1146.4" cy="270.5" r="0.9"/>
		<circle class="st9" cx="1148.7" cy="270.5" r="0.9"/>
		<circle class="st9" cx="1151" cy="270.5" r="0.9"/>
		<circle class="st9" cx="1153.2" cy="270.5" r="0.9"/>
		<circle class="st9" cx="1157.7" cy="268.2" r="0.9"/>
		<circle class="st9" cx="1155.5" cy="268.2" r="0.9"/>
		<circle class="st9" cx="1132.9" cy="268.2" r="0.9"/>
		<circle class="st9" cx="1135.2" cy="268.2" r="0.9"/>
		<circle class="st9" cx="1137.4" cy="268.2" r="0.9"/>
		<circle class="st9" cx="1139.7" cy="268.2" r="0.9"/>
		<circle class="st9" cx="1141.9" cy="268.2" r="0.9"/>
		<circle class="st9" cx="1144.2" cy="268.2" r="0.9"/>
		<circle class="st9" cx="1146.4" cy="268.2" r="0.9"/>
		<circle class="st9" cx="1148.7" cy="268.2" r="0.9"/>
		<circle class="st9" cx="1151" cy="268.2" r="0.9"/>
		<circle class="st9" cx="1153.2" cy="268.2" r="0.9"/>
		<circle class="st9" cx="1157.7" cy="265.9" r="0.9"/>
		<circle class="st9" cx="1155.5" cy="265.9" r="0.9"/>
		<circle class="st9" cx="1135.2" cy="265.9" r="0.9"/>
		<circle class="st9" cx="1137.4" cy="265.9" r="0.9"/>
		<circle class="st9" cx="1139.7" cy="265.9" r="0.9"/>
		<circle class="st9" cx="1141.9" cy="265.9" r="0.9"/>
		<circle class="st9" cx="1144.2" cy="265.9" r="0.9"/>
		<circle class="st9" cx="1146.4" cy="265.9" r="0.9"/>
		<circle class="st9" cx="1148.7" cy="265.9" r="0.9"/>
		<circle class="st9" cx="1151" cy="265.9" r="0.9"/>
		<circle class="st9" cx="1153.2" cy="265.9" r="0.9"/>
		<circle class="st9" cx="1157.7" cy="263.5" r="0.9"/>
		<circle class="st9" cx="1155.5" cy="263.5" r="0.9"/>
		<circle class="st9" cx="1139.7" cy="263.5" r="0.9"/>
		<circle class="st9" cx="1141.9" cy="263.5" r="0.9"/>
		<circle class="st9" cx="1144.2" cy="263.5" r="0.9"/>
		<circle class="st9" cx="1146.4" cy="263.5" r="0.9"/>
		<circle class="st9" cx="1148.7" cy="263.5" r="0.9"/>
		<circle class="st9" cx="1151" cy="263.5" r="0.9"/>
		<circle class="st9" cx="1153.2" cy="263.5" r="0.9"/>
		<circle class="st9" cx="1157.7" cy="261.2" r="0.9"/>
		<circle class="st9" cx="1155.5" cy="261.2" r="0.9"/>
		<circle class="st9" cx="1144.2" cy="261.2" r="0.9"/>
		<circle class="st9" cx="1146.4" cy="261.2" r="0.9"/>
		<circle class="st9" cx="1148.7" cy="261.2" r="0.9"/>
		<circle class="st9" cx="1151" cy="261.2" r="0.9"/>
		<circle class="st9" cx="1153.2" cy="261.2" r="0.9"/>
		<circle class="st9" cx="1157.7" cy="258.9" r="0.9"/>
		<circle class="st9" cx="1155.5" cy="258.9" r="0.9"/>
		<circle class="st9" cx="1153.2" cy="258.9" r="0.9"/>
		<circle class="st9" cx="1155.5" cy="298.4" r="0.9"/>
		<circle class="st9" cx="1132.9" cy="298.4" r="0.9"/>
		<circle class="st9" cx="1130.6" cy="298.4" r="0.9"/>
		<circle class="st9" cx="1135.2" cy="298.4" r="0.9"/>
		<circle class="st9" cx="1137.4" cy="298.4" r="0.9"/>
		<circle class="st9" cx="1139.7" cy="298.4" r="0.9"/>
		<circle class="st9" cx="1141.9" cy="298.4" r="0.9"/>
		<circle class="st9" cx="1144.2" cy="298.4" r="0.9"/>
		<circle class="st9" cx="1146.4" cy="298.4" r="0.9"/>
		<circle class="st9" cx="1148.7" cy="298.4" r="0.9"/>
		<circle class="st9" cx="1151" cy="298.4" r="0.9"/>
		<circle class="st9" cx="1153.2" cy="298.4" r="0.9"/>
		<circle class="st9" cx="1119.4" cy="298.4" r="0.9"/>
		<circle class="st9" cx="1121.6" cy="298.4" r="0.9"/>
		<circle class="st9" cx="1123.9" cy="298.4" r="0.9"/>
		<circle class="st9" cx="1126.1" cy="298.4" r="0.9"/>
		<circle class="st9" cx="1128.4" cy="298.4" r="0.9"/>
		<circle class="st9" cx="1155.5" cy="300.7" r="0.9"/>
		<circle class="st9" cx="1132.9" cy="300.7" r="0.9"/>
		<circle class="st9" cx="1130.6" cy="300.7" r="0.9"/>
		<circle class="st9" cx="1135.2" cy="300.7" r="0.9"/>
		<circle class="st9" cx="1137.4" cy="300.7" r="0.9"/>
		<circle class="st9" cx="1139.7" cy="300.7" r="0.9"/>
		<circle class="st9" cx="1141.9" cy="300.7" r="0.9"/>
		<circle class="st9" cx="1144.2" cy="300.7" r="0.9"/>
		<circle class="st9" cx="1146.4" cy="300.7" r="0.9"/>
		<circle class="st9" cx="1148.7" cy="300.7" r="0.9"/>
		<circle class="st9" cx="1151" cy="300.7" r="0.9"/>
		<circle class="st9" cx="1153.2" cy="300.7" r="0.9"/>
		<circle class="st9" cx="1119.4" cy="300.7" r="0.9"/>
		<circle class="st9" cx="1121.6" cy="300.7" r="0.9"/>
		<circle class="st9" cx="1123.9" cy="300.7" r="0.9"/>
		<circle class="st9" cx="1126.1" cy="300.7" r="0.9"/>
		<circle class="st9" cx="1128.4" cy="300.7" r="0.9"/>
		<circle class="st9" cx="1155.5" cy="303.1" r="0.9"/>
		<circle class="st9" cx="1132.9" cy="303.1" r="0.9"/>
		<circle class="st9" cx="1130.6" cy="303.1" r="0.9"/>
		<circle class="st9" cx="1135.2" cy="303.1" r="0.9"/>
		<circle class="st9" cx="1137.4" cy="303.1" r="0.9"/>
		<circle class="st9" cx="1139.7" cy="303.1" r="0.9"/>
		<circle class="st9" cx="1141.9" cy="303.1" r="0.9"/>
		<circle class="st9" cx="1144.2" cy="303.1" r="0.9"/>
		<circle class="st9" cx="1146.4" cy="303.1" r="0.9"/>
		<circle class="st9" cx="1148.7" cy="303.1" r="0.9"/>
		<circle class="st9" cx="1151" cy="303.1" r="0.9"/>
		<circle class="st9" cx="1153.2" cy="303.1" r="0.9"/>
		<circle class="st9" cx="1119.4" cy="303.1" r="0.9"/>
		<circle class="st9" cx="1121.6" cy="303.1" r="0.9"/>
		<circle class="st9" cx="1123.9" cy="303.1" r="0.9"/>
		<circle class="st9" cx="1126.1" cy="303.1" r="0.9"/>
		<circle class="st9" cx="1128.4" cy="303.1" r="0.9"/>
		<circle class="st9" cx="1155.5" cy="305.4" r="0.9"/>
		<circle class="st9" cx="1132.9" cy="305.4" r="0.9"/>
		<circle class="st9" cx="1130.6" cy="305.4" r="0.9"/>
		<circle class="st9" cx="1135.2" cy="305.4" r="0.9"/>
		<circle class="st9" cx="1137.4" cy="305.4" r="0.9"/>
		<circle class="st9" cx="1139.7" cy="305.4" r="0.9"/>
		<circle class="st9" cx="1141.9" cy="305.4" r="0.9"/>
		<circle class="st9" cx="1144.2" cy="305.4" r="0.9"/>
		<circle class="st9" cx="1146.4" cy="305.4" r="0.9"/>
		<circle class="st9" cx="1148.7" cy="305.4" r="0.9"/>
		<circle class="st9" cx="1151" cy="305.4" r="0.9"/>
		<circle class="st9" cx="1153.2" cy="305.4" r="0.9"/>
		<circle class="st9" cx="1119.4" cy="305.4" r="0.9"/>
		<circle class="st9" cx="1121.6" cy="305.4" r="0.9"/>
		<circle class="st9" cx="1123.9" cy="305.4" r="0.9"/>
		<circle class="st9" cx="1126.1" cy="305.4" r="0.9"/>
		<circle class="st9" cx="1128.4" cy="305.4" r="0.9"/>
		<circle class="st9" cx="1155.5" cy="307.7" r="0.9"/>
		<circle class="st9" cx="1132.9" cy="307.7" r="0.9"/>
		<circle class="st9" cx="1130.6" cy="307.7" r="0.9"/>
		<circle class="st9" cx="1135.2" cy="307.7" r="0.9"/>
		<circle class="st9" cx="1137.4" cy="307.7" r="0.9"/>
		<circle class="st9" cx="1139.7" cy="307.7" r="0.9"/>
		<circle class="st9" cx="1141.9" cy="307.7" r="0.9"/>
		<circle class="st9" cx="1144.2" cy="307.7" r="0.9"/>
		<circle class="st9" cx="1146.4" cy="307.7" r="0.9"/>
		<circle class="st9" cx="1148.7" cy="307.7" r="0.9"/>
		<circle class="st9" cx="1151" cy="307.7" r="0.9"/>
		<circle class="st9" cx="1153.2" cy="307.7" r="0.9"/>
		<circle class="st9" cx="1119.4" cy="307.7" r="0.9"/>
		<circle class="st9" cx="1121.6" cy="307.7" r="0.9"/>
		<circle class="st9" cx="1123.9" cy="307.7" r="0.9"/>
		<circle class="st9" cx="1126.1" cy="307.7" r="0.9"/>
		<circle class="st9" cx="1128.4" cy="307.7" r="0.9"/>
		<circle class="st9" cx="1155.5" cy="310" r="0.9"/>
		<circle class="st9" cx="1132.9" cy="310" r="0.9"/>
		<circle class="st9" cx="1130.6" cy="310" r="0.9"/>
		<circle class="st9" cx="1135.2" cy="310" r="0.9"/>
		<circle class="st9" cx="1137.4" cy="310" r="0.9"/>
		<circle class="st9" cx="1139.7" cy="310" r="0.9"/>
		<circle class="st9" cx="1141.9" cy="310" r="0.9"/>
		<circle class="st9" cx="1144.2" cy="310" r="0.9"/>
		<circle class="st9" cx="1146.4" cy="310" r="0.9"/>
		<circle class="st9" cx="1148.7" cy="310" r="0.9"/>
		<circle class="st9" cx="1151" cy="310" r="0.9"/>
		<circle class="st9" cx="1153.2" cy="310" r="0.9"/>
		<circle class="st9" cx="1119.4" cy="310" r="0.9"/>
		<circle class="st9" cx="1121.6" cy="310" r="0.9"/>
		<circle class="st9" cx="1123.9" cy="310" r="0.9"/>
		<circle class="st9" cx="1126.1" cy="310" r="0.9"/>
		<circle class="st9" cx="1128.4" cy="310" r="0.9"/>
		<circle class="st9" cx="1155.5" cy="312.4" r="0.9"/>
		<circle class="st9" cx="1132.9" cy="312.4" r="0.9"/>
		<circle class="st9" cx="1130.6" cy="312.4" r="0.9"/>
		<circle class="st9" cx="1135.2" cy="312.4" r="0.9"/>
		<circle class="st9" cx="1137.4" cy="312.4" r="0.9"/>
		<circle class="st9" cx="1139.7" cy="312.4" r="0.9"/>
		<circle class="st9" cx="1141.9" cy="312.4" r="0.9"/>
		<circle class="st9" cx="1144.2" cy="312.4" r="0.9"/>
		<circle class="st9" cx="1146.4" cy="312.4" r="0.9"/>
		<circle class="st9" cx="1148.7" cy="312.4" r="0.9"/>
		<circle class="st9" cx="1151" cy="312.4" r="0.9"/>
		<circle class="st9" cx="1153.2" cy="312.4" r="0.9"/>
		<circle class="st9" cx="1121.6" cy="312.4" r="0.9"/>
		<circle class="st9" cx="1123.9" cy="312.4" r="0.9"/>
		<circle class="st9" cx="1126.1" cy="312.4" r="0.9"/>
		<circle class="st9" cx="1128.4" cy="312.4" r="0.9"/>
		<circle class="st9" cx="1155.5" cy="314.7" r="0.9"/>
		<circle class="st9" cx="1132.9" cy="314.7" r="0.9"/>
		<circle class="st9" cx="1130.6" cy="314.7" r="0.9"/>
		<circle class="st9" cx="1135.2" cy="314.7" r="0.9"/>
		<circle class="st9" cx="1137.4" cy="314.7" r="0.9"/>
		<circle class="st9" cx="1139.7" cy="314.7" r="0.9"/>
		<circle class="st9" cx="1141.9" cy="314.7" r="0.9"/>
		<circle class="st9" cx="1144.2" cy="314.7" r="0.9"/>
		<circle class="st9" cx="1146.4" cy="314.7" r="0.9"/>
		<circle class="st9" cx="1148.7" cy="314.7" r="0.9"/>
		<circle class="st9" cx="1151" cy="314.7" r="0.9"/>
		<circle class="st9" cx="1153.2" cy="314.7" r="0.9"/>
		<circle class="st9" cx="1121.6" cy="314.7" r="0.9"/>
		<circle class="st9" cx="1123.9" cy="314.7" r="0.9"/>
		<circle class="st9" cx="1126.1" cy="314.7" r="0.9"/>
		<circle class="st9" cx="1128.4" cy="314.7" r="0.9"/>
		<circle class="st9" cx="1155.5" cy="317" r="0.9"/>
		<circle class="st9" cx="1132.9" cy="317" r="0.9"/>
		<circle class="st9" cx="1130.6" cy="317" r="0.9"/>
		<circle class="st9" cx="1135.2" cy="317" r="0.9"/>
		<circle class="st9" cx="1137.4" cy="317" r="0.9"/>
		<circle class="st9" cx="1139.7" cy="317" r="0.9"/>
		<circle class="st9" cx="1141.9" cy="317" r="0.9"/>
		<circle class="st9" cx="1144.2" cy="317" r="0.9"/>
		<circle class="st9" cx="1146.4" cy="317" r="0.9"/>
		<circle class="st9" cx="1148.7" cy="317" r="0.9"/>
		<circle class="st9" cx="1151" cy="317" r="0.9"/>
		<circle class="st9" cx="1153.2" cy="317" r="0.9"/>
		<circle class="st9" cx="1123.9" cy="317" r="0.9"/>
		<circle class="st9" cx="1126.1" cy="317" r="0.9"/>
		<circle class="st9" cx="1128.4" cy="317" r="0.9"/>
		<circle class="st9" cx="1155.5" cy="319.3" r="0.9"/>
		<circle class="st9" cx="1132.9" cy="319.3" r="0.9"/>
		<circle class="st9" cx="1130.6" cy="319.3" r="0.9"/>
		<circle class="st9" cx="1135.2" cy="319.3" r="0.9"/>
		<circle class="st9" cx="1137.4" cy="319.3" r="0.9"/>
		<circle class="st9" cx="1139.7" cy="319.3" r="0.9"/>
		<circle class="st9" cx="1141.9" cy="319.3" r="0.9"/>
		<circle class="st9" cx="1144.2" cy="319.3" r="0.9"/>
		<circle class="st9" cx="1146.4" cy="319.3" r="0.9"/>
		<circle class="st9" cx="1148.7" cy="319.3" r="0.9"/>
		<circle class="st9" cx="1151" cy="319.3" r="0.9"/>
		<circle class="st9" cx="1153.2" cy="319.3" r="0.9"/>
		<circle class="st9" cx="1123.9" cy="319.3" r="0.9"/>
		<circle class="st9" cx="1126.1" cy="319.3" r="0.9"/>
		<circle class="st9" cx="1128.4" cy="319.3" r="0.9"/>
		<circle class="st9" cx="1155.5" cy="321.7" r="0.9"/>
		<circle class="st9" cx="1132.9" cy="321.7" r="0.9"/>
		<circle class="st9" cx="1130.6" cy="321.7" r="0.9"/>
		<circle class="st9" cx="1135.2" cy="321.7" r="0.9"/>
		<circle class="st9" cx="1137.4" cy="321.7" r="0.9"/>
		<circle class="st9" cx="1139.7" cy="321.7" r="0.9"/>
		<circle class="st9" cx="1141.9" cy="321.7" r="0.9"/>
		<circle class="st9" cx="1144.2" cy="321.7" r="0.9"/>
		<circle class="st9" cx="1146.4" cy="321.7" r="0.9"/>
		<circle class="st9" cx="1148.7" cy="321.7" r="0.9"/>
		<circle class="st9" cx="1151" cy="321.7" r="0.9"/>
		<circle class="st9" cx="1153.2" cy="321.7" r="0.9"/>
		<circle class="st9" cx="1126.1" cy="321.7" r="0.9"/>
		<circle class="st9" cx="1128.4" cy="321.7" r="0.9"/>
		<circle class="st9" cx="1155.5" cy="324" r="0.9"/>
		<circle class="st9" cx="1132.9" cy="324" r="0.9"/>
		<circle class="st9" cx="1130.6" cy="324" r="0.9"/>
		<circle class="st9" cx="1135.2" cy="324" r="0.9"/>
		<circle class="st9" cx="1137.4" cy="324" r="0.9"/>
		<circle class="st9" cx="1139.7" cy="324" r="0.9"/>
		<circle class="st9" cx="1141.9" cy="324" r="0.9"/>
		<circle class="st9" cx="1144.2" cy="324" r="0.9"/>
		<circle class="st9" cx="1146.4" cy="324" r="0.9"/>
		<circle class="st9" cx="1148.7" cy="324" r="0.9"/>
		<circle class="st9" cx="1151" cy="324" r="0.9"/>
		<circle class="st9" cx="1153.2" cy="324" r="0.9"/>
		<circle class="st9" cx="1128.4" cy="324" r="0.9"/>
		<circle class="st9" cx="1155.5" cy="326.3" r="0.9"/>
		<circle class="st9" cx="1132.9" cy="326.3" r="0.9"/>
		<circle class="st9" cx="1130.6" cy="326.3" r="0.9"/>
		<circle class="st9" cx="1135.2" cy="326.3" r="0.9"/>
		<circle class="st9" cx="1137.4" cy="326.3" r="0.9"/>
		<circle class="st9" cx="1139.7" cy="326.3" r="0.9"/>
		<circle class="st9" cx="1141.9" cy="326.3" r="0.9"/>
		<circle class="st9" cx="1144.2" cy="326.3" r="0.9"/>
		<circle class="st9" cx="1146.4" cy="326.3" r="0.9"/>
		<circle class="st9" cx="1148.7" cy="326.3" r="0.9"/>
		<circle class="st9" cx="1151" cy="326.3" r="0.9"/>
		<circle class="st9" cx="1153.2" cy="326.3" r="0.9"/>
		<circle class="st9" cx="1155.5" cy="328.6" r="0.9"/>
		<circle class="st9" cx="1132.9" cy="328.6" r="0.9"/>
		<circle class="st9" cx="1135.2" cy="328.6" r="0.9"/>
		<circle class="st9" cx="1137.4" cy="328.6" r="0.9"/>
		<circle class="st9" cx="1139.7" cy="328.6" r="0.9"/>
		<circle class="st9" cx="1141.9" cy="328.6" r="0.9"/>
		<circle class="st9" cx="1144.2" cy="328.6" r="0.9"/>
		<circle class="st9" cx="1146.4" cy="328.6" r="0.9"/>
		<circle class="st9" cx="1148.7" cy="328.6" r="0.9"/>
		<circle class="st9" cx="1151" cy="328.6" r="0.9"/>
		<circle class="st9" cx="1153.2" cy="328.6" r="0.9"/>
		<circle class="st9" cx="1155.5" cy="331" r="0.9"/>
		<circle class="st9" cx="1135.2" cy="331" r="0.9"/>
		<circle class="st9" cx="1137.4" cy="331" r="0.9"/>
		<circle class="st9" cx="1139.7" cy="331" r="0.9"/>
		<circle class="st9" cx="1141.9" cy="331" r="0.9"/>
		<circle class="st9" cx="1144.2" cy="331" r="0.9"/>
		<circle class="st9" cx="1146.4" cy="331" r="0.9"/>
		<circle class="st9" cx="1148.7" cy="331" r="0.9"/>
		<circle class="st9" cx="1151" cy="331" r="0.9"/>
		<circle class="st9" cx="1153.2" cy="331" r="0.9"/>
		<circle class="st9" cx="1155.5" cy="333.3" r="0.9"/>
		<circle class="st9" cx="1139.7" cy="333.3" r="0.9"/>
		<circle class="st9" cx="1141.9" cy="333.3" r="0.9"/>
		<circle class="st9" cx="1144.2" cy="333.3" r="0.9"/>
		<circle class="st9" cx="1146.4" cy="333.3" r="0.9"/>
		<circle class="st9" cx="1148.7" cy="333.3" r="0.9"/>
		<circle class="st9" cx="1151" cy="333.3" r="0.9"/>
		<circle class="st9" cx="1153.2" cy="333.3" r="0.9"/>
		<circle class="st9" cx="1155.5" cy="335.6" r="0.9"/>
		<circle class="st9" cx="1144.2" cy="335.6" r="0.9"/>
		<circle class="st9" cx="1146.4" cy="335.6" r="0.9"/>
		<circle class="st9" cx="1148.7" cy="335.6" r="0.9"/>
		<circle class="st9" cx="1151" cy="335.6" r="0.9"/>
		<circle class="st9" cx="1153.2" cy="335.6" r="0.9"/>
		<circle class="st9" cx="1155.5" cy="337.9" r="0.9"/>
		<circle class="st9" cx="1153.2" cy="337.9" r="0.9"/>
		<circle class="st9" cx="1157.7" cy="298.4" r="0.9"/>
		<circle class="st9" cx="1160" cy="298.4" r="0.9"/>
		<circle class="st9" cx="1182.5" cy="298.4" r="0.9"/>
		<circle class="st9" cx="1184.8" cy="298.4" r="0.9"/>
		<circle class="st9" cx="1180.3" cy="298.4" r="0.9"/>
		<circle class="st9" cx="1178" cy="298.4" r="0.9"/>
		<circle class="st9" cx="1175.8" cy="298.4" r="0.9"/>
		<circle class="st9" cx="1173.5" cy="298.4" r="0.9"/>
		<circle class="st9" cx="1171.3" cy="298.4" r="0.9"/>
		<circle class="st9" cx="1169" cy="298.4" r="0.9"/>
		<circle class="st9" cx="1166.7" cy="298.4" r="0.9"/>
		<circle class="st9" cx="1164.5" cy="298.4" r="0.9"/>
		<circle class="st9" cx="1162.2" cy="298.4" r="0.9"/>
		<circle class="st9" cx="1196.1" cy="298.4" r="0.9"/>
		<circle class="st9" cx="1193.8" cy="298.4" r="0.9"/>
		<circle class="st9" cx="1191.6" cy="298.4" r="0.9"/>
		<circle class="st9" cx="1189.3" cy="298.4" r="0.9"/>
		<circle class="st9" cx="1187" cy="298.4" r="0.9"/>
		<circle class="st9" cx="1157.7" cy="300.7" r="0.9"/>
		<circle class="st9" cx="1160" cy="300.7" r="0.9"/>
		<circle class="st9" cx="1182.5" cy="300.7" r="0.9"/>
		<circle class="st9" cx="1184.8" cy="300.7" r="0.9"/>
		<circle class="st9" cx="1180.3" cy="300.7" r="0.9"/>
		<circle class="st9" cx="1178" cy="300.7" r="0.9"/>
		<circle class="st9" cx="1175.8" cy="300.7" r="0.9"/>
		<circle class="st9" cx="1173.5" cy="300.7" r="0.9"/>
		<circle class="st9" cx="1171.3" cy="300.7" r="0.9"/>
		<circle class="st9" cx="1169" cy="300.7" r="0.9"/>
		<circle class="st9" cx="1166.7" cy="300.7" r="0.9"/>
		<circle class="st9" cx="1164.5" cy="300.7" r="0.9"/>
		<circle class="st9" cx="1162.2" cy="300.7" r="0.9"/>
		<circle class="st9" cx="1196.1" cy="300.7" r="0.9"/>
		<circle class="st9" cx="1193.8" cy="300.7" r="0.9"/>
		<circle class="st9" cx="1191.6" cy="300.7" r="0.9"/>
		<circle class="st9" cx="1189.3" cy="300.7" r="0.9"/>
		<circle class="st9" cx="1187" cy="300.7" r="0.9"/>
		<circle class="st9" cx="1157.7" cy="303.1" r="0.9"/>
		<circle class="st9" cx="1160" cy="303.1" r="0.9"/>
		<circle class="st9" cx="1182.5" cy="303.1" r="0.9"/>
		<circle class="st9" cx="1184.8" cy="303.1" r="0.9"/>
		<circle class="st9" cx="1180.3" cy="303.1" r="0.9"/>
		<circle class="st9" cx="1178" cy="303.1" r="0.9"/>
		<circle class="st9" cx="1175.8" cy="303.1" r="0.9"/>
		<circle class="st9" cx="1173.5" cy="303.1" r="0.9"/>
		<circle class="st9" cx="1171.3" cy="303.1" r="0.9"/>
		<circle class="st9" cx="1169" cy="303.1" r="0.9"/>
		<circle class="st9" cx="1166.7" cy="303.1" r="0.9"/>
		<circle class="st9" cx="1164.5" cy="303.1" r="0.9"/>
		<circle class="st9" cx="1162.2" cy="303.1" r="0.9"/>
		<circle class="st9" cx="1196.1" cy="303.1" r="0.9"/>
		<circle class="st9" cx="1193.8" cy="303.1" r="0.9"/>
		<circle class="st9" cx="1191.6" cy="303.1" r="0.9"/>
		<circle class="st9" cx="1189.3" cy="303.1" r="0.9"/>
		<circle class="st9" cx="1187" cy="303.1" r="0.9"/>
		<circle class="st9" cx="1157.7" cy="305.4" r="0.9"/>
		<circle class="st9" cx="1160" cy="305.4" r="0.9"/>
		<circle class="st9" cx="1182.5" cy="305.4" r="0.9"/>
		<circle class="st9" cx="1184.8" cy="305.4" r="0.9"/>
		<circle class="st9" cx="1180.3" cy="305.4" r="0.9"/>
		<circle class="st9" cx="1178" cy="305.4" r="0.9"/>
		<circle class="st9" cx="1175.8" cy="305.4" r="0.9"/>
		<circle class="st9" cx="1173.5" cy="305.4" r="0.9"/>
		<circle class="st9" cx="1171.3" cy="305.4" r="0.9"/>
		<circle class="st9" cx="1169" cy="305.4" r="0.9"/>
		<circle class="st9" cx="1166.7" cy="305.4" r="0.9"/>
		<circle class="st9" cx="1164.5" cy="305.4" r="0.9"/>
		<circle class="st9" cx="1162.2" cy="305.4" r="0.9"/>
		<circle class="st9" cx="1196.1" cy="305.4" r="0.9"/>
		<circle class="st9" cx="1193.8" cy="305.4" r="0.9"/>
		<circle class="st9" cx="1191.6" cy="305.4" r="0.9"/>
		<circle class="st9" cx="1189.3" cy="305.4" r="0.9"/>
		<circle class="st9" cx="1187" cy="305.4" r="0.9"/>
		<circle class="st9" cx="1157.7" cy="307.7" r="0.9"/>
		<circle class="st9" cx="1160" cy="307.7" r="0.9"/>
		<circle class="st9" cx="1182.5" cy="307.7" r="0.9"/>
		<circle class="st9" cx="1184.8" cy="307.7" r="0.9"/>
		<circle class="st9" cx="1180.3" cy="307.7" r="0.9"/>
		<circle class="st9" cx="1178" cy="307.7" r="0.9"/>
		<circle class="st9" cx="1175.8" cy="307.7" r="0.9"/>
		<circle class="st9" cx="1173.5" cy="307.7" r="0.9"/>
		<circle class="st9" cx="1171.3" cy="307.7" r="0.9"/>
		<circle class="st9" cx="1169" cy="307.7" r="0.9"/>
		<circle class="st9" cx="1166.7" cy="307.7" r="0.9"/>
		<circle class="st9" cx="1164.5" cy="307.7" r="0.9"/>
		<circle class="st9" cx="1162.2" cy="307.7" r="0.9"/>
		<circle class="st9" cx="1196.1" cy="307.7" r="0.9"/>
		<circle class="st9" cx="1193.8" cy="307.7" r="0.9"/>
		<circle class="st9" cx="1191.6" cy="307.7" r="0.9"/>
		<circle class="st9" cx="1189.3" cy="307.7" r="0.9"/>
		<circle class="st9" cx="1187" cy="307.7" r="0.9"/>
		<circle class="st9" cx="1157.7" cy="310" r="0.9"/>
		<circle class="st9" cx="1160" cy="310" r="0.9"/>
		<circle class="st9" cx="1182.5" cy="310" r="0.9"/>
		<circle class="st9" cx="1184.8" cy="310" r="0.9"/>
		<circle class="st9" cx="1180.3" cy="310" r="0.9"/>
		<circle class="st9" cx="1178" cy="310" r="0.9"/>
		<circle class="st9" cx="1175.8" cy="310" r="0.9"/>
		<circle class="st9" cx="1173.5" cy="310" r="0.9"/>
		<circle class="st9" cx="1171.3" cy="310" r="0.9"/>
		<circle class="st9" cx="1169" cy="310" r="0.9"/>
		<circle class="st9" cx="1166.7" cy="310" r="0.9"/>
		<circle class="st9" cx="1164.5" cy="310" r="0.9"/>
		<circle class="st9" cx="1162.2" cy="310" r="0.9"/>
		<circle class="st9" cx="1196.1" cy="310" r="0.9"/>
		<circle class="st9" cx="1193.8" cy="310" r="0.9"/>
		<circle class="st9" cx="1191.6" cy="310" r="0.9"/>
		<circle class="st9" cx="1189.3" cy="310" r="0.9"/>
		<circle class="st9" cx="1187" cy="310" r="0.9"/>
		<circle class="st9" cx="1157.7" cy="312.4" r="0.9"/>
		<circle class="st9" cx="1160" cy="312.4" r="0.9"/>
		<circle class="st9" cx="1182.5" cy="312.4" r="0.9"/>
		<circle class="st9" cx="1184.8" cy="312.4" r="0.9"/>
		<circle class="st9" cx="1180.3" cy="312.4" r="0.9"/>
		<circle class="st9" cx="1178" cy="312.4" r="0.9"/>
		<circle class="st9" cx="1175.8" cy="312.4" r="0.9"/>
		<circle class="st9" cx="1173.5" cy="312.4" r="0.9"/>
		<circle class="st9" cx="1171.3" cy="312.4" r="0.9"/>
		<circle class="st9" cx="1169" cy="312.4" r="0.9"/>
		<circle class="st9" cx="1166.7" cy="312.4" r="0.9"/>
		<circle class="st9" cx="1164.5" cy="312.4" r="0.9"/>
		<circle class="st9" cx="1162.2" cy="312.4" r="0.9"/>
		<circle class="st9" cx="1193.8" cy="312.4" r="0.9"/>
		<circle class="st9" cx="1191.6" cy="312.4" r="0.9"/>
		<circle class="st9" cx="1189.3" cy="312.4" r="0.9"/>
		<circle class="st9" cx="1187" cy="312.4" r="0.9"/>
		<circle class="st9" cx="1157.7" cy="314.7" r="0.9"/>
		<circle class="st9" cx="1160" cy="314.7" r="0.9"/>
		<circle class="st9" cx="1182.5" cy="314.7" r="0.9"/>
		<circle class="st9" cx="1184.8" cy="314.7" r="0.9"/>
		<circle class="st9" cx="1180.3" cy="314.7" r="0.9"/>
		<circle class="st9" cx="1178" cy="314.7" r="0.9"/>
		<circle class="st9" cx="1175.8" cy="314.7" r="0.9"/>
		<circle class="st9" cx="1173.5" cy="314.7" r="0.9"/>
		<circle class="st9" cx="1171.3" cy="314.7" r="0.9"/>
		<circle class="st9" cx="1169" cy="314.7" r="0.9"/>
		<circle class="st9" cx="1166.7" cy="314.7" r="0.9"/>
		<circle class="st9" cx="1164.5" cy="314.7" r="0.9"/>
		<circle class="st9" cx="1162.2" cy="314.7" r="0.9"/>
		<circle class="st9" cx="1193.8" cy="314.7" r="0.9"/>
		<circle class="st9" cx="1191.6" cy="314.7" r="0.9"/>
		<circle class="st9" cx="1189.3" cy="314.7" r="0.9"/>
		<circle class="st9" cx="1187" cy="314.7" r="0.9"/>
		<circle class="st9" cx="1157.7" cy="317" r="0.9"/>
		<circle class="st9" cx="1160" cy="317" r="0.9"/>
		<circle class="st9" cx="1182.5" cy="317" r="0.9"/>
		<circle class="st9" cx="1184.8" cy="317" r="0.9"/>
		<circle class="st9" cx="1180.3" cy="317" r="0.9"/>
		<circle class="st9" cx="1178" cy="317" r="0.9"/>
		<circle class="st9" cx="1175.8" cy="317" r="0.9"/>
		<circle class="st9" cx="1173.5" cy="317" r="0.9"/>
		<circle class="st9" cx="1171.3" cy="317" r="0.9"/>
		<circle class="st9" cx="1169" cy="317" r="0.9"/>
		<circle class="st9" cx="1166.7" cy="317" r="0.9"/>
		<circle class="st9" cx="1164.5" cy="317" r="0.9"/>
		<circle class="st9" cx="1162.2" cy="317" r="0.9"/>
		<circle class="st9" cx="1191.6" cy="317" r="0.9"/>
		<circle class="st9" cx="1189.3" cy="317" r="0.9"/>
		<circle class="st9" cx="1187" cy="317" r="0.9"/>
		<circle class="st9" cx="1157.7" cy="319.3" r="0.9"/>
		<circle class="st9" cx="1160" cy="319.3" r="0.9"/>
		<circle class="st9" cx="1182.5" cy="319.3" r="0.9"/>
		<circle class="st9" cx="1184.8" cy="319.3" r="0.9"/>
		<circle class="st9" cx="1180.3" cy="319.3" r="0.9"/>
		<circle class="st9" cx="1178" cy="319.3" r="0.9"/>
		<circle class="st9" cx="1175.8" cy="319.3" r="0.9"/>
		<circle class="st9" cx="1173.5" cy="319.3" r="0.9"/>
		<circle class="st9" cx="1171.3" cy="319.3" r="0.9"/>
		<circle class="st9" cx="1169" cy="319.3" r="0.9"/>
		<circle class="st9" cx="1166.7" cy="319.3" r="0.9"/>
		<circle class="st9" cx="1164.5" cy="319.3" r="0.9"/>
		<circle class="st9" cx="1162.2" cy="319.3" r="0.9"/>
		<circle class="st9" cx="1191.6" cy="319.3" r="0.9"/>
		<circle class="st9" cx="1189.3" cy="319.3" r="0.9"/>
		<circle class="st9" cx="1187" cy="319.3" r="0.9"/>
		<circle class="st9" cx="1157.7" cy="321.7" r="0.9"/>
		<circle class="st9" cx="1160" cy="321.7" r="0.9"/>
		<circle class="st9" cx="1182.5" cy="321.7" r="0.9"/>
		<circle class="st9" cx="1184.8" cy="321.7" r="0.9"/>
		<circle class="st9" cx="1180.3" cy="321.7" r="0.9"/>
		<circle class="st9" cx="1178" cy="321.7" r="0.9"/>
		<circle class="st9" cx="1175.8" cy="321.7" r="0.9"/>
		<circle class="st9" cx="1173.5" cy="321.7" r="0.9"/>
		<circle class="st9" cx="1171.3" cy="321.7" r="0.9"/>
		<circle class="st9" cx="1169" cy="321.7" r="0.9"/>
		<circle class="st9" cx="1166.7" cy="321.7" r="0.9"/>
		<circle class="st9" cx="1164.5" cy="321.7" r="0.9"/>
		<circle class="st9" cx="1162.2" cy="321.7" r="0.9"/>
		<circle class="st9" cx="1189.3" cy="321.7" r="0.9"/>
		<circle class="st9" cx="1187" cy="321.7" r="0.9"/>
		<circle class="st9" cx="1157.7" cy="324" r="0.9"/>
		<circle class="st9" cx="1160" cy="324" r="0.9"/>
		<circle class="st9" cx="1182.5" cy="324" r="0.9"/>
		<circle class="st9" cx="1184.8" cy="324" r="0.9"/>
		<circle class="st9" cx="1180.3" cy="324" r="0.9"/>
		<circle class="st9" cx="1178" cy="324" r="0.9"/>
		<circle class="st9" cx="1175.8" cy="324" r="0.9"/>
		<circle class="st9" cx="1173.5" cy="324" r="0.9"/>
		<circle class="st9" cx="1171.3" cy="324" r="0.9"/>
		<circle class="st9" cx="1169" cy="324" r="0.9"/>
		<circle class="st9" cx="1166.7" cy="324" r="0.9"/>
		<circle class="st9" cx="1164.5" cy="324" r="0.9"/>
		<circle class="st9" cx="1162.2" cy="324" r="0.9"/>
		<circle class="st9" cx="1187" cy="324" r="0.9"/>
		<circle class="st9" cx="1157.7" cy="326.3" r="0.9"/>
		<circle class="st9" cx="1160" cy="326.3" r="0.9"/>
		<circle class="st9" cx="1182.5" cy="326.3" r="0.9"/>
		<circle class="st9" cx="1184.8" cy="326.3" r="0.9"/>
		<circle class="st9" cx="1180.3" cy="326.3" r="0.9"/>
		<circle class="st9" cx="1178" cy="326.3" r="0.9"/>
		<circle class="st9" cx="1175.8" cy="326.3" r="0.9"/>
		<circle class="st9" cx="1173.5" cy="326.3" r="0.9"/>
		<circle class="st9" cx="1171.3" cy="326.3" r="0.9"/>
		<circle class="st9" cx="1169" cy="326.3" r="0.9"/>
		<circle class="st9" cx="1166.7" cy="326.3" r="0.9"/>
		<circle class="st9" cx="1164.5" cy="326.3" r="0.9"/>
		<circle class="st9" cx="1162.2" cy="326.3" r="0.9"/>
		<circle class="st9" cx="1157.7" cy="328.6" r="0.9"/>
		<circle class="st9" cx="1160" cy="328.6" r="0.9"/>
		<circle class="st9" cx="1182.5" cy="328.6" r="0.9"/>
		<circle class="st9" cx="1180.3" cy="328.6" r="0.9"/>
		<circle class="st9" cx="1178" cy="328.6" r="0.9"/>
		<circle class="st9" cx="1175.8" cy="328.6" r="0.9"/>
		<circle class="st9" cx="1173.5" cy="328.6" r="0.9"/>
		<circle class="st9" cx="1171.3" cy="328.6" r="0.9"/>
		<circle class="st9" cx="1169" cy="328.6" r="0.9"/>
		<circle class="st9" cx="1166.7" cy="328.6" r="0.9"/>
		<circle class="st9" cx="1164.5" cy="328.6" r="0.9"/>
		<circle class="st9" cx="1162.2" cy="328.6" r="0.9"/>
		<circle class="st9" cx="1157.7" cy="331" r="0.9"/>
		<circle class="st9" cx="1160" cy="331" r="0.9"/>
		<circle class="st9" cx="1180.3" cy="331" r="0.9"/>
		<circle class="st9" cx="1178" cy="331" r="0.9"/>
		<circle class="st9" cx="1175.8" cy="331" r="0.9"/>
		<circle class="st9" cx="1173.5" cy="331" r="0.9"/>
		<circle class="st9" cx="1171.3" cy="331" r="0.9"/>
		<circle class="st9" cx="1169" cy="331" r="0.9"/>
		<circle class="st9" cx="1166.7" cy="331" r="0.9"/>
		<circle class="st9" cx="1164.5" cy="331" r="0.9"/>
		<circle class="st9" cx="1162.2" cy="331" r="0.9"/>
		<circle class="st9" cx="1157.7" cy="333.3" r="0.9"/>
		<circle class="st9" cx="1160" cy="333.3" r="0.9"/>
		<circle class="st9" cx="1175.8" cy="333.3" r="0.9"/>
		<circle class="st9" cx="1173.5" cy="333.3" r="0.9"/>
		<circle class="st9" cx="1171.3" cy="333.3" r="0.9"/>
		<circle class="st9" cx="1169" cy="333.3" r="0.9"/>
		<circle class="st9" cx="1166.7" cy="333.3" r="0.9"/>
		<circle class="st9" cx="1164.5" cy="333.3" r="0.9"/>
		<circle class="st9" cx="1162.2" cy="333.3" r="0.9"/>
		<circle class="st9" cx="1157.7" cy="335.6" r="0.9"/>
		<circle class="st9" cx="1160" cy="335.6" r="0.9"/>
		<circle class="st9" cx="1171.3" cy="335.6" r="0.9"/>
		<circle class="st9" cx="1169" cy="335.6" r="0.9"/>
		<circle class="st9" cx="1166.7" cy="335.6" r="0.9"/>
		<circle class="st9" cx="1164.5" cy="335.6" r="0.9"/>
		<circle class="st9" cx="1162.2" cy="335.6" r="0.9"/>
		<circle class="st9" cx="1157.7" cy="337.9" r="0.9"/>
		<circle class="st9" cx="1160" cy="337.9" r="0.9"/>
		<circle class="st9" cx="1162.2" cy="337.9" r="0.9"/>
	</g>
	<path class="st10" d="M1151.4,480.7h12.7c4.4,0,8-3.6,8-8v-57.9c0-4.4-3.6-8-8-8h-12.7c-4.4,0-8,3.6-8,8v57.9
		C1143.4,477.1,1147,480.7,1151.4,480.7z"/>
	<g>
		<rect x="879.8" y="731.4" class="st3" width="26" height="91.3"/>
		<path d="M905.2,731.9v90.3h-25v-90.3H905.2 M906.2,730.9h-27v92.3h27V730.9L906.2,730.9z"/>
	</g>
	<g>
		<path class="st2" d="M405,815.9c-21.4,0-38.9-17.4-38.9-38.9s17.4-38.9,38.9-38.9h247.2c21.4,0,38.9,17.4,38.9,38.9
			s-17.4,38.9-38.9,38.9H405z"/>
		<path d="M652.2,738.6c21.2,0,38.4,17.2,38.4,38.4c0,21.2-17.2,38.4-38.4,38.4H405c-21.2,0-38.4-17.2-38.4-38.4
			s17.2-38.4,38.4-38.4H652.2 M652.2,737.6H405c-21.7,0-39.4,17.7-39.4,39.4v0c0,21.7,17.7,39.4,39.4,39.4h247.2
			c21.7,0,39.4-17.7,39.4-39.4v0C691.6,755.4,673.9,737.6,652.2,737.6L652.2,737.6z"/>
	</g>
	<g>
		<polygon class="st3" points="403.5,818.5 632.7,735.5 879.2,735.5 879.2,818.5 		"/>
		<path d="M878.7,736v82H406.4l226.4-82H878.7 M879.7,735H632.6l-231.9,84h479V735L879.7,735z"/>
	</g>
	<g>
		<path d="M907,824.9c-1.4,0-2.5-1.1-2.5-2.5v-90.7c0-1.4,1.1-2.5,2.5-2.5c1.4,0,2.5,1.1,2.5,2.5v90.7
			C909.5,823.8,908.4,824.9,907,824.9z"/>
		<path d="M907,729.7c1.1,0,2,0.9,2,2v90.7c0,1.1-0.9,2-2,2s-2-0.9-2-2v-90.7C905,730.6,905.9,729.7,907,729.7 M907,728.7
			c-1.7,0-3,1.4-3,3v90.7c0,1.7,1.4,3,3,3c1.7,0,3-1.4,3-3v-90.7C910,730,908.7,728.7,907,728.7L907,728.7z"/>
	</g>
	<path class="st11" d="M771.2,837.8H398.6c-0.5,0-1-0.5-1-1V717.2c0-0.5,0.5-1,1-1h372.6c0.5,0,1,0.5,1,1v119.6
		C772.2,837.4,771.8,837.8,771.2,837.8z"/>
	<g>
		<path class="st2" d="M404.5,840c-4.1,0-7.5-3.4-7.5-7.5V721.6c0-4.1,3.4-7.5,7.5-7.5h254.2c4.1,0,7.5,3.4,7.5,7.5v110.9
			c0,4.1-3.4,7.5-7.5,7.5H404.5z"/>
		<path d="M658.7,714.6c3.9,0,7,3.1,7,7v110.9c0,3.9-3.1,7-7,7H404.5c-3.9,0-7-3.1-7-7V721.6c0-3.9,3.1-7,7-7H658.7 M658.7,713.6
			H404.5c-4.4,0-8,3.6-8,8v110.9c0,4.4,3.6,8,8,8h254.2c4.4,0,8-3.6,8-8V721.6C666.7,717.2,663.1,713.6,658.7,713.6L658.7,713.6z"/>
	</g>
	<g>
		<g>
			<g>
				<path class="st2" d="M444.8,821.9c-3.7,0-6.7-3-6.7-6.7v-76.4c0-3.7,3-6.7,6.7-6.7h24.8c3.7,0,6.7,3,6.7,6.7v76.4
					c0,3.7-3,6.7-6.7,6.7H444.8z"/>
				<path d="M469.6,732.2c3.6,0,6.6,3,6.6,6.6v76.4c0,3.6-3,6.6-6.6,6.6h-24.8c-3.6,0-6.6-3-6.6-6.6v-76.4c0-3.6,3-6.6,6.6-6.6
					H469.6 M469.6,732.1h-24.8c-3.7,0-6.7,3-6.7,6.7v76.4c0,3.7,3,6.7,6.7,6.7h24.8c3.7,0,6.7-3,6.7-6.7v-76.4
					C476.3,735.1,473.3,732.1,469.6,732.1L469.6,732.1z"/>
			</g>
		</g>
		<g>
			<polygon class="st12" points="457.2,799.9 471.6,790.3 471.6,783.3 457.2,792.9 442.7,783.3 442.7,790.3 			"/>
			<polygon class="st13" points="457.2,754.2 471.6,763.7 471.6,770.8 457.2,761.1 442.7,770.8 442.7,763.7 			"/>
		</g>
	</g>
	<g>
		
			<rect x="411.7" y="777.1" transform="matrix(-1 -1.224647e-16 1.224647e-16 -1 828.0034 1616.8571)" class="st4" width="4.7" height="62.6"/>
		
			<rect x="411.7" y="714.5" transform="matrix(-1 -1.224647e-16 1.224647e-16 -1 828.0034 1491.6421)" class="st14" width="4.7" height="62.6"/>
	</g>
	<g>
		<g>
			<path d="M640.4,821.9H509.7c-4.4,0-8-3.6-8-8v-73.6c0-4.4,3.6-8,8-8h130.6c4.4,0,8,3.6,8,8v73.6
				C648.4,818.3,644.8,821.9,640.4,821.9z"/>
		</g>
		<g>
			<path class="st2" d="M539.6,758.2c0.8-1.5,2.1-2.2,3.9-2.2h4.9c1,0,1.9,0.4,2.6,1.2c0.7,0.8,1.2,1.9,1.6,3.3h0.2
				c0.3-1.2,0.7-2.1,1.3-2.7c0.6-0.6,1.4-0.9,2.5-0.9h4.1c0.8,0,1.4,0.1,1.9,0.4c0.5,0.2,1,0.6,1.5,1.2c0.9,1.2,1.4,3.4,1.4,6.8
				c0,3.4-0.5,5.7-1.4,6.8c-0.5,0.6-1,1-1.5,1.2c-0.5,0.2-1.2,0.4-1.9,0.4h-4.1c-1,0-1.9-0.3-2.5-0.9c-0.6-0.6-1-1.5-1.3-2.7h-0.2
				c-0.3,1.4-0.8,2.5-1.6,3.3c-0.7,0.8-1.6,1.2-2.6,1.2h-4.8c-1.9,0-3.2-0.7-4-2.2c-0.8-1.4-1.2-3.8-1.2-7.2
				C538.4,762,538.8,759.7,539.6,758.2z M541.3,769.5c0.4,0.8,1.1,1.2,2.1,1.2h4.9c1.4,0,2.2-0.6,2.6-1.7c0.2-0.6,0.3-1.1,0.3-1.6
				c0-0.5,0.1-1.2,0.1-2.1c0-0.9,0-1.6-0.1-2c0-0.5-0.1-1-0.3-1.6c-0.3-1.2-1.2-1.8-2.6-1.8h-4.9c-1,0-1.7,0.4-2.1,1.2
				c-0.4,0.8-0.6,2.2-0.6,4.2C540.7,767.3,540.9,768.7,541.3,769.5z M554,769c0.4,0.7,1.1,1,2.1,1h4.2c1,0,1.7-0.4,2.1-1.1
				c0.4-0.7,0.6-1.9,0.6-3.6c0-1.7-0.2-2.9-0.6-3.6c-0.4-0.7-1.1-1.1-2.1-1.1h-4.2c-1,0-1.7,0.3-2.1,1c-0.4,0.7-0.6,1.9-0.6,3.7
				C553.4,767.1,553.6,768.3,554,769z"/>
			<path class="st2" d="M539.1,780.1h2.9c-0.7,3.2-1,5.9-1,8c0,3.6,1,5.4,3,5.4h4.5c1.1,0,1.8-0.6,2.2-1.8c0.1-0.6,0.2-1.1,0.3-1.5
				c0-0.4,0.1-1,0.1-1.7v-5h2.5v4.4c0,0.7,0,1.3,0.1,1.7c0,0.4,0.1,0.9,0.3,1.5c0.1,0.6,0.4,1,0.8,1.4c0.4,0.3,0.9,0.5,1.5,0.5h4.7
				c1.4,0,2.1-1.6,2.1-4.8c0-2.1-0.2-4.6-0.6-7.4h2.8c0.2,2.3,0.4,4.8,0.4,7.3c0,3-0.3,5.1-1,6.5c-0.7,1.4-1.8,2-3.4,2h-5
				c-0.8,0-1.5-0.3-2.1-1c-0.6-0.7-0.9-1.5-1.1-2.6h-0.2c-0.1,0.6-0.2,1.2-0.3,1.6s-0.3,0.9-0.5,1.4c-0.5,0.9-1.3,1.4-2.5,1.4H544
				c-0.9,0-1.7-0.2-2.5-0.6c-0.7-0.4-1.3-0.9-1.7-1.5c-0.4-0.5-0.7-1.2-0.9-2.1c-0.2-0.9-0.4-1.8-0.5-2.6c-0.1-1-0.1-1.9-0.1-2.7
				C538.4,785.5,538.6,783,539.1,780.1z"/>
		</g>
		<g>
			<path class="st2" d="M635,762.5v0.9h-2.8c0.5,0.1,0.7,0.6,0.7,1.6c0,0.6-0.1,1.1-0.3,1.3c-0.2,0.3-0.6,0.4-1.1,0.4h-3.7v-0.9h3.6
				c0.1,0,0.2,0,0.3,0c0.1,0,0.2-0.1,0.2-0.1c0.2-0.1,0.3-0.4,0.3-0.9c0-0.4,0-0.7-0.1-0.9c-0.1-0.2-0.1-0.3-0.3-0.4
				c-0.1-0.1-0.3-0.1-0.5-0.1h-3.6v-0.9H635z"/>
			<path class="st2" d="M629.2,768.2h2c0.6,0,1,0.2,1.3,0.5c0.3,0.3,0.4,0.9,0.4,1.7c0,0.7-0.1,1.3-0.4,1.6
				c-0.3,0.3-0.7,0.5-1.3,0.5H630v-3.3h-0.8c-0.3,0-0.6,0.1-0.7,0.4c-0.2,0.2-0.2,0.6-0.2,1.1c0,0.5,0.1,1,0.2,1.7h-0.7
				c-0.1-0.6-0.2-1.2-0.2-1.8C627.7,769,628.2,768.2,629.2,768.2z M630.6,771.6h0.8c0.3,0,0.5-0.1,0.6-0.3s0.2-0.5,0.2-0.9
				c0-0.4-0.1-0.7-0.2-0.9c-0.1-0.2-0.3-0.3-0.6-0.3h-0.8V771.6z"/>
			<path class="st2" d="M630.3,775.1l2.4-1.8v1l-1.8,1.2l1.8,1.2v1l-2.4-1.8l-2.6,1.9v-1l2-1.3l-2-1.3v-1L630.3,775.1z"/>
			<path class="st2" d="M633.5,783.7l-1.3-2h0.8l1.4,2v0.9h-6.7v-0.9H633.5z"/>
			<path class="st2" d="M629,787.1c0.2,0,0.4,0,0.5,0.1c0.2,0.1,0.3,0.1,0.4,0.3c0.1,0.1,0.2,0.2,0.3,0.4c0.1,0.2,0.2,0.3,0.3,0.5
				c0.1,0.1,0.1,0.3,0.2,0.5l0.5,1.1c0.2,0.4,0.5,0.7,0.9,0.7h0.9c0.3,0,0.5-0.1,0.6-0.3c0.1-0.2,0.2-0.5,0.2-1c0-0.5-0.1-1.1-0.2-2
				h0.7c0.1,0.7,0.2,1.4,0.2,2.2c0,0.7-0.1,1.3-0.3,1.6c-0.2,0.3-0.6,0.5-1.1,0.5H632c-0.2,0-0.5,0-0.6-0.1
				c-0.2-0.1-0.3-0.2-0.4-0.4c-0.1-0.2-0.3-0.4-0.4-0.8l-0.7-1.5c-0.2-0.5-0.5-0.7-0.9-0.7h-0.4v3.5h-0.7v-4.5H629z"/>
		</g>
		<g>
			<path class="st2" d="M524.9,804.3h0.7c-0.2,0.7-0.2,1.4-0.2,1.8c0,0.4,0.1,0.7,0.2,0.9c0.1,0.2,0.3,0.3,0.5,0.3h1.2
				c0.3,0,0.4-0.1,0.5-0.3c0-0.1,0.1-0.2,0.1-0.3c0-0.1,0-0.2,0-0.4v-1.8h3.1v3.6h-0.6v-2.7h-1.9v1.4c0,0.3,0,0.5-0.1,0.7
				c-0.1,0.2-0.2,0.4-0.3,0.5c-0.2,0.2-0.4,0.2-0.6,0.2h-1.4c-0.2,0-0.4,0-0.6-0.1c-0.2-0.1-0.3-0.2-0.4-0.3
				c-0.1-0.1-0.2-0.3-0.2-0.5c-0.1-0.2-0.1-0.4-0.1-0.6c0-0.2,0-0.4,0-0.6C524.7,805.6,524.8,805,524.9,804.3z"/>
			<path class="st2" d="M526.2,812.6v-3.1h0.8l4.1,2.8v1.1h-4.2v0.7h-0.7v-0.7h-1.4v-0.8H526.2z M526.8,812.6h3.4l-3.4-2.3V812.6z"
				/>
		</g>
		<g>
			<path class="st15" d="M608.5,777c0-4.7-3.8-8.5-8.5-8.5c-4.7,0-8.5,3.8-8.5,8.5c0,4.7,3.8,8.5,8.5,8.5
				C604.6,785.6,608.5,781.7,608.5,777z M593.6,777c0-3.5,2.8-6.4,6.4-6.4c3.5,0,6.4,2.8,6.4,6.4c0,3.5-2.8,6.4-6.4,6.4
				C596.4,783.4,593.6,780.5,593.6,777z"/>
			<path class="st15" d="M612.4,769.9l-12.5-7.1l-12.5,7.1v14.2l12.5,7.1l12.5-7.1V769.9L612.4,769.9z"/>
		</g>
		<g>
			<g>
				<line class="st16" x1="517.8" y1="807.4" x2="516.2" y2="807.4"/>
				<line class="st16" x1="518" y1="814.2" x2="516.3" y2="814.2"/>
				<line class="st16" x1="517.8" y1="800.7" x2="516.2" y2="800.7"/>
				<line class="st16" x1="517.8" y1="793.9" x2="516.2" y2="793.9"/>
				<line class="st16" x1="517.8" y1="780.4" x2="516.2" y2="780.4"/>
				<line class="st16" x1="517.8" y1="787.2" x2="516.2" y2="787.2"/>
				<line class="st16" x1="517.8" y1="773.7" x2="516.2" y2="773.7"/>
				<line class="st16" x1="517.8" y1="766.9" x2="516.2" y2="766.9"/>
				<line class="st16" x1="517.8" y1="760.2" x2="516.2" y2="760.2"/>
				<line class="st16" x1="513.5" y1="753.4" x2="520.5" y2="753.4"/>
				<line class="st16" x1="517.8" y1="746.7" x2="516.2" y2="746.7"/>
				<line class="st16" x1="517.8" y1="739.9" x2="516.2" y2="739.9"/>
			</g>
		</g>
		<line class="st16" x1="505.8" y1="777" x2="510.9" y2="777"/>
	</g>
	<line class="st1" x1="904.3" y1="744.9" x2="892.2" y2="744.9"/>
	<path class="st1" d="M665.3,246.6c1.6,5.4,91.7,9.9,117.5,9.9"/>
	<g>
		<polygon class="st2" points="780.6,258 633.2,258.2 652.8,251.7 676.2,254.2 		"/>
	</g>
	<g>
		<path class="st6" d="M771.3,237.3H649.5L402.2,358.9h369.1c0.5,0,0.9-0.4,0.9-0.9V238.2C772.2,237.7,771.8,237.3,771.3,237.3z"/>
	</g>
	<g>
		
			<rect x="386.4" y="288.9" transform="matrix(0.902 -0.4318 0.4318 0.902 -75.2057 256.3384)" class="st2" width="281.1" height="9.8"/>
		<path d="M651.4,229.4l3.8,7.9L402.5,358.2l-3.8-7.9L651.4,229.4 M651.8,228L397.4,349.8l4.6,9.7l254.4-121.8L651.8,228L651.8,228z
			"/>
	</g>
	
		<rect x="421.3" y="335.8" transform="matrix(0.8899 -0.4563 0.4563 0.8899 -108.4855 232.1941)" class="st17" width="10.8" height="10"/>
	<g>
		<path class="st2" d="M681.2,365.6c-5.2,0-9.5-4.3-9.5-9.5V240.1c0-5.2,4.3-9.5,9.5-9.5h62c5.2,0,9.5,4.3,9.5,9.5v116.1
			c0,5.2-4.3,9.5-9.5,9.5H681.2z"/>
		<path d="M743.2,231.1c5,0,9,4,9,9v116.1c0,5-4,9-9,9h-62c-5,0-9-4-9-9V240.1c0-5,4-9,9-9H743.2 M743.2,230.1h-62
			c-5.5,0-10,4.5-10,10v116.1c0,5.5,4.5,10,10,10h62c5.5,0,10-4.5,10-10V240.1C753.2,234.6,748.7,230.1,743.2,230.1L743.2,230.1z"/>
	</g>
	<g>
		<path class="st2" d="M681.2,844.6c-5.2,0-9.5-4.3-9.5-9.5V719c0-5.2,4.3-9.5,9.5-9.5h62c5.2,0,9.5,4.3,9.5,9.5v116.1
			c0,5.2-4.3,9.5-9.5,9.5H681.2z"/>
		<path d="M743.2,710c5,0,9,4,9,9v116.1c0,5-4,9-9,9h-62c-5,0-9-4-9-9V719c0-5,4-9,9-9H743.2 M743.2,709h-62c-5.5,0-10,4.5-10,10
			v116.1c0,5.5,4.5,10,10,10h62c5.5,0,10-4.5,10-10V719C753.2,713.5,748.7,709,743.2,709L743.2,709z"/>
	</g>
	<g>
		<defs>
			<rect id="SVGID_1_" x="910.9" y="253.5" width="38.1" height="89.3"/>
		</defs>
		<clipPath id="SVGID_2_">
			<use xlink:href="#SVGID_1_"  style="overflow:visible;"/>
		</clipPath>
		<g class="st18">
			<rect x="906.8" y="260.3" class="st9" width="37.2" height="1.8"/>
			<rect x="903.1" y="337" class="st9" width="37.2" height="1.8"/>
			<rect x="908.7" y="262.6" class="st9" width="37.2" height="1.8"/>
			<rect x="909.6" y="264.9" class="st9" width="37.2" height="1.8"/>
			<rect x="910.5" y="267.3" class="st9" width="37.2" height="1.8"/>
			<rect x="910.5" y="269.6" class="st9" width="37.2" height="1.8"/>
			<rect x="910.5" y="271.9" class="st9" width="37.2" height="1.8"/>
			<rect x="910.5" y="274.2" class="st9" width="37.2" height="1.8"/>
			<rect x="910.5" y="276.6" class="st9" width="37.2" height="1.8"/>
			<rect x="910.5" y="278.9" class="st9" width="37.2" height="1.8"/>
			<rect x="910.5" y="281.2" class="st9" width="37.2" height="1.8"/>
			<rect x="910.5" y="283.5" class="st9" width="37.2" height="1.8"/>
			<rect x="910.5" y="285.9" class="st9" width="37.2" height="1.8"/>
			<rect x="910.5" y="288.2" class="st9" width="37.2" height="1.8"/>
			<rect x="910.5" y="290.5" class="st9" width="37.2" height="1.8"/>
			<rect x="910.5" y="292.9" class="st9" width="37.2" height="1.8"/>
			<rect x="910.5" y="295.2" class="st9" width="37.2" height="1.8"/>
			<rect x="910.5" y="297.5" class="st9" width="37.2" height="1.8"/>
			<rect x="910.5" y="299.8" class="st9" width="37.2" height="1.8"/>
			<rect x="910.5" y="302.2" class="st9" width="37.2" height="1.8"/>
			<rect x="910.5" y="304.5" class="st9" width="37.2" height="1.8"/>
			<rect x="910.5" y="306.8" class="st9" width="37.2" height="1.8"/>
			<rect x="910.5" y="309.1" class="st9" width="37.2" height="1.8"/>
			<rect x="910.5" y="311.5" class="st9" width="37.2" height="1.8"/>
			<rect x="910.5" y="313.8" class="st9" width="37.2" height="1.8"/>
			<rect x="910.5" y="316.1" class="st9" width="37.2" height="1.8"/>
			<rect x="910.5" y="318.4" class="st9" width="37.2" height="1.8"/>
			<rect x="910.5" y="320.8" class="st9" width="37.2" height="1.8"/>
			<rect x="910.5" y="323.1" class="st9" width="37.2" height="1.8"/>
			<rect x="910.5" y="325.4" class="st9" width="37.2" height="1.8"/>
			<rect x="910.5" y="327.7" class="st9" width="37.2" height="1.8"/>
			<rect x="909.6" y="330.1" class="st9" width="37.2" height="1.8"/>
			<rect x="908.7" y="332.4" class="st9" width="37.2" height="1.8"/>
			<rect x="906.8" y="334.7" class="st9" width="37.2" height="1.8"/>
			<rect x="903.1" y="258" class="st9" width="37.2" height="1.8"/>
		</g>
	</g>
	<g>
		<defs>
			<rect id="SVGID_3_" x="910.9" y="732.4" width="38.1" height="89.3"/>
		</defs>
		<clipPath id="SVGID_4_">
			<use xlink:href="#SVGID_3_"  style="overflow:visible;"/>
		</clipPath>
		<g class="st19">
			<rect x="910.5" y="769.4" class="st9" width="37.2" height="1.8"/>
			<rect x="910.5" y="771.7" class="st9" width="37.2" height="1.8"/>
			<rect x="910.5" y="774" class="st9" width="37.2" height="1.8"/>
			<rect x="910.5" y="776.3" class="st9" width="37.2" height="1.8"/>
			<rect x="910.5" y="778.7" class="st9" width="37.2" height="1.8"/>
			<rect x="910.5" y="781" class="st9" width="37.2" height="1.8"/>
			<rect x="910.5" y="783.3" class="st9" width="37.2" height="1.8"/>
		</g>
	</g>
	<g>
		<g>
			<path class="st4" d="M1252.6,747.5C1252.6,747.4,1252.5,747.4,1252.6,747.5c-1.1,0.9-2.4,1.3-3.6,1.8c-4,1.5-8,3-12,4.7
				c-2.6,1.1-5.3,1.2-8,0.6c-1.6-0.3-3.1-0.7-4.7-1.1c-2.2-0.5-4.4-1-6.7-1.5c-0.3-0.1-0.6-0.2-0.9-0.1c-0.5,1.2-0.9,2.6-1.6,3.7
				c-1.2,2-2.7,2.7-5.1,2.4c-2.3-0.4-4.5-0.9-6.8-1.3c-3.2-0.6-6.4-1.2-9.6-1.9c-1.1-0.2-2.1-0.6-3-1.3c-1-0.8-1.5-1.8-1.9-3
				c-0.4-1.3-0.4-2.7-0.5-4c-0.1-1.3-0.1-1.3-1.3-1.5c-2.9-0.5-5.9-0.6-8.8-0.1c-3.9,0.7-6.9,2.6-9.4,5.6c-2,2.4-3.4,5.2-4.2,8.3
				c-0.1,0.4-0.2,0.7-0.5,1c-0.6,0.7-1.2,1.4-1.9,2.1c-0.3,0.3-0.3,0.5-0.1,0.9c0.8,1.3,1,2.6,1.1,4.1c0.2,4.5,0.8,8.9,2.6,13.1
				c0.2,0.6,0.5,1.2,0.6,1.8c0.3,1.2-0.8,2.2-2,1.8c-0.5-0.2-0.9-0.5-1.3-0.8c-1.4-1.3-2.8-2.6-4.2-3.9c-0.6-0.5-1.1-1.1-1.7-1.6
				c-1.2-1.1-2.6-1.4-4.1-1.1c-0.5,0.1-0.8,0.4-0.9,0.9c-0.1,1.2-0.7,2.3-1.1,3.4c-0.3,0.8-0.8,1.6-1.4,2.2
				c-6.3,6.7-12.6,13.3-18.9,19.9c-3.4,3.5-6.8,7-10.3,10.4c-3.2,3.2-6.6,6.3-9.9,9.5c-3.1,3-6.3,6-9.6,8.9c-3.5,3.1-7,6.2-10.6,9.1
				c-3.5,2.9-7,5.7-10.7,8.3c-2.4,1.7-4.8,3.2-7.4,4.5c-0.5,0.2-0.9,0.3-1.3-0.1c-0.4-0.4-1-0.6-1.6-0.7c-1.7-0.5-3.4-1.1-5.2-1.2
				c-0.3,0-0.4-0.2-0.6-0.4c-0.4-0.5-0.7-1.2-1.1-1.7c-0.4-0.5-0.6-1.1-0.8-1.8c-1.2-3.8-0.5-7.3,1.6-10.6c0.7-1.1,1.5-2,2.3-3
				c3.9-4.9,7.9-9.9,11.9-14.8c4.9-6.2,9.9-12.3,14.8-18.5c3.5-4.3,6.9-8.7,10.4-13c3.5-4.3,6.9-8.7,10.4-13
				c0.3-0.4,0.7-0.7,1.3-0.8c1.7-0.4,3.1-1.4,4.5-2.3c1.5-1,2.9-2.1,4.3-3.2c0.1-0.1,0.3-0.2,0.3-0.3c0.3-1.1,1.1-1.8,1.8-2.6
				c2.1-2.7,4.2-5.3,6.3-8c2.8-3.6,5.7-7.2,8.5-10.8c2.1-2.6,4.2-5.3,6.3-7.9c0.7-0.8,1.3-1.7,2-2.5c0.3-0.3,0.5-0.6,1-0.5
				c0.3,0.1,0.4-0.1,0.5-0.4c0.1-0.3,0.2-0.5,0.2-0.8c0-0.8,0.5-1.2,1.1-1.6c3.7-3,7.5-6,11.2-9c3.8-3,7.5-6.1,11.3-9.1
				c1.1-0.9,2.1-1.7,3.2-2.6c0.5-0.4,0.9-0.4,1.4-0.3c5.7,1.3,11.4,2.6,17.1,3.9c16.2,3.7,32.5,7.5,48.7,11.2
				c0.7,0.2,1.1,0.5,1.5,1.2c2.6,5.1,5.2,10.3,7.9,15.4c0.6,1.2,0.7,2.4-0.2,3.5c-0.1,0.1,0,0.2,0,0.2
				C1252.9,747.1,1252.8,747.3,1252.6,747.5z M1205,751.9c0.2,0,0.5,0,0.7,0.1c0.8,0.2,1.6,0.5,2.2,1.1c0.8,0.8,0.7,1.8-0.3,2.4
				c-0.5,0.3-1,0.3-1.6,0.3c-1.1,0-2.1-0.3-2.9-1.1c-0.9-0.9-0.7-2,0.5-2.5c0.2-0.1,0.4-0.1,0.6-0.2c0.1,0,0.2-0.1,0.2-0.3
				c0-0.2-0.2-0.2-0.3-0.2c-0.8,0-1.6,0.2-2.3,0.6c-0.4,0.2-0.7,0.5-1,0.9c-0.7,1.1-0.2,2.2,1.1,2.5c2.1,0.4,4.2,0.8,6.3,1.2
				c0.7,0.1,0.9,0,1.2-0.6c0.5-1,0.3-2.1-0.5-2.9c-1.1-1.1-2.4-1.6-4-1.7c-0.2,0-0.4-0.1-0.4,0.1
				C1204.6,752,1204.8,751.9,1205,751.9z M1233.9,748.8c1.4,0.1,2.8-0.2,4.1-0.7c4.4-1.7,8.7-3.4,13.1-5.1c0.2-0.1,0.4-0.2,0.6-0.2
				c0.2,0,0.3,0.1,0.4,0.2c0,0.2,0,0.3-0.1,0.4c-0.3,0.2-0.6,0.3-0.9,0.4c-4.2,1.6-8.4,3.3-12.7,4.9c-1.1,0.4-2.3,0.7-3.5,0.8
				c-1.5,0.1-3-0.1-4.5-0.5c-3.7-0.9-7.4-1.7-11.1-2.6c-0.9-0.2-0.7-0.2-0.9,0.5c-0.4,1-0.7,1.9-1.2,2.8c-0.2,0.3-0.4,0.7-0.6,1
				c3,0.7,5.9,1.4,8.8,2c1.6,0.4,3.2,0.8,4.8,1c1.9,0.3,3.9,0.3,5.7-0.4c4.7-1.8,9.3-3.6,14-5.4c0.7-0.3,1.4-0.6,2-1.1
				c1-0.7,1.5-2.3,0.8-3.6c-2.7-5-5.2-10.1-7.8-15.2c-0.3-0.5-0.6-0.8-1.2-1c-4.2-0.9-8.5-1.9-12.7-2.9c-7.7-1.8-15.3-3.5-23-5.3
				c-0.3-0.1-0.7-0.2-1-0.1c0,0.1,0,0.2,0.1,0.2c0.9,1.4,0.9,2.8-0.1,4.2c-1.5,2-5,2.7-7.4,1c-1.5-1-1.9-3-0.9-4.5
				c0.5-0.8,1.2-1.5,2.1-1.9c0.2-0.1,0.5-0.1,0.4-0.4c-0.2-0.2-0.5-0.2-0.8-0.3c-7.4-1.7-14.7-3.4-22.1-5.1c-0.6-0.1-1,0-1.4,0.3
				c-2.5,2.1-5.1,4.1-7.6,6.2c-3.7,3-7.5,6-11.2,9.1c-2.2,1.8-4.4,3.5-6.6,5.3c-0.3,0.2-0.6,0.4-0.7,0.9c-0.4,1.7-1.1,3.3-2,4.9
				c-2.7,5-6.1,9.5-9.7,13.8c-3.4,4-6.9,7.9-10.7,11.5c-2.6,2.5-5.3,4.9-8.3,6.9c-1.8,1.3-3.7,2.5-5.9,3.1c-0.3,0.1-0.5,0.3-0.7,0.6
				c-3.6,4.5-7.2,9-10.8,13.4c-4.2,5.2-8.4,10.4-12.6,15.7c-4.2,5.3-8.4,10.5-12.7,15.8c-4,4.9-7.9,9.8-11.9,14.8
				c-0.7,0.9-1.4,1.8-2,2.8c-1.7,2.8-2.3,5.7-1.5,9c0.1,0.2,0,0.5,0.4,0.7c0.2-0.2,0.3-0.3,0.5-0.5c2.4-2.9,4.8-5.7,7.2-8.6
				c5.4-6.5,10.9-12.9,16.3-19.4c3.8-4.5,7.6-9.1,11.5-13.6c4.1-4.8,8.1-9.6,12.2-14.4c5-6,10-12,15.1-17.9
				c3.7-4.3,7.5-8.6,11.3-12.8c6-6.6,12.1-13.2,18.5-19.4c2.2-2.1,4.5-4.2,7-5.9c3.4-2.3,7.1-3.9,11.3-4.2c3.6-0.2,7.1,0.3,10.6,1.3
				c0.4,0.1,0.9,0.3,1.3,0.5c1.9,0.8,3.1,2.3,3.4,4.4c0.2,1.1,0.2,2.3,0.3,3.4c0.1,1.3,0,2.6,0.3,3.9c0.6,2.9,1.8,4.1,4.7,4.7
				c4.8,0.9,9.6,1.9,14.4,2.8c1.3,0.3,2.7,0.5,4,0.7c1.8,0.3,3.1-0.4,4-2c0.6-1.1,1-2.2,1.5-3.4c0.3-0.9,0.3-1,1.3-0.7
				c3.1,0.7,6.2,1.4,9.4,2.1c0.3,0.1,0.6,0.2,0.9,0.1c-0.6-1.2,0.1-1.9,0.9-2.4c2.2-1.4,4.5-1.8,7.1-1.4c0.4,0.1,0.7,0.2,1,0.4
				c0.5,0.4,0.6,0.8,0.2,1.4c-0.3,0.4-0.7,0.8-1.1,1.1c-1.1,0.7-2.3,1.1-3.5,1.4c-0.3,0-0.6,0.1-1.1,0.2
				C1233.3,748.8,1233.6,748.8,1233.9,748.8z M1188.5,744.3c-0.4-2.1-0.3-4.1-0.5-6.2c0-0.4-0.1-0.9-0.1-1.3
				c-0.2-2.2-1.4-3.6-3.4-4.4c-0.5-0.2-1-0.4-1.6-0.5c-2.2-0.6-4.5-0.9-6.8-1c-4.3-0.2-8.2,0.8-11.8,3c-2.4,1.4-4.6,3.2-6.7,5.1
				c-2.9,2.6-5.6,5.4-8.3,8.2c-4.5,4.6-8.8,9.5-13.2,14.2c-3.4,3.7-6.7,7.5-9.9,11.3c-5.8,6.9-11.6,13.8-17.5,20.7
				c-3.8,4.5-7.5,8.9-11.3,13.4c-5.9,7-11.8,14-17.7,20.9c-5.3,6.3-10.6,12.5-15.9,18.8c-1.3,1.5-1.3,1.5-0.1,3.2
				c0.1,0.1,0.2,0.2,0.2,0.3c0.1,0.2,0.3,0.3,0.5,0.3c1.6,0.2,3.1,0.7,4.6,1.1c0.7,0.2,1.3,0.4,1.9,0.8c0.5,0.4,1,0.3,1.5,0
				c2.8-1.5,5.5-3.2,8-5.1c4.6-3.3,9-6.9,13.3-10.6c5.1-4.4,10.1-8.9,15-13.5c4-3.8,8.1-7.6,12-11.6c5.6-5.5,11-11.1,16.4-16.8
				c3.9-4.1,7.8-8.3,11.7-12.4c0.7-0.8,1.3-1.5,1.6-2.5c0.2-0.7,0.7-1.4,0.8-2.2c0.1-1.2,0.5-2.2,1-3.2c1.1-2.2,2.5-4.2,3.9-6.2
				c2.2-3.1,4.7-6,7.2-8.8c0.3-0.3,0.4-0.6,0.5-1c0.6-2.5,1.7-4.9,3.2-7c2.7-3.9,6.3-6.5,11.1-7.3c3.1-0.5,6.1-0.4,9.2,0.2
				C1187.7,744.2,1188,744.3,1188.5,744.3z M1152.7,775c0.1,0.1,0.3,0,0.4,0c1.8-0.2,3.4,0.2,4.6,1.6c0.2,0.3,0.5,0.5,0.8,0.8
				c1.6,1.5,3.2,3.1,4.9,4.5c0.3,0.3,0.6,0.5,1,0.6c0.7,0.2,1.2-0.3,1.1-1c-0.1-0.4-0.3-0.9-0.4-1.3c-0.5-1.3-1.1-2.7-1.4-4.1
				c-0.8-3.4-1.3-6.8-1.3-10.2c0-1.2-0.4-2.2-1.1-3.2C1159,765.1,1153.3,772.8,1152.7,775z M1189,745.9c0,1.6,0.1,3.1,0.6,4.6
				c0.5,1.6,1.6,2.7,3.2,3.2c0.4,0.1,0.8,0.2,1.3,0.3c1.9,0.4,3.8,0.7,5.7,1.1c0.3,0.1,0.6,0.2,0.9,0.1c-0.5-1.3-0.3-2.1,0.6-2.9
				c0.5-0.5,1.2-0.7,1.8-0.8c0.6-0.1,1.2-0.1,1.9-0.1c-0.4-0.3-0.7-0.3-1-0.3c-3.5-0.7-6.9-1.4-10.4-2c-1-0.2-1.9-0.5-2.7-1
				C1190.1,747.5,1189.6,746.7,1189,745.9z M1149.2,736.1c-0.1,0-0.1-0.1-0.2-0.1c-7.8,9.8-15.5,19.7-23.3,29.5
				c0.2,0,0.3-0.1,0.4-0.2c3-2.6,5.8-5.5,8.4-8.4c3.6-4,7-8.1,10.1-12.5c1.6-2.3,3.1-4.7,4.3-7.3
				C1149,736.7,1149.2,736.4,1149.2,736.1z M1199.3,719.3c-1.2,1.2-1.7,3.4,0.1,4.8c2.2,1.7,5.9,1.3,7.5-1.1
				c1.2-1.7,0.6-3.7-1.3-4.4c-0.9-0.3-1.9-0.5-2.9-0.7C1201.3,717.8,1200.1,718.2,1199.3,719.3z M1216.1,751.4
				c-1,0.9-2.1,1.3-3.3,1.2c-0.5,0-1-0.1-1.6-0.2c-1.7-0.3-3.3-0.6-5-0.9c1.1,0.4,2.1,0.9,2.9,1.7c0.8,0.8,1,1.9,0.5,3
				c-0.1,0.2-0.4,0.4-0.4,0.7c0.4,0.2,0.8,0.2,1.2,0.3c1.8,0.3,3.1-0.4,4-1.9C1215.2,754.1,1215.6,752.9,1216.1,751.4z
				 M1230.9,745.5c-0.5,0.2-0.8,0.5-1.1,0.9c-0.6,0.8-0.5,1.5,0.5,1.9c0.5,0.2,1,0.2,1.4,0.2c1.8,0,3.5-0.5,5.1-1.3
				c0.6-0.3,1.1-0.6,1.5-1.2c0.4-0.6,0.3-1.1-0.3-1.4c-0.5-0.2-1-0.4-1.5-0.3c0.3,0.9,0.2,1.3-0.5,1.7c-1.2,0.7-2.6,1-4,0.8
				C1231,746.7,1230.8,746.4,1230.9,745.5z M1207.9,754.9c0.4-0.4,0.3-1-0.1-1.6c-0.9-1.1-3.1-1.6-4.4-0.9c-0.8,0.4-1,1.1-0.5,1.8
				c0.2,0.3,0.5,0.6,0.8,0.8c0.7,0.4,1.5,0.6,2.4,0.6C1206.8,755.7,1207.4,755.5,1207.9,754.9z M1236.2,745.6
				c0.4-0.5,0.3-0.8-0.2-1.1c-0.2-0.1-0.3-0.1-0.5-0.1c-1.3-0.1-2.5,0.1-3.6,0.7c-0.2,0.1-0.5,0.3-0.7,0.5c-0.3,0.4-0.2,0.7,0.2,1
				c0.3,0.1,0.5,0.2,0.8,0.2c1.3,0.1,2.4-0.2,3.5-0.8C1236,745.8,1236.1,745.6,1236.2,745.6z"/>
			<path class="st4" d="M1242.2,734.1c1.7,1.9,3,4,3.4,6.5c0,0.3,0.1,0.6,0,0.8c0,0.7-0.5,1.2-1.2,1.3c-1.1,0.1-1.9-0.3-2.7-0.9
				c-0.6-0.4-1-0.9-1.4-1.5c-0.1-0.1-0.2-0.2-0.1-0.4c0.2-0.4,0-0.5-0.3-0.5c-0.3,0-0.3-0.1-0.4-0.3c-0.5-1-0.9-2-1-3.1
				c-0.1-0.6-0.1-1.3,0.2-1.9c0.4-0.9,1-1.2,2-1C1241.2,733.4,1241.7,733.7,1242.2,734.1z M1240.5,740.1c0.3,0.5,0.6,1.1,1.1,1.5
				c0.8,0.5,1.5,1,2.5,1c0.9,0,1.4-0.4,1.3-1.3c0-0.4-0.1-0.8-0.2-1.2c-0.5-2.1-1.5-3.9-2.9-5.5c-0.4-0.5-0.9-0.8-1.5-1.1
				c-1.1-0.5-1.9-0.1-2.2,1c-0.2,0.9-0.1,1.7,0.1,2.5c0,0.1,0.1,0.3,0.3,0.3c0.2,0,0.2-0.2,0.2-0.3c0.3-1.2,1-1.4,2-0.7
				c0.5,0.3,0.9,0.7,1.3,1.2c0.6,0.8,1,1.6,1.1,2.6c0,0.5,0,1-0.4,1.2c-0.5,0.3-0.9,0.1-1.4-0.1c-0.2-0.1-0.4-0.2-0.5-0.4
				C1241.1,740.6,1240.8,740.4,1240.5,740.1z M1241.3,740.5c0.2,0.2,0.4,0.4,0.7,0.5c0.4,0.2,0.8,0.4,1.2,0.1
				c0.4-0.3,0.4-0.7,0.4-1.1c-0.1-1-0.6-1.9-1.3-2.7c-0.4-0.4-0.8-0.8-1.3-1c-0.8-0.4-1.3,0-1.4,0.9c0,0.3,0.1,0.7,0.2,1
				C1240.1,739.1,1240.5,739.9,1241.3,740.5z M1239.3,737.4c-0.1,0-0.2,0-0.2,0.1c0,0.5,0.2,0.9,0.7,1.4
				C1239.6,738.3,1239.4,737.9,1239.3,737.4z"/>
			<path class="st4" d="M1183.5,726.2c-1.3,1.3-2.7,2-4.3,2c-0.7,0-1.5-0.1-2.1-0.7c-0.8-0.7-0.9-1.5-0.4-2.4
				c0.3-0.6,0.8-1.1,1.4-1.6c1.1-0.9,2.3-1.5,3.7-1.6c0.9-0.1,1.8,0,2.4,0.9c0.6,0.8,0.3,1.7-0.1,2.5
				C1183.9,725.7,1183.7,726.1,1183.5,726.2z M1178.5,727.9c-0.8-1-0.8-1.6,0-2.5c0.3-0.4,0.8-0.6,1.2-0.9c0.8-0.4,1.6-0.6,2.5-0.4
				c0.9,0.2,1.2,0.8,1,1.6c0,0.2-0.3,0.3-0.1,0.6c0.3-0.3,0.6-0.5,0.7-0.8c0.4-0.8,0.8-1.6,0.3-2.4c-0.5-0.8-1.3-1-2.2-0.9
				c-2,0.2-3.6,1.2-4.8,2.8C1176,726.3,1176.6,727.6,1178.5,727.9z M1182.4,726.5c0.3-0.3,0.4-0.5,0.5-0.8c0.2-0.7,0-1.2-0.7-1.4
				c-1.3-0.4-3.5,0.5-4,1.8c-0.4,0.9,0,1.5,0.9,1.6C1180.5,727.9,1181.6,727.3,1182.4,726.5z"/>
			<path class="st4" d="M1202.2,738.2c0.3-0.5,0.8-0.6,1.2-0.8c2.4-1,5.4,0.2,6.4,2.6c1.1,2.4-0.5,5.1-3.2,5.4
				c-1.4,0.2-2.8-0.1-4-0.9c-1.7-1.1-2.4-3.2-1.6-4.9c0.1-0.2,0.2-0.4,0.4-0.5c0.1,0.2-0.1,0.3-0.2,0.5c-0.6,1.6-0.3,3.3,1,4.3
				c1.6,1.2,3.3,1.7,5.2,1c2.9-1,3.3-4.1,1.4-6.2c-1.6-1.7-3.9-2-6-0.9C1202.7,738,1202.5,738.3,1202.2,738.2z"/>
			<path class="st4" d="M1207.8,740.7c1.4,1.3,1.1,3.1-0.7,3.8c-1.6,0.6-3.6,0-4.4-1.4c-0.6-1.1-0.3-2.2,0.8-2.9
				C1204.9,739.4,1206.7,739.6,1207.8,740.7z M1208,743.7c0.7-0.8,0.7-1.9-0.1-2.7c-1-1.1-3-1.4-4.3-0.6c-0.9,0.6-1.2,1.6-0.7,2.5
				c0.7,1.3,2.5,1.9,4,1.4C1207.4,744.2,1207.8,744,1208,743.7z"/>
			<path class="st4" d="M1128.7,795.7c-1.8,2.1-3.6,4.2-5.3,6.3c-1.2,1.4-2.5,2.3-4.4,2.5c-2.5,0.2-4.3-1-5.6-3.1
				c-1.5-2.5-1.2-5.9,0.7-8.1c3.5-4.1,6.9-8.3,10.4-12.4c1.9-2.3,5-3.1,7.6-2c3.4,1.4,4.8,5.6,3.1,8.9c-0.3,0.5-0.6,0.9-0.9,1.4
				C1132.4,791.2,1130.6,793.5,1128.7,795.7C1128.7,795.7,1128.7,795.7,1128.7,795.7z M1127.7,795C1127.7,795,1127.7,795,1127.7,795
				c1.9-2.3,3.9-4.6,5.8-6.9c1.1-1.4,1.4-2.9,0.6-4.6c-0.7-1.7-2-2.8-3.9-3c-1.6-0.2-3,0.3-4.1,1.6c-3.4,4-6.7,8.1-10.2,12.1
				c-1.6,1.8-1.7,4.5-0.4,6.4c1.8,2.8,5.2,2.8,6.9,0.6C1124.1,799.1,1125.9,797.1,1127.7,795z M1134.5,787.4
				c0.1-0.1,0.2-0.1,0.2-0.2c1.3-2.3,0.4-5.8-1.8-7.2c-2.4-1.5-5.6-1.1-7.5,1.1c-0.9,1-1.7,2-2.6,3c-2.7,3.2-5.4,6.4-8.1,9.6
				c-1.8,2.2-2,5.3-0.5,7.6c1.1,1.7,2.7,2.6,4.8,2.4c0.2,0,0.4,0,0.4-0.3c-0.6-0.2-1.2-0.2-1.8-0.4c-3.2-1.3-4.4-5.8-2.3-8.6
				c0.5-0.7,1.1-1.3,1.6-1.9c3-3.6,6-7.2,9-10.8c2-2.3,5.8-2.2,7.6,0.2C1134.9,783.6,1135.3,785.4,1134.5,787.4z M1121,803
				c-0.5,0.2-1.1,0.2-1.6,0.5C1120.1,803.6,1120.5,803.3,1121,803z"/>
			<path class="st4" d="M1179.8,732.4c-1-0.7-1.9-0.5-2.9-0.1c-0.3,0.1-0.5,0.3-0.7,0.4c0.3-0.5,0.4-0.6,0.9-0.8
				c1-0.3,1.9-0.2,2.9,0.1c1.6,0.6,2.9,1.6,3.8,2.9c0.3,0.4,0.5,0.9,0.7,1.4c0.3,1.3-0.2,2.4-1.5,2.7c-2.7,0.6-5.3,0.1-7.6-1.5
				c-0.8-0.5-1-1.3-0.9-2.2c0.1-0.8,0.4-1.6,1-2.2c-0.2,0.5-0.5,1-0.7,1.5c-0.4,1.4,0,2.5,1.3,3.2c1.8,0.9,3.8,1.3,5.8,1.2
				c2.3-0.2,3-1.7,1.9-3.7c-0.7-1.3-1.9-2.2-3.2-2.9c-0.1-0.1-0.3-0.2-0.4,0l0,0C1180.3,732.3,1180.1,732.3,1179.8,732.4
				L1179.8,732.4z"/>
			<path class="st4" d="M1180.3,732.7c0.1,0.4,0.4,0.3,0.6,0.5c0.8,0.4,1.5,1,1.9,1.8c0.3,0.5,0.4,1.1,0.1,1.7
				c-0.4,0.5-1,0.6-1.6,0.5c-1.4-0.2-2.5-1-3.2-2.2c-0.7-1.2-0.2-2.2,1.3-2.2c0.2,0,0.5,0.2,0.4-0.2c0,0,0,0,0,0
				C1179.8,732.8,1180,732.9,1180.3,732.7L1180.3,732.7z M1179.1,735.9c0.8,0.7,1.7,1.1,2.5,1.1c1,0,1.5-0.7,1.2-1.6
				c-0.4-1.3-2.3-2.5-3.6-2.4c-0.9,0-1.4,0.7-1.1,1.6C1178.3,735,1178.7,735.5,1179.1,735.9z"/>
			<path class="st4" d="M1200.5,720.4c1.2-1.2,3.6-1.3,4.9-0.2c0.9,0.8,1,2,0.1,3c-1.2,1.3-3.7,1.4-5,0.2
				C1199.6,722.4,1199.6,721.3,1200.5,720.4z M1205.4,723c0.8-0.9,0.7-2.1-0.3-2.8c-1.1-0.8-2.9-0.9-4-0.1c-1.4,1-1.3,2.2-0.4,3
				C1201.9,724.3,1204.3,724.2,1205.4,723z"/>
		</g>
		<g>
			<path class="st14" d="M1168.9,706.7l1,2.2l0.3,0.6h0.6h8h0.4l0.3-0.3c1.5-1.4,3.5-2.1,5.5-2.1h8.7c2,0,4,0.8,5.5,2.1l0.3,0.3h0.4
				h8.3v5.1v0.9l0.9,0.1l1.8,0.2l0,0h0h33.7h1v-1v-0.4h7.2l0.7,0l0.2-0.7l0,30l-0.2-0.7h-0.7h-7.2v-0.4v-1h-1h-35.5h-1v1v5.2h-8.3
				h-0.4l-0.3,0.3c-1.5,1.4-3.5,2.1-5.5,2.1h-8.7c-2,0-4-0.8-5.5-2.1l-0.3-0.3h-0.4h-22.9h-1v1v10.9v0.3l0.2,0.3
				c0.9,1.2,1.6,2.5,2,3.9l0.1,0.4l0.4,0.2c0.7,0.4,1.3,0.8,1.9,1.4c2.9,2.9,2.9,7.7,0,10.6l-9,9c-1.4,1.4-3.3,2.2-5.3,2.2
				c-0.7,0-1.3-0.1-1.9-0.2l-0.6-0.1l-0.4,0.4l-1.6,1.6l-0.5,0.5l0.4,0.7c0,0.1,0.1,0.2,0,0.3c0,0-0.1,0.1-0.1,0.1c0,0-0.1,0-0.1,0
				l-0.7-0.4l-0.5,0.5l-3.6,3.6l-0.2,0.2l-0.1,0.3c-0.2,0.9-0.7,1.7-1.3,2.4l-27.6,27.6c-0.7,0.7-1.5,1.1-2.4,1.3l-0.3,0.1l-0.2,0.2
				l-7.2,7.2c-2.3,2.3-5.3,3.5-8.5,3.5s-6.3-1.2-8.5-3.5c-4.7-4.7-4.7-12.3,0-17l7.2-7.2l0.2-0.2l0.1-0.3c0.2-0.9,0.7-1.8,1.3-2.4
				l27.6-27.6c0.6-0.6,1.3-1,2.1-1.2l0.9-0.3l-0.2-0.9c-0.3-1.1,0-2.3,0.8-3.1l4.2-4.2c0.6-0.6,1.4-0.9,2.3-0.9c0.4,0,0.7,0.1,1,0.2
				l0.6,0.2l0.4-0.4l9.4-9.4c0.3-0.3,0.6-0.6,1-0.9l0.4-0.3v-0.5v-8.7v-1h-1h-50.3l-0.7-1.5l6.5-3.1l0.9-0.4l-0.1-0.1l1.4-0.7
				l0.1,0.2l0.9-0.4L1168.9,706.7 M1169.4,705.4l-73.6,35.3l-0.1-0.2l-3.2,1.6l0.1,0.1l-7.4,3.5l1.5,3.2l0.5-0.2h50.3v8.7
				c-0.4,0.3-0.7,0.6-1.1,0.9l-9.4,9.4c-0.4-0.1-0.9-0.2-1.4-0.2c-1.1,0-2.1,0.4-3,1.2l-4.2,4.2c-1.1,1.1-1.4,2.7-1.1,4.1
				c-0.9,0.3-1.7,0.8-2.5,1.5l-27.6,27.6c-0.8,0.8-1.4,1.8-1.6,2.9l-7.2,7.2c-5.1,5.1-5.1,13.4,0,18.5c2.5,2.5,5.9,3.8,9.2,3.8
				s6.7-1.3,9.2-3.8l7.2-7.2c1.1-0.3,2.1-0.8,2.9-1.6l27.6-27.6c0.8-0.8,1.3-1.8,1.6-2.9l3.6-3.6c0.2,0.1,0.4,0.2,0.6,0.2
				c0.3,0,0.6-0.1,0.9-0.4c0.4-0.4,0.4-1,0.2-1.5l1.6-1.6c0.7,0.2,1.4,0.3,2.2,0.3c2.2,0,4.4-0.8,6-2.5l9-9c3.3-3.3,3.3-8.7,0-12v0
				c-0.6-0.6-1.4-1.2-2.2-1.6c-0.4-1.5-1.2-2.9-2.2-4.2v-10.9h22.9c1.6,1.5,3.8,2.4,6.2,2.4h8.7c2.4,0,4.5-0.9,6.2-2.4h9
				c0.2,0,0.3-0.1,0.3-0.3v-5.9h35.5v1.4h8.2c0.1,0.4,0.5,0.7,1,0.7c0.6,0,1-0.5,1-1v-30c0-0.6-0.5-1-1-1c-0.5,0-0.8,0.3-1,0.7h-8.2
				v1.4h-33.7l-1.8-0.2v-5.8c0-0.2-0.1-0.3-0.3-0.3h-9c-1.6-1.5-3.8-2.4-6.2-2.4h-8.7c-2.4,0-4.5,0.9-6.2,2.4h-8L1169.4,705.4
				L1169.4,705.4z"/>
		</g>
	</g>
</g>
</svg>
