<?xml version="1.0" encoding="utf-8"?>
<!-- Generator: Adobe Illustrator 23.0.1, SVG Export Plug-In . SVG Version: 6.00 Build 0)  -->
<svg version="1.1" id="Layer_1" xmlns="http://www.w3.org/2000/svg" xmlns:xlink="http://www.w3.org/1999/xlink" x="0px" y="0px"
	 viewBox="0 0 1700 1000" style="enable-background:new 0 0 1700 1000;" xml:space="preserve">
<style type="text/css">
	.st0{fill:none;stroke:#000000;stroke-miterlimit:10;}
	.st1{fill:#FFFFFF;stroke:#000000;stroke-miterlimit:10;}
	.st2{fill:#FFFFFF;}
	.st3{fill:#F2F2F2;}
	.st4{fill:none;stroke:#000000;stroke-width:2;stroke-linecap:round;stroke-linejoin:round;stroke-miterlimit:10;}
	.st5{fill:#FF1D25;}
	.st6{fill:#8CC63F;}
	.st7{fill:none;stroke:#000000;stroke-width:0.4;stroke-linecap:round;stroke-linejoin:round;stroke-miterlimit:10;}
	.st8{fill:none;stroke:#8CC63F;stroke-width:0.4;stroke-linecap:round;stroke-linejoin:round;stroke-miterlimit:10;}
</style>
<g>
	<path class="st0" d="M1282,779.2H919.8c-4.4,0-8-3.6-8-8V634.1c0-4.4,3.6-8,8-8H1282c4.4,0,8,3.6,8,8v137.1
		C1290,775.6,1286.4,779.2,1282,779.2z"/>
	<rect x="585.4" y="266.1" class="st1" width="22" height="180.7"/>
	<rect x="581.8" y="364.5" class="st1" width="29.2" height="113.5"/>
	<path class="st1" d="M743.4,260.9H380.3c-4.2,0-7.6-3.4-7.6-7.6v-0.9c0-4.2,3.4-7.6,7.6-7.6h363.1c4.2,0,7.6,3.4,7.6,7.6v0.9
		C750.9,257.5,747.5,260.9,743.4,260.9z"/>
	
		<rect x="594.2" y="220.3" transform="matrix(-1.836970e-16 1 -1 -1.836970e-16 860.0725 -332.7888)" class="st1" width="4.5" height="86.6"/>
	<rect x="581.6" y="266.1" class="st1" width="29.6" height="7.8"/>
	<rect x="1142.2" y="266.1" class="st1" width="22" height="86.6"/>
	<rect x="1138.5" y="341.5" class="st1" width="29.2" height="136.5"/>
	<path class="st1" d="M1225.1,260.9h-144c-4.2,0-7.6-3.4-7.6-7.6v-0.9c0-4.2,3.4-7.6,7.6-7.6l144,0c4.2,0,7.6,3.4,7.6,7.6v0.9
		C1232.7,257.5,1229.3,260.9,1225.1,260.9z"/>
	
		<rect x="1150.9" y="220.3" transform="matrix(-1.836970e-16 1 -1 -1.836970e-16 1416.7872 -889.5036)" class="st1" width="4.5" height="86.6"/>
	<rect x="1138.4" y="266.1" class="st1" width="29.6" height="7.8"/>
	<path class="st1" d="M612.1,402c-0.4,0-0.7-0.3-0.7-0.7v-36c0-0.4,0.3-0.7,0.7-0.7h17.7c0.4,0,0.7,0.3,0.7,0.7v19.9
		c0,0.2-3.7,3.6-7.8,7.3C617.7,396.9,612.1,402,612.1,402z"/>
	<g>
		<path class="st1" d="M606.4,707.5L500.8,601.9c3.5-9.1,1.6-19.7-5.7-27.1c-9.9-9.9-26-9.9-35.9,0c-9.9,9.9-9.9,26,0,35.9
			c7.3,7.3,18,9.2,27.1,5.7L591.8,722L606.4,707.5z"/>
		<circle class="st1" cx="477.1" cy="592.8" r="17.3"/>
	</g>
	<g>
		<path class="st1" d="M598.5,722.8l105.5-105.5c9.1,3.5,19.7,1.6,27.1-5.7c9.9-9.9,9.9-26,0-35.9c-9.9-9.9-26-9.9-35.9,0
			c-7.3,7.3-9.2,18-5.7,27.1L584,708.2L598.5,722.8z"/>
		<circle class="st1" cx="713.2" cy="593.6" r="17.3"/>
	</g>
	<g>
		<path class="st1" d="M582.3,716.5l133,67.8c-0.5,9.7,4.6,19.3,13.8,24c12.5,6.4,27.8,1.4,34.1-11.1c6.4-12.5,1.4-27.8-11.1-34.1
			c-9.2-4.7-20-3.2-27.5,2.9l-133-67.8L582.3,716.5z"/>
		<circle class="st1" cx="740.7" cy="785.6" r="17.3"/>
	</g>
	<g>
		<path class="st1" d="M594.1,706.1l-136,61.5c-7.3-6.5-17.9-8.4-27.3-4.2c-12.8,5.8-18.4,20.8-12.7,33.6
			c5.8,12.8,20.8,18.4,33.6,12.7c9.4-4.3,15-13.6,14.9-23.3l136-61.5L594.1,706.1z"/>
		<circle class="st1" cx="441.3" cy="786.6" r="17.3"/>
	</g>
	<g>
		<rect x="599.5" y="695.4" class="st2" width="29.2" height="29.2"/>
		<g>
			<polyline class="st0" points="628.7,701.4 628.7,695.4 622.7,695.4 			"/>
			<polyline class="st0" points="605.5,695.4 599.5,695.4 599.5,701.4 			"/>
			<polyline class="st0" points="599.5,718.6 599.5,724.6 605.5,724.6 			"/>
			<polyline class="st0" points="622.7,724.6 628.7,724.6 628.7,718.6 			"/>
		</g>
	</g>
	<path class="st0" d="M742.9,779.2H380.7c-4.4,0-8-3.6-8-8V634.1c0-4.4,3.6-8,8-8h362.2c4.4,0,8,3.6,8,8v137.1
		C750.9,775.6,747.3,779.2,742.9,779.2z"/>
	<rect x="676.4" y="651" width="61" height="118.1"/>
	<path class="st1" d="M742.9,779.2H380.7c-4.4,0-8-3.6-8-8V634.1c0-4.4,3.6-8,8-8h362.2c4.4,0,8,3.6,8,8v137.1
		C750.9,775.6,747.3,779.2,742.9,779.2z"/>
	<path class="st0" d="M380.7,776.2c-2.8,0-5-2.2-5-5V634.1c0-2.8,2.2-5,5-5h362.2c2.8,0,5,2.2,5,5v137.1c0,2.8-2.2,5-5,5H380.7z"/>
	<g>
		<rect x="581.8" y="688" class="st2" width="29.2" height="29.2"/>
		<g>
			<polyline class="st0" points="611,694 611,688 605,688 			"/>
			<polyline class="st0" points="587.8,688 581.8,688 581.8,694 			"/>
			<polyline class="st0" points="581.8,711.2 581.8,717.2 587.8,717.2 			"/>
			<polyline class="st0" points="605,717.2 611,717.2 611,711.2 			"/>
		</g>
	</g>
	<g>
		<defs>
			<rect id="SVGID_1_" x="672" y="643.6" width="64.7" height="118.1"/>
		</defs>
		<use xlink:href="#SVGID_1_"  style="overflow:visible;fill:#F2F2F2;"/>
		<clipPath id="SVGID_2_">
			<use xlink:href="#SVGID_1_"  style="overflow:visible;"/>
		</clipPath>
	</g>
	<g>
		<path class="st1" d="M1157.9,680.5l-131.4-70.9c0.7-9.7-4.1-19.4-13.2-24.3c-12.3-6.7-27.7-2.1-34.4,10.3
			c-6.7,12.3-2.1,27.7,10.3,34.4c9.1,4.9,19.9,3.7,27.6-2.3l131.4,70.9L1157.9,680.5z"/>
		<circle class="st3" cx="1001.2" cy="607.6" r="17.3"/>
	</g>
	<g>
		<path class="st1" d="M1170.1,705.2l119.5-89.5c8.5,4.7,19.3,4.4,27.6-1.8c11.2-8.4,13.5-24.3,5.1-35.5
			c-8.4-11.2-24.3-13.5-35.5-5.1c-8.3,6.2-11.7,16.5-9.5,26l-119.5,89.5L1170.1,705.2z"/>
		<circle class="st3" cx="1301.9" cy="593.6" r="17.3"/>
	</g>
	<g>
		<path class="st1" d="M1150.1,720.5l105.3,105.8c-3.5,9.1-1.6,19.7,5.7,27.1c9.9,9.9,25.9,10,35.9,0.1c9.9-9.9,10-25.9,0.1-35.9
			c-7.3-7.3-18-9.3-27-5.8L1164.7,706L1150.1,720.5z"/>
		<circle class="st3" cx="1279.1" cy="835.5" r="17.3"/>
	</g>
	<g>
		<path class="st1" d="M1134.1,701.7L1013.7,790c-8.4-4.8-19.3-4.6-27.6,1.6c-11.3,8.3-13.7,24.2-5.5,35.5s24.2,13.7,35.5,5.5
			c8.3-6.1,11.9-16.4,9.8-25.9l120.4-88.3L1134.1,701.7z"/>
		<circle class="st3" cx="1001.1" cy="812" r="17.3"/>
	</g>
	<g>
		<circle class="st1" cx="1153.1" cy="702.6" r="34.6"/>
		<circle class="st1" cx="1153.1" cy="702.6" r="12.5"/>
		<g>
			<circle class="st1" cx="1141" cy="683.3" r="5.1"/>
			<circle class="st1" cx="1165.3" cy="722" r="5.1"/>
		</g>
		<g>
			<circle class="st1" cx="1172.5" cy="690.5" r="5.1"/>
			<circle class="st1" cx="1133.8" cy="714.8" r="5.1"/>
		</g>
	</g>
	<path class="st1" d="M621.6,497.6h-50.4c-5.2,0-9.4-4.2-9.4-9.4v-1.1c0-5.2,4.2-9.4,9.4-9.4h50.4c5.2,0,9.4,4.2,9.4,9.4v1.1
		C631,493.4,626.8,497.6,621.6,497.6z"/>
	<path class="st1" d="M567.1,481.8H441.5c-3.1,0-5.6,2.5-5.6,5.6v0.6c0,3.1,2.5,5.6,5.6,5.6h125.7c3.1,0,5.6-2.5,5.6-5.6v-0.6
		C572.7,484.3,570.2,481.8,567.1,481.8z"/>
	<path class="st1" d="M460.3,503.5h-40.7c-2.8,0-5-2.2-5-5v-15.7c0-2.8,2.2-5,5-5h40.7c2.8,0,5,2.2,5,5v15.7
		C465.3,501.2,463.1,503.5,460.3,503.5z"/>
	<path class="st1" d="M698.8,481.8h-83c-3.1,0-5.6,2.5-5.6,5.6v0.6c0,3.1,2.5,5.6,5.6,5.6h83c3.1,0,5.6-2.5,5.6-5.6v-0.6
		C704.3,484.3,701.8,481.8,698.8,481.8z"/>
	<path class="st1" d="M733.2,503.5h-40.7c-2.8,0-5-2.2-5-5v-15.7c0-2.8,2.2-5,5-5h40.7c2.8,0,5,2.2,5,5v15.7
		C738.2,501.2,735.9,503.5,733.2,503.5z"/>
	<path class="st1" d="M1178.3,497.6h-50.4c-5.2,0-9.4-4.2-9.4-9.4v-1.1c0-5.2,4.2-9.4,9.4-9.4h50.4c5.2,0,9.4,4.2,9.4,9.4v1.1
		C1187.7,493.4,1183.5,497.6,1178.3,497.6z"/>
	<path class="st1" d="M1133.4,481.8h-43.3c-3.1,0-5.6,2.5-5.6,5.6v0.6c0,3.1,2.5,5.6,5.6,5.6h43.3c3.1,0,5.6-2.5,5.6-5.6v-0.6
		C1139,484.3,1136.5,481.8,1133.4,481.8z"/>
	<g>
		<path class="st1" d="M1079,471.2c-8.3-0.4-16.5-0.5-12.8,0.8c8.4,2.7,7.3,13,7.4,15.5c0,1.2,2.7,1.3,5.5,1c2.8,0.3,5.5,0.2,5.5-1
			c0-2.6-1-12.8,7.4-15.5C1095.6,470.7,1087.3,470.8,1079,471.2z"/>
		<path class="st1" d="M1094.6,473.2h-31.1c-1,0-1.7-0.8-1.7-1.7v-0.2c0-1,0.8-1.7,1.7-1.7h31.1c1,0,1.7,0.8,1.7,1.7v0.2
			C1096.3,472.4,1095.5,473.2,1094.6,473.2z"/>
		<line class="st4" x1="1061.7" y1="471.4" x2="1096.3" y2="471.4"/>
	</g>
	<g>
		<path class="st1" d="M1246.7,471.2c-8.3-0.4-16.5-0.5-12.8,0.8c8.4,2.7,7.3,13,7.4,15.5c0,1.2,2.7,1.3,5.5,1
			c2.8,0.3,5.5,0.2,5.5-1c0-2.6-1-12.8,7.4-15.5C1263.2,470.7,1255,470.8,1246.7,471.2z"/>
		<path class="st1" d="M1262.2,473.2h-31.1c-1,0-1.7-0.8-1.7-1.7v-0.2c0-1,0.8-1.7,1.7-1.7h31.1c1,0,1.7,0.8,1.7,1.7v0.2
			C1264,472.4,1263.2,473.2,1262.2,473.2z"/>
		<line class="st4" x1="1229.4" y1="471.4" x2="1264" y2="471.4"/>
	</g>
	<path class="st1" d="M1099.4,503.5h-40.7c-2.8,0-5-2.2-5-5v-15.7c0-2.8,2.2-5,5-5h40.7c2.8,0,5,2.2,5,5v15.7
		C1104.4,501.2,1102.1,503.5,1099.4,503.5z"/>
	<path class="st1" d="M1263.6,481.8h-83c-3.1,0-5.6,2.5-5.6,5.6v0.6c0,3.1,2.5,5.6,5.6,5.6h83c3.1,0,5.6-2.5,5.6-5.6v-0.6
		C1269.1,484.3,1266.6,481.8,1263.6,481.8z"/>
	<path class="st1" d="M1267.1,503.5h-40.7c-2.8,0-5-2.2-5-5v-15.7c0-2.8,2.2-5,5-5h40.7c2.8,0,5,2.2,5,5v15.7
		C1272.1,501.2,1269.8,503.5,1267.1,503.5z"/>
	<g>
		<path class="st5" d="M684.1,679.5c0,0.2,0.1,0.3,0.2,0.3v2.8h0.5V694l-0.1,0.6h-2c-0.1,0-0.1,0-0.1,0.1v2.1
			c-0.5,0.1-0.8,0.5-0.8,1v7.2c0,0.5,0.4,0.9,0.8,1v1.7l-1,0.5l12,25l-0.1,0l0.6,1.1l0,0l1.2,2.5l1.1-0.5l-0.1-0.2v-17.1h2.9
			c0,0.1,0.1,0.1,0.1,0.2l3.4,3.4c-0.2,0.5-0.1,1.1,0.3,1.5l1.4,1.4c0.3,0.3,0.7,0.4,1.1,0.4l11.1,11.1c0.2,0.2,0.4,0.2,0.6,0.2l2,2
			c1.6,1.6,4.3,1.6,5.9,0l0.4-0.4c1.6-1.6,1.6-4.3,0-5.9l-2-2c0-0.2,0-0.5-0.2-0.6L712.3,719c-0.2-0.2-0.4-0.2-0.6-0.2l-0.6-0.6
			c0.1-0.2,0.1-0.4-0.1-0.5c-0.1-0.1-0.3-0.2-0.5-0.1l-0.5-0.5c0.3-1,0-2-0.7-2.8l-3.1-3.1c-1.1-1.1-3-1.1-4.1,0
			c-0.2,0.2-0.3,0.4-0.5,0.6c-0.6,0.2-1.1,0.5-1.5,0.9h-3.7V706c0.5-0.1,0.8-0.5,0.8-1v-7.2c0-0.5-0.4-0.9-0.8-1v-2.1
			c0-0.1,0-0.1-0.1-0.1h-2v-12.1h0.5v-2.8c0.1,0,0.2-0.2,0.2-0.3c0-0.2-0.2-0.3-0.3-0.3h-10.2C684.3,679.1,684.1,679.3,684.1,679.5z
			"/>
	</g>
	<g>
		<path class="st5" d="M683.5,673.7v-0.8h-1.2v0.8h-0.4v-2h0.4v0.8h1.2v-0.8h0.4v2H683.5z"/>
		<path class="st5" d="M686.1,673.1h-1.3c0,0.2,0.2,0.3,0.5,0.3c0.2,0,0.5,0,0.6-0.1v0.3c-0.2,0.1-0.4,0.1-0.7,0.1
			c-0.3,0-0.5-0.1-0.7-0.2c-0.2-0.1-0.2-0.3-0.2-0.5c0-0.2,0.1-0.4,0.2-0.5c0.1-0.1,0.4-0.2,0.6-0.2c0.3,0,0.5,0.1,0.6,0.2
			c0.1,0.1,0.2,0.3,0.2,0.5C686.1,673,686.1,673.1,686.1,673.1z M685.2,672.6c-0.2,0-0.4,0.1-0.4,0.3h0.8
			C685.6,672.7,685.5,672.6,685.2,672.6z"/>
		<path class="st5" d="M686.9,673.7c-0.2,0-0.3,0-0.4-0.1c-0.1-0.1-0.1-0.2-0.1-0.3v-1.6h0.4v1.5c0,0.1,0,0.1,0,0.1c0,0,0.1,0,0.2,0
			c0.1,0,0.1,0,0.2,0v0.3C687.2,673.7,687.1,673.7,686.9,673.7z"/>
		<path class="st5" d="M687.6,674.3c-0.1,0-0.2,0-0.3,0V674c0,0,0.1,0,0.2,0c0.3,0,0.5-0.1,0.5-0.3l0,0l-0.7-1.4h0.5l0.5,1l0.5-1
			h0.4l-0.7,1.4c-0.1,0.2-0.2,0.4-0.4,0.4C688,674.3,687.8,674.3,687.6,674.3z"/>
		<path class="st5" d="M691,673.1h-1.3c0,0.2,0.2,0.3,0.5,0.3c0.2,0,0.5,0,0.6-0.1v0.3c-0.2,0.1-0.4,0.1-0.7,0.1
			c-0.3,0-0.5-0.1-0.7-0.2c-0.2-0.1-0.2-0.3-0.2-0.5c0-0.2,0.1-0.4,0.2-0.5c0.1-0.1,0.4-0.2,0.6-0.2c0.3,0,0.5,0.1,0.6,0.2
			c0.1,0.1,0.2,0.3,0.2,0.5C691,673,691,673.1,691,673.1z M690.2,672.6c-0.2,0-0.4,0.1-0.4,0.3h0.8
			C690.5,672.7,690.4,672.6,690.2,672.6z"/>
		<path class="st5" d="M691.3,672.6v-0.3h1.5v0.2l-0.9,0.8h0.9v0.3h-1.6v-0.2l0.9-0.8H691.3z"/>
		<path class="st5" d="M693.1,672.6v-0.3h1.5v0.2l-0.9,0.8h0.9v0.3h-1.6v-0.2l0.9-0.8H693.1z"/>
		<path class="st5" d="M696.6,673.1h-1.3c0,0.2,0.2,0.3,0.5,0.3c0.2,0,0.5,0,0.6-0.1v0.3c-0.2,0.1-0.4,0.1-0.7,0.1
			c-0.3,0-0.5-0.1-0.7-0.2c-0.2-0.1-0.2-0.3-0.2-0.5c0-0.2,0.1-0.4,0.2-0.5c0.1-0.1,0.4-0.2,0.6-0.2c0.3,0,0.5,0.1,0.6,0.2
			c0.1,0.1,0.2,0.3,0.2,0.5C696.6,673,696.6,673.1,696.6,673.1z M695.8,672.6c-0.2,0-0.4,0.1-0.4,0.3h0.8
			C696.1,672.7,696,672.6,695.8,672.6z"/>
		<path class="st5" d="M697.9,672.1v-0.4h0.4v0.4H697.9z M697.9,673.7v-1.4h0.4v1.4H697.9z"/>
		<path class="st5" d="M699.6,673.8c-0.3,0-0.4-0.1-0.6-0.2c-0.1-0.1-0.2-0.3-0.2-0.5c0-0.2,0.1-0.4,0.2-0.5
			c0.1-0.1,0.3-0.2,0.6-0.2c0.2,0,0.4,0,0.5,0.1v-0.7h0.4v2h-0.4l0-0.2c-0.1,0.1-0.2,0.1-0.3,0.1
			C699.8,673.7,699.7,673.8,699.6,673.8z M699.7,673.4c0.2,0,0.3,0,0.5-0.1v-0.6c-0.1-0.1-0.3-0.1-0.5-0.1c-0.1,0-0.3,0-0.3,0.1
			c-0.1,0.1-0.1,0.2-0.1,0.3c0,0.1,0,0.2,0.1,0.3C699.4,673.4,699.5,673.4,699.7,673.4z"/>
		<path class="st5" d="M702.7,673.1h-1.3c0,0.2,0.2,0.3,0.5,0.3c0.2,0,0.5,0,0.6-0.1v0.3c-0.2,0.1-0.4,0.1-0.7,0.1
			c-0.3,0-0.5-0.1-0.7-0.2c-0.2-0.1-0.2-0.3-0.2-0.5c0-0.2,0.1-0.4,0.2-0.5c0.1-0.1,0.4-0.2,0.6-0.2c0.3,0,0.5,0.1,0.6,0.2
			c0.1,0.1,0.2,0.3,0.2,0.5C702.7,673,702.7,673.1,702.7,673.1z M701.8,672.6c-0.2,0-0.4,0.1-0.4,0.3h0.8
			C702.2,672.7,702.1,672.6,701.8,672.6z"/>
		<path class="st5" d="M705.1,673.7l0-0.1c-0.1,0.1-0.3,0.2-0.6,0.2c-0.2,0-0.3,0-0.4-0.1c-0.1-0.1-0.2-0.2-0.2-0.3
			c0-0.2,0.1-0.3,0.2-0.3c0.2-0.1,0.4-0.1,0.7-0.1c0.1,0,0.2,0,0.3,0c0-0.2-0.1-0.3-0.4-0.3c-0.2,0-0.4,0-0.6,0.1v-0.3
			c0.2-0.1,0.4-0.1,0.6-0.1c0.5,0,0.8,0.2,0.8,0.6v0.9H705.1z M704.6,673.5c0.2,0,0.3,0,0.5-0.1v-0.2h-0.2c-0.2,0-0.3,0-0.4,0
			c-0.1,0-0.1,0.1-0.1,0.1c0,0,0,0.1,0.1,0.1C704.4,673.5,704.5,673.5,704.6,673.5z"/>
		<path class="st5" d="M707.6,673.7c-0.3,0-0.5-0.1-0.6-0.2c-0.1-0.1-0.2-0.3-0.2-0.6c0-0.2,0.1-0.4,0.2-0.5
			c0.1-0.1,0.4-0.2,0.6-0.2c0.1,0,0.2,0,0.3,0c0.1,0,0.2,0,0.2,0.1v0.3c-0.2-0.1-0.3-0.1-0.5-0.1c-0.1,0-0.2,0-0.3,0.1
			c-0.1,0.1-0.1,0.2-0.1,0.3c0,0.1,0,0.2,0.1,0.3c0.1,0.1,0.2,0.1,0.3,0.1c0.2,0,0.4,0,0.5-0.1v0.3
			C708,673.7,707.8,673.7,707.6,673.7z"/>
		<path class="st5" d="M709.1,673.7c-0.1,0-0.2,0-0.4,0c-0.1,0-0.2,0-0.3-0.1v-0.3c0.1,0,0.2,0.1,0.3,0.1c0.1,0,0.2,0,0.3,0
			c0.3,0,0.4,0,0.4-0.1c0,0,0-0.1-0.1-0.1c-0.1,0-0.2,0-0.3-0.1c-0.2,0-0.4-0.1-0.5-0.1c-0.1-0.1-0.2-0.2-0.2-0.3
			c0-0.3,0.3-0.4,0.8-0.4c0.1,0,0.2,0,0.3,0c0.1,0,0.2,0,0.3,0.1v0.3c-0.1,0-0.2-0.1-0.3-0.1s-0.2,0-0.3,0c-0.2,0-0.3,0-0.3,0.1
			c0,0,0,0.1,0.1,0.1s0.2,0,0.3,0.1c0.2,0,0.4,0.1,0.5,0.1c0.1,0.1,0.2,0.2,0.2,0.3c0,0.1-0.1,0.3-0.2,0.3
			C709.6,673.7,709.4,673.7,709.1,673.7z"/>
		<path class="st5" d="M711.5,673.7l0-0.1c-0.1,0.1-0.3,0.2-0.6,0.2c-0.2,0-0.3,0-0.4-0.1c-0.1-0.1-0.2-0.2-0.2-0.3
			c0-0.2,0.1-0.3,0.2-0.3c0.2-0.1,0.4-0.1,0.7-0.1c0.1,0,0.2,0,0.3,0c0-0.2-0.1-0.3-0.4-0.3c-0.2,0-0.4,0-0.6,0.1v-0.3
			c0.2-0.1,0.4-0.1,0.6-0.1c0.5,0,0.8,0.2,0.8,0.6v0.9H711.5z M710.9,673.5c0.2,0,0.3,0,0.5-0.1v-0.2h-0.2c-0.2,0-0.3,0-0.4,0
			c-0.1,0-0.1,0.1-0.1,0.1c0,0,0,0.1,0.1,0.1C710.8,673.5,710.8,673.5,710.9,673.5z"/>
		<path class="st5" d="M712.7,673.7l-0.7-1.4h0.5l0.5,1l0.5-1h0.4l-0.7,1.4H712.7z"/>
		<path class="st5" d="M715.2,673.7l0-0.1c-0.1,0.1-0.3,0.2-0.6,0.2c-0.2,0-0.3,0-0.4-0.1c-0.1-0.1-0.2-0.2-0.2-0.3
			c0-0.2,0.1-0.3,0.2-0.3c0.2-0.1,0.4-0.1,0.7-0.1c0.1,0,0.2,0,0.3,0c0-0.2-0.1-0.3-0.4-0.3c-0.2,0-0.4,0-0.6,0.1v-0.3
			c0.2-0.1,0.4-0.1,0.6-0.1c0.5,0,0.8,0.2,0.8,0.6v0.9H715.2z M714.7,673.5c0.2,0,0.3,0,0.5-0.1v-0.2H715c-0.2,0-0.3,0-0.4,0
			c-0.1,0-0.1,0.1-0.1,0.1c0,0,0,0.1,0.1,0.1C714.5,673.5,714.6,673.5,714.7,673.5z"/>
		<path class="st5" d="M716.1,673.7v-1.4h0.4l0,0.3c0.1-0.2,0.3-0.3,0.5-0.3c0.1,0,0.1,0,0.2,0v0.4c-0.1,0-0.1,0-0.2,0
			c-0.2,0-0.4,0.1-0.4,0.2v0.9H716.1z"/>
		<path class="st5" d="M717.5,673.7v-2h0.4v0.7c0.2-0.1,0.3-0.2,0.6-0.2c0.1,0,0.2,0,0.3,0c0.1,0,0.2,0,0.2,0.1
			c0.1,0,0.1,0.1,0.2,0.2c0,0.1,0.1,0.2,0.1,0.3v0.8h-0.4v-0.8c0-0.1,0-0.2-0.1-0.3c-0.1-0.1-0.2-0.1-0.3-0.1c-0.2,0-0.3,0-0.5,0.1
			v1H717.5z"/>
		<path class="st5" d="M721,673.7l0-0.1c-0.1,0.1-0.2,0.1-0.3,0.1s-0.2,0.1-0.3,0.1c-0.5,0-0.7-0.2-0.7-0.6v-0.8h0.4v0.8
			c0,0.1,0,0.2,0.1,0.3c0.1,0.1,0.2,0.1,0.3,0.1c0.1,0,0.3,0,0.4-0.1v-1h0.4v1.4H721z M720.3,672.1l0.3-0.4h0.5l-0.5,0.4H720.3z"/>
		<path class="st5" d="M721.8,672.6v-0.3h1.5v0.2l-0.9,0.8h0.9v0.3h-1.6v-0.2l0.9-0.8H721.8z"/>
		<path class="st5" d="M724.5,673.8c-0.3,0-0.5-0.1-0.7-0.2c-0.2-0.1-0.2-0.3-0.2-0.5c0-0.2,0.1-0.4,0.2-0.5s0.4-0.2,0.7-0.2
			c0.3,0,0.5,0.1,0.7,0.2c0.2,0.1,0.2,0.3,0.2,0.6c0,0.2-0.1,0.4-0.2,0.5C725.1,673.7,724.8,673.8,724.5,673.8z M724.2,673.3
			c0.1,0.1,0.2,0.1,0.4,0.1c0.1,0,0.3,0,0.4-0.1c0.1-0.1,0.1-0.2,0.1-0.3c0-0.1,0-0.2-0.1-0.3c-0.1-0.1-0.2-0.1-0.4-0.1
			c-0.1,0-0.3,0-0.4,0.1c-0.1,0.1-0.1,0.2-0.1,0.3C724,673.1,724.1,673.2,724.2,673.3z M724.3,672.1l0.3-0.4h0.5l-0.5,0.4H724.3z"/>
		<path class="st5" d="M725.6,672.6v-0.3h0.3l0-0.3h0.4v0.3h0.6v0.3h-0.6v0.5c0,0.1,0,0.1,0.1,0.2c0,0,0.1,0.1,0.2,0.1
			c0.1,0,0.3,0,0.4,0v0.3c-0.1,0-0.3,0.1-0.5,0.1c-0.4,0-0.6-0.2-0.6-0.5v-0.6H725.6z"/>
	</g>
	<g>
		<path class="st6" d="M722.3,756.5h-36c-1.9,0-3.5-1.6-3.5-3.5v-0.4c0-1.9,1.6-3.5,3.5-3.5h36c1.9,0,3.5,1.6,3.5,3.5v0.4
			C725.8,754.9,724.3,756.5,722.3,756.5z"/>
		<g>
			<path class="st3" d="M690.8,753.6v-2h0.4v0.9l1-0.9h0.6l-1.2,1l1.2,1h-0.6l-1-0.9v0.9H690.8z"/>
			<path class="st3" d="M693.9,753.7c-0.3,0-0.5-0.1-0.7-0.2s-0.2-0.3-0.2-0.5c0-0.2,0.1-0.4,0.2-0.5s0.4-0.2,0.7-0.2
				c0.3,0,0.5,0.1,0.7,0.2c0.2,0.1,0.2,0.3,0.2,0.6c0,0.2-0.1,0.4-0.2,0.5C694.5,753.6,694.2,753.7,693.9,753.7z M693.4,752v-0.3
				h0.4v0.3H693.4z M693.6,753.3c0.1,0.1,0.2,0.1,0.4,0.1c0.1,0,0.3,0,0.4-0.1c0.1-0.1,0.1-0.2,0.1-0.3c0-0.1,0-0.2-0.1-0.3
				c-0.1-0.1-0.2-0.1-0.4-0.1c-0.1,0-0.3,0-0.4,0.1c-0.1,0.1-0.1,0.2-0.1,0.3C693.4,753.1,693.5,753.2,693.6,753.3z M694.1,752v-0.3
				h0.4v0.3H694.1z"/>
			<path class="st3" d="M695.7,753.6l-0.7-1.4h0.5l0.5,1l0.5-1h0.4l-0.7,1.4H695.7z"/>
			<path class="st3" d="M698.7,753.1h-1.3c0,0.2,0.2,0.3,0.5,0.3c0.2,0,0.5,0,0.6-0.1v0.3c-0.2,0.1-0.4,0.1-0.7,0.1
				c-0.3,0-0.5-0.1-0.7-0.2c-0.2-0.1-0.2-0.3-0.2-0.5c0-0.2,0.1-0.4,0.2-0.5c0.1-0.1,0.4-0.2,0.6-0.2c0.3,0,0.5,0.1,0.6,0.2
				c0.1,0.1,0.2,0.3,0.2,0.5C698.7,753,698.7,753,698.7,753.1z M697.8,752.5c-0.2,0-0.4,0.1-0.4,0.3h0.8
				C698.2,752.6,698,752.5,697.8,752.5z"/>
			<path class="st3" d="M698.9,752.6v-0.3h0.3l0-0.3h0.4v0.3h0.6v0.3h-0.6v0.5c0,0.1,0,0.1,0.1,0.2c0,0,0.1,0.1,0.2,0.1
				c0.1,0,0.3,0,0.4,0v0.3c-0.1,0-0.3,0.1-0.5,0.1c-0.4,0-0.6-0.2-0.6-0.5v-0.6H698.9z"/>
			<path class="st3" d="M700.6,753.6v-2h0.4v1.1l0.7-0.6h0.6l-0.8,0.7l0.8,0.7h-0.6L701,753v0.6H700.6z"/>
			<path class="st3" d="M704.1,753.1h-1.3c0,0.2,0.2,0.3,0.5,0.3c0.2,0,0.5,0,0.6-0.1v0.3c-0.2,0.1-0.4,0.1-0.7,0.1
				c-0.3,0-0.5-0.1-0.7-0.2c-0.2-0.1-0.2-0.3-0.2-0.5c0-0.2,0.1-0.4,0.2-0.5c0.1-0.1,0.4-0.2,0.6-0.2c0.3,0,0.5,0.1,0.6,0.2
				c0.1,0.1,0.2,0.3,0.2,0.5C704.1,753,704.1,753,704.1,753.1z M703.3,752.5c-0.2,0-0.4,0.1-0.4,0.3h0.8
				C703.7,752.6,703.5,752.5,703.3,752.5z"/>
			<path class="st3" d="M704.4,752.6v-0.3h1.5v0.2l-0.9,0.8h0.9v0.3h-1.6v-0.2l0.9-0.8H704.4z"/>
			<path class="st3" d="M707.2,753.7c-0.3,0-0.5-0.1-0.7-0.2c-0.2-0.1-0.2-0.3-0.2-0.5c0-0.2,0.1-0.4,0.2-0.5
				c0.2-0.1,0.4-0.2,0.7-0.2c0.3,0,0.5,0.1,0.7,0.2c0.2,0.1,0.2,0.3,0.2,0.6c0,0.2-0.1,0.4-0.2,0.5
				C707.7,753.6,707.5,753.7,707.2,753.7z M706.7,752l0.2-0.4h0.5L707,752H706.7z M706.8,753.3c0.1,0.1,0.2,0.1,0.4,0.1
				s0.3,0,0.4-0.1c0.1-0.1,0.1-0.2,0.1-0.3c0-0.1,0-0.2-0.1-0.3c-0.1-0.1-0.2-0.1-0.4-0.1s-0.3,0-0.4,0.1c-0.1,0.1-0.1,0.2-0.1,0.3
				C706.7,753.1,706.7,753.2,706.8,753.3z M707.3,752l0.2-0.4h0.5l-0.3,0.4H707.3z"/>
			<path class="st3" d="M709.9,753.7c-0.2,0-0.3,0-0.4-0.1c-0.1-0.1-0.1-0.2-0.1-0.3v-1.6h0.4v1.5c0,0.1,0,0.1,0,0.1
				c0,0,0.1,0,0.2,0c0.1,0,0.1,0,0.2,0v0.3C710.1,753.7,710,753.7,709.9,753.7z"/>
			<path class="st3" d="M712.2,753.1h-1.3c0,0.2,0.2,0.3,0.5,0.3c0.2,0,0.5,0,0.6-0.1v0.3c-0.2,0.1-0.4,0.1-0.7,0.1
				c-0.3,0-0.5-0.1-0.7-0.2c-0.2-0.1-0.2-0.3-0.2-0.5c0-0.2,0.1-0.4,0.2-0.5c0.1-0.1,0.4-0.2,0.6-0.2c0.3,0,0.5,0.1,0.6,0.2
				c0.1,0.1,0.2,0.3,0.2,0.5C712.2,753,712.2,753,712.2,753.1z M711.3,752.5c-0.2,0-0.4,0.1-0.4,0.3h0.8
				C711.7,752.6,711.5,752.5,711.3,752.5z M711.1,752l0.3-0.4h0.5l-0.5,0.4H711.1z"/>
			<path class="st3" d="M712.6,752.2h0.4l0,0.2c0.2-0.1,0.4-0.2,0.6-0.2c0.2,0,0.4,0.1,0.6,0.2c0.1,0.1,0.2,0.3,0.2,0.5
				c0,0.2-0.1,0.4-0.2,0.6c-0.1,0.1-0.3,0.2-0.6,0.2c-0.2,0-0.4,0-0.6-0.1v0.7h-0.4V752.2z M713.5,753.4c0.1,0,0.3,0,0.3-0.1
				c0.1-0.1,0.1-0.2,0.1-0.3c0-0.1,0-0.2-0.1-0.3c-0.1-0.1-0.2-0.1-0.3-0.1c-0.2,0-0.3,0-0.5,0.1v0.6
				C713.1,753.3,713.3,753.4,713.5,753.4z"/>
			<path class="st3" d="M716.3,753.1h-1.3c0,0.2,0.2,0.3,0.5,0.3c0.2,0,0.5,0,0.6-0.1v0.3c-0.2,0.1-0.4,0.1-0.7,0.1
				c-0.3,0-0.5-0.1-0.7-0.2c-0.2-0.1-0.2-0.3-0.2-0.5c0-0.2,0.1-0.4,0.2-0.5c0.1-0.1,0.4-0.2,0.6-0.2c0.3,0,0.5,0.1,0.6,0.2
				c0.1,0.1,0.2,0.3,0.2,0.5C716.4,753,716.4,753,716.3,753.1z M715.5,752.5c-0.2,0-0.4,0.1-0.4,0.3h0.8
				C715.9,752.6,715.7,752.5,715.5,752.5z M715.3,752l0.3-0.4h0.5l-0.5,0.4H715.3z"/>
			<path class="st3" d="M717.3,753.7c-0.1,0-0.2,0-0.4,0c-0.1,0-0.2,0-0.3-0.1v-0.3c0.1,0,0.2,0.1,0.3,0.1c0.1,0,0.2,0,0.3,0
				c0.3,0,0.4,0,0.4-0.1c0,0,0-0.1-0.1-0.1c-0.1,0-0.2,0-0.3-0.1c-0.2,0-0.4-0.1-0.5-0.1c-0.1-0.1-0.2-0.2-0.2-0.3
				c0-0.3,0.3-0.4,0.8-0.4c0.1,0,0.2,0,0.3,0c0.1,0,0.2,0,0.3,0.1v0.3c-0.1,0-0.2-0.1-0.3-0.1s-0.2,0-0.3,0c-0.2,0-0.3,0-0.3,0.1
				c0,0,0,0.1,0.1,0.1c0.1,0,0.2,0,0.3,0.1c0.2,0,0.4,0.1,0.5,0.1c0.1,0.1,0.2,0.2,0.2,0.3c0,0.1-0.1,0.3-0.2,0.3
				C717.8,753.6,717.5,753.7,717.3,753.7z"/>
		</g>
	</g>
	<g>
		<g>
			<line class="st7" x1="727.1" y1="649.4" x2="727.1" y2="652.1"/>
			<line class="st7" x1="723.3" y1="649.4" x2="723.3" y2="652.1"/>
			<line class="st7" x1="719.5" y1="648.4" x2="719.5" y2="653.1"/>
			<line class="st7" x1="715.7" y1="648.4" x2="715.7" y2="653.1"/>
			<line class="st7" x1="711.9" y1="649.4" x2="711.9" y2="652.1"/>
			<g>
				<line class="st8" x1="708.1" y1="649.4" x2="708.1" y2="652.1"/>
				<line class="st8" x1="704.3" y1="649.4" x2="704.3" y2="652.1"/>
				<line class="st8" x1="700.6" y1="649.4" x2="700.6" y2="652.1"/>
				<line class="st8" x1="696.8" y1="649.4" x2="696.8" y2="652.1"/>
				<line class="st8" x1="693" y1="649.4" x2="693" y2="652.1"/>
				<line class="st8" x1="689.2" y1="649.4" x2="689.2" y2="652.1"/>
				<line class="st8" x1="685.4" y1="649.4" x2="685.4" y2="652.1"/>
				<line class="st8" x1="681.6" y1="648.4" x2="681.6" y2="653.1"/>
				<line class="st8" x1="677.8" y1="649.4" x2="677.8" y2="652.1"/>
			</g>
			<line class="st7" x1="730.9" y1="648.4" x2="730.9" y2="653.1"/>
		</g>
		<g>
			<path class="st6" d="M688.5,657.3V657h1.9v0.3h-0.7v1.7h-0.4v-1.7H688.5z"/>
			<path class="st6" d="M691.6,659l0-0.1c-0.1,0.1-0.3,0.2-0.6,0.2c-0.2,0-0.3,0-0.4-0.1c-0.1-0.1-0.2-0.2-0.2-0.3
				c0-0.2,0.1-0.3,0.2-0.3c0.2-0.1,0.4-0.1,0.7-0.1c0.1,0,0.2,0,0.3,0c0-0.2-0.1-0.3-0.4-0.3c-0.2,0-0.4,0-0.6,0.1v-0.3
				c0.2-0.1,0.4-0.1,0.6-0.1c0.5,0,0.8,0.2,0.8,0.6v0.9H691.6z M691,658.8c0.2,0,0.3,0,0.5-0.1v-0.2h-0.2c-0.2,0-0.3,0-0.4,0
				c-0.1,0-0.1,0.1-0.1,0.1c0,0,0,0.1,0.1,0.1C690.9,658.7,690.9,658.8,691,658.8z M691,657.4l0.3-0.4h0.5l-0.5,0.4H691z"/>
			<path class="st6" d="M692.4,659v-1.4h0.4l0,0.3c0.1-0.2,0.3-0.3,0.5-0.3c0.1,0,0.1,0,0.2,0v0.4c-0.1,0-0.1,0-0.2,0
				c-0.2,0-0.4,0.1-0.4,0.2v0.9H692.4z"/>
			<path class="st6" d="M694.6,659c-0.3,0-0.5-0.1-0.6-0.2s-0.2-0.3-0.2-0.6c0-0.2,0.1-0.4,0.2-0.5s0.4-0.2,0.6-0.2
				c0.1,0,0.2,0,0.3,0c0.1,0,0.2,0,0.2,0.1v0.3c-0.2-0.1-0.3-0.1-0.5-0.1c-0.1,0-0.2,0-0.3,0.1c-0.1,0.1-0.1,0.2-0.1,0.3
				c0,0.1,0,0.2,0.1,0.3c0.1,0.1,0.2,0.1,0.3,0.1c0.2,0,0.4,0,0.5-0.1v0.3C695,659,694.8,659,694.6,659z"/>
			<path class="st6" d="M696.1,659c-0.1,0-0.2,0-0.4,0c-0.1,0-0.2,0-0.3-0.1v-0.3c0.1,0,0.2,0.1,0.3,0.1s0.2,0,0.3,0
				c0.3,0,0.4,0,0.4-0.1c0,0,0-0.1-0.1-0.1c-0.1,0-0.2,0-0.3-0.1c-0.2,0-0.4-0.1-0.5-0.1c-0.1-0.1-0.2-0.2-0.2-0.3
				c0-0.3,0.3-0.4,0.8-0.4c0.1,0,0.2,0,0.3,0c0.1,0,0.2,0,0.3,0.1v0.3c-0.1,0-0.2-0.1-0.3-0.1s-0.2,0-0.3,0c-0.2,0-0.3,0-0.3,0.1
				c0,0,0,0.1,0.1,0.1c0.1,0,0.2,0,0.3,0.1c0.2,0,0.4,0.1,0.5,0.1c0.1,0.1,0.2,0.2,0.2,0.3c0,0.1-0.1,0.3-0.2,0.3
				C696.5,659,696.3,659,696.1,659z"/>
			<path class="st6" d="M698.4,659l0-0.1c-0.1,0.1-0.3,0.2-0.6,0.2c-0.2,0-0.3,0-0.4-0.1c-0.1-0.1-0.2-0.2-0.2-0.3
				c0-0.2,0.1-0.3,0.2-0.3c0.2-0.1,0.4-0.1,0.7-0.1c0.1,0,0.2,0,0.3,0c0-0.2-0.1-0.3-0.4-0.3c-0.2,0-0.4,0-0.6,0.1v-0.3
				c0.2-0.1,0.4-0.1,0.6-0.1c0.5,0,0.8,0.2,0.8,0.6v0.9H698.4z M697.9,658.8c0.2,0,0.3,0,0.5-0.1v-0.2h-0.2c-0.2,0-0.3,0-0.4,0
				c-0.1,0-0.1,0.1-0.1,0.1c0,0,0,0.1,0.1,0.1C697.7,658.7,697.8,658.8,697.9,658.8z"/>
			<path class="st6" d="M700,657.9v-0.3h0.3v0c0-0.2,0.1-0.3,0.2-0.4c0.1-0.1,0.3-0.1,0.5-0.1c0.1,0,0.2,0,0.4,0v0.3
				c-0.1,0-0.2,0-0.3,0c-0.1,0-0.2,0-0.2,0.1c-0.1,0-0.1,0.1-0.1,0.2v0h0.5v0.3h-0.5v1.1h-0.4v-1.1H700z"/>
			<path class="st6" d="M703.2,658.4h-1.3c0,0.2,0.2,0.3,0.5,0.3c0.2,0,0.5,0,0.6-0.1v0.3c-0.2,0.1-0.4,0.1-0.7,0.1
				c-0.3,0-0.5-0.1-0.7-0.2c-0.2-0.1-0.2-0.3-0.2-0.5c0-0.2,0.1-0.4,0.2-0.5c0.1-0.1,0.4-0.2,0.6-0.2c0.3,0,0.5,0.1,0.6,0.2
				c0.1,0.1,0.2,0.3,0.2,0.5C703.2,658.3,703.2,658.4,703.2,658.4z M702.3,657.9c-0.2,0-0.4,0.1-0.4,0.3h0.8
				C702.7,658,702.6,657.9,702.3,657.9z"/>
			<path class="st6" d="M704.1,659c-0.2,0-0.3,0-0.4-0.1c-0.1-0.1-0.1-0.2-0.1-0.3V657h0.4v1.5c0,0.1,0,0.1,0,0.1c0,0,0.1,0,0.2,0
				c0.1,0,0.1,0,0.2,0v0.3C704.3,659,704.2,659,704.1,659z"/>
			<path class="st6" d="M705.3,659c-0.1,0-0.2,0-0.4,0c-0.1,0-0.2,0-0.3-0.1v-0.3c0.1,0,0.2,0.1,0.3,0.1c0.1,0,0.2,0,0.3,0
				c0.3,0,0.4,0,0.4-0.1c0,0,0-0.1-0.1-0.1c-0.1,0-0.2,0-0.3-0.1c-0.2,0-0.4-0.1-0.5-0.1c-0.1-0.1-0.2-0.2-0.2-0.3
				c0-0.3,0.3-0.4,0.8-0.4c0.1,0,0.2,0,0.3,0c0.1,0,0.2,0,0.3,0.1v0.3c-0.1,0-0.2-0.1-0.3-0.1s-0.2,0-0.3,0c-0.2,0-0.3,0-0.3,0.1
				c0,0,0,0.1,0.1,0.1c0.1,0,0.2,0,0.3,0.1c0.2,0,0.4,0.1,0.5,0.1s0.2,0.2,0.2,0.3c0,0.1-0.1,0.3-0.2,0.3
				C705.7,659,705.5,659,705.3,659z"/>
			<path class="st6" d="M706.4,657.9v-0.3h1.5v0.2l-0.9,0.8h0.9v0.3h-1.6v-0.2l0.9-0.8H706.4z"/>
			<path class="st6" d="M709.9,658.4h-1.3c0,0.2,0.2,0.3,0.5,0.3c0.2,0,0.5,0,0.6-0.1v0.3c-0.2,0.1-0.4,0.1-0.7,0.1
				c-0.3,0-0.5-0.1-0.7-0.2c-0.2-0.1-0.2-0.3-0.2-0.5c0-0.2,0.1-0.4,0.2-0.5c0.1-0.1,0.4-0.2,0.6-0.2c0.3,0,0.5,0.1,0.6,0.2
				c0.1,0.1,0.2,0.3,0.2,0.5C709.9,658.3,709.9,658.4,709.9,658.4z M709,657.9c-0.2,0-0.4,0.1-0.4,0.3h0.8
				C709.4,658,709.3,657.9,709,657.9z"/>
			<path class="st6" d="M710.3,659v-1.4h0.4l0,0.3c0.1-0.2,0.3-0.3,0.5-0.3c0.1,0,0.1,0,0.2,0v0.4c-0.1,0-0.1,0-0.2,0
				c-0.2,0-0.4,0.1-0.4,0.2v0.9H710.3z"/>
			<path class="st6" d="M713.3,658.4H712c0,0.2,0.2,0.3,0.5,0.3c0.2,0,0.5,0,0.6-0.1v0.3c-0.2,0.1-0.4,0.1-0.7,0.1
				c-0.3,0-0.5-0.1-0.7-0.2c-0.2-0.1-0.2-0.3-0.2-0.5c0-0.2,0.1-0.4,0.2-0.5c0.1-0.1,0.4-0.2,0.6-0.2c0.3,0,0.5,0.1,0.6,0.2
				c0.1,0.1,0.2,0.3,0.2,0.5C713.3,658.3,713.3,658.4,713.3,658.4z M712.4,657.9c-0.2,0-0.4,0.1-0.4,0.3h0.8
				C712.8,658,712.7,657.9,712.4,657.9z"/>
			<path class="st6" d="M714.2,659c-0.2,0-0.3,0-0.4-0.1c-0.1-0.1-0.1-0.2-0.1-0.3V657h0.4v1.5c0,0.1,0,0.1,0,0.1c0,0,0.1,0,0.2,0
				c0.1,0,0.1,0,0.2,0v0.3C714.4,659,714.3,659,714.2,659z"/>
			<path class="st6" d="M716.4,658.4h-1.3c0,0.2,0.2,0.3,0.5,0.3c0.2,0,0.5,0,0.6-0.1v0.3c-0.2,0.1-0.4,0.1-0.7,0.1
				c-0.3,0-0.5-0.1-0.7-0.2c-0.2-0.1-0.2-0.3-0.2-0.5c0-0.2,0.1-0.4,0.2-0.5c0.1-0.1,0.4-0.2,0.6-0.2c0.3,0,0.5,0.1,0.6,0.2
				c0.1,0.1,0.2,0.3,0.2,0.5C716.4,658.3,716.4,658.4,716.4,658.4z M715.6,657.9c-0.2,0-0.4,0.1-0.4,0.3h0.8
				C716,658,715.8,657.9,715.6,657.9z M715.4,657.4l0.3-0.4h0.5l-0.5,0.4H715.4z"/>
			<path class="st6" d="M717.4,659c-0.1,0-0.2,0-0.4,0c-0.1,0-0.2,0-0.3-0.1v-0.3c0.1,0,0.2,0.1,0.3,0.1c0.1,0,0.2,0,0.3,0
				c0.3,0,0.4,0,0.4-0.1c0,0,0-0.1-0.1-0.1c-0.1,0-0.2,0-0.3-0.1c-0.2,0-0.4-0.1-0.5-0.1c-0.1-0.1-0.2-0.2-0.2-0.3
				c0-0.3,0.3-0.4,0.8-0.4c0.1,0,0.2,0,0.3,0c0.1,0,0.2,0,0.3,0.1v0.3c-0.1,0-0.2-0.1-0.3-0.1s-0.2,0-0.3,0c-0.2,0-0.3,0-0.3,0.1
				c0,0,0,0.1,0.1,0.1c0.1,0,0.2,0,0.3,0.1c0.2,0,0.4,0.1,0.5,0.1c0.1,0.1,0.2,0.2,0.2,0.3c0,0.1-0.1,0.3-0.2,0.3
				C717.8,659,717.6,659,717.4,659z"/>
			<path class="st6" d="M720.2,658.4h-1.3c0,0.2,0.2,0.3,0.5,0.3c0.2,0,0.5,0,0.6-0.1v0.3c-0.2,0.1-0.4,0.1-0.7,0.1
				c-0.3,0-0.5-0.1-0.7-0.2c-0.2-0.1-0.2-0.3-0.2-0.5c0-0.2,0.1-0.4,0.2-0.5c0.1-0.1,0.4-0.2,0.6-0.2c0.3,0,0.5,0.1,0.6,0.2
				c0.1,0.1,0.2,0.3,0.2,0.5C720.2,658.3,720.2,658.4,720.2,658.4z M719.3,657.9c-0.2,0-0.4,0.1-0.4,0.3h0.8
				C719.7,658,719.6,657.9,719.3,657.9z"/>
		</g>
	</g>
</g>
</svg>
