<?xml version="1.0" encoding="utf-8"?>
<!-- Generator: Adobe Illustrator 23.0.1, SVG Export Plug-In . SVG Version: 6.00 Build 0)  -->
<svg version="1.1" id="Layer_1" xmlns="http://www.w3.org/2000/svg" xmlns:xlink="http://www.w3.org/1999/xlink" x="0px" y="0px"
	 viewBox="0 0 1700 1000" style="enable-background:new 0 0 1700 1000;" xml:space="preserve">
<style type="text/css">
	.st0{fill:#FFFFFF;}
	.st1{fill:#FFFFFF;stroke:#000000;stroke-miterlimit:10;}
	.st2{fill:none;stroke:#000000;stroke-miterlimit:10;}
	.st3{fill:#F2F2F2;}
	.st4{fill:#E6E6E6;stroke:#000000;stroke-width:0.2;stroke-miterlimit:10;}
	.st5{fill:none;stroke:#000000;stroke-width:2;stroke-linecap:round;stroke-linejoin:round;stroke-miterlimit:10;}
	.st6{fill:#FF1D25;}
	.st7{fill:#8CC63F;}
	.st8{fill:none;stroke:#000000;stroke-width:0.4;stroke-linecap:round;stroke-linejoin:round;stroke-miterlimit:10;}
	.st9{fill:none;stroke:#8CC63F;stroke-width:0.4;stroke-linecap:round;stroke-linejoin:round;stroke-miterlimit:10;}
	.st10{fill:#FFFFFF;stroke:#000000;stroke-width:0.26;stroke-miterlimit:10;}
	.st11{fill:#CCCCCC;stroke:#000000;stroke-miterlimit:10;}
</style>
<g>
	<path class="st0" d="M1114.532,462.109c-3.032,0-5.5-2.467-5.5-5.5v-14.143c0-3.033,2.468-5.5,5.5-5.5h77.226
		c3.032,0,5.5,2.467,5.5,5.5v14.143c0,3.033-2.468,5.5-5.5,5.5H1114.532z"/>
	<path d="M1191.758,441.467c0.533,0,1,0.467,1,1v14.143c0,0.533-0.467,1-1,1h-77.225c-0.533,0-1-0.467-1-1v-14.143
		c0-0.533,0.467-1,1-1H1191.758 M1191.758,432.467h-77.225c-5.5,0-10,4.5-10,10v14.143c0,5.5,4.5,10,10,10h77.225
		c5.5,0,10-4.5,10-10v-14.143C1201.758,436.967,1197.258,432.467,1191.758,432.467L1191.758,432.467z"/>
</g>
<g>
	<path class="st1" d="M649.544,458.011l-41.929,20c-1.1,0-2-20.9-2-22v-11.635c0-1.1,0.9-2,2-2h41.929c1.1,0,2,0.9,2,2v11.635
		C651.544,457.111,650.644,458.011,649.544,458.011z"/>
	<g>
		<path d="M655.58,462.506c-1.147,0-2.116-0.969-2.116-2.116v-21.544c0-1.147,0.969-2.116,2.116-2.116s2.116,0.969,2.116,2.116
			v21.544C657.696,461.537,656.727,462.506,655.58,462.506z"/>
		<path d="M655.58,432.729c-3.364,0-6.116,2.752-6.116,6.116v21.544c0,3.364,2.752,6.116,6.116,6.116s6.116-2.752,6.116-6.116
			v-21.544C661.696,435.481,658.944,432.729,655.58,432.729L655.58,432.729z"/>
	</g>
</g>
<path class="st2" d="M1282.001,779.189H919.773c-4.4,0-8-3.6-8-8V634.096c0-4.4,3.6-8,8-8h362.228c4.4,0,8,3.6,8,8v137.092
	C1290.001,775.589,1286.401,779.189,1282.001,779.189z"/>
<rect x="585.447" y="266.103" class="st1" width="21.967" height="180.733"/>
<rect x="581.835" y="364.469" class="st1" width="29.191" height="113.538"/>
<path class="st1" d="M743.367,260.876h-363.09c-4.163,0-7.569-3.406-7.569-7.569v-0.872c0-4.163,3.406-7.569,7.569-7.569h363.09
	c4.163,0,7.569,3.406,7.569,7.569v0.872C750.936,257.47,747.53,260.876,743.367,260.876z"/>
<rect x="594.193" y="220.335" transform="matrix(-1.836970e-16 1 -1 -1.836970e-16 860.0725 -332.7888)" class="st1" width="4.475" height="86.614"/>
<rect x="581.649" y="266.103" class="st1" width="29.564" height="7.781"/>
<rect x="1142.162" y="266.103" class="st1" width="21.967" height="86.614"/>
<rect x="1138.55" y="341.5" class="st1" width="29.191" height="136.507"/>
<path class="st1" d="M1225.124,260.876h-143.958c-4.163,0-7.569-3.406-7.569-7.569v-0.872c0-4.163,3.406-7.569,7.569-7.569
	l143.958,0c4.163,0,7.569,3.406,7.569,7.569v0.872C1232.693,257.47,1229.287,260.876,1225.124,260.876z"/>
<rect x="1150.908" y="220.335" transform="matrix(-1.836970e-16 1 -1 -1.836970e-16 1416.7872 -889.5036)" class="st1" width="4.475" height="86.614"/>
<rect x="1138.363" y="266.103" class="st1" width="29.564" height="7.781"/>
<path class="st1" d="M612.088,401.975c-0.404,0-0.735-0.331-0.735-0.735v-36.036c0-0.404,0.331-0.735,0.735-0.735h17.65
	c0.404,0,0.735,0.331,0.735,0.735v19.856c0,0.181-3.686,3.591-7.757,7.302C617.696,396.94,612.088,401.975,612.088,401.975z"/>
<g>
	<path class="st1" d="M606.364,707.482L500.815,601.934c3.487-9.072,1.579-19.741-5.736-27.057c-9.908-9.908-25.973-9.908-35.882,0
		c-9.908,9.908-9.908,25.973,0,35.882c7.316,7.316,17.985,9.223,27.057,5.736l105.549,105.549L606.364,707.482z"/>
	<circle class="st1" cx="477.138" cy="592.818" r="17.282"/>
</g>
<g>
	<path class="st1" d="M598.544,722.779L704.093,617.23c9.072,3.487,19.741,1.579,27.057-5.736c9.908-9.908,9.908-25.973,0-35.882
		c-9.908-9.908-25.973-9.908-35.882,0c-7.316,7.316-9.223,17.985-5.736,27.057L583.983,708.218L598.544,722.779z"/>
	<circle class="st1" cx="713.209" cy="593.553" r="17.282"/>
</g>
<g>
	<path class="st1" d="M582.34,716.491l132.99,67.783c-0.514,9.705,4.596,19.264,13.813,23.962
		c12.485,6.363,27.764,1.401,34.127-11.084c6.363-12.484,1.401-27.764-11.084-34.127c-9.218-4.698-19.955-3.216-27.506,2.902
		l-132.99-67.783L582.34,716.491z"/>
	<circle class="st1" cx="740.666" cy="785.631" r="17.282"/>
</g>
<g>
	<path class="st1" d="M594.129,706.129l-135.996,61.531c-7.259-6.463-17.915-8.442-27.341-4.177
		c-12.767,5.776-18.434,20.808-12.657,33.575c5.776,12.767,20.808,18.434,33.575,12.657c9.426-4.265,14.974-13.576,14.912-23.294
		l135.996-61.531L594.129,706.129z"/>
	<circle class="st1" cx="441.25" cy="786.6" r="17.282"/>
</g>
<g>
	<rect x="599.485" y="695.401" class="st0" width="29.191" height="29.192"/>
	<g>
		<polyline class="st2" points="628.676,701.401 628.676,695.401 622.676,695.401 		"/>
		<polyline class="st2" points="605.485,695.401 599.485,695.401 599.485,701.401 		"/>
		<polyline class="st2" points="599.485,718.593 599.485,724.593 605.485,724.593 		"/>
		<polyline class="st2" points="622.676,724.593 628.676,724.593 628.676,718.593 		"/>
	</g>
</g>
<path class="st2" d="M742.936,779.189H380.708c-4.4,0-8-3.6-8-8V634.096c0-4.4,3.6-8,8-8h362.228c4.4,0,8,3.6,8,8v137.092
	C750.936,775.589,747.336,779.189,742.936,779.189z"/>
<rect x="676.391" y="650.961" width="61.037" height="118.071"/>
<path class="st1" d="M742.932,779.189H380.713c-4.403,0-8.005-3.602-8.005-8.005V634.101c0-4.403,3.602-8.005,8.005-8.005h362.218
	c4.403,0,8.005,3.602,8.005,8.005v137.083C750.936,775.586,747.334,779.189,742.932,779.189z"/>
<polygon class="st1" points="1155.537,715.956 1226.873,709.956 1226.873,695.329 1155.537,689.329 "/>
<path class="st2" d="M380.713,776.187c-2.758,0-5.003-2.245-5.003-5.003V634.101c0-2.758,2.245-5.003,5.003-5.003h362.218
	c2.758,0,5.003,2.245,5.003,5.003v137.083c0,2.758-2.245,5.003-5.003,5.003H380.713z"/>
<g>
	<rect x="581.835" y="688.047" class="st0" width="29.191" height="29.192"/>
	<g>
		<polyline class="st2" points="611.026,694.047 611.026,688.047 605.026,688.047 		"/>
		<polyline class="st2" points="587.835,688.047 581.835,688.047 581.835,694.047 		"/>
		<polyline class="st2" points="581.835,711.238 581.835,717.238 587.835,717.238 		"/>
		<polyline class="st2" points="605.026,717.238 611.026,717.238 611.026,711.238 		"/>
	</g>
</g>
<g>
	<defs>
		<rect id="SVGID_1_" x="672.025" y="643.607" width="64.668" height="118.071"/>
	</defs>
	<use xlink:href="#SVGID_1_"  style="overflow:visible;fill:#F2F2F2;"/>
	<clipPath id="SVGID_2_">
		<use xlink:href="#SVGID_1_"  style="overflow:visible;"/>
	</clipPath>
</g>
<g>
	<g>
		<g>
			<path d="M1230.854,741.433c-1.147,0-2.116-0.969-2.116-2.116v-73.348c0-1.147,0.969-2.116,2.116-2.116s2.116,0.969,2.116,2.116
				v73.348C1232.971,740.464,1232.002,741.433,1230.854,741.433z"/>
			<path d="M1230.855,659.852c-3.364,0-6.116,2.752-6.116,6.116v73.348c0,3.364,2.752,6.116,6.116,6.116
				c3.364,0,6.116-2.752,6.116-6.116v-73.348C1236.971,662.604,1234.219,659.852,1230.855,659.852L1230.855,659.852z"/>
		</g>
	</g>
</g>
<g>
	<path class="st1" d="M1154.728,679.429l-123.869-83.291c1.678-9.573-2.245-19.677-10.83-25.45
		c-11.628-7.819-27.393-4.731-35.212,6.897c-7.819,11.628-4.731,27.393,6.897,35.212c8.585,5.773,19.423,5.594,27.655,0.428
		l123.869,83.291L1154.728,679.429z"/>
	<circle class="st3" cx="1005.871" cy="591.742" r="17.282"/>
</g>
<g>
	<path class="st1" d="M1170.368,703.229l127.072-78.319c8.021,5.488,18.843,6.096,27.65,0.668
		c11.929-7.352,15.639-22.983,8.287-34.911c-7.352-11.929-22.983-15.639-34.911-8.287c-8.807,5.428-13.127,15.369-11.83,25.001
		l-127.072,78.319L1170.368,703.229z"/>
	<circle class="st3" cx="1311.778" cy="603.978" r="17.282"/>
</g>
<g>
	<path class="st1" d="M1152.366,725.1l121.93,86.105c-1.897,9.532,1.794,19.723,10.245,25.691
		c11.446,8.083,27.278,5.357,35.361-6.089c8.083-11.446,5.357-27.278-6.089-35.361c-8.451-5.968-19.289-6.037-27.638-1.061
		l-121.93-86.105L1152.366,725.1z"/>
	<circle class="st3" cx="1299.177" cy="816.171" r="17.282"/>
</g>
<g>
	<path class="st1" d="M1134.111,701.745l-120.38,88.259c-8.436-4.827-19.271-4.565-27.615,1.552
		c-11.301,8.285-13.745,24.163-5.46,35.464s24.163,13.745,35.464,5.46c8.344-6.117,11.852-16.372,9.786-25.869l120.38-88.259
		L1134.111,701.745z"/>
	<circle class="st3" cx="1001.118" cy="812.018" r="17.282"/>
</g>
<g>
	<circle class="st1" cx="1153.145" cy="702.643" r="34.565"/>
	<circle class="st1" cx="1153.145" cy="702.643" r="12.502"/>
	<g>
		<circle class="st4" cx="1141.023" cy="683.335" r="5.148"/>
		<circle class="st4" cx="1165.268" cy="721.95" r="5.148"/>
	</g>
	<g>
		<circle class="st4" cx="1172.453" cy="690.52" r="5.148"/>
		<circle class="st4" cx="1133.838" cy="714.765" r="5.148"/>
	</g>
</g>
<path class="st1" d="M621.631,497.58H571.23c-5.15,0-9.364-4.214-9.364-9.364v-1.078c0-5.15,4.214-9.364,9.364-9.364h50.401
	c5.15,0,9.364,4.214,9.364,9.364v1.078C630.996,493.367,626.782,497.58,621.631,497.58z"/>
<path class="st1" d="M567.124,481.794H441.461c-3.06,0-5.563,2.503-5.563,5.563v0.641c0,3.06,2.503,5.563,5.563,5.563h125.662
	c3.06,0,5.563-2.503,5.563-5.563v-0.641C572.687,484.297,570.183,481.794,567.124,481.794z"/>
<path class="st1" d="M460.315,503.489h-40.744c-2.75,0-5-2.25-5-5v-15.74c0-2.75,2.25-5,5-5h40.744c2.75,0,5,2.25,5,5v15.74
	C465.315,501.239,463.065,503.489,460.315,503.489z"/>
<path class="st1" d="M698.764,481.794h-83.008c-3.06,0-5.563,2.503-5.563,5.563v0.641c0,3.06,2.503,5.563,5.563,5.563h83.008
	c3.06,0,5.563-2.503,5.563-5.563v-0.641C704.327,484.297,701.824,481.794,698.764,481.794z"/>
<path class="st1" d="M733.157,503.489h-40.744c-2.75,0-5-2.25-5-5v-15.74c0-2.75,2.25-5,5-5h40.744c2.75,0,5,2.25,5,5v15.74
	C738.157,501.239,735.907,503.489,733.157,503.489z"/>
<path class="st1" d="M1178.346,497.58h-50.401c-5.15,0-9.364-4.214-9.364-9.364v-1.078c0-5.15,4.214-9.364,9.364-9.364h50.401
	c5.15,0,9.364,4.214,9.364,9.364v1.078C1187.71,493.367,1183.496,497.58,1178.346,497.58z"/>
<path class="st1" d="M1133.399,481.794h-43.295c-3.06,0-5.563,2.503-5.563,5.563v0.641c0,3.06,2.503,5.563,5.563,5.563h43.295
	c3.06,0,5.563-2.503,5.563-5.563v-0.641C1138.962,484.297,1136.459,481.794,1133.399,481.794z"/>
<g>
	<path class="st1" d="M1079.025,471.201c-8.273-0.354-16.547-0.467-12.824,0.754c8.351,2.74,7.318,12.981,7.354,15.541
		c0.017,1.212,2.675,1.276,5.47,1.008c2.795,0.268,5.453,0.204,5.47-1.008c0.036-2.56-0.997-12.801,7.354-15.541
		C1095.572,470.734,1087.299,470.847,1079.025,471.201z"/>
	<path class="st1" d="M1094.569,473.232h-31.088c-0.956,0-1.738-0.782-1.738-1.738v-0.2c0-0.956,0.782-1.738,1.738-1.738h31.088
		c0.956,0,1.739,0.782,1.739,1.738v0.2C1096.307,472.449,1095.525,473.232,1094.569,473.232z"/>
	<line class="st5" x1="1061.742" y1="471.393" x2="1096.308" y2="471.393"/>
</g>
<g>
	<path class="st1" d="M1246.701,471.201c-8.273-0.354-16.547-0.467-12.824,0.754c8.351,2.74,7.318,12.981,7.354,15.541
		c0.017,1.212,2.675,1.276,5.47,1.008c2.795,0.268,5.453,0.204,5.47-1.008c0.036-2.56-0.997-12.801,7.354-15.541
		C1263.248,470.734,1254.975,470.847,1246.701,471.201z"/>
	<path class="st1" d="M1262.245,473.232h-31.088c-0.956,0-1.738-0.782-1.738-1.738v-0.2c0-0.956,0.782-1.738,1.738-1.738h31.088
		c0.956,0,1.738,0.782,1.738,1.738v0.2C1263.984,472.449,1263.201,473.232,1262.245,473.232z"/>
	<line class="st5" x1="1229.418" y1="471.393" x2="1263.984" y2="471.393"/>
</g>
<path class="st1" d="M1099.397,503.489h-40.744c-2.75,0-5-2.25-5-5v-15.74c0-2.75,2.25-5,5-5h40.744c2.75,0,5,2.25,5,5v15.74
	C1104.397,501.239,1102.147,503.489,1099.397,503.489z"/>
<path class="st1" d="M1263.569,481.794h-83.008c-3.06,0-5.563,2.503-5.563,5.563v0.641c0,3.06,2.503,5.563,5.563,5.563h83.008
	c3.06,0,5.563-2.503,5.563-5.563v-0.641C1269.132,484.297,1266.628,481.794,1263.569,481.794z"/>
<path class="st1" d="M1267.073,503.489h-40.744c-2.75,0-5-2.25-5-5v-15.74c0-2.75,2.25-5,5-5h40.744c2.75,0,5,2.25,5,5v15.74
	C1272.073,501.239,1269.823,503.489,1267.073,503.489z"/>
<g>
	<path class="st6" d="M684.114,679.479c0,0.156,0.106,0.286,0.249,0.328v2.795h0.47v11.437l-0.052,0.614h-1.961
		c-0.057,0-0.104,0.047-0.104,0.104v2.065c-0.465,0.102-0.816,0.518-0.816,1.012v7.158c0,0.494,0.351,0.91,0.816,1.012v1.702
		l-1.042,0.499l11.983,25.029l-0.069,0.035l0.554,1.08l0.039-0.02l1.204,2.516l1.093-0.523l-0.076-0.159v-17.098h2.929
		c0.048,0.053,0.097,0.105,0.148,0.156l3.409,3.409c-0.167,0.5-0.053,1.075,0.343,1.471l1.434,1.434
		c0.301,0.301,0.705,0.438,1.101,0.414l11.148,11.148c0.17,0.17,0.408,0.231,0.628,0.186l2.022,2.022
		c1.613,1.613,4.252,1.613,5.865,0l0.406-0.406c1.613-1.613,1.613-4.252,0-5.865l-2.026-2.026c0.042-0.217-0.021-0.451-0.188-0.618
		l-11.344-11.344c-0.167-0.167-0.401-0.23-0.618-0.188l-0.58-0.58c0.087-0.16,0.065-0.365-0.07-0.5
		c-0.135-0.135-0.34-0.157-0.5-0.07l-0.55-0.55c0.252-0.964,0.003-2.034-0.748-2.785l-3.056-3.056c-1.125-1.125-2.966-1.125-4.091,0
		c-0.184,0.184-0.338,0.388-0.462,0.605c-0.554,0.168-1.078,0.454-1.534,0.858h-3.665v-6.775c0.465-0.102,0.816-0.518,0.816-1.012
		v-7.158c0-0.494-0.351-0.91-0.816-1.012v-2.065c0-0.057-0.047-0.104-0.104-0.104h-2.012v-12.051h0.47v-2.795
		c0.143-0.041,0.249-0.172,0.249-0.328c0-0.188-0.154-0.342-0.342-0.342h-10.206C684.268,679.137,684.114,679.291,684.114,679.479z"
		/>
</g>
<g>
	<path class="st6" d="M683.487,673.707v-0.829h-1.158v0.829h-0.439v-1.974h0.439v0.823h1.158v-0.823h0.439v1.974H683.487z"/>
	<path class="st6" d="M686.075,673.118h-1.273c0.024,0.204,0.192,0.305,0.507,0.305c0.249,0,0.465-0.037,0.649-0.111v0.305
		c-0.178,0.087-0.411,0.131-0.698,0.131c-0.289,0-0.51-0.068-0.662-0.202c-0.153-0.134-0.229-0.312-0.229-0.531
		c0-0.213,0.073-0.391,0.218-0.534c0.145-0.144,0.358-0.215,0.638-0.215c0.285,0,0.499,0.067,0.643,0.2
		c0.144,0.134,0.215,0.307,0.215,0.522C686.083,673.038,686.08,673.082,686.075,673.118z M685.224,672.567
		c-0.238,0-0.377,0.096-0.417,0.287h0.837C685.604,672.663,685.464,672.567,685.224,672.567z"/>
	<path class="st6" d="M686.947,673.742c-0.171,0-0.295-0.037-0.372-0.11c-0.077-0.074-0.116-0.182-0.116-0.323v-1.576h0.428v1.518
		c0,0.057,0.013,0.098,0.039,0.123c0.027,0.025,0.08,0.038,0.162,0.038c0.067,0,0.141-0.01,0.221-0.03v0.3
		C687.204,673.722,687.083,673.742,686.947,673.742z"/>
	<path class="st6" d="M687.568,674.326c-0.126,0-0.212-0.012-0.259-0.036v-0.322c0.047,0.013,0.105,0.019,0.172,0.019
		c0.274,0,0.451-0.085,0.531-0.256l0.014-0.027l-0.706-1.395h0.463l0.477,1.003l0.474-1.003h0.444l-0.728,1.442
		c-0.109,0.216-0.226,0.366-0.35,0.45C687.977,674.284,687.799,674.326,687.568,674.326z"/>
	<path class="st6" d="M691.017,673.118h-1.273c0.024,0.204,0.192,0.305,0.507,0.305c0.249,0,0.465-0.037,0.649-0.111v0.305
		c-0.178,0.087-0.411,0.131-0.698,0.131c-0.289,0-0.51-0.068-0.662-0.202c-0.153-0.134-0.229-0.312-0.229-0.531
		c0-0.213,0.073-0.391,0.218-0.534c0.145-0.144,0.358-0.215,0.638-0.215c0.285,0,0.499,0.067,0.643,0.2
		c0.144,0.134,0.215,0.307,0.215,0.522C691.025,673.038,691.022,673.082,691.017,673.118z M690.167,672.567
		c-0.238,0-0.377,0.096-0.417,0.287h0.837C690.546,672.663,690.406,672.567,690.167,672.567z"/>
	<path class="st6" d="M691.303,672.62v-0.311h1.494v0.24l-0.913,0.847h0.949v0.311h-1.562v-0.243l0.924-0.845H691.303z"/>
	<path class="st6" d="M693.105,672.62v-0.311h1.494v0.24l-0.913,0.847h0.949v0.311h-1.562v-0.243l0.924-0.845H693.105z"/>
	<path class="st6" d="M696.608,673.118h-1.273c0.024,0.204,0.192,0.305,0.507,0.305c0.249,0,0.465-0.037,0.649-0.111v0.305
		c-0.178,0.087-0.411,0.131-0.698,0.131c-0.289,0-0.51-0.068-0.662-0.202c-0.153-0.134-0.229-0.312-0.229-0.531
		c0-0.213,0.073-0.391,0.218-0.534c0.145-0.144,0.358-0.215,0.638-0.215c0.285,0,0.5,0.067,0.643,0.2
		c0.144,0.134,0.215,0.307,0.215,0.522C696.616,673.038,696.613,673.082,696.608,673.118z M695.758,672.567
		c-0.238,0-0.377,0.096-0.417,0.287h0.837C696.137,672.663,695.997,672.567,695.758,672.567z"/>
	<path class="st6" d="M697.938,672.104v-0.371h0.428v0.371H697.938z M697.938,673.707v-1.398h0.428v1.398H697.938z"/>
	<path class="st6" d="M699.577,673.751c-0.251,0-0.446-0.065-0.586-0.197c-0.14-0.131-0.21-0.313-0.21-0.547
		c0-0.233,0.071-0.414,0.213-0.546c0.142-0.131,0.344-0.196,0.605-0.196c0.222,0,0.403,0.045,0.543,0.136v-0.668h0.428v1.974h-0.373
		l-0.03-0.153c-0.065,0.06-0.151,0.108-0.259,0.144C699.799,673.733,699.689,673.751,699.577,673.751z M699.661,673.42
		c0.173,0,0.333-0.038,0.48-0.114v-0.594c-0.147-0.077-0.307-0.115-0.48-0.115c-0.144,0-0.254,0.035-0.33,0.106
		c-0.076,0.071-0.114,0.172-0.114,0.303c0,0.132,0.038,0.235,0.114,0.307C699.407,673.385,699.517,673.42,699.661,673.42z"/>
	<path class="st6" d="M702.69,673.118h-1.273c0.024,0.204,0.192,0.305,0.507,0.305c0.249,0,0.465-0.037,0.649-0.111v0.305
		c-0.178,0.087-0.411,0.131-0.698,0.131c-0.289,0-0.51-0.068-0.662-0.202c-0.153-0.134-0.229-0.312-0.229-0.531
		c0-0.213,0.073-0.391,0.218-0.534c0.145-0.144,0.358-0.215,0.638-0.215c0.285,0,0.499,0.067,0.643,0.2
		c0.144,0.134,0.215,0.307,0.215,0.522C702.698,673.038,702.695,673.082,702.69,673.118z M701.839,672.567
		c-0.238,0-0.377,0.096-0.417,0.287h0.837C702.219,672.663,702.079,672.567,701.839,672.567z"/>
	<path class="st6" d="M705.113,673.707l-0.027-0.141c-0.147,0.124-0.344,0.185-0.591,0.185c-0.191,0-0.34-0.038-0.447-0.113
		c-0.107-0.075-0.161-0.183-0.161-0.323c0-0.163,0.079-0.279,0.236-0.348c0.157-0.07,0.376-0.104,0.658-0.104
		c0.096,0,0.191,0.003,0.283,0.009c-0.002-0.184-0.147-0.276-0.436-0.276c-0.209,0-0.407,0.038-0.594,0.115v-0.311
		c0.178-0.089,0.391-0.134,0.638-0.134c0.543,0,0.815,0.192,0.815,0.575v0.867H705.113z M704.595,673.467
		c0.153,0,0.309-0.042,0.469-0.126v-0.22h-0.218c-0.189,0-0.324,0.013-0.403,0.039c-0.08,0.027-0.12,0.073-0.12,0.138
		c0,0.049,0.023,0.089,0.068,0.121C704.436,673.451,704.504,673.467,704.595,673.467z"/>
	<path class="st6" d="M707.635,673.748c-0.28,0-0.49-0.063-0.631-0.19c-0.141-0.126-0.211-0.312-0.211-0.557
		c0-0.223,0.073-0.401,0.218-0.534c0.145-0.133,0.358-0.199,0.638-0.199c0.098,0,0.197,0.01,0.297,0.032
		c0.1,0.021,0.179,0.048,0.237,0.083v0.314c-0.155-0.065-0.327-0.098-0.518-0.098c-0.142,0-0.25,0.035-0.324,0.105
		c-0.075,0.07-0.112,0.169-0.112,0.299c0,0.133,0.037,0.236,0.11,0.308c0.074,0.073,0.18,0.109,0.317,0.109
		c0.198,0,0.377-0.032,0.537-0.096v0.316C708.026,673.711,707.84,673.748,707.635,673.748z"/>
	<path class="st6" d="M709.126,673.748c-0.12,0-0.239-0.011-0.357-0.034c-0.118-0.022-0.206-0.049-0.264-0.08v-0.308
		c0.065,0.027,0.16,0.052,0.285,0.073c0.125,0.022,0.237,0.033,0.337,0.033c0.271,0,0.406-0.041,0.406-0.123
		c0-0.04-0.029-0.069-0.086-0.088c-0.057-0.018-0.162-0.038-0.312-0.06c-0.209-0.029-0.365-0.078-0.469-0.147
		c-0.104-0.069-0.156-0.169-0.156-0.3c0-0.298,0.257-0.447,0.771-0.447c0.109,0,0.223,0.011,0.342,0.034
		c0.119,0.023,0.204,0.05,0.255,0.08v0.305c-0.064-0.027-0.156-0.052-0.275-0.073s-0.227-0.033-0.322-0.033
		c-0.229,0-0.343,0.04-0.343,0.12c0,0.04,0.028,0.069,0.084,0.086s0.162,0.037,0.316,0.059c0.214,0.031,0.372,0.079,0.471,0.144
		c0.1,0.065,0.15,0.166,0.15,0.302c0,0.144-0.072,0.256-0.215,0.335C709.601,673.708,709.395,673.748,709.126,673.748z"/>
	<path class="st6" d="M711.451,673.707l-0.027-0.141c-0.147,0.124-0.344,0.185-0.591,0.185c-0.191,0-0.34-0.038-0.447-0.113
		c-0.107-0.075-0.161-0.183-0.161-0.323c0-0.163,0.079-0.279,0.236-0.348c0.157-0.07,0.376-0.104,0.658-0.104
		c0.096,0,0.191,0.003,0.283,0.009c-0.002-0.184-0.147-0.276-0.436-0.276c-0.209,0-0.407,0.038-0.594,0.115v-0.311
		c0.178-0.089,0.391-0.134,0.638-0.134c0.543,0,0.815,0.192,0.815,0.575v0.867H711.451z M710.933,673.467
		c0.153,0,0.309-0.042,0.469-0.126v-0.22h-0.218c-0.189,0-0.324,0.013-0.403,0.039c-0.08,0.027-0.12,0.073-0.12,0.138
		c0,0.049,0.023,0.089,0.068,0.121C710.774,673.451,710.842,673.467,710.933,673.467z"/>
	<path class="st6" d="M712.735,673.707l-0.709-1.398h0.463l0.477,1.003l0.474-1.003h0.444l-0.709,1.398H712.735z"/>
	<path class="st6" d="M715.218,673.707l-0.027-0.141c-0.147,0.124-0.344,0.185-0.591,0.185c-0.191,0-0.34-0.038-0.447-0.113
		c-0.107-0.075-0.161-0.183-0.161-0.323c0-0.163,0.079-0.279,0.236-0.348c0.157-0.07,0.376-0.104,0.658-0.104
		c0.096,0,0.191,0.003,0.283,0.009c-0.002-0.184-0.147-0.276-0.436-0.276c-0.209,0-0.407,0.038-0.594,0.115v-0.311
		c0.178-0.089,0.391-0.134,0.638-0.134c0.543,0,0.815,0.192,0.815,0.575v0.867H715.218z M714.701,673.467
		c0.153,0,0.309-0.042,0.469-0.126v-0.22h-0.218c-0.189,0-0.324,0.013-0.403,0.039c-0.08,0.027-0.12,0.073-0.12,0.138
		c0,0.049,0.023,0.089,0.068,0.121C714.541,673.451,714.61,673.467,714.701,673.467z"/>
	<path class="st6" d="M716.088,673.707v-1.398h0.39l0.016,0.256c0.104-0.197,0.269-0.294,0.496-0.294
		c0.08,0,0.147,0.008,0.201,0.024v0.371c-0.064-0.014-0.141-0.022-0.234-0.022c-0.209,0-0.356,0.062-0.442,0.185v0.878H716.088z"/>
	<path class="st6" d="M717.524,673.707v-1.974h0.428v0.695c0.153-0.109,0.34-0.164,0.562-0.164c0.1,0,0.189,0.009,0.268,0.027
		c0.079,0.018,0.153,0.05,0.221,0.094c0.068,0.045,0.121,0.108,0.158,0.193c0.037,0.083,0.056,0.185,0.056,0.305v0.823h-0.428
		v-0.768c0-0.119-0.029-0.205-0.087-0.262c-0.058-0.056-0.151-0.084-0.278-0.084c-0.165,0-0.322,0.039-0.471,0.117v0.998H717.524z"
		/>
	<path class="st6" d="M720.962,673.707l-0.027-0.139c-0.065,0.051-0.15,0.094-0.255,0.129s-0.209,0.052-0.315,0.055
		c-0.46,0-0.689-0.206-0.689-0.619v-0.823h0.428v0.768c0,0.118,0.029,0.205,0.087,0.262c0.058,0.056,0.151,0.084,0.278,0.084
		c0.142,0,0.288-0.039,0.439-0.117v-0.998h0.428v1.398H720.962z M720.327,672.104l0.273-0.431h0.512l-0.463,0.431H720.327z"/>
	<path class="st6" d="M721.755,672.62v-0.311h1.494v0.24l-0.913,0.847h0.949v0.311h-1.562v-0.243l0.924-0.845H721.755z"/>
	<path class="st6" d="M724.527,673.751c-0.302,0-0.533-0.065-0.694-0.195c-0.161-0.13-0.241-0.313-0.241-0.549
		c0-0.229,0.081-0.41,0.244-0.543s0.393-0.199,0.691-0.199c0.302,0,0.533,0.065,0.694,0.194c0.161,0.129,0.241,0.312,0.241,0.55
		c0,0.229-0.082,0.41-0.244,0.543C725.056,673.684,724.825,673.751,724.527,673.751z M724.168,673.32
		c0.091,0.078,0.211,0.117,0.36,0.117c0.149,0,0.269-0.039,0.36-0.116c0.091-0.078,0.136-0.182,0.136-0.312
		c0-0.131-0.045-0.235-0.136-0.313c-0.091-0.078-0.211-0.117-0.36-0.117c-0.149,0-0.269,0.038-0.36,0.116
		c-0.091,0.077-0.136,0.181-0.136,0.312C724.031,673.137,724.076,673.241,724.168,673.32z M724.309,672.104l0.273-0.431h0.513
		l-0.464,0.431H724.309z"/>
	<path class="st6" d="M725.645,672.62v-0.311h0.327l0.043-0.349h0.363v0.349h0.635v0.311h-0.635v0.547
		c0,0.088,0.02,0.149,0.06,0.185c0.04,0.035,0.111,0.053,0.213,0.053c0.144,0,0.268-0.016,0.373-0.049v0.311
		c-0.136,0.049-0.29,0.074-0.461,0.074c-0.405,0-0.608-0.174-0.608-0.523v-0.597H725.645z"/>
</g>
<g>
	<path class="st7" d="M722.349,756.513H686.37c-1.912,0-3.477-1.565-3.477-3.477v-0.4c0-1.912,1.565-3.477,3.477-3.477h35.979
		c1.912,0,3.477,1.565,3.477,3.477v0.4C725.825,754.948,724.261,756.513,722.349,756.513z"/>
	<g>
		<path class="st3" d="M690.77,753.648v-1.974h0.439v0.85l1.033-0.85h0.586l-1.191,0.957l1.23,1.017h-0.646l-1.012-0.878v0.878
			H690.77z"/>
		<path class="st3" d="M693.935,753.692c-0.302,0-0.533-0.065-0.694-0.195S693,753.183,693,752.948c0-0.229,0.081-0.41,0.244-0.543
			s0.393-0.199,0.691-0.199c0.302,0,0.533,0.065,0.694,0.194c0.161,0.129,0.241,0.312,0.241,0.55c0,0.229-0.082,0.41-0.244,0.543
			C694.463,753.625,694.233,753.692,693.935,753.692z M693.351,752.024v-0.349h0.373v0.349H693.351z M693.575,753.261
			c0.091,0.078,0.211,0.117,0.36,0.117c0.149,0,0.269-0.039,0.36-0.116c0.091-0.078,0.136-0.182,0.136-0.312
			c0-0.131-0.045-0.235-0.136-0.313c-0.091-0.078-0.211-0.117-0.36-0.117c-0.149,0-0.269,0.038-0.36,0.116
			c-0.091,0.077-0.136,0.181-0.136,0.312C693.439,753.079,693.484,753.183,693.575,753.261z M694.063,752.024v-0.349h0.373v0.349
			H694.063z"/>
		<path class="st3" d="M695.669,753.648l-0.709-1.398h0.463l0.477,1.003l0.474-1.003h0.444l-0.709,1.398H695.669z"/>
		<path class="st3" d="M698.656,753.059h-1.273c0.024,0.204,0.192,0.305,0.507,0.305c0.249,0,0.465-0.037,0.649-0.111v0.305
			c-0.178,0.087-0.411,0.131-0.698,0.131c-0.289,0-0.51-0.068-0.662-0.202c-0.153-0.134-0.229-0.312-0.229-0.531
			c0-0.213,0.073-0.391,0.218-0.534c0.145-0.144,0.358-0.215,0.638-0.215c0.285,0,0.499,0.067,0.643,0.2
			c0.144,0.134,0.215,0.307,0.215,0.522C698.664,752.979,698.662,753.023,698.656,753.059z M697.806,752.508
			c-0.238,0-0.377,0.096-0.417,0.287h0.837C698.185,752.604,698.046,752.508,697.806,752.508z"/>
		<path class="st3" d="M698.866,752.561v-0.311h0.327l0.043-0.349h0.363v0.349h0.635v0.311H699.6v0.547
			c0,0.088,0.02,0.149,0.06,0.185c0.04,0.035,0.111,0.053,0.213,0.053c0.144,0,0.268-0.016,0.373-0.05v0.311
			c-0.136,0.049-0.29,0.074-0.461,0.074c-0.405,0-0.608-0.174-0.608-0.524v-0.597H698.866z"/>
		<path class="st3" d="M700.611,753.648v-1.974h0.428v1.145l0.695-0.57h0.559l-0.818,0.654l0.84,0.744h-0.597l-0.679-0.641v0.641
			H700.611z"/>
		<path class="st3" d="M704.124,753.059h-1.273c0.024,0.204,0.192,0.305,0.507,0.305c0.249,0,0.465-0.037,0.649-0.111v0.305
			c-0.178,0.087-0.411,0.131-0.698,0.131c-0.289,0-0.51-0.068-0.662-0.202c-0.153-0.134-0.229-0.312-0.229-0.531
			c0-0.213,0.073-0.391,0.218-0.534c0.145-0.144,0.358-0.215,0.638-0.215c0.285,0,0.499,0.067,0.643,0.2
			c0.144,0.134,0.215,0.307,0.215,0.522C704.133,752.979,704.13,753.023,704.124,753.059z M703.274,752.508
			c-0.238,0-0.377,0.096-0.417,0.287h0.837C703.654,752.604,703.514,752.508,703.274,752.508z"/>
		<path class="st3" d="M704.411,752.561v-0.311h1.494v0.24l-0.913,0.847h0.949v0.311h-1.562v-0.243l0.924-0.845H704.411z"/>
		<path class="st3" d="M707.183,753.692c-0.302,0-0.533-0.065-0.694-0.195c-0.161-0.13-0.241-0.313-0.241-0.549
			c0-0.229,0.081-0.41,0.244-0.543c0.163-0.133,0.393-0.199,0.691-0.199c0.302,0,0.533,0.065,0.694,0.194
			c0.161,0.129,0.241,0.312,0.241,0.55c0,0.229-0.081,0.41-0.244,0.543C707.711,753.625,707.481,753.692,707.183,753.692z
			 M706.654,752.045l0.163-0.431h0.485l-0.349,0.431H706.654z M706.823,753.261c0.091,0.078,0.211,0.117,0.36,0.117
			s0.269-0.039,0.36-0.116c0.091-0.078,0.136-0.182,0.136-0.312c0-0.131-0.045-0.235-0.136-0.313
			c-0.091-0.078-0.211-0.117-0.36-0.117s-0.269,0.038-0.36,0.116c-0.091,0.077-0.136,0.181-0.136,0.312
			C706.687,753.079,706.732,753.183,706.823,753.261z M707.33,752.045l0.163-0.431h0.485l-0.349,0.431H707.33z"/>
		<path class="st3" d="M709.893,753.683c-0.171,0-0.295-0.037-0.372-0.11c-0.077-0.074-0.116-0.182-0.116-0.323v-1.576h0.428v1.518
			c0,0.057,0.013,0.098,0.039,0.123c0.027,0.025,0.08,0.038,0.162,0.038c0.067,0,0.141-0.01,0.221-0.03v0.3
			C710.15,753.663,710.029,753.683,709.893,753.683z"/>
		<path class="st3" d="M712.158,753.059h-1.273c0.024,0.204,0.192,0.305,0.507,0.305c0.249,0,0.465-0.037,0.649-0.111v0.305
			c-0.178,0.087-0.411,0.131-0.698,0.131c-0.289,0-0.51-0.068-0.662-0.202c-0.153-0.134-0.229-0.312-0.229-0.531
			c0-0.213,0.073-0.391,0.218-0.534c0.145-0.144,0.358-0.215,0.638-0.215c0.285,0,0.499,0.067,0.643,0.2
			c0.144,0.134,0.215,0.307,0.215,0.522C712.166,752.979,712.164,753.023,712.158,753.059z M711.308,752.508
			c-0.238,0-0.377,0.096-0.417,0.287h0.837C711.687,752.604,711.548,752.508,711.308,752.508z M711.125,752.045l0.273-0.431h0.512
			l-0.463,0.431H711.125z"/>
		<path class="st3" d="M712.559,752.25h0.373l0.027,0.152c0.167-0.131,0.368-0.196,0.603-0.196c0.247,0,0.44,0.065,0.578,0.194
			c0.138,0.129,0.207,0.307,0.207,0.534c0,0.236-0.07,0.422-0.209,0.556c-0.139,0.134-0.336,0.202-0.593,0.202
			c-0.238,0-0.424-0.045-0.559-0.136v0.668h-0.428V752.25z M713.467,753.362c0.144,0,0.254-0.035,0.33-0.107
			c0.077-0.072,0.115-0.174,0.115-0.305c0-0.131-0.038-0.231-0.115-0.302c-0.076-0.071-0.186-0.106-0.33-0.106
			c-0.173,0-0.333,0.038-0.48,0.114v0.592C713.134,753.323,713.294,753.362,713.467,753.362z"/>
		<path class="st3" d="M716.348,753.059h-1.273c0.024,0.204,0.193,0.305,0.507,0.305c0.249,0,0.465-0.037,0.649-0.111v0.305
			c-0.178,0.087-0.411,0.131-0.698,0.131c-0.289,0-0.51-0.068-0.662-0.202c-0.153-0.134-0.229-0.312-0.229-0.531
			c0-0.213,0.073-0.391,0.218-0.534c0.145-0.144,0.358-0.215,0.638-0.215c0.285,0,0.5,0.067,0.643,0.2
			c0.144,0.134,0.215,0.307,0.215,0.522C716.356,752.979,716.353,753.023,716.348,753.059z M715.498,752.508
			c-0.238,0-0.377,0.096-0.417,0.287h0.837C715.877,752.604,715.738,752.508,715.498,752.508z M715.315,752.045l0.273-0.431h0.512
			l-0.463,0.431H715.315z"/>
		<path class="st3" d="M717.278,753.689c-0.12,0-0.239-0.012-0.357-0.034c-0.118-0.022-0.206-0.049-0.264-0.08v-0.308
			c0.065,0.027,0.16,0.052,0.285,0.073c0.125,0.022,0.237,0.033,0.337,0.033c0.271,0,0.406-0.041,0.406-0.123
			c0-0.04-0.029-0.069-0.086-0.088c-0.057-0.018-0.162-0.038-0.312-0.06c-0.209-0.029-0.365-0.078-0.469-0.147
			c-0.104-0.069-0.155-0.169-0.155-0.3c0-0.298,0.257-0.447,0.771-0.447c0.109,0,0.223,0.012,0.342,0.034
			c0.119,0.023,0.204,0.05,0.255,0.08v0.305c-0.064-0.027-0.155-0.052-0.275-0.073s-0.227-0.033-0.322-0.033
			c-0.229,0-0.343,0.04-0.343,0.12c0,0.04,0.028,0.069,0.084,0.086c0.056,0.017,0.162,0.037,0.316,0.059
			c0.214,0.031,0.372,0.079,0.471,0.144c0.1,0.065,0.15,0.166,0.15,0.302c0,0.144-0.072,0.256-0.215,0.335
			C717.753,753.649,717.547,753.689,717.278,753.689z"/>
	</g>
</g>
<g>
	<g>
		<line class="st8" x1="727.098" y1="649.376" x2="727.098" y2="652.09"/>
		<line class="st8" x1="723.305" y1="649.376" x2="723.305" y2="652.09"/>
		<line class="st8" x1="719.513" y1="648.405" x2="719.513" y2="653.061"/>
		<line class="st8" x1="715.721" y1="648.405" x2="715.721" y2="653.061"/>
		<line class="st8" x1="711.929" y1="649.376" x2="711.929" y2="652.09"/>
		<g>
			<line class="st9" x1="708.137" y1="649.376" x2="708.137" y2="652.09"/>
			<line class="st9" x1="704.344" y1="649.376" x2="704.344" y2="652.09"/>
			<line class="st9" x1="700.552" y1="649.376" x2="700.552" y2="652.09"/>
			<line class="st9" x1="696.76" y1="649.376" x2="696.76" y2="652.09"/>
			<line class="st9" x1="692.968" y1="649.376" x2="692.968" y2="652.09"/>
			<line class="st9" x1="689.176" y1="649.376" x2="689.176" y2="652.09"/>
			<line class="st9" x1="685.383" y1="649.376" x2="685.383" y2="652.09"/>
			<line class="st9" x1="681.591" y1="648.405" x2="681.591" y2="653.061"/>
			<line class="st9" x1="677.799" y1="649.376" x2="677.799" y2="652.09"/>
		</g>
		<line class="st8" x1="730.89" y1="648.405" x2="730.89" y2="653.061"/>
	</g>
	<g>
		<path class="st7" d="M688.472,657.347v-0.322h1.892v0.322h-0.728v1.652h-0.439v-1.652H688.472z"/>
		<path class="st7" d="M691.555,658.998l-0.027-0.141c-0.147,0.124-0.344,0.185-0.591,0.185c-0.191,0-0.34-0.038-0.447-0.113
			c-0.107-0.075-0.161-0.183-0.161-0.323c0-0.163,0.079-0.279,0.236-0.348c0.157-0.07,0.376-0.104,0.658-0.104
			c0.096,0,0.191,0.003,0.283,0.009c-0.002-0.184-0.147-0.276-0.436-0.276c-0.209,0-0.407,0.038-0.594,0.115v-0.311
			c0.178-0.089,0.391-0.134,0.638-0.134c0.543,0,0.815,0.192,0.815,0.575v0.867H691.555z M691.038,658.759
			c0.153,0,0.309-0.042,0.469-0.126v-0.221h-0.218c-0.189,0-0.324,0.013-0.403,0.04c-0.08,0.027-0.12,0.073-0.12,0.138
			c0,0.049,0.023,0.089,0.068,0.121C690.879,658.743,690.947,658.759,691.038,658.759z M691.005,657.395l0.273-0.431h0.512
			l-0.464,0.431H691.005z"/>
		<path class="st7" d="M692.425,658.998V657.6h0.39l0.016,0.256c0.104-0.197,0.269-0.294,0.496-0.294
			c0.08,0,0.147,0.008,0.201,0.024v0.371c-0.064-0.014-0.141-0.022-0.234-0.022c-0.209,0-0.356,0.062-0.442,0.185v0.878H692.425z"/>
		<path class="st7" d="M694.562,659.039c-0.28,0-0.491-0.063-0.631-0.19s-0.211-0.312-0.211-0.557c0-0.223,0.073-0.401,0.218-0.534
			s0.358-0.199,0.638-0.199c0.098,0,0.197,0.01,0.297,0.032c0.1,0.021,0.179,0.048,0.237,0.083v0.314
			c-0.155-0.065-0.327-0.098-0.518-0.098c-0.142,0-0.25,0.035-0.324,0.105c-0.075,0.07-0.112,0.169-0.112,0.299
			c0,0.133,0.037,0.236,0.11,0.308c0.074,0.073,0.18,0.109,0.317,0.109c0.198,0,0.377-0.032,0.537-0.096v0.316
			C694.954,659.003,694.768,659.039,694.562,659.039z"/>
		<path class="st7" d="M696.054,659.039c-0.12,0-0.239-0.012-0.357-0.034c-0.118-0.022-0.206-0.049-0.264-0.08v-0.308
			c0.065,0.027,0.16,0.052,0.285,0.073s0.237,0.033,0.337,0.033c0.271,0,0.406-0.041,0.406-0.123c0-0.04-0.029-0.069-0.086-0.088
			c-0.057-0.018-0.162-0.038-0.312-0.06c-0.209-0.029-0.365-0.078-0.469-0.147c-0.104-0.069-0.155-0.169-0.155-0.3
			c0-0.298,0.257-0.447,0.771-0.447c0.109,0,0.223,0.012,0.342,0.034c0.119,0.023,0.204,0.05,0.255,0.08v0.305
			c-0.064-0.027-0.155-0.052-0.275-0.073s-0.227-0.033-0.322-0.033c-0.229,0-0.343,0.04-0.343,0.12c0,0.04,0.028,0.069,0.084,0.086
			c0.056,0.017,0.162,0.037,0.316,0.059c0.214,0.031,0.372,0.079,0.471,0.144c0.1,0.065,0.15,0.166,0.15,0.302
			c0,0.144-0.072,0.256-0.215,0.335C696.529,658.999,696.322,659.039,696.054,659.039z"/>
		<path class="st7" d="M698.379,658.998l-0.027-0.141c-0.147,0.124-0.344,0.185-0.591,0.185c-0.191,0-0.34-0.038-0.447-0.113
			c-0.107-0.075-0.161-0.183-0.161-0.323c0-0.163,0.079-0.279,0.236-0.348c0.157-0.07,0.376-0.104,0.658-0.104
			c0.096,0,0.191,0.003,0.283,0.009c-0.002-0.184-0.147-0.276-0.436-0.276c-0.209,0-0.407,0.038-0.594,0.115v-0.311
			c0.178-0.089,0.391-0.134,0.638-0.134c0.543,0,0.815,0.192,0.815,0.575v0.867H698.379z M697.861,658.759
			c0.153,0,0.309-0.042,0.469-0.126v-0.221h-0.218c-0.189,0-0.324,0.013-0.403,0.04c-0.08,0.027-0.12,0.073-0.12,0.138
			c0,0.049,0.023,0.089,0.068,0.121C697.702,658.743,697.77,658.759,697.861,658.759z"/>
		<path class="st7" d="M700.009,657.911V657.6h0.308v-0.041c0-0.192,0.059-0.336,0.177-0.431c0.118-0.094,0.279-0.141,0.482-0.141
			c0.124,0,0.248,0.017,0.373,0.049v0.3c-0.116-0.029-0.213-0.044-0.289-0.044c-0.111,0-0.192,0.022-0.244,0.064
			c-0.052,0.043-0.078,0.118-0.078,0.225v0.019h0.545v0.311h-0.545v1.087h-0.423v-1.087H700.009z"/>
		<path class="st7" d="M703.182,658.409h-1.273c0.024,0.204,0.192,0.305,0.507,0.305c0.249,0,0.465-0.037,0.649-0.111v0.305
			c-0.178,0.087-0.411,0.131-0.698,0.131c-0.289,0-0.51-0.068-0.662-0.202c-0.153-0.134-0.229-0.312-0.229-0.531
			c0-0.213,0.073-0.391,0.218-0.534c0.145-0.144,0.358-0.215,0.638-0.215c0.285,0,0.5,0.067,0.643,0.2
			c0.144,0.134,0.215,0.307,0.215,0.522C703.19,658.33,703.187,658.374,703.182,658.409z M702.332,657.859
			c-0.238,0-0.377,0.096-0.417,0.287h0.837C702.711,657.954,702.571,657.859,702.332,657.859z"/>
		<path class="st7" d="M704.054,659.034c-0.171,0-0.295-0.037-0.372-0.11c-0.077-0.074-0.116-0.182-0.116-0.323v-1.576h0.428v1.518
			c0,0.057,0.013,0.098,0.039,0.123c0.027,0.025,0.08,0.038,0.162,0.038c0.067,0,0.141-0.01,0.221-0.03v0.3
			C704.311,659.013,704.191,659.034,704.054,659.034z"/>
		<path class="st7" d="M705.262,659.039c-0.12,0-0.239-0.012-0.357-0.034c-0.118-0.022-0.206-0.049-0.264-0.08v-0.308
			c0.065,0.027,0.16,0.052,0.285,0.073c0.125,0.022,0.237,0.033,0.337,0.033c0.271,0,0.406-0.041,0.406-0.123
			c0-0.04-0.029-0.069-0.086-0.088c-0.057-0.018-0.162-0.038-0.312-0.06c-0.209-0.029-0.365-0.078-0.469-0.147
			c-0.104-0.069-0.156-0.169-0.156-0.3c0-0.298,0.257-0.447,0.771-0.447c0.109,0,0.223,0.012,0.342,0.034
			c0.119,0.023,0.204,0.05,0.255,0.08v0.305c-0.064-0.027-0.156-0.052-0.275-0.073s-0.227-0.033-0.322-0.033
			c-0.229,0-0.343,0.04-0.343,0.12c0,0.04,0.028,0.069,0.084,0.086c0.056,0.017,0.162,0.037,0.316,0.059
			c0.214,0.031,0.372,0.079,0.471,0.144s0.15,0.166,0.15,0.302c0,0.144-0.072,0.256-0.215,0.335
			C705.737,658.999,705.531,659.039,705.262,659.039z"/>
		<path class="st7" d="M706.379,657.911V657.6h1.494v0.24l-0.913,0.847h0.949v0.311h-1.562v-0.243l0.924-0.845H706.379z"/>
		<path class="st7" d="M709.882,658.409h-1.273c0.024,0.204,0.192,0.305,0.507,0.305c0.249,0,0.465-0.037,0.649-0.111v0.305
			c-0.178,0.087-0.411,0.131-0.698,0.131c-0.289,0-0.51-0.068-0.662-0.202c-0.153-0.134-0.229-0.312-0.229-0.531
			c0-0.213,0.073-0.391,0.218-0.534c0.145-0.144,0.358-0.215,0.638-0.215c0.285,0,0.499,0.067,0.643,0.2
			c0.144,0.134,0.215,0.307,0.215,0.522C709.89,658.33,709.888,658.374,709.882,658.409z M709.032,657.859
			c-0.238,0-0.377,0.096-0.417,0.287h0.837C709.411,657.954,709.272,657.859,709.032,657.859z"/>
		<path class="st7" d="M710.283,658.998V657.6h0.39l0.016,0.256c0.104-0.197,0.269-0.294,0.496-0.294
			c0.08,0,0.147,0.008,0.201,0.024v0.371c-0.064-0.014-0.141-0.022-0.234-0.022c-0.209,0-0.356,0.062-0.442,0.185v0.878H710.283z"/>
		<path class="st7" d="M713.284,658.409h-1.273c0.024,0.204,0.193,0.305,0.507,0.305c0.249,0,0.465-0.037,0.649-0.111v0.305
			c-0.178,0.087-0.411,0.131-0.698,0.131c-0.289,0-0.51-0.068-0.662-0.202c-0.153-0.134-0.229-0.312-0.229-0.531
			c0-0.213,0.073-0.391,0.218-0.534c0.145-0.144,0.358-0.215,0.638-0.215c0.285,0,0.5,0.067,0.643,0.2
			c0.144,0.134,0.215,0.307,0.215,0.522C713.292,658.33,713.29,658.374,713.284,658.409z M712.434,657.859
			c-0.238,0-0.377,0.096-0.417,0.287h0.837C712.813,657.954,712.674,657.859,712.434,657.859z"/>
		<path class="st7" d="M714.156,659.034c-0.171,0-0.295-0.037-0.372-0.11c-0.077-0.074-0.116-0.182-0.116-0.323v-1.576h0.428v1.518
			c0,0.057,0.013,0.098,0.039,0.123c0.027,0.025,0.08,0.038,0.162,0.038c0.067,0,0.141-0.01,0.221-0.03v0.3
			C714.414,659.013,714.293,659.034,714.156,659.034z"/>
		<path class="st7" d="M716.422,658.409h-1.273c0.024,0.204,0.193,0.305,0.507,0.305c0.249,0,0.465-0.037,0.649-0.111v0.305
			c-0.178,0.087-0.411,0.131-0.698,0.131c-0.289,0-0.51-0.068-0.662-0.202c-0.153-0.134-0.229-0.312-0.229-0.531
			c0-0.213,0.073-0.391,0.218-0.534c0.145-0.144,0.358-0.215,0.638-0.215c0.285,0,0.5,0.067,0.643,0.2
			c0.144,0.134,0.215,0.307,0.215,0.522C716.43,658.33,716.427,658.374,716.422,658.409z M715.572,657.859
			c-0.238,0-0.377,0.096-0.417,0.287h0.837C715.951,657.954,715.812,657.859,715.572,657.859z M715.389,657.395l0.273-0.431h0.512
			l-0.463,0.431H715.389z"/>
		<path class="st7" d="M717.352,659.039c-0.12,0-0.239-0.012-0.357-0.034c-0.118-0.022-0.206-0.049-0.264-0.08v-0.308
			c0.065,0.027,0.16,0.052,0.285,0.073c0.125,0.022,0.237,0.033,0.337,0.033c0.271,0,0.406-0.041,0.406-0.123
			c0-0.04-0.029-0.069-0.086-0.088c-0.057-0.018-0.162-0.038-0.312-0.06c-0.209-0.029-0.365-0.078-0.469-0.147
			c-0.104-0.069-0.155-0.169-0.155-0.3c0-0.298,0.257-0.447,0.771-0.447c0.109,0,0.223,0.012,0.342,0.034
			c0.119,0.023,0.204,0.05,0.255,0.08v0.305c-0.064-0.027-0.155-0.052-0.275-0.073s-0.227-0.033-0.322-0.033
			c-0.229,0-0.343,0.04-0.343,0.12c0,0.04,0.028,0.069,0.084,0.086c0.056,0.017,0.162,0.037,0.316,0.059
			c0.214,0.031,0.372,0.079,0.471,0.144c0.1,0.065,0.15,0.166,0.15,0.302c0,0.144-0.072,0.256-0.215,0.335
			C717.827,658.999,717.621,659.039,717.352,659.039z"/>
		<path class="st7" d="M720.17,658.409h-1.273c0.024,0.204,0.192,0.305,0.507,0.305c0.249,0,0.465-0.037,0.649-0.111v0.305
			c-0.178,0.087-0.411,0.131-0.698,0.131c-0.289,0-0.51-0.068-0.662-0.202c-0.153-0.134-0.229-0.312-0.229-0.531
			c0-0.213,0.073-0.391,0.218-0.534c0.145-0.144,0.358-0.215,0.638-0.215c0.285,0,0.499,0.067,0.643,0.2
			c0.144,0.134,0.215,0.307,0.215,0.522C720.178,658.33,720.176,658.374,720.17,658.409z M719.32,657.859
			c-0.238,0-0.377,0.096-0.417,0.287h0.837C719.699,657.954,719.56,657.859,719.32,657.859z"/>
	</g>
</g>
<g>
	<g>
		<circle class="st10" cx="397.243" cy="252.871" r="2.495"/>
		<circle class="st10" cx="405.712" cy="252.871" r="2.495"/>
	</g>
	<g>
		<circle class="st10" cx="504.139" cy="252.871" r="2.495"/>
		<circle class="st10" cx="512.609" cy="252.871" r="2.495"/>
	</g>
	<g>
		<circle class="st10" cx="611.036" cy="252.871" r="2.495"/>
		<circle class="st10" cx="619.505" cy="252.871" r="2.495"/>
	</g>
	<g>
		<circle class="st10" cx="717.933" cy="252.871" r="2.495"/>
		<circle class="st10" cx="726.402" cy="252.871" r="2.495"/>
	</g>
</g>
<g>
	<g>
		<circle class="st10" cx="1095.463" cy="252.871" r="2.495"/>
		<circle class="st10" cx="1103.932" cy="252.871" r="2.495"/>
	</g>
	<g>
		<circle class="st10" cx="1202.359" cy="252.871" r="2.495"/>
		<circle class="st10" cx="1210.828" cy="252.871" r="2.495"/>
	</g>
</g>
<g>
	<g>
		<path class="st11" d="M642.278,705.255c-4.167,0-7.544,3.378-7.544,7.544c0,4.167,3.378,7.544,7.544,7.544
			c4.167,0,7.544-3.378,7.544-7.544C649.822,708.633,646.444,705.255,642.278,705.255z M642.278,715.239
			c-1.347,0-2.44-1.092-2.44-2.44c0-1.347,1.092-2.44,2.44-2.44c1.347,0,2.44,1.092,2.44,2.44S643.625,715.239,642.278,715.239z"/>
	</g>
	<g>
		<path class="st11" d="M642.278,662.582c-4.167,0-7.544,3.378-7.544,7.544c0,4.167,3.378,7.544,7.544,7.544
			c4.167,0,7.544-3.378,7.544-7.544C649.822,665.959,646.444,662.582,642.278,662.582z M642.278,672.566
			c-1.347,0-2.44-1.092-2.44-2.44c0-1.347,1.092-2.44,2.44-2.44c1.347,0,2.44,1.092,2.44,2.44
			C644.717,671.473,643.625,672.566,642.278,672.566z"/>
	</g>
	<g>
		<path class="st11" d="M642.278,683.918c-4.167,0-7.544,3.378-7.544,7.544c0,4.167,3.378,7.544,7.544,7.544
			c4.167,0,7.544-3.378,7.544-7.544C649.822,687.296,646.444,683.918,642.278,683.918z M642.278,693.902
			c-1.347,0-2.44-1.092-2.44-2.44c0-1.347,1.092-2.44,2.44-2.44s2.44,1.092,2.44,2.44
			C644.717,692.81,643.625,693.902,642.278,693.902z"/>
	</g>
	<g>
		<path class="st11" d="M642.278,733.379c-6.769,0-12.256,5.487-12.256,12.256c0,6.769,5.487,12.256,12.256,12.256
			s12.256-5.487,12.256-12.256S649.046,733.379,642.278,733.379z M642.278,748.075c-1.347,0-2.44-1.092-2.44-2.44
			c0-1.347,1.092-2.44,2.44-2.44c1.347,0,2.44,1.092,2.44,2.44S643.625,748.075,642.278,748.075z"/>
	</g>
</g>
</svg>
