<?xml version="1.0" encoding="utf-8"?>
<!-- Generator: Adobe Illustrator 21.1.0, SVG Export Plug-In . SVG Version: 6.00 Build 0)  -->
<svg version="1.1" id="Layer_1" xmlns="http://www.w3.org/2000/svg" xmlns:xlink="http://www.w3.org/1999/xlink" x="0px" y="0px"
	 viewBox="0 0 324 531" style="enable-background:new 0 0 324 531;" xml:space="preserve">
<style type="text/css">
	.st0{fill:#444444;}
</style>
<path class="st0" d="M162.1,141.3c18.7,0,34-15.2,34-34c0-18.7-15.2-23.9-34-23.9c-18.7,0-34,5.2-34,23.9
	C128.2,126.1,143.4,141.3,162.1,141.3z"/>
<rect x="149" y="132" class="st0" width="26" height="31"/>
<path class="st0" d="M248.6,266.3l-26.9-83.6c-0.2-0.6-0.5-1.1-0.7-1.6c-10.7-27.1-34.6-33.5-43-33.5c-7.6,0-5.9,0-13.8,0
	c-1.8,0-3.3,0-4.5,0c-7.9,0-6.2,0-13.8,0c-8.4,0-32.3,6.4-43,33.5c-0.3,0.5-0.5,1-0.7,1.6l-26.9,83.6c-2.3,7,1.5,14.6,8.5,16.9
	s14.5-1.5,16.9-8.5l25.9-80.6h6.1L88.3,427.3h36.1v14.5c0,8.7,7.1,15.8,15.8,15.8c8.7,0,15.8-7.1,15.8-15.8v-14.5h11.8v14.5
	c0,8.7,7.1,15.8,15.8,15.8c8.7,0,15.8-7.1,15.8-15.8v-14.5h36.1l-44.2-233.2h6.1l25.9,80.6c2.3,7,9.9,10.8,16.9,8.5
	C247.1,280.9,250.9,273.3,248.6,266.3z M170.9,178.1h-6.3V196h-5.1v-17.9h-6.3v-5.1h6.3V165h5.1v7.9h6.3V178.1z"/>
<path class="st0" d="M162,61.2c-25.4,0-46.2,20.7-46.2,46.1c0.1,25.6,20.8,236.2,46.2,236.2s46.2-210.7,46.2-236.2
	C208.2,81.9,187.6,61.2,162,61.2z M170.9,178.1h-6.3V196h-5.1v-17.9h-6.3v-5.1h6.3V165h5.1v7.9h6.3V178.1z M162,145
	c-20.7,0-37.6-16.9-37.7-37.7c0-20.7,17-37.6,37.7-37.6c20.8,0,37.7,16.9,37.7,37.6C199.7,128.1,182.7,145,162,145z"/>
</svg>
