<?xml version="1.0" encoding="utf-8"?>
<!-- Generator: Adobe Illustrator 21.1.0, SVG Export Plug-In . SVG Version: 6.00 Build 0)  -->
<svg version="1.1" id="Layer_1" xmlns="http://www.w3.org/2000/svg" xmlns:xlink="http://www.w3.org/1999/xlink" x="0px" y="0px"
	 viewBox="0 0 324 531" style="enable-background:new 0 0 324 531;" xml:space="preserve">
<style type="text/css">
	.st0{fill:#444444;}
</style>
<g>
	<g>
		<circle class="st0" cx="162" cy="107.2" r="34"/>
		<path class="st0" d="M241.5,193.9c-0.1-25.3-20.7-45.7-46-45.7h-45.4h-3.1h-18.4c-25.3,0-45.8,20.4-46,45.7c0,0,0,0.1,0,0.1v90
			c0,8.1,6.6,14.7,14.7,14.7c8.1,0,14.7-6.6,14.7-14.7v-53.4v-30h7v32.1v57.5v8.3v139.6c0,10.9,8.8,19.7,19.7,19.7
			c10.9,0,19.7-8.8,19.7-19.7V298.6h7.4v139.6c0,10.9,8.8,19.7,19.7,19.7c10.9,0,19.7-8.8,19.7-19.7V298.6v-8.3v-57.5v-32.1h7v30
			V284c0,8.1,6.6,14.7,14.7,14.7c8.1,0,14.7-6.6,14.7-14.7v-90C241.5,194,241.5,193.9,241.5,193.9z"/>
	</g>
</g>
</svg>
