<?xml version="1.0" encoding="utf-8"?>
<!-- Generator: Adobe Illustrator 21.1.0, SVG Export Plug-In . SVG Version: 6.00 Build 0)  -->
<svg version="1.1" id="Layer_1" xmlns="http://www.w3.org/2000/svg" xmlns:xlink="http://www.w3.org/1999/xlink" x="0px" y="0px"
	 viewBox="0 0 324 531" style="enable-background:new 0 0 324 531;" xml:space="preserve">
<style type="text/css">
	.st0{fill:#F3BD01;}
</style>
<g>
	<g>
		<path class="st0" d="M162.2,141.3c18.7,0,34-15.2,34-34c0-18.7-15.2-33.9-34-33.9c-18.7,0-34,15.2-34,33.9
			C128.3,126.1,143.5,141.3,162.2,141.3z"/>
		<path class="st0" d="M248.7,266.3l-26.9-83.6c-0.2-0.6-0.5-1.1-0.7-1.6c-10.7-27.1-34.6-33.5-43-33.5c-7.6,0-5.9,0-13.8,0
			c-1.8,0-3.3,0-4.5,0c-7.9,0-6.2,0-13.8,0c-8.4,0-32.3,6.4-43,33.5c-0.3,0.5-0.5,1-0.7,1.6l-26.9,83.6c-2.3,7,1.5,14.6,8.5,16.9
			c7,2.3,14.5-1.5,16.9-8.5l25.9-80.6h6.1L88.4,332.3h36.1v109.5c0,8.7,7.1,15.8,15.8,15.8c8.7,0,15.8-7.1,15.8-15.8V332.3h11.8
			v109.5c0,8.7,7.1,15.8,15.8,15.8c8.7,0,15.8-7.1,15.8-15.8V332.3h36.1l-44.2-138.2h6.1l25.9,80.6c2.3,7,9.9,10.8,16.9,8.5
			C247.2,280.9,251,273.3,248.7,266.3z"/>
	</g>
</g>
</svg>
