<?xml version="1.0" encoding="utf-8"?>
<!-- Generator: Adobe Illustrator 21.1.0, SVG Export Plug-In . SVG Version: 6.00 Build 0)  -->
<svg version="1.1" id="Layer_1" xmlns="http://www.w3.org/2000/svg" xmlns:xlink="http://www.w3.org/1999/xlink" x="0px" y="0px"
	 viewBox="0 0 324 531" style="enable-background:new 0 0 324 531;" xml:space="preserve">
<style type="text/css">
	.st0{fill:#F3BD01;}
</style>
<g>
	<path class="st0" d="M187.5,68.5c-2.3-27-12.8-47.3-25.5-47.3s-23.2,20.4-25.5,47.3H187.5z"/>
</g>
<path class="st0" d="M128,107.2c0,18.8,15.2,34,34,34c18.8,0,34-15.2,34-34c0-6.1-1.6-11.8-4.4-16.7h-59.2
	C129.6,95.4,128,101.1,128,107.2z"/>
<polygon class="st0" points="45.5,71.5 53.9,87.5 270.1,87.5 278.5,71.5 "/>
<path class="st0" d="M241.5,193.9c-0.1-25.3-20.7-45.7-46-45.7h-45.4H147h-18.4c-25.3,0-45.8,20.4-46,45.7v0.1v90
	c0,8.1,6.6,14.7,14.7,14.7S112,292.1,112,284v-53.4v-30h7v32.1v57.5v8.3v139.6c0,10.9,8.8,19.7,19.7,19.7s19.7-8.8,19.7-19.7V298.6
	h7.4v139.6c0,10.9,8.8,19.7,19.7,19.7s19.7-8.8,19.7-19.7V298.6v-8.3v-57.5v-32.1h7v30V284c0,8.1,6.6,14.7,14.7,14.7
	c8.1,0,14.7-6.6,14.7-14.7v-90C241.5,194,241.5,193.9,241.5,193.9z"/>
<polygon class="st0" points="231.3,265 71.3,418 82.9,189 217.3,168 "/>
</svg>
