<?xml version="1.0" encoding="utf-8"?>
<!-- Generator: Adobe Illustrator 23.0.1, SVG Export Plug-In . SVG Version: 6.00 Build 0)  -->
<svg version="1.1" id="Layer_1" xmlns="http://www.w3.org/2000/svg" xmlns:xlink="http://www.w3.org/1999/xlink" x="0px" y="0px"
	 viewBox="0 0 1340 2231.2" style="enable-background:new 0 0 1340 2231.2;" xml:space="preserve">
<style type="text/css">
	.st0{fill:#333333;}
	.st1{fill:#FFFFFF;}
	.st2{fill:none;stroke:#FFFFFF;stroke-width:4;stroke-linecap:square;stroke-miterlimit:10;}
	.st3{opacity:0.5;}
	.st4{fill:none;stroke:#FFFFFF;stroke-width:4;stroke-miterlimit:10;}
	.st5{fill:none;stroke:#333333;stroke-width:8;stroke-miterlimit:10;}
	.st6{fill:none;stroke:#333333;stroke-width:4;stroke-miterlimit:10;}
</style>
<g>
	<g>
		<path class="st0" d="M978.8,202h-151c-5.5,0-10-4.5-10-10v-90c0-5.5,4.5-10,10-10h151c5.5,0,10,4.5,10,10v90
			C988.8,197.5,984.3,202,978.8,202z"/>
	</g>
	<g>
		<path class="st0" d="M978.8,271.5h-99c-5.5,0-10-4.5-10-10V177c0-5.5,4.5-10,10-10h99c5.5,0,10,4.5,10,10v84.5
			C988.8,267,984.3,271.5,978.8,271.5z"/>
	</g>
	<g>
		<path class="st1" d="M880,139.4V121h13.6v3.1h-9.8v4.1h8.6v3.1h-8.6v5h9.9v3.1H880z"/>
		<path class="st1" d="M896,139.4V121h3.8l6.1,10.3c0.2,0.3,0.4,0.7,0.6,1.1c0.2,0.4,0.4,0.8,0.5,1.1l0.2,0.4h0.1
			c-0.1-1.3-0.1-2.3-0.1-3.2V121h3.7v18.4h-3.6l-6.3-10.2c-0.2-0.3-0.4-0.6-0.6-1.1c-0.2-0.4-0.4-0.8-0.5-1.1l-0.2-0.4h-0.1
			c0.1,1.3,0.1,2.4,0.1,3.2v9.5H896z"/>
		<path class="st1" d="M912.7,124.1V121h14.8v3.1H922v15.3h-3.7v-15.3H912.7z"/>
		<path class="st1" d="M929.4,139.4V121H943v3.1h-9.8v4.1h8.6v3.1h-8.6v5h9.9v3.1H929.4z"/>
		<path class="st1" d="M945.4,139.4V121h8.5c1.8,0,3.2,0.5,4.3,1.4c1.1,0.9,1.6,2.2,1.6,3.7c0,2.4-1.1,3.8-3.4,4.5v0.1
			c0.9,0.3,1.5,0.7,2,1.2c0.4,0.6,0.7,1.4,0.8,2.5c0,0.4,0.1,0.9,0.1,1.5c0,0.6,0.1,1,0.1,1.3c0,0.3,0.1,0.7,0.1,1s0.1,0.6,0.2,0.8
			s0.2,0.3,0.3,0.3v0.2h-3.6c-0.1,0-0.1-0.1-0.2-0.2c-0.1-0.1-0.1-0.2-0.1-0.4c0-0.2-0.1-0.3-0.1-0.5c0-0.2-0.1-0.4-0.1-0.7
			c0-0.3,0-0.5-0.1-0.7c0-0.2,0-0.5-0.1-0.9c0-0.4,0-0.6-0.1-0.8c-0.2-2.1-1.4-3.1-3.6-3.1h-3v7.4H945.4z M949.1,124v5.1h4
			c1,0,1.7-0.2,2.3-0.7c0.5-0.5,0.8-1.1,0.8-1.8c0-0.8-0.2-1.4-0.7-1.9c-0.5-0.5-1.2-0.7-2.2-0.7H949.1z"/>
	</g>
	<g>
		<line class="st2" x1="928.8" y1="165" x2="956.8" y2="165"/>
		<line class="st2" x1="956.8" y1="157" x2="956.8" y2="165"/>
		<polygon class="st1" points="930.8,164.9 930.8,171.9 924.8,168.4 918.8,164.9 924.8,161.5 930.8,158 		"/>
	</g>
</g>
<g>
	<g>
		<path class="st0" d="M514.5,509.7h-41c-5.5,0-10-4.5-10-10v-41c0-5.5,4.5-10,10-10h41c5.5,0,10,4.5,10,10v41
			C524.5,505.2,520,509.7,514.5,509.7z"/>
		<polygon class="st1" points="498.5,479.2 498.5,486.1 492.5,482.7 486.5,479.2 492.5,475.7 498.5,472.3 		"/>
	</g>
	<g class="st3">
		<path class="st0" d="M610.5,458.7v41c0,5.5-4.5,10-10,10h-41c-5.5,0-10-4.5-10-10v-41c0-5.5,4.5-10,10-10h41
			C606,448.7,610.5,453.2,610.5,458.7z"/>
		<polygon class="st1" points="580,474.7 586.9,474.7 583.4,480.7 580,486.7 576.5,480.7 573,474.7 		"/>
	</g>
	<g class="st3">
		<path class="st0" d="M549.5,409.5v-41c0-5.5,4.5-10,10-10h41c5.5,0,10,4.5,10,10v41c0,5.5-4.5,10-10,10h-41
			C554,419.5,549.5,415,549.5,409.5z"/>
		<polygon class="st1" points="580,393.5 573,393.5 576.5,387.5 580,381.5 583.4,387.5 586.9,393.5 		"/>
	</g>
	<g>
		<path class="st0" d="M645.5,448.7h41c5.5,0,10,4.5,10,10v41c0,5.5-4.5,10-10,10h-41c-5.5,0-10-4.5-10-10v-41
			C635.5,453.2,640,448.7,645.5,448.7z"/>
		<polygon class="st1" points="661.5,479.2 661.5,472.3 667.5,475.7 673.5,479.2 667.5,482.7 661.5,486.1 		"/>
	</g>
</g>
<g>
	<g>
		<path class="st0" d="M600.8,838.5h-41.7c-19.7,0-35.6,15.9-35.6,35.6v93.4c0,31.2,25.3,56.4,56.4,56.4c31.2,0,56.4-25.3,56.4-56.4
			v-93.4C636.4,854.4,620.5,838.5,600.8,838.5z M590.2,903.8c0,5.7-4.6,10.2-10.2,10.2c-5.7,0-10.2-4.6-10.2-10.2V880
			c0-5.7,4.6-10.2,10.2-10.2c5.7,0,10.2,4.6,10.2,10.2V903.8z"/>
	</g>
</g>
<g>
	<path class="st0" d="M473.5,1621.1h61.5c5.5,0,10,4.5,10,10v61.5c0,5.5-4.5,10-10,10h-61.5c-5.5,0-10-4.5-10-10v-61.5
		C463.5,1625.6,468,1621.1,473.5,1621.1z"/>
	<g>
		<path class="st1" d="M480.1,1671.1v-18.4h13.6v3.1h-9.8v4.1h8.6v3.1h-8.6v5h9.9v3.1H480.1z"/>
		<path class="st1" d="M503.1,1671.5c-2.5,0-4.4-0.5-5.8-1.6c-1.4-1.1-2.1-2.6-2.2-4.5h3.7c0.1,1.1,0.5,1.9,1.2,2.4
			c0.7,0.5,1.7,0.7,3,0.7c1,0,1.9-0.2,2.6-0.6c0.7-0.4,1-1,1-1.8c0-0.3,0-0.6-0.1-0.8c-0.1-0.2-0.2-0.4-0.5-0.6
			c-0.2-0.2-0.4-0.3-0.6-0.4c-0.2-0.1-0.5-0.2-1-0.4s-0.8-0.2-1.1-0.3s-0.7-0.2-1.3-0.3c-0.8-0.2-1.4-0.4-1.9-0.5s-1.1-0.4-1.7-0.6
			s-1.1-0.6-1.4-1c-0.4-0.4-0.6-0.8-0.9-1.4c-0.2-0.6-0.4-1.2-0.4-2c0-1.8,0.6-3.1,1.9-4.1c1.3-1,3-1.4,5.1-1.4c2.1,0,3.8,0.5,5,1.5
			c1.3,1,2,2.4,2.1,4.3h-3.6c-0.1-0.9-0.5-1.6-1.1-2.1c-0.6-0.5-1.5-0.7-2.4-0.7c-1,0-1.8,0.2-2.4,0.6c-0.6,0.4-0.9,0.9-0.9,1.6
			c0,0.7,0.3,1.2,0.9,1.5c0.6,0.3,1.6,0.7,3.1,1c0.9,0.2,1.6,0.4,2.2,0.5c0.6,0.2,1.2,0.4,1.8,0.7c0.7,0.3,1.2,0.6,1.5,1
			s0.7,0.8,0.9,1.4c0.2,0.6,0.4,1.3,0.4,2.1c0,1.8-0.7,3.2-2,4.3C507,1671,505.3,1671.5,503.1,1671.5z"/>
		<path class="st1" d="M520.6,1671.4c-2.6,0-4.7-0.9-6.4-2.7c-1.7-1.8-2.5-4.1-2.5-6.8c0-2.8,0.8-5.1,2.4-6.9
			c1.6-1.8,3.8-2.7,6.4-2.7c2.2,0,4,0.6,5.3,1.7c1.3,1.2,2.1,2.7,2.3,4.5h-3.7c-0.2-0.9-0.6-1.7-1.3-2.2c-0.7-0.6-1.6-0.8-2.6-0.8
			c-1.6,0-2.9,0.6-3.7,1.8c-0.9,1.2-1.3,2.8-1.3,4.7c0,1.9,0.5,3.5,1.4,4.7c0.9,1.2,2.1,1.8,3.7,1.8c1.1,0,2-0.3,2.7-0.9
			c0.7-0.6,1.1-1.4,1.3-2.4h3.7c-0.1,1.7-0.8,3.2-2,4.4C524.8,1670.8,523,1671.4,520.6,1671.4z"/>
	</g>
</g>
<g>
	<path class="st0" d="M473.5,1459.7h434.1c5.5,0,10,4.5,10,10v61.5c0,5.5-4.5,10-10,10H473.5c-5.5,0-10-4.5-10-10v-61.5
		C463.5,1464.2,468,1459.7,473.5,1459.7z"/>
	<g>
		<path class="st1" d="M658.8,1510c-2.5,0-4.4-0.5-5.8-1.6c-1.4-1.1-2.1-2.6-2.2-4.5h3.7c0.1,1.1,0.5,1.9,1.2,2.4
			c0.7,0.5,1.7,0.7,3,0.7c1,0,1.9-0.2,2.6-0.6c0.7-0.4,1-1,1-1.8c0-0.3,0-0.6-0.1-0.8c-0.1-0.2-0.2-0.4-0.5-0.6
			c-0.2-0.2-0.4-0.3-0.6-0.4c-0.2-0.1-0.5-0.2-1-0.4s-0.8-0.2-1.1-0.3s-0.7-0.2-1.3-0.3c-0.8-0.2-1.4-0.4-1.9-0.5s-1.1-0.4-1.7-0.6
			s-1.1-0.6-1.4-1c-0.4-0.4-0.6-0.8-0.9-1.4c-0.2-0.6-0.4-1.2-0.4-2c0-1.8,0.6-3.1,1.9-4.1c1.3-1,3-1.4,5.1-1.4c2.1,0,3.8,0.5,5,1.5
			c1.3,1,2,2.4,2.1,4.3h-3.6c-0.1-0.9-0.5-1.6-1.1-2.1c-0.6-0.5-1.5-0.7-2.4-0.7c-1,0-1.8,0.2-2.4,0.6c-0.6,0.4-0.9,0.9-0.9,1.6
			c0,0.7,0.3,1.2,0.9,1.5c0.6,0.3,1.6,0.7,3.1,1c0.9,0.2,1.6,0.4,2.2,0.5c0.6,0.2,1.2,0.4,1.8,0.7c0.7,0.3,1.2,0.6,1.5,1
			s0.7,0.8,0.9,1.4c0.2,0.6,0.4,1.3,0.4,2.1c0,1.8-0.7,3.2-2,4.3C662.6,1509.5,660.9,1510,658.8,1510z"/>
		<path class="st1" d="M668.2,1509.6v-18.4h8.1c2.1,0,3.7,0.6,4.8,1.7c1.1,1.1,1.7,2.5,1.7,4.2c0,1.8-0.5,3.2-1.7,4.2
			s-2.6,1.6-4.5,1.6h-4.5v6.7H668.2z M672.1,1494.4v5.5h3.9c1,0,1.7-0.2,2.2-0.7s0.8-1.2,0.8-2c0-0.9-0.3-1.5-0.8-2
			c-0.5-0.5-1.2-0.7-2.2-0.7H672.1z"/>
		<path class="st1" d="M681.6,1509.6l6.4-18.4h3.9l6.5,18.4h-3.9l-1.2-3.9h-6.7l-1.2,3.9H681.6z M689.1,1497.5l-1.7,5.3h4.9
			l-1.7-5.3l-0.7-2.8h-0.1C689.6,1495.9,689.3,1496.9,689.1,1497.5z"/>
		<path class="st1" d="M707,1510c-2.6,0-4.7-0.9-6.4-2.7s-2.5-4.1-2.5-6.8c0-2.8,0.8-5.1,2.4-6.9s3.8-2.7,6.4-2.7
			c2.2,0,4,0.6,5.3,1.7c1.3,1.2,2.1,2.7,2.3,4.5h-3.7c-0.2-0.9-0.6-1.7-1.3-2.2c-0.7-0.6-1.6-0.8-2.6-0.8c-1.6,0-2.9,0.6-3.7,1.8
			c-0.9,1.2-1.3,2.8-1.3,4.7c0,1.9,0.5,3.5,1.4,4.7c0.9,1.2,2.1,1.8,3.7,1.8c1.1,0,2-0.3,2.7-0.9c0.7-0.6,1.1-1.4,1.3-2.4h3.7
			c-0.1,1.7-0.8,3.2-2,4.4C711.2,1509.3,709.3,1510,707,1510z"/>
		<path class="st1" d="M716.6,1509.6v-18.4h13.6v3.1h-9.8v4.1h8.6v3.1h-8.6v5h9.9v3.1H716.6z"/>
	</g>
</g>
<g>
	<path class="st0" d="M473.5,1782.6h253.3c5.5,0,10,4.5,10,10v61.5c0,5.5-4.5,10-10,10H473.5c-5.5,0-10-4.5-10-10v-61.5
		C463.5,1787.1,468,1782.6,473.5,1782.6z"/>
	<g>
		<path class="st1" d="M542,1833v-18.4h8.3c2,0,3.5,0.4,4.5,1.3c1,0.9,1.5,2,1.5,3.5c0,1.8-1,3-2.9,3.7v0.1c1,0.3,1.9,0.9,2.5,1.7
			c0.6,0.8,0.9,1.8,0.9,2.9c0,1.6-0.5,2.9-1.6,3.8c-1.1,1-2.7,1.5-4.6,1.5H542z M545.7,1822h4c0.8,0,1.5-0.2,2-0.6s0.7-0.9,0.7-1.6
			c0-0.7-0.2-1.2-0.7-1.6c-0.5-0.4-1.1-0.6-1.9-0.6h-4.1V1822z M545.7,1824.7v5.2h4.3c0.9,0,1.6-0.2,2.1-0.7
			c0.5-0.5,0.8-1.1,0.8-1.8c0-0.8-0.3-1.5-0.8-2c-0.6-0.5-1.3-0.7-2.2-0.7H545.7z"/>
		<path class="st1" d="M557.6,1833l6.4-18.4h3.9l6.5,18.4h-3.9l-1.2-3.9h-6.7l-1.2,3.9H557.6z M565.1,1820.9l-1.7,5.3h4.9l-1.7-5.3
			l-0.7-2.8h-0.1C565.6,1819.3,565.3,1820.2,565.1,1820.9z"/>
		<path class="st1" d="M582.9,1833.4c-2.6,0-4.7-0.9-6.4-2.7c-1.7-1.8-2.5-4.1-2.5-6.8c0-2.8,0.8-5.1,2.4-6.9
			c1.6-1.8,3.8-2.7,6.4-2.7c2.2,0,4,0.6,5.3,1.7c1.3,1.2,2.1,2.7,2.3,4.5h-3.7c-0.2-0.9-0.6-1.7-1.3-2.2c-0.7-0.5-1.6-0.8-2.6-0.8
			c-1.6,0-2.9,0.6-3.7,1.8s-1.3,2.8-1.3,4.7c0,1.9,0.5,3.5,1.4,4.7s2.1,1.8,3.7,1.8c1.1,0,2-0.3,2.7-0.9c0.7-0.6,1.1-1.4,1.3-2.4
			h3.7c-0.1,1.7-0.8,3.2-2,4.4C587.1,1832.7,585.3,1833.4,582.9,1833.4z"/>
		<path class="st1" d="M592.5,1833v-18.4h3.7v7.4l7.1-7.4h4.6l-7.2,7.4l7.7,11.1h-4.4l-5.9-8.6l-1.9,1.9v6.7H592.5z"/>
		<path class="st1" d="M616.1,1833.4c-2.5,0-4.4-0.5-5.8-1.6c-1.4-1.1-2.1-2.6-2.2-4.5h3.7c0.1,1.1,0.5,1.9,1.2,2.4
			c0.7,0.5,1.7,0.7,3,0.7c1,0,1.9-0.2,2.6-0.6c0.7-0.4,1-1,1-1.8c0-0.3,0-0.6-0.1-0.8c-0.1-0.2-0.2-0.4-0.5-0.6
			c-0.2-0.2-0.4-0.3-0.6-0.4c-0.2-0.1-0.5-0.2-1-0.4s-0.8-0.2-1.1-0.3c-0.2-0.1-0.7-0.2-1.3-0.3c-0.8-0.2-1.4-0.4-1.9-0.5
			c-0.5-0.1-1.1-0.4-1.7-0.6c-0.6-0.3-1.1-0.6-1.4-1c-0.4-0.4-0.6-0.8-0.9-1.4c-0.2-0.6-0.4-1.2-0.4-2c0-1.8,0.6-3.1,1.9-4.1
			s3-1.4,5.1-1.4c2.1,0,3.8,0.5,5,1.5c1.3,1,2,2.4,2.1,4.3h-3.6c-0.1-0.9-0.5-1.6-1.1-2.1c-0.6-0.5-1.5-0.7-2.4-0.7
			c-1,0-1.8,0.2-2.4,0.6c-0.6,0.4-0.9,0.9-0.9,1.6c0,0.7,0.3,1.2,0.9,1.5c0.6,0.3,1.6,0.7,3.1,1c0.9,0.2,1.6,0.4,2.2,0.5
			s1.2,0.4,1.8,0.7c0.7,0.3,1.2,0.6,1.5,1c0.4,0.4,0.7,0.8,0.9,1.4c0.2,0.6,0.4,1.3,0.4,2.1c0,1.8-0.7,3.2-2,4.3
			C620,1832.9,618.3,1833.4,616.1,1833.4z"/>
		<path class="st1" d="M625.5,1833v-18.4h8.1c2.1,0,3.7,0.6,4.8,1.7c1.1,1.1,1.7,2.5,1.7,4.2c0,1.8-0.6,3.2-1.7,4.2
			c-1.1,1.1-2.6,1.6-4.5,1.6h-4.5v6.7H625.5z M629.4,1817.8v5.5h3.9c1,0,1.7-0.2,2.2-0.7s0.8-1.2,0.8-2c0-0.9-0.3-1.5-0.8-2
			s-1.2-0.7-2.2-0.7H629.4z"/>
		<path class="st1" d="M639,1833l6.4-18.4h3.9l6.5,18.4h-3.9l-1.2-3.9H644l-1.2,3.9H639z M646.5,1820.9l-1.7,5.3h4.9l-1.7-5.3
			l-0.7-2.8h-0.1C646.9,1819.3,646.7,1820.2,646.5,1820.9z"/>
		<path class="st1" d="M664.3,1833.4c-2.6,0-4.7-0.9-6.4-2.7c-1.7-1.8-2.5-4.1-2.5-6.8c0-2.8,0.8-5.1,2.4-6.9
			c1.6-1.8,3.8-2.7,6.4-2.7c2.2,0,4,0.6,5.3,1.7c1.3,1.2,2.1,2.7,2.3,4.5h-3.7c-0.2-0.9-0.6-1.7-1.3-2.2c-0.7-0.5-1.6-0.8-2.6-0.8
			c-1.6,0-2.9,0.6-3.7,1.8s-1.3,2.8-1.3,4.7c0,1.9,0.5,3.5,1.4,4.7s2.1,1.8,3.7,1.8c1.1,0,2-0.3,2.7-0.9c0.7-0.6,1.1-1.4,1.3-2.4
			h3.7c-0.1,1.7-0.8,3.2-2,4.4C668.5,1832.7,666.7,1833.4,664.3,1833.4z"/>
		<path class="st1" d="M673.9,1833v-18.4h13.6v3.1h-9.8v4.1h8.6v3.1h-8.6v5h9.9v3.1H673.9z"/>
	</g>
	<polygon class="st1" points="521.3,1823.3 521.3,1832.7 513.2,1828 505.1,1823.3 513.2,1818.6 521.3,1814 	"/>
</g>
<g>
	<g>
		<g>
			<path class="st0" d="M592.9,88.6h-41.7c-19.7,0-35.6,15.9-35.6,35.6v93.4c0,31.2,25.3,56.4,56.4,56.4c31.2,0,56.4-25.3,56.4-56.4
				v-93.4C628.5,104.6,612.5,88.6,592.9,88.6z"/>
		</g>
		<line class="st4" x1="572" y1="88.6" x2="572" y2="157.5"/>
		<line class="st4" x1="515.6" y1="155.7" x2="572.9" y2="155.7"/>
	</g>
	<g>
		<line class="st5" x1="475.9" y1="83.8" x2="499.5" y2="92.6"/>
		<line class="st5" x1="499" y1="56.7" x2="516" y2="73.9"/>
		<line class="st5" x1="533.8" y1="47.9" x2="533.8" y2="71.3"/>
	</g>
</g>
<g>
	<g>
		<g>
			<path class="st0" d="M600.8,1136.4h-41.7c-19.7,0-35.6,15.9-35.6,35.6v93.4c0,31.2,25.3,56.4,56.4,56.4
				c31.2,0,56.4-25.3,56.4-56.4V1172C636.4,1152.4,620.5,1136.4,600.8,1136.4z"/>
		</g>
		<line class="st4" x1="580" y1="1136.4" x2="580" y2="1205.3"/>
		<line class="st4" x1="523.5" y1="1203.6" x2="580.8" y2="1203.6"/>
	</g>
	<polygon class="st0" points="672.9,1210.9 660.1,1210.9 678.4,1229.2 660.1,1247.4 672.9,1247.4 691.1,1229.2 	"/>
	<polygon class="st0" points="561.7,1100.7 561.7,1113.5 580,1095.2 598.2,1113.5 598.2,1100.7 580,1082.5 	"/>
	<polygon class="st0" points="598.2,1352.3 598.2,1339.5 580,1357.8 561.7,1339.5 561.7,1352.3 580,1370.5 	"/>
	<polygon class="st0" points="487,1247.4 499.8,1247.4 481.5,1229.2 499.8,1210.9 487,1210.9 468.8,1229.2 	"/>
</g>
<g>
	<polygon class="st0" points="1158.8,1473.1 1134.2,1460.9 1134.2,1473.1 1109.6,1460.9 1109.6,1473.1 1085,1460.9 1085,1467.9 
		1085,1484.9 1085,1492.8 1109.6,1492.8 1109.6,1554.3 1134.2,1554.3 1134.2,1492.8 1158.8,1492.8 	"/>
	<g>
		<line class="st6" x1="1042.2" y1="1500.6" x2="1042.2" y2="1422.5"/>
		<line class="st6" x1="1106.1" y1="1424.5" x2="1041.2" y2="1424.5"/>
	</g>
</g>
<g>
	<g>
		<line class="st6" x1="580.4" y1="2010.9" x2="580.4" y2="1932.8"/>
		<line class="st6" x1="516.4" y1="1934.8" x2="581.4" y2="1934.8"/>
	</g>
	<g>
		<polygon class="st0" points="463.5,1947.9 568.3,2052.8 568.3,1947.9 		"/>
		<polygon class="st1" points="511.5,1968.6 548.4,2005.5 548.4,1968.6 		"/>
	</g>
</g>
<g>
	<path d="M232.1,207.4v-41.3h-13.4v-7.8c8.9-0.3,13.9-3.9,15-10.5H244v59.6H232.1z"/>
	<path d="M253.4,207.4v-12.5H266v12.5H253.4z"/>
</g>
<g>
	<path d="M218.7,459.8c0.1-3.5,1-6.8,2.5-10c1.6-3.1,3.2-5.7,5.1-7.6c1.8-1.9,4-3.9,6.7-6c0.9-0.7,2.4-1.8,4.4-3.3
		c2-1.4,3.5-2.6,4.5-3.4c1-0.8,2.1-1.8,3.3-3.1c1.2-1.2,2.1-2.5,2.6-3.8c0.5-1.3,0.8-2.7,0.8-4.1c0-2.8-0.7-5.1-2.2-6.7
		c-1.4-1.7-3.5-2.5-6-2.5c-3,0-5.3,1-7,3.1c-1.7,2.1-2.6,5-2.6,8.9h-11.1c0-6.9,1.8-12.3,5.3-16.2c3.5-3.9,8.8-5.8,15.7-5.8
		c6.2,0,11.1,1.8,14.7,5.4c3.6,3.6,5.4,8.1,5.4,13.5c0,2.7-0.4,5.1-1.2,7.2s-2,4.1-3.7,5.9c-1.7,1.8-3.2,3.2-4.5,4.2
		c-1.3,1-3.2,2.3-5.5,3.9c-6.5,4.1-10.4,7.7-11.9,10.5h27.3v9.7H218.7z"/>
	<path d="M266.8,459.8v-12.5h12.6v12.5H266.8z"/>
</g>
<g>
	<path d="M241,699.1c-7.5,0-13.2-1.9-17.2-5.7c-4-3.8-6-9.1-6.1-15.7H229c0.5,8,4.3,12,11.7,12c3.3,0,5.8-0.8,7.7-2.5
		c1.8-1.7,2.8-4,2.8-7c0-2.9-0.9-5.1-2.8-6.7c-1.8-1.6-4.6-2.4-8.1-2.4h-3.6V662h3.4c2.9,0,5.2-0.7,7-2.1c1.8-1.4,2.6-3.3,2.6-5.8
		c0-2.4-0.7-4.2-2.2-5.7c-1.5-1.4-3.5-2.1-6.1-2.1c-3.2,0-5.7,1-7.5,2.9c-1.8,1.9-2.7,4.5-2.8,7.7h-11.2c0.2-6,2.2-10.7,5.9-14.3
		c3.7-3.5,8.9-5.3,15.6-5.3c6.2,0,11.2,1.4,14.8,4.3c3.7,2.9,5.5,6.8,5.5,11.7c0,6.1-3.4,10.3-10.1,12.4v0.2c8,2,12,6.9,12,14.9
		c0,5.9-2.1,10.4-6.3,13.5C252.8,697.5,247.5,699.1,241,699.1z"/>
	<path d="M268.5,697.8v-12.5h12.6v12.5H268.5z"/>
</g>
<g>
	<path d="M245.8,956.9V944h-27.3v-12.7l26.9-34.3h11.9v37.6h9v9.4h-9v12.9H245.8z M228,934.3v0.3h17.8v-23h-0.2L228,934.3z"/>
	<path d="M270.9,956.9v-12.5h12.6v12.5H270.9z"/>
</g>
<g>
	<path d="M241.4,1253.5c-6.6,0-12.1-1.6-16.5-4.9c-4.4-3.3-6.8-7.8-7.4-13.5h11.6c0.5,2.8,1.9,5,4,6.4c2.2,1.4,4.8,2.2,8,2.2
		c3.3,0,5.9-1,8-3.2c2-2.1,3-4.8,3-8c0-3.4-1-6.1-3.1-8c-2-1.9-4.7-2.9-7.9-2.9c-4.3,0-7.5,1.2-9.7,3.7h-11.3l5.7-32.3h34.9v9.8H234
		l-2.2,12.8h0.2c2.9-2.5,7-3.7,12.3-3.7c5.5,0,10.2,1.9,14.1,5.7c3.9,3.8,5.9,8.8,5.9,14.9c0,6.1-2.2,11.1-6.5,15.1
		C253.4,1251.5,248,1253.5,241.4,1253.5z"/>
	<path d="M269.5,1252.2v-12.5h12.6v12.5H269.5z"/>
</g>
<g>
	<path d="M243.6,1527.4c-8,0-14.1-2.8-18.2-8.5c-4.1-5.7-6.2-12.8-6.4-21.5c-0.1-11,2.3-19.3,7.3-24.9c4-4.6,9.7-6.8,17-6.8
		c5.8,0,10.4,1.4,14,4.2c3.5,2.8,5.7,6.5,6.4,11.1h-11.3c-1-4.2-3.9-6.3-8.6-6.3c-4.2,0-7.4,1.5-9.5,4.5c-2.2,3-3.2,7.1-3.2,12.5
		h0.2c3.5-4.1,8.2-6.1,13.9-6.1c5.6,0,10.5,2,14.5,6c4,4,6,9,6,15.2c0,6-2.1,11-6.4,14.9S249.9,1527.4,243.6,1527.4z M243.2,1518.1
		c3.2,0,5.8-1.1,8-3.2c2.2-2.2,3.2-4.9,3.2-8.1c0-3.4-1.1-6.2-3.2-8.5c-2.1-2.2-4.8-3.4-8-3.4c-3.6,0-6.4,1.1-8.4,3.2
		c-2,2.2-3.1,5-3.1,8.5c0,3.3,1.1,6.1,3.2,8.2C237.1,1517.1,239.9,1518.1,243.2,1518.1z"/>
	<path d="M270.4,1526.1v-12.5H283v12.5H270.4z"/>
</g>
<g>
	<path d="M226.1,1687.6c0.2-6.8,1.5-13.6,3.9-20.3c2.4-6.7,5.1-12.3,8-16.8c2.9-4.5,6.1-8.4,9.4-11.9v-0.2h-29.4v-10.1h42.2v9.7
		c-5.9,6-10.8,13.2-14.8,21.7s-6.2,17.7-6.6,27.8H226.1z"/>
	<path d="M259.7,1687.6V1675h12.6v12.5H259.7z"/>
</g>
<g>
	<path d="M242.5,1850.3c-7,0-12.7-1.6-17.3-4.9c-4.6-3.3-6.8-7.8-6.8-13.5c0-3.6,1-6.8,2.9-9.5c2-2.7,4.6-4.7,7.9-6v-0.3
		c-5.5-2.5-8.3-6.5-8.3-11.8c0-5,2-8.8,5.9-11.6c3.9-2.8,9.1-4.1,15.6-4.1c6.5,0,11.6,1.4,15.4,4.1s5.7,6.6,5.7,11.4
		c0,5.3-2.7,9.2-8.2,11.8v0.3c3.3,1.2,5.9,3.1,7.8,5.7c1.9,2.7,2.9,5.8,2.9,9.4c0,5.9-2.2,10.6-6.6,13.9
		C255.1,1848.6,249.4,1850.3,242.5,1850.3z M242.3,1840.8c3.5,0,6.3-0.8,8.4-2.5c2.2-1.7,3.2-4,3.2-6.8c0-3.1-1-5.5-3.1-7.3
		c-2-1.8-4.9-2.7-8.4-2.7c-3.6,0-6.5,0.9-8.6,2.7c-2.1,1.8-3.2,4.2-3.2,7.3c0,2.9,1.1,5.2,3.2,6.8
		C235.8,1840,238.7,1840.8,242.3,1840.8z M242.3,1813.2c3,0,5.4-0.7,7.1-2.2c1.8-1.5,2.6-3.4,2.6-5.7s-0.9-4.2-2.6-5.7
		c-1.7-1.4-4.1-2.1-7.2-2.1c-3.1,0-5.5,0.7-7.2,2.1c-1.8,1.4-2.6,3.3-2.6,5.7s0.9,4.3,2.6,5.7
		C236.8,1812.5,239.2,1813.2,242.3,1813.2z"/>
	<path d="M271.1,1849v-12.5h12.6v12.5H271.1z"/>
</g>
<g>
	<path d="M241.7,2019.8c-6,0-10.8-1.4-14.3-4.3c-3.6-2.9-5.7-6.6-6.4-11.2h11.4c1.2,4.3,4.1,6.5,9,6.5c3.7,0,6.6-1.2,8.6-3.7
		c2.4-3,3.6-7.6,3.7-13.9h-0.2c-3.7,4.3-8.3,6.5-13.7,6.5c-6.1,0-11.2-1.9-15.2-5.7c-4-3.8-6-8.9-6-15.1c0-6,2.1-11,6.4-14.9
		s9.5-5.8,15.9-5.8c8,0,14,2.5,18.2,7.6c4.2,5,6.3,12.5,6.3,22.4C265.4,2009.2,257.5,2019.8,241.7,2019.8z M241.4,1990.1
		c3.4,0,6.2-1,8.5-3.2c2.3-2.1,3.4-4.8,3.4-8.2c0-3.3-1.1-6.1-3.4-8.3c-2.2-2.2-5.1-3.2-8.5-3.2c-3.4,0-6.2,1.1-8.4,3.2
		c-2.2,2.2-3.3,4.9-3.3,8.1c0,3.4,1,6.2,3.1,8.3C235,1989.1,237.8,1990.1,241.4,1990.1z"/>
	<path d="M270.3,2018.5v-12.5h12.6v12.5H270.3z"/>
</g>
<g>
	<g class="st3">
		<path class="st0" d="M514.5,747.7h-41c-5.5,0-10-4.5-10-10v-41c0-5.5,4.5-10,10-10h41c5.5,0,10,4.5,10,10v41
			C524.5,743.2,520,747.7,514.5,747.7z"/>
		<polygon class="st1" points="498.5,717.2 498.5,724.1 492.5,720.7 486.5,717.2 492.5,713.7 498.5,710.3 		"/>
	</g>
	<g>
		<path class="st0" d="M610.5,696.7v41c0,5.5-4.5,10-10,10h-41c-5.5,0-10-4.5-10-10v-41c0-5.5,4.5-10,10-10h41
			C606,686.7,610.5,691.2,610.5,696.7z"/>
		<polygon class="st1" points="580,712.7 586.9,712.7 583.4,718.7 580,724.7 576.5,718.7 573,712.7 		"/>
	</g>
	<g>
		<path class="st0" d="M549.5,647.5v-41c0-5.5,4.5-10,10-10h41c5.5,0,10,4.5,10,10v41c0,5.5-4.5,10-10,10h-41
			C554,657.5,549.5,653,549.5,647.5z"/>
		<polygon class="st1" points="580,631.5 573,631.5 576.5,625.5 580,619.5 583.4,625.5 586.9,631.5 		"/>
	</g>
	<g class="st3">
		<path class="st0" d="M645.5,686.7h41c5.5,0,10,4.5,10,10v41c0,5.5-4.5,10-10,10h-41c-5.5,0-10-4.5-10-10v-41
			C635.5,691.2,640,686.7,645.5,686.7z"/>
		<polygon class="st1" points="661.5,717.2 661.5,710.3 667.5,713.7 673.5,717.2 667.5,720.7 661.5,724.1 		"/>
	</g>
</g>
</svg>
