<?xml version="1.0" encoding="utf-8"?>
<!-- Generator: Adobe Illustrator 21.1.0, SVG Export Plug-In . SVG Version: 6.00 Build 0)  -->
<svg version="1.1" id="Layer_1" xmlns="http://www.w3.org/2000/svg" xmlns:xlink="http://www.w3.org/1999/xlink" x="0px" y="0px"
	 viewBox="0 0 100 100" style="enable-background:new 0 0 100 100;" xml:space="preserve">
<style type="text/css">
	.st0{fill:#FFC600;}
</style>
<path class="st0" d="M86.5,49.2c0-3.7,0-7.4,0-11.1c0-1.5-0.1-3-0.3-4.5c-0.8-4.1-3.1-7.3-6.1-10.1c-4.1-3.8-9-6.1-14.2-7.8
	C60,13.9,54,13.3,48,13.5c-5.5,0.2-10.9,1.1-16.1,3c-5,1.8-9.6,4.4-13.3,8.4c-3.3,3.6-5.1,7.8-5.1,12.7c0,2.2,0.1,4.5,0.1,6.7
	c0,2.6,0,5.2,0,7.8c0,3.3,0,6.7,0,10c0,4.1,1.5,7.8,3.9,11.1c3.1,4.1,7.2,6.9,11.7,9c7.3,3.4,15,4.6,23,4.3
	c5.2-0.2,10.2-1.1,15.1-2.9c5.2-1.9,10-4.6,13.7-8.7c3.6-3.9,5.5-8.4,5.4-13.8C86.4,57.2,86.4,53.2,86.5,49.2
	C86.4,49.2,86.5,49.2,86.5,49.2z M27.2,44.5c5.2-2.6,10.7-4.1,16.5-4.8c7.5-0.8,14.9-0.3,22.2,2c4.4,1.3,8.5,3.2,12.2,6
	c0.3,0.2,0.5,0.4,0.9,0.7c-0.4,0.4-0.7,0.7-1.1,1c-4.4,3.7-9.5,6.1-15,7.5c-9.6,2.5-19.2,2.2-28.6-0.8c-4.5-1.5-8.7-3.7-12.3-6.8
	c-0.3-0.2-0.5-0.5-0.8-0.7c0,0-0.1-0.1-0.1-0.2C23,46.9,25,45.6,27.2,44.5z M84.8,62.8c-0.1,4-1.8,7.4-4.3,10.3
	c-3.2,3.8-7.2,6.3-11.7,8.2c-5.7,2.4-11.7,3.5-17.9,3.6c-6.2,0.1-12.3-0.8-18.2-3c-4.3-1.6-8.3-3.8-11.6-7c-2.9-2.8-5-6-5.8-10
	c-0.7-3.5-0.1-6.9,1.5-10.1c0.8-1.7,1.8-3.3,3-4.7c0.1-0.1,0.2-0.1,0.3-0.2c3.7,3.4,8,5.7,12.6,7.4c4.9,1.8,10,2.6,15.2,2.8
	c6.7,0.3,13.2-0.7,19.5-3c4.3-1.5,8.2-3.7,11.6-6.7c2.2-1.9,4.1-4.2,5.6-6.9c0.1,0.2,0.1,0.3,0.1,0.3C84.8,50.2,84.9,56.5,84.8,62.8
	z"/>
</svg>
