<?xml version="1.0" encoding="utf-8"?>
<!-- Generator: Adobe Illustrator 21.1.0, SVG Export Plug-In . SVG Version: 6.00 Build 0)  -->
<svg version="1.1" id="Layer_1" xmlns="http://www.w3.org/2000/svg" xmlns:xlink="http://www.w3.org/1999/xlink" x="0px" y="0px"
	 viewBox="0 0 100 100" style="enable-background:new 0 0 100 100;" xml:space="preserve">
<style type="text/css">
	.st0{fill:#FFC600;}
</style>
<g>
	<path class="st0" d="M18.3,52.9v1.5h-4.4v-1.5h1.4v-5.7h-1.4v-1.5h3.1v7.2H18.3z M17,42.7c0,0.3-0.1,0.5-0.3,0.7
		c-0.2,0.2-0.5,0.3-0.7,0.3c-0.3,0-0.5-0.1-0.7-0.3C15.1,43.2,15,43,15,42.7c0-0.3,0.1-0.5,0.3-0.7s0.4-0.3,0.7-0.3
		c0.3,0,0.5,0.1,0.7,0.3C16.9,42.1,17,42.4,17,42.7z"/>
	<path class="st0" d="M27.7,48.5v4.4h1.5v1.5h-3.2v-5.8c0-0.6-0.1-0.9-0.2-1.2s-0.4-0.4-0.8-0.4c-0.8,0-1.6,0.4-2.6,1.1v4.7h1.5v1.5
		h-4.8v-1.5h1.5v-5.7h-1.5v-1.5h3.2v1.1c1.1-0.8,2.1-1.2,3-1.2c0.8,0,1.4,0.2,1.7,0.7C27.5,46.7,27.7,47.5,27.7,48.5z"/>
	<path class="st0" d="M35.4,46v-0.4h1.5v2.9h-1.5V48c-0.5-0.7-1.2-1.1-2.1-1.1c-0.5,0-0.8,0.1-1.1,0.3c-0.3,0.2-0.4,0.5-0.4,0.8
		c0,0.3,0.1,0.5,0.3,0.7c0.2,0.2,0.7,0.3,1.5,0.4l1.2,0.2c1.7,0.3,2.6,1.2,2.6,2.5c0,0.8-0.3,1.5-0.9,1.9c-0.6,0.5-1.5,0.7-2.5,0.7
		c-0.4,0-0.8-0.1-1.2-0.2c-0.4-0.1-0.7-0.3-1-0.4v0.5h-1.5v-3h1.5v0.3c0.1,0.4,0.3,0.8,0.7,1s0.8,0.4,1.3,0.4c0.6,0,1-0.1,1.3-0.3
		s0.5-0.5,0.5-0.9c0-0.3-0.1-0.5-0.4-0.6c-0.3-0.1-0.8-0.3-1.5-0.4l-0.9-0.2c-0.9-0.2-1.5-0.5-1.9-0.9c-0.4-0.4-0.6-1-0.6-1.7
		c0-0.5,0.2-1,0.5-1.4s0.7-0.7,1.2-0.9s1-0.3,1.5-0.3C34.1,45.5,34.9,45.7,35.4,46z"/>
	<path class="st0" d="M48.9,50.1c0,0.8-0.2,1.6-0.6,2.3c-0.4,0.7-0.9,1.3-1.5,1.7c-0.7,0.4-1.4,0.6-2.2,0.6c-1.2,0-2.2-0.5-3.1-1.4
		v3.5h1.7v1.5h-5v-1.5h1.6v-9.6h-1.5v-1.5h3.2V47c0.4-0.5,0.9-0.9,1.4-1.1c0.5-0.3,1.1-0.4,1.7-0.4c0.8,0,1.6,0.2,2.2,0.6
		s1.1,1,1.5,1.7C48.8,48.5,48.9,49.3,48.9,50.1z M44.6,53.1c0.5,0,0.9-0.1,1.3-0.4c0.4-0.3,0.7-0.7,0.9-1.1c0.2-0.5,0.3-1,0.3-1.5
		c0-0.5-0.1-1-0.4-1.5s-0.6-0.8-1-1.1S44.9,47,44.4,47c-0.5,0-1,0.1-1.5,0.4s-0.8,0.7-1,1.1s-0.4,1-0.4,1.6c0,0.9,0.3,1.6,0.9,2.1
		C43,52.8,43.7,53.1,44.6,53.1z"/>
	<path class="st0" d="M59.5,50.5h-7.4c0.1,0.8,0.4,1.5,1,2s1.2,0.7,2,0.7c0.6,0,1.1-0.1,1.6-0.4s0.9-0.6,1.2-1.1l1.5,0.7
		c-0.5,0.7-1.1,1.3-1.9,1.7c-0.8,0.4-1.6,0.6-2.5,0.6c-0.9,0-1.8-0.2-2.5-0.6c-0.7-0.4-1.3-0.9-1.7-1.7s-0.6-1.5-0.6-2.4
		c0-0.9,0.2-1.7,0.6-2.4s1-1.3,1.7-1.7s1.5-0.6,2.3-0.6c0.9,0,1.7,0.2,2.4,0.6s1.2,1,1.6,1.8C59.3,48.5,59.5,49.4,59.5,50.5z
		 M54.9,46.8c-0.7,0-1.2,0.2-1.7,0.7c-0.5,0.4-0.8,1-0.9,1.7h5.5c-0.2-0.7-0.5-1.3-1-1.7C56.1,47.1,55.5,46.8,54.9,46.8z"/>
	<path class="st0" d="M67,47.1h-1.4v-1.4h4.9v1.4h-1.4l-3.3,2.7l3.1,3.1h1.5v1.5h-2.3L63.8,50v2.9h1.5v1.5h-4.8v-1.5H62v-9.5h-1.6
		v-1.5h3.3v7.9L67,47.1z"/>
	<path class="st0" d="M75.7,45.6v1.5h-1.6v4.6c0,0.5,0.1,0.8,0.2,0.9c0.1,0.1,0.3,0.2,0.5,0.2c0.3,0,0.6-0.1,0.9-0.2v1.6
		c-0.5,0.2-1,0.2-1.3,0.2c-0.7,0-1.2-0.2-1.6-0.5s-0.5-1-0.5-1.9v-5h-1.1v-1.5h1.1v-1.3l1.7-1.6v2.9H75.7z"/>
	<path class="st0" d="M86.2,50c0,0.9-0.2,1.6-0.6,2.3s-1,1.3-1.7,1.7c-0.7,0.4-1.5,0.6-2.3,0.6c-0.9,0-1.7-0.2-2.4-0.6
		c-0.7-0.4-1.3-1-1.6-1.7c-0.4-0.7-0.6-1.5-0.6-2.3c0-0.9,0.2-1.7,0.6-2.4c0.4-0.7,0.9-1.3,1.6-1.6c0.7-0.4,1.5-0.6,2.4-0.6
		c0.9,0,1.6,0.2,2.3,0.6s1.3,1,1.7,1.7C86,48.4,86.2,49.2,86.2,50z M81.6,53c0.5,0,1-0.1,1.4-0.4c0.4-0.3,0.8-0.6,1-1.1
		c0.2-0.5,0.4-0.9,0.4-1.5c0-0.5-0.1-1-0.4-1.5c-0.2-0.5-0.6-0.8-1-1.1c-0.4-0.3-0.9-0.4-1.4-0.4c-0.5,0-1,0.1-1.4,0.4
		s-0.8,0.6-1,1.1c-0.2,0.5-0.4,0.9-0.4,1.5s0.1,1,0.4,1.5c0.2,0.5,0.6,0.8,1,1.1C80.6,52.9,81,53,81.6,53z"/>
</g>
</svg>
