<?xml version="1.0" encoding="utf-8"?>
<!-- Generator: Adobe Illustrator 21.1.0, SVG Export Plug-In . SVG Version: 6.00 Build 0)  -->
<svg version="1.1" id="Capa_1" xmlns="http://www.w3.org/2000/svg" xmlns:xlink="http://www.w3.org/1999/xlink" x="0px" y="0px"
	 viewBox="0 0 437.6 437.6" style="enable-background:new 0 0 437.6 437.6;" xml:space="preserve">
<style type="text/css">
	.st0{fill:#1C4ABA;}
</style>
<path class="st0" d="M218.8,0C98,0,0,98,0,218.8s98,218.8,218.8,218.8s218.8-98,218.8-218.8S339.6,0,218.8,0z M192.4,126
	c0.4-1.6,0.8-3.2,1.6-4.8c0.8-1.6,1.6-3.2,2.4-4.4s2-2.4,3.2-3.6c1.2-1.2,2.4-2,4-3.2c1.2-0.8,2.8-1.6,4.4-2.4h0.4
	c1.6-0.8,3.2-1.2,4.8-1.6c1.6-0.4,3.6-0.4,5.2-0.4c1.6,0,3.2,0,5.2,0.4c1.6,0.4,3.2,0.8,4.8,1.6c1.6,0.8,2.8,1.6,4.4,2.4
	c1.6,1.2,2.8,2,4,3.2c0.4,0.4,0.4,0.4,0.8,0.8c2,2,3.6,4.4,4.8,7.2c0.8,2,1.2,3.6,1.6,5.2c0.4,1.6,0.4,3.6,0.4,5.2s0,3.6-0.4,5.2
	c-0.4,1.6-0.8,3.6-1.6,5.2c-0.4,0.4-0.4,0.4-0.4,0.8c-0.4,1.6-1.2,2.8-2,4s-1.6,2.4-2.8,3.6l-0.4,0.4c-1.2,1.2-2.4,2.4-3.6,3.2
	c-1.6,1.2-3.2,2-4.8,2.8H228c-1.2,0.8-2.8,1.2-4.4,1.6c-1.6,0.4-3.6,0.4-5.2,0.4c-1.6,0-3.2,0-5.2-0.4s-3.6-0.8-5.2-1.6
	c-2-0.4-3.6-1.6-4.8-2.4c-1.6-1.2-2.8-2.4-4-3.6c-0.8-1.2-2-2.4-2.8-3.6s-1.6-2.8-2.4-4.4c-0.4-1.6-1.2-3.2-1.6-6.4
	c-0.4-1.6-0.4-3.6-0.4-5.2C192,129.6,192,128,192.4,126z M260,321.6c0,6-4.8,10.4-10.4,10.4H188c-6,0-10.4-4.8-10.4-10.4V300
	c0-6,4.8-10.4,10.4-10.4h8.4v-66.4H188c-6,0-10.4-4.8-10.4-10.4v-21.6c0-6,4.8-10.4,10.4-10.4h42c6,0,10.4,4.8,10.4,10.4v98h9.2
	c5.6,0,10.4,4.8,10.4,10.8V321.6z"/>
</svg>
