<?xml version="1.0" encoding="utf-8"?>
<!-- Generator: Adobe Illustrator 21.1.0, SVG Export Plug-In . SVG Version: 6.00 Build 0)  -->
<svg version="1.1" id="Layer_1" xmlns="http://www.w3.org/2000/svg" xmlns:xlink="http://www.w3.org/1999/xlink" x="0px" y="0px"
	 viewBox="0 0 100 100" style="enable-background:new 0 0 100 100;" xml:space="preserve">
<style type="text/css">
	.st0{fill:#333333;}
	.st1{fill:none;stroke:#333333;stroke-miterlimit:10;}
</style>
<g>
	
		<ellipse transform="matrix(2.056765e-02 -0.9998 0.9998 2.056765e-02 -37.2568 61.9689)" class="st0" cx="13" cy="50" rx="3.8" ry="3.8"/>
	
		<ellipse transform="matrix(2.056765e-02 -0.9998 0.9998 2.056765e-02 35.2212 135.9532)" class="st0" cx="87" cy="50" rx="3.8" ry="3.8"/>
</g>
<circle class="st1" cx="50" cy="50" r="36.6"/>
<g>
	<ellipse transform="matrix(0.8761 -0.4821 0.4821 0.8761 -30.7982 17.1421)" class="st0" cx="18" cy="68.5" rx="3.8" ry="3.8"/>
	<ellipse transform="matrix(0.8761 -0.4821 0.4821 0.8761 -5.0226 43.4535)" class="st0" cx="82" cy="31.5" rx="3.8" ry="3.8"/>
</g>
<g>
	<ellipse transform="matrix(0.5177 -0.8556 0.8556 0.5177 -55.0003 66.5189)" class="st0" cx="31.5" cy="82" rx="3.8" ry="3.8"/>
	<ellipse transform="matrix(0.5177 -0.8556 0.8556 0.5177 17.6738 67.2663)" class="st0" cx="68.5" cy="18" rx="3.8" ry="3.8"/>
</g>
<g>
	
		<ellipse transform="matrix(2.056765e-02 -0.9998 0.9998 2.056765e-02 -38.01 135.2)" class="st0" cx="50" cy="87" rx="3.8" ry="3.8"/>
	
		<ellipse transform="matrix(2.056765e-02 -0.9998 0.9998 2.056765e-02 35.9744 62.722)" class="st0" cx="50" cy="13" rx="3.8" ry="3.8"/>
</g>
<g>
	<ellipse transform="matrix(0.8761 -0.4821 0.4821 0.8761 -31.0661 43.1856)" class="st0" cx="68.5" cy="82" rx="3.8" ry="3.8"/>
	<ellipse transform="matrix(0.8761 -0.4821 0.4821 0.8761 -4.7547 17.41)" class="st0" cx="31.5" cy="18" rx="3.8" ry="3.8"/>
</g>
<g>
	<ellipse transform="matrix(0.5177 -0.8556 0.8556 0.5177 -19.037 103.2296)" class="st0" cx="82" cy="68.5" rx="3.8" ry="3.8"/>
	<ellipse transform="matrix(0.5177 -0.8556 0.8556 0.5177 -18.2895 30.5556)" class="st0" cx="18" cy="31.5" rx="3.8" ry="3.8"/>
</g>
</svg>
