<?xml version="1.0" encoding="utf-8"?>
<!-- Generator: Adobe Illustrator 21.1.0, SVG Export Plug-In . SVG Version: 6.00 Build 0)  -->
<svg version="1.1" id="Layer_1" xmlns="http://www.w3.org/2000/svg" xmlns:xlink="http://www.w3.org/1999/xlink" x="0px" y="0px"
	 viewBox="0 0 100 100" style="enable-background:new 0 0 100 100;" xml:space="preserve">
<style type="text/css">
	.st0{fill:#333333;}
</style>
<g>
	<g transform="translate(0.000000,511.000000) scale(0.100000,-0.100000)">
		<path class="st0" d="M660.6,4913.4c-1.1-0.4-26.7-15.1-57-32.6s-85.8-49.6-123.3-71.2s-96.2-55.6-130.6-75.4
			c-34.4-19.8-64.8-37.2-67.3-38.6l-4.8-2.4l69.4-34.4l69.4-34.3l47.8-83c26.3-45.7,50.7-87.5,54.2-93c9.9-15.5,20.9-25.3,37.2-33.6
			c20.9-10.5,50.1-11.4,72.2-2.1c3.5,1.5,44,24.3,89.9,50.7c81,46.5,83.9,48.5,95,59.3c12.8,12.7,19.8,25.1,23.9,42.1
			c3,13.5,2.1,36-2.3,48.5c-1.7,5-19.7,37.7-40.3,73.7c-20.5,35.5-55.1,95.2-76.7,132.7c-21.6,37.5-42.7,74-46.9,81.2
			C665.2,4909.9,662.1,4913.9,660.6,4913.4z"/>
		<path class="st0" d="M265.5,4633c-0.9,0-3.9-5-20.8-33.7c-41-69.8-71-132.4-79.8-166.7c-9.1-35.1,1-69.8,28.1-96.6
			c9.1-9,14-12.7,24.7-18c18.3-9.2,28.1-11.4,47.8-11.4c19.5,0,29.2,2.2,47.6,11.2c10.8,5.4,15.4,8.7,24.7,18
			c20.2,20,30.1,41.6,31.2,68.3c0.6,12.5,0.1,16.7-2.8,28.2c-9.6,36.6-41.9,103.1-86.4,177.8C272.3,4622.8,265.9,4633,265.5,4633z"
			/>
	</g>
</g>
</svg>
