<?xml version="1.0" encoding="utf-8"?>
<!-- Generator: Adobe Illustrator 21.1.0, SVG Export Plug-In . SVG Version: 6.00 Build 0)  -->
<svg version="1.1" id="Layer_1" xmlns="http://www.w3.org/2000/svg" xmlns:xlink="http://www.w3.org/1999/xlink" x="0px" y="0px"
	 viewBox="0 0 100 100" style="enable-background:new 0 0 100 100;" xml:space="preserve">
<style type="text/css">
	.st0{fill:#333333;}
</style>
<g>
	<path class="st0" d="M64.9,56.1c10,10,16,4.1,17,6.9c0.3,2.3-0.1,4.8-2.7,7.4c-7.9,7.9-20.7,7.9-28.6,0c-4-4-4-10.4,0-14.3
		C54.5,52.2,60.9,52.2,64.9,56.1z"/>
	<path class="st0" d="M52.5,49.6c-1.9,0.7-3.7,1.8-5.1,3.3c-1.5,1.5-2.6,3.3-3.3,5.2l-8-8l8.5-8.5C47.6,44.6,50.4,47.5,52.5,49.6z"
		/>
	<path class="st0" d="M19.7,25.4c2.3-2.3,6.1-2.3,8.5,0c0.9,0.9,8.2,8.2,15.4,15.4l-8.5,8.5L19.7,33.9
		C17.4,31.5,17.4,27.7,19.7,25.4z"/>
</g>
</svg>
