<?xml version="1.0" encoding="utf-8"?>
<!-- Generator: Adobe Illustrator 23.0.1, SVG Export Plug-In . SVG Version: 6.00 Build 0)  -->
<svg version="1.1" id="Layer_1" xmlns="http://www.w3.org/2000/svg" xmlns:xlink="http://www.w3.org/1999/xlink" x="0px" y="0px"
	 viewBox="0 0 33 33" style="enable-background:new 0 0 33 33;" xml:space="preserve">
<style type="text/css">
	.st0{fill:url(#Path_304_1_);}
	.st1{fill:#2B2728;}
</style>
<g id="Group_2866" transform="translate(0 0)">
	
		<linearGradient id="Path_304_1_" gradientUnits="userSpaceOnUse" x1="-645.2824" y1="383.2501" x2="-645.2824" y2="383.9971" gradientTransform="matrix(32.9416 0 0 -21.6802 21273.0977 8338.0791)">
		<stop  offset="0" style="stop-color:#C5342B"/>
		<stop  offset="0.127" style="stop-color:#CC362F"/>
		<stop  offset="1" style="stop-color:#FB4047"/>
	</linearGradient>
	<path id="Path_304" class="st0" d="M32.9,11.5C32.7,13,32,14.4,31,15.6c-0.3,0.3-0.6,0.6-0.9,0.9c-0.2,0.2-0.4,0.5-0.7,0.6
		c-2,1.6-4.4,2.7-7,3.3c-2.4,0.6-4.9,0.8-7.4,0.7c-2.9-0.1-5.8-0.8-8.4-2.1c-1.4-0.6-2.7-1.5-3.8-2.6l-0.1,0c-1,0.9-1.7,2-2.2,3.3
		c-0.2,0.6-0.4,1.3-0.5,2c0,0.2,0,0.4,0,0.6c0,1.6,0.5,3.2,1.5,4.5c1.3,1.6,2.9,3,4.8,3.9c2.8,1.4,5.8,2.1,8.9,2.2
		c1.7,0.1,3.3,0,4.9-0.2c2.3-0.3,4.6-1,6.7-2.1c1.8-0.9,3.4-2.2,4.6-3.8c1-1.3,1.5-3,1.5-4.6c0-1.6,0-3.2,0-4.8v-6.1
		C32.9,11.3,32.9,11.4,32.9,11.5"/>
	<g>
		<path id="Path_303" class="st1" d="M16.4,0c-3,0-5.9,0.5-8.7,1.6c-2.1,0.8-3.9,2-5.4,3.6C0.8,6.8,0,8.9,0,11.1c0,3,0,6,0,8.9
			c0,0.6,0,1.2,0,1.8c0.1-0.7,0.3-1.3,0.5-2c0.5-1.2,1.3-2.3,2.2-3.3l0.1,0c1.5-1.4,3.3-2.5,5.3-3.2c3.2-1.2,6.5-1.6,9.9-1.4
			c2.7,0.1,5.3,0.7,7.8,1.8c1.6,0.7,3.1,1.6,4.3,2.8c0.3-0.3,0.6-0.6,0.9-0.9c1-1.2,1.7-2.6,1.9-4.1c0-0.1,0-0.1,0-0.2
			c0-0.2,0-0.3,0.1-0.4c0-0.6,0-1-0.1-1.5c-0.3-1.6-1-3-2.2-4.2c-1.6-1.6-3.5-2.9-5.6-3.7c-2.5-1-5.2-1.5-7.9-1.6
			c-0.2,0-0.5,0-0.7,0H16.4z"/>
		<path id="Path_303_1_" class="st1" d="M16.6,0c2.9,0,5.9,0.5,8.6,1.6c2,0.8,3.9,2,5.4,3.6C32.1,6.8,33,8.9,33,11c0,3,0,6,0,8.9
			c0,0.6,0,1.2,0,1.8c-0.1-0.7-0.3-1.3-0.6-2c-0.5-1.2-1.3-2.3-2.2-3.3l-0.1,0c-1.5-1.4-3.3-2.5-5.3-3.2c-3.1-1.2-6.5-1.6-9.8-1.4
			c-2.7,0.1-5.3,0.7-7.7,1.8c-1.6,0.7-4,1.6-5.3,2.8c-0.3-0.3,0.4-0.6,0.1-0.9c-1-1.2-1.7-2.6-1.9-4.1c0-0.1,0-0.1-0.1-0.1
			c0-0.1,0-0.3,0-0.4c0-0.5,0,0,0.1-0.5c0.3-1.6,1-4,2.1-5.2c1.6-1.6,3.4-2.9,5.5-3.7c2.5-1,5.2-1.5,7.9-1.6c0.2,0,0.5,0,0.7,0H16.6
			z"/>
	</g>
</g>
</svg>
