<svg xmlns="http://www.w3.org/2000/svg" viewBox="0 0 52 52">
    <defs>
        <style>
            .cls-1{fill:url(#linear-gradient)}.cls-2{fill:url(#linear-gradient-2)}
        </style>
        <linearGradient id="linear-gradient" x1=".5" x2=".5" y1="-.666" y2=".827" gradientUnits="objectBoundingBox">
            <stop offset="0" stop-color="#404548"/>
            <stop offset=".303" stop-color="#333437"/>
            <stop offset=".699" stop-color="#272526"/>
            <stop offset="1" stop-color="#231f20"/>
        </linearGradient>
        <linearGradient id="linear-gradient-2" x1=".5" x2=".5" y1=".822" y2=".075" gradientUnits="objectBoundingBox">
            <stop offset="0" stop-color="#c5342b"/>
            <stop offset=".127" stop-color="#cc362f"/>
            <stop offset="1" stop-color="#fb4047"/>
        </linearGradient>
    </defs>
    <g id="Group_234" data-name="Group 234" transform="translate(.005)">
        <path id="Path_303" d="M25.856 0a36.244 36.244 0 0 0-13.637 2.545 23.28 23.28 0 0 0-8.573 5.636A12.883 12.883 0 0 0 0 17.433c.067 4.685.02 9.394.02 14.079 0 .951 0 1.9.024 2.854a14.569 14.569 0 0 1 .776-3.139 14.911 14.911 0 0 1 3.533-5.137l.141-.071a23.98 23.98 0 0 1 8.361-5.066A37.551 37.551 0 0 1 28.4 18.741a35.3 35.3 0 0 1 12.27 2.854 23.778 23.778 0 0 1 6.806 4.4 7.224 7.224 0 0 0 1.39-1.427 12.472 12.472 0 0 0 2.967-6.468c0-.1 0-.19.118-.214a1.277 1.277 0 0 1 0-.666 7.188 7.188 0 0 0-.165-2.354 12.818 12.818 0 0 0-3.391-6.612 23.543 23.543 0 0 0-8.808-5.779A36.207 36.207 0 0 0 27.1.024C26.727 0 26.374 0 26.044 0z" class="cls-1" data-name="Path 303"/>
        <path id="Path_304" d="M51.814 75.238a12.472 12.472 0 0 1-2.968 6.469 8.8 8.8 0 0 1-1.39 1.427 4.923 4.923 0 0 1-1.083 1.023 28.188 28.188 0 0 1-10.952 5.232 38.387 38.387 0 0 1-11.635 1.094 35 35 0 0 1-13.306-3.259 22.37 22.37 0 0 1-6.006-4.067l-.141.071A14.6 14.6 0 0 0 .8 88.366a14.569 14.569 0 0 0-.777 3.139 3.065 3.065 0 0 1-.023.928A11.874 11.874 0 0 0 2.4 99.5a20.56 20.56 0 0 0 7.489 6.088 34.091 34.091 0 0 0 13.99 3.52 38.856 38.856 0 0 0 7.8-.357A33.473 33.473 0 0 0 42.2 105.49a20.074 20.074 0 0 0 7.325-6.017 11.864 11.864 0 0 0 2.379-7.278c-.024-2.521 0-5.042 0-7.587V75c-.094.048-.071.166-.094.238" class="cls-2" data-name="Path 304" transform="translate(-.004 -57.163)"/>
    </g>
</svg>
