<?xml version="1.0" encoding="utf-8"?>
<!-- Generator: Adobe Illustrator 23.0.1, SVG Export Plug-In . SVG Version: 6.00 Build 0)  -->
<svg version="1.1" id="Layer_1" xmlns="http://www.w3.org/2000/svg" xmlns:xlink="http://www.w3.org/1999/xlink" x="0px" y="0px"
	 viewBox="0 0 213 53" style="enable-background:new 0 0 213 53;" xml:space="preserve">
<style type="text/css">
	.st0{fill:#9D8640;}
</style>
<path class="st0" d="M152.1,39.1c-0.5,0.1-1.7,0.2-2.8-0.1c-0.4-0.1-0.6-0.2-0.8-0.3c-0.5-0.4-0.8-0.9-0.8-1c-0.4-0.9-0.1-1.8,0-2
	c0.2-0.4,0.5-1.1,1.1-1.6c0.3-0.2,1.1-1,2.3-1c0.3,0,0.8,0,1.3,0.3c0.7,0.4,0.9,1.2,1,1.7C153.6,36.9,152.5,38.6,152.1,39.1
	 M148.4,43.7c-3,2.7-4.8,2.9-5.4,2.9c-0.3,0-1.2,0-1.7-0.5c-0.3-0.3-0.4-0.7-0.4-0.8c-0.4-1.9,1.6-4.6,2-5.1c0.8-1,2.4-2.5,4.1-3.9
	c0,0.2-0.1,1.8,1,2.7c0.5,0.4,1,0.6,1.1,0.6c0.5,0.2,0.9,0.2,1.3,0.2c0.4,0,0.8,0,1.4-0.1C150.6,41.4,149.3,42.9,148.4,43.7
	 M106.8,38.2c-0.5,0.1-1.7,0.2-2.8-0.1c-0.4-0.1-0.6-0.2-0.8-0.3c-0.5-0.4-0.8-0.9-0.8-1c-0.4-0.9-0.1-1.8,0-2
	c0.2-0.4,0.5-1.1,1.1-1.6c0.3-0.2,1.1-1,2.3-1c0.3,0,0.8,0,1.3,0.3c0.7,0.4,0.9,1.2,1,1.7C108.3,36,107.2,37.6,106.8,38.2
	 M103.1,42.8c-3,2.7-4.8,2.9-5.4,2.9c-0.3,0-1.2,0-1.7-0.5c-0.3-0.3-0.4-0.7-0.4-0.8c-0.4-1.9,1.6-4.6,2-5.1c0.8-1,2.4-2.5,4.1-3.9
	c0,0.2-0.1,1.8,1,2.7c0.5,0.4,1,0.6,1.1,0.6c0.5,0.2,0.9,0.2,1.3,0.2s0.8,0,1.4-0.1C105.3,40.5,104,41.9,103.1,42.8 M59.5,31.1
	c0.1-0.9,0.5-1.5,1.1-2.2c0.7-0.9,1.3-1.2,1.6-1.3c0.2-0.1,0.7-0.3,0.8-0.1c0.1,0.1-0.1,0.5-0.2,0.7c-0.8,1.3-1.5,2.1-2.4,3.1
	c-0.2,0.2-0.4,0.5-0.8,0.9C59.5,32.1,59.4,31.9,59.5,31.1 M36.9,42.5c-0.7,0.4-1.2,0.7-1.9,0.9c-0.9,0.4-1.3,0.5-1.5,0.5
	c-0.4,0.1-1,0.2-1.7,0c-0.2-0.1-0.7-0.2-1-0.5c-1-0.9-0.5-2.8-0.4-3.3c0.3-1.2,0.9-1.9,1.6-2.8c0.3-0.3,1.3-1.5,2.9-2.6
	c1-0.7,1.9-1.1,2.7-1.4c1.4-0.6,2.4-0.6,3.2-0.7c1.7,0,3,0.6,3,0.6s-1.3,1.5-2.4,3.1c-1,1.6-1.8,3.5-2.1,4.6
	C38.3,41.6,37.5,42.1,36.9,42.5 M93.8,11.8c0.3-0.1,1-0.3,1.3,0l0,0c0.5,0.6-0.3,2.1-0.3,2.1c-2.7,5.6-8.6,10.7-8.6,10.7
	c-2,1.8-5,4-9.1,6C77,30.7,88.6,13.8,93.8,11.8 M183.2,12.3c0.3-0.1,1-0.3,1.3,0l0,0c0.5,0.6-0.3,2.1-0.3,2.1
	c-2.7,5.6-8.6,10.7-8.6,10.7c-2,1.8-4.9,4-9.1,6C166.5,31.2,178.1,14.3,183.2,12.3 M189.6,41.2c-0.2,0.1-0.5,0.3-0.9,0.8
	c-0.3,0.3-1.2,1.4-2.2,2.2c-0.6,0.5-1.2,0.9-1.7,1.2c-0.8,0.4-1.4,0.7-2.7,0.9c-0.6,0.1-1.5,0.2-2.2-0.4c-0.1-0.1-0.4-0.3-0.5-0.7
	c0,0-0.2-0.4-0.1-0.9c0.3-2.5,3.4-7.2,3.4-7.2c1.5-2,2.1-2.9,1.8-3.4c-0.2-0.3-0.9-0.4-1.4-0.1c-0.5,0.3-0.9,0.8-1.2,1.5
	c-2.4,2.9-8.1,8.9-13,13.1c-1.8,1.5-4.3,2.5-5,1c-0.8-1.8,0.5-5.8,0.6-7.9c0-0.3,0.1-0.7-0.3-1.1c-0.3-0.3-0.8-0.4-0.8-0.4
	c2.5-0.6,4.1-1.7,5-2.4c2-1.6,2.3-2.9,2.3-3.3c0-0.1,0-0.4-0.2-0.7c-0.2-0.2-0.6-0.3-1-0.3c-1.2,0-2.4,0.8-3,1.1
	c-0.6,0.4-1.5,1.1-2.4,2c0,0,0.9-1.7,1-2l1.1-2c0.1-0.1,0.2-0.5,0.3-0.5c1.9-1,2.3-1.2,5.5-3.2c1.6-1,2.7-2,3.1-2.3
	c0.7-0.6,1.2-1,1.5-1.3c0.6-0.5,1.7-1.6,3-3c0.1-0.1,0.6-0.6,1.1-1.3c0.7-0.8,1.5-1.9,2.6-3.4c2.3-3.2,2.2-4.3,1.8-5
	c-0.1-0.2-0.4-0.4-0.6-0.5c-1.8-0.4-3.8,1.3-4,1.4l0,0c-5.4,3.5-13.5,15.7-13.5,15.7c-1,1.4-2.1,3.6-3.4,6c-1.7,1-4.1,2.1-5,2.5
	c-1.1,0.5-2.4,1-4,1.4c-0.6,0.2-1.2,0.3-1.6,0.3c0.5-0.7,0.8-1.4,0.9-1.8c0.1-0.3,0.3-0.8,0.3-1.4c0-0.4,0-0.8-0.2-1.4
	c-0.1-0.3-0.3-0.8-0.8-1.3c-0.8-0.7-1.7-0.7-2-0.6c-0.2,0-0.7,0-1.3,0.4c-1.4,0.7-2,1.6-2.4,2.3c0,0-4.3,2.1-6.4,5.6
	c-0.3,0.5-0.5,1-0.7,1.4l-1.7,1.6c-1.6,1.5-3.1,2.7-4.2,3.6c0,0-3.7,3-5.5,2.7c-0.8-0.1-1.2-0.5-1.2-0.5c-0.2-0.2-0.3-0.5-0.4-0.7
	c0,0-0.1-0.4,0-0.9c0.2-1.1,2.2-3.6,2.8-4.4c0.7-1,2.2-3.4,1.6-4.1c-0.2-0.2-1.5-1.1-5.7,1.4c0.3-0.4,2.5-4.2,1.7-5.6
	c-0.1-0.3-0.4-0.4-0.4-0.4c-0.5-0.4-1.3-0.5-2.6-0.2c-1.9,0.5-5,2.7-5,2.7c0.4-0.6,1.6-2.6,1.6-3.9c0-0.3-0.1-0.5-0.2-0.7
	c-0.2-0.2-0.8-0.4-1.6,0c-0.4,0.2-1.9,1.1-2.7,1.5l0,0c-1.5,0.9-2.9,1.6-4,2.1c-0.9,0.4-2.1,0.9-3.8,1.3c-0.6,0.2-1.2,0.3-1.6,0.3
	c0.5-0.7,0.8-1.4,0.9-1.8c0.1-0.3,0.3-0.8,0.3-1.4c0-0.4,0-0.8-0.2-1.4c-0.1-0.3-0.3-0.8-0.8-1.3c-0.8-0.7-1.7-0.7-2-0.6
	c-0.2,0-0.7,0-1.3,0.4c-1.4,0.7-1.8,1.5-2.1,2.2c0,0-4.6,2.2-6.6,5.7c-0.2,0.3-0.3,0.6-0.5,1c-1.1,1-3.1,2.9-3.3,3.1
	c-1.5,1.4-3,2.8-4.8,4.4c0,0-4.9,4.3-7.2,4.2c-0.2,0-0.8,0-1.1-0.4c-0.3-0.3-0.3-0.8-0.3-1c0.1-2.1,3.1-6.3,3.1-6.3
	c1.8-2.6,2.9-4.6,3.5-6.9c0.4-1.5,0.4-2.5-0.1-3c-0.7-0.7-2.4-0.5-2.7-0.4c-0.9,0.2-1.5,0.3-3.2,1.2c-2.3,1.2-3.8,2.5-4.1,2.8
	c-0.8,0.7-1.8,1.6-2.8,2.9c0,0,1.5-3.2,1.7-3.5l3.2-6.1c0.1-0.1,0.2-0.5,0.3-0.5c1.9-1,2.3-1.2,5.5-3.2c1.6-1,2.7-2,3.1-2.3
	c0.7-0.6,1.2-1,1.5-1.3c0.6-0.5,1.7-1.6,3-3c0.1-0.1,0.6-0.6,1.1-1.3c0.7-0.8,1.5-1.9,2.6-3.4c2.3-3.2,2.2-4.3,1.8-5
	c-0.1-0.2-0.4-0.4-0.6-0.5c-1.8-0.4-3.8,1.3-4,1.4l0,0C86,16.2,77.9,28.4,77.9,28.4c-1.5,2.1-4.4,8.1-6.6,12.5c-1.3,1-2.3,1.8-3,2.3
	c-0.4,0.3-1,0.8-1.9,1.3c-1.2,0.8-2,1.1-2.2,1.2c0,0-2.2,0.9-3,0.5c-0.1-0.1-0.2-0.1-0.2-0.1s-0.4-0.3-0.5-0.9
	c-0.2-0.9,0.9-2.8,1.3-3.5c0.4-0.6,0.9-1.4,1.6-2.4c0.1-0.1,0.2-0.3,0.3-0.4c0.4-0.6,0.7-1.2,0.8-1.6c0.1-0.3,0.2-0.7,0.3-1.1
	c0.1-0.5,0-0.8,0-0.8c0-0.1-0.1-0.4-0.3-0.7c-0.2-0.3-0.4-0.4-0.5-0.5c-0.6-0.5-1.2-0.6-1.9-0.9c-0.3-0.1-0.7-0.3-1.3-0.7
	c0.4-0.5,0.8-1,1.3-1.6c0.4-0.5,0.8-1,1.2-1.5c0,0,1-1.1,1-2s-1-0.5-1.4-0.3c0,0-1.9,1-2.6,3.3c-0.3,1-0.2,1.6,0.1,2.1
	c-0.7,0.8-2.2,2.5-3.1,3.4l0,0c-2,2.3-3.8,4.3-5.3,5.9c-0.8,0.8-1.5,1.4-1.9,1.8c-1.3,1.2-1.9,1.6-2.4,2c-0.1,0.1-0.4,0.3-0.9,0.6
	c-0.8,0.5-1.5,0.9-2.5,1.3C43.2,48,42.6,48,42,47.9c-0.1,0-0.2-0.1-0.2-0.1c-0.8-0.2-1.9-1.2-1.7-2.9s1.2-3.8,1.9-5.2
	c0.9-1.8,3.3-5.1,3.8-5.9c0,0,0.5-0.6-0.2-0.9c-0.2-0.1-0.5,0.1-0.5,0.1s-1.3-1.2-4.6-0.9c-1.3,0.1-2.3,0.4-3.1,0.7
	c-0.6,0.2-2,0.8-3.6,2.1c-0.9,0.7-2,1.6-2.8,3.2c-0.2,0.5-0.4,0.9-0.5,1.3c0,0.1-0.2,0.7-0.2,1.2c-0.1,1.1,0.3,2.8,1.6,3.6
	c0.3,0.2,0.7,0.3,0.7,0.3c0.5,0.1,0.9,0.1,1.2,0.1c0.5,0,0.9-0.1,1.3-0.2c0.8-0.2,1.5-0.6,2-0.8c0.7-0.4,1.8-1,2.9-1.8
	c0,0-0.9,2.9-0.2,4.7c0.1,0.3,0.3,0.7,0.6,1c0.1,0.1,0.2,0.2,0.4,0.4c0.6,0.4,1.2,0.6,1.4,0.6c1.3,0.2,2.7-0.5,3.8-1
	c1-0.5,1.6-1,1.8-1.1c2.2-1.5,3.6-3,4.4-3.9c1.5-1.5,3.3-3.5,5.3-5.9l0,0c0,0,1.6-1.9,3.1-3.6c0.7,0.4,0.7,0.4,0.9,0.6
	c1.5,0.8,1.9,1.2,2,1.4c0.1,0.1,0.1,0.2,0.1,0.3c0.3,1-0.2,2.1-1.1,3.8c-0.3,0.6-0.7,1.2-1.5,2.6c-0.4,0.7-1,1.7-1.2,2.9
	c0,0.4-0.1,0.8,0.1,1.2c0.1,0.1,0.2,0.6,0.7,0.9c0.9,0.7,2.1,0.4,2.8,0.2c0.5-0.1,0.9-0.3,1.7-0.7c0.6-0.3,1.1-0.6,1.6-0.9
	c0.7-0.4,1.1-0.7,1.3-0.8c0,0,1.3-1,2.4-1.8c0.3-0.2,0.6-0.4,0.8-0.6c-1.4,2.8-2.3,4.9-2.3,4.9h1c1.6-3.2,3.4-5.4,4.7-6.6
	c1.2-1.2,2.2-2,3.1-2.6c1.4-1,3-1.8,4.8-2.3c1.7-0.5,2.2-0.2,2.3,0c0.4,0.4,0.2,1.1,0,1.8c-0.7,2.4-1.9,4.2-2.2,4.7
	c0,0-2.1,3-4.1,6.6c-0.3,0.5-0.8,1.4-0.7,2.6c0,0.3,0.1,1.3,0.9,1.9c0.8,0.6,1.8,0.5,2.4,0.4c0.7-0.1,1.3-0.4,2.3-1
	c1.1-0.6,1.9-1.2,1.9-1.2c3.2-2.3,7.6-6.6,7.6-6.6c1.1-1,2-1.9,2.8-2.7c-0.7,2.4,0.4,3.8,0.4,3.8s1.3,1.6,4.2,0.5
	c2.9-1.1,6.4-4.7,7.8-7.2c3.3-0.6,5.5-1.5,6.9-2.3c0.3-0.2,1.1-0.6,3-1.6l0,0c2.1-1.2,3.1-1.8,3.4-1.5c0.2,0.2-0.1,0.9-0.5,1.8
	c-1.5,2.7-3.5,5.8-6.7,10.4c-0.2,0.3,0.8,0.5,1.3,0.3c0.5-0.3,4.4-6.3,5.2-7.3c0,0,3-2.7,5.3-3s1.2,2.5,1,3.2
	c-0.3,0.7-1.6,3.2-2.9,5c-0.6,0.9-1.2,1.3-1,1.7c0,0.1,0.2,0.1,0.4,0.2c0.5,0.1,1.1-0.9,1.4-1.3c0.1-0.1,0.4-0.5,0.8-0.9
	c0.4-0.5,0.8-0.8,1.2-1.2c0.2-0.2,0.4-0.3,0.4-0.3c0.4-0.3,0.7-0.5,1-0.6c1.1-0.6,1.6-0.9,2.2-1c0.3-0.1,0.9-0.2,1,0.1
	c0.1,0.1,0,0.3-0.1,0.6c-0.4,0.8-0.7,1.2-0.7,1.2c-0.4,0.6-0.9,1.2-1.3,1.8c-1,1.4-2,2.7-2,4.4c0,0.4,0,1.1,0.5,1.7
	c0.6,0.8,1.5,0.9,1.6,0.9c0.4,0.1,0.8,0,0.9,0c1.2-0.1,3-0.9,6.4-3.7c1.2-1,2.7-2.3,4.3-3.9c-0.4,2.1,0.5,3.3,0.5,3.3
	s1.3,1.6,4.2,0.5s6.4-4.7,7.8-7.2c3.3-0.6,5.3-1.5,6.9-2.3c0.3-0.1,2.1-0.9,3.7-1.8c-1.9,3.7-3.9,8-5.6,11.4c-0.1,0.2,0.9,0.3,1,0.1
	c1.8-3.1,2.8-5.7,3.8-7.5c0.6-1.1,1.7-2.9,3.3-4c0.8-0.6,1.5-1,1.9-1.3c0.5-0.3,1-0.5,1.5-0.4c0.3,0.1,0.4,0.3,0.5,0.4
	c0.2,0.3-0.1,1.3-0.7,2c-0.7,0.7-1.6,1.4-3,2.2c-1.2,0.6-2.6,1.1-3.5,1.3v0.1c0,0,1,0.2,1.4,0.5c0.6,0.6,0.2,2.4-0.1,4
	c-0.5,2.8-0.8,4.2-0.3,5.4c0.8,1.6,3,0.8,3.9,0.3c2.7-1.6,4.8-3.7,5.7-4.6c5.4-5.2,6.4-6.3,8.5-8.9c-0.2,0.6-0.5,1.3-0.9,2.1
	c-0.1,0.1-0.4,0.9-0.6,1.3c-0.3,0.7-0.5,1.2-0.8,1.9c-0.6,1.5-0.6,3.4,0.5,4.2c0.7,0.5,1.6,0.6,2.7,0.5c1.6-0.3,3.5-0.6,6.6-4.1
	c0,0,1.2-1.2,1.2-1.3C189.8,41.1,189.7,41.2,189.6,41.2"/>
<path class="st0" d="M40.6,26.5c0,0,1.8-2.8,2.3-3.8s1.1-2.9,1.5-3c0.3-0.1,0.5,0.7,0.4,0.9C44.3,22.4,40.6,26.5,40.6,26.5"/>
<path class="st0" d="M196.3,31.9c0,0,1.7-2.6,2.1-3.6c0.4-0.9,1.1-2.7,1.4-2.8c0.3-0.1,0.5,0.6,0.4,0.9
	C199.9,28,196.3,31.9,196.3,31.9"/>
<path class="st0" d="M187.8,28.5c0.3-0.2,0.4-0.6,0.4-1c-0.1-0.5-0.5-0.7-0.5-0.7c-0.3-0.2-0.7-0.2-1.1,0.1
	c-0.4,0.3-0.5,0.8-0.4,1.2C186.4,28.6,187.3,28.8,187.8,28.5"/>
<path class="st0" d="M197.3,47c-0.4,0.1-1.1,0.4-1.6,0.1c0,0-0.1-0.1-0.2-0.2c-0.2-0.5,0.3-1.2,0.6-1.5c1.1-1.4,4.1-2.2,4.8-2.3
	C200.3,44.4,199,46.3,197.3,47 M211.2,38.4c-1.2,0.8-2.2,1.4-4.5,2.4c-1.1,0.5-2.5,1-4.3,1.6c0.1-0.4,0.2-1,0.4-1.6
	c0.1-0.3,0.4-1.2,1-2.4c0.7-1.3,1.3-2.6,2-3.8c0.1-0.1,0.2-0.4,0.1-0.5c-0.1-0.1-0.4,0-0.4,0s-1.8,0.6-3.2,1.2
	c-1.3,0.6-7.2,3.3-8.5,6.3c0,0-0.4,0.7-0.1,0.9s0.6-0.9,0.7-1c0.8-1.4,2-2.4,3.8-3.6c2.5-1.6,5.2-2.8,6.6-3.2c0,0-2.1,2.8-3.9,7.8
	c-0.5,0.1-1.3,0.3-2.2,0.7c-0.4,0.1-0.7,0.3-1,0.4c-0.8,0.4-1.7,0.9-2.2,1.8c-0.2,0.3-0.8,1.3-0.4,2c0.5,1,2.6,0.6,2.7,0.6
	c0.8-0.2,1.4-0.6,1.8-0.8c0.7-0.5,1.4-1.1,1.9-2.2c0,0,0.5-1,0.7-2.2c0,0,2.7-0.7,5.2-1.9c2.2-1.1,2.7-1.4,4-2.3
	c0.4-0.3,1.4-1.2,1.4-1.5l0,0C212.8,37,211.7,38.1,211.2,38.4"/>
<path class="st0" d="M16.3,10c-0.1-0.3-0.2-0.8-0.4-1.4c-0.3-0.9-1.6-2.3-3.9-1.9C9.7,7,7.1,9.6,7.1,9.6c-0.8,0.7-1.6,1.6-2.4,2.6
	c-0.4,0.5-0.8,1.1-1.1,1.6c-0.9,1.4-1.5,2.6-1.8,3.5c-0.2,0.5-1,2.8-0.4,4.3c0.1,0.3,0.3,0.5,0.5,0.7c0.7,0.5,1.6,0.1,1.6,0.1
	s1.7-0.7,3-2C7.8,19.1,8,17.9,8,17.9s0.1-0.6-0.5-0.4s-0.6,1-0.8,1.3c-0.4,1.1-1.7,2.5-3.3,3.1c-1.5,0.6-1.7-0.6-1.7-0.6
	c-0.3-1.4-0.1-2.2,0.1-3.1c0.1-0.5,0.5-1.9,2.2-4.4c0.8-1.2,2-2.9,3.8-4.5C8.2,9.1,9.4,8,10.9,7.4c0.4-0.2,1.2-0.5,1.7-0.5
	c0.6,0,1,0.3,1.1,0.4C14.8,8,14.9,9.5,15,9.7c0.3,3.1-0.4,6.1-0.9,7.8C12.7,22,8.6,33.6,6.4,38.6c-1.3,2.9-3.7,7.2-5.5,10
	c-0.6,1-1.5,1.8-0.2,1.7c2.6-0.2,6.1-3.4,8-5.3c-0.1-0.1-0.3,0.1-0.4,0c-2.2,2.3-4.5,3.5-4.5,3.5c-2,1.3-2.9,1.2-2.9,1.2
	s3-3.4,7.1-12c1.7-3.5,3-6.5,3.3-7.2c0.8-2,0.5-1.4,2.6-6.9c0.6-1.5,0.8-2.1,1.1-3.1c0.7-2.2,0.9-3.9,1.2-5.3
	C16.1,14.9,16.6,12,16.3,10"/>
<path class="st0" d="M52.9,0.6C52.7,0.3,52.2,0,51.6,0c-2.6,0.1-4.2,0.8-5.1,1.3c-4.1,2.1-6.1,4-6.1,4c-0.7,0.6-1.4,1.2-2.1,1.9
	c0.1,0.1,0.3,0.2,0.4,0.4c2.3-1.9,4.5-3.4,6.5-4.4c3.6-1.8,6.2-1.6,6.2-1.6C52.8,1.6,53,0.9,52.9,0.6"/>
<path class="st0" d="M32.8,25.2c0,0.2-0.1,0.3-0.2,0.4h-0.1c0-0.1,0-0.1,0-0.2c-0.1-0.7-0.4-1.3-0.9-1.8c-0.1-0.1-0.2-0.2-0.3-0.3
	c-0.1-0.2-0.3-0.3-0.5-0.4c-0.1-0.1-0.2-0.2-0.3-0.3c-0.1-0.2-0.3-0.3-0.5-0.4c-0.5-0.2-1-0.3-1.6-0.3c-0.1,0-0.2,0-0.3,0
	c-0.6,0-1.2,0.1-1.8,0.4l-0.1,0.1c0,0-0.1,0-0.1-0.1s0-0.1,0-0.2c0.1-0.2,0.1-0.5,0.1-0.7c0-0.5-0.2-0.9-0.6-1.2
	c-0.2-0.1-0.4-0.3-0.6-0.4c-0.3-0.2-0.4-0.4-0.4-0.7c0.1-0.6-0.3-0.9-0.9-0.7c-0.2,0.1-0.4,0.3-0.6,0.5c0,0.1-0.1,0.1-0.1,0.2
	c-0.1,0.3-0.2,0.3-0.4,0.1c-0.1-0.1-0.3-0.2-0.4-0.3c-0.2-0.2-0.5-0.3-0.8-0.3c-0.1,0-0.2,0-0.2-0.1c-0.1-0.1-0.1-0.1-0.2-0.2
	c-0.2-0.2-0.5-0.2-0.7,0c-0.1,0-0.1,0.1-0.2,0.1s-0.1,0-0.2,0c-0.1-0.1-0.1-0.1,0-0.2c0.2-0.2,0.5-0.4,0.8-0.5
	c0.1,0,0.2-0.1,0.3-0.1c0.5-0.1,0.9,0.1,1.2,0.4l0.1,0.1c0.1,0.1,0.2,0,0.2-0.1s0-0.2,0-0.2c0-0.2,0.1-0.4,0.3-0.4
	c0.4-0.1,0.7-0.1,1,0.2l0.1,0.1c0.3,0.3,0.6,0.4,1,0.5c0.2,0,0.4,0.1,0.6,0.2s0.3,0.2,0.3,0.5c0,0.4,0.2,0.5,0.5,0.5
	c0.2,0,0.3,0,0.5,0s0.4,0.1,0.6,0.2s0.3,0.3,0.3,0.6c0,0.4-0.1,0.7-0.3,1c-0.1,0.1-0.2,0.2-0.2,0.4v0.1c0,0.1,0.1,0,0.1,0
	s0.1,0,0.1-0.1c0.4-0.3,0.8-0.3,1.2-0.3c0.6,0,1.3,0.1,1.9,0.2c0.3,0.1,0.5,0.3,0.7,0.6c0.1,0.2,0.3,0.5,0.2,0.8V23
	c0,0.1,0.1,0.2,0.2,0.1c0.2-0.1,0.4-0.1,0.6,0c0.2,0.1,0.4,0.3,0.5,0.5c0.2,0.3,0.2,0.8,0.2,1.2C32.8,24.9,32.8,25.1,32.8,25.2
	 M32.1,25.9C32,26.1,32,26.3,32,26.4s-0.1,0.1-0.1,0.1c-0.1,0,0-0.1,0-0.2c0-0.2,0-0.5-0.1-0.7c-0.1-0.3-0.2-0.5-0.2-0.8
	c-0.1-0.2-0.2-0.3-0.3-0.5c-0.1-0.1-0.2-0.2-0.2-0.2c-0.1-0.1-0.2-0.3-0.2-0.5v-0.1c0-0.1-0.1-0.3,0-0.4c0.1,0,0.2,0.2,0.3,0.3
	c0.1,0.1,0.2,0.2,0.3,0.3c0.4,0.4,0.6,0.8,0.7,1.3C32.2,25.4,32.2,25.7,32.1,25.9 M31.5,26.9c0,0.3-0.2,0.5-0.4,0.7
	c-0.5,0.3-1.1,0.4-1.6,0.3c-0.4-0.1-0.7-0.2-1.1-0.3c0,0-0.1,0-0.1-0.1v-0.1c0.2-0.1,0.4-0.2,0.7-0.3c0.2-0.1,0.5-0.2,0.7-0.2
	c0.1,0,0.3-0.1,0.4-0.2c0-0.1-0.1-0.1-0.1-0.1c-0.1,0-0.2,0-0.4,0c-0.5,0.1-1.1,0.3-1.5,0.6c-0.7,0.4-1.4,0.7-2.1,1.1
	c-0.3,0.2-0.7,0.4-1.1,0.6c-0.6,0.3-1.2,0.5-1.8,0.7c-0.5,0.1-1,0.1-1.5,0c-0.1,0-0.2,0-0.2-0.1c0.1-0.1,0.3-0.1,0.4-0.1
	c0.8-0.1,1.5-0.4,2.1-0.9c0.4-0.3,0.6-0.5,0.7-0.6c0.1-0.2,0.3-0.3,0.3-0.5c0,0-0.1,0.1-0.2,0.1c0,0,0,0-0.1,0.1
	c-0.3,0.2-0.5,0.5-0.8,0.7c-0.7,0.7-1.6,0.9-2.6,0.9c-0.2,0-0.4,0-0.6-0.1c0,0,0,0,0-0.1v-0.1c0.1,0,0.1-0.1,0.2-0.1
	c0.6-0.1,1.1-0.3,1.6-0.6c0.3-0.2,0.5-0.4,0.8-0.5c0.1,0,0.1-0.1,0.2-0.2c0.2-0.2,0.3-0.3,0.3-0.4c-0.1,0-0.1,0-0.2,0.1l-0.1,0.1
	c-0.6,0.5-1.2,0.9-1.9,1.2c-0.3,0.1-0.6,0.2-0.9,0.2c-0.1,0-0.2,0-0.2-0.2c-0.1-0.3-0.1-0.5,0-0.8c0-0.1,0.4-1.3,0.7-1.9l0.1-0.2
	c0,0,0,0-0.1,0S21,25.7,21,25.7c-0.1,0.1-0.2,0.2-0.2,0.3c-0.2,0.3-0.3,0.7-0.4,1c-0.1,0.4-0.2,0.7-0.3,1.1c0,0,0,0.1-0.1,0.1
	c0,0-0.1,0-0.1-0.1c-0.1-0.3-0.2-0.6-0.2-0.9s0-0.5,0.1-0.7c0-0.1,0.1-0.2,0.1-0.2s-0.1,0-0.1,0.1c-0.1,0.1-0.1,0.2-0.1,0.2
	c-0.1,0.3-0.1,0.5-0.1,0.5c0,0.2,0,0.4,0,0.8c0,0.1,0,0.3,0,0.4c-0.1-0.1-0.1-0.2-0.2-0.3c-0.4-0.7-0.3-1.3-0.2-1.8
	c0.2-1,0.7-1.9,1.3-2.7l0.1-0.1c0.3-0.6,0.6-1.1,0.9-1.6c0.2-0.4,0.3-0.8,0.4-1.2c0-0.1,0-0.1,0-0.2v-0.1c0,0-0.1,0-0.1,0.1
	c-0.1,0.2-0.1,0.4-0.2,0.5c-0.1,0.6-0.4,1.1-0.8,1.6l-0.1,0.1c0,0-0.1,0-0.1-0.1s0-0.2,0-0.2c0-0.5-0.2-0.9-0.4-1.4
	c-0.2-0.3-0.4-0.4-0.7-0.4c-0.2,0-0.4,0-0.6-0.1s-0.3-0.4-0.3-0.6s0.2-0.3,0.4-0.2c0.1,0.1,0.2,0.1,0.3,0.2c0.1,0,0.1,0,0.1,0
	s0-0.1,0-0.2s-0.1-0.2-0.2-0.2s-0.1-0.1-0.1-0.2c0-0.3,0.1-0.4,0.3-0.4c0.2,0,0.4,0.1,0.5,0.3c0,0.1,0.1,0.2,0.1,0.3
	c0,0.1,0.1,0.1,0.2,0.1c0,0,0.1,0,0.1-0.1s0-0.2,0-0.3c0-0.1,0-0.2,0.1-0.3c0.1-0.1,0.2-0.2,0.3-0.2c0.2,0,0.3,0.2,0.4,0.3
	c0,0.1,0,0.2,0,0.2c0,0.1,0,0.1,0.1,0.2l0.1,0.1c0,0,0.1,0,0.1-0.1v-0.1c0.1-0.2,0.2-0.3,0.4-0.2c0.1,0,0.2,0.1,0.3,0.2
	c0.2,0.2,0.4,0.3,0.6,0.5s0.3,0.4,0.3,0.7c0,0.3,0,0.6-0.1,0.9v0.1c0,0.1,0,0.1,0,0.2s0,0.2,0,0.2s0.2-0.3,0.2-0.7
	c0.1-0.4,0.1-0.8,0-1.2c0-0.2,0-0.3,0-0.4c0.1-0.3,0.2-0.5,0.5-0.7c0.1-0.1,0.2-0.1,0.3-0.1c0.2,0,0.4,0,0.4,0.3v0.1
	c-0.1,0.4,0.1,0.7,0.5,1c0.2,0.1,0.3,0.2,0.5,0.3c0.1,0.1,0.2,0.1,0.3,0.2c0.2,0.2,0.3,0.4,0.3,0.7c0,0.3,0,0.6-0.1,0.9
	c-0.3,0.7-0.7,1.4-1.2,2.1c-0.2,0.2-0.4,0.5-0.6,0.7c-0.4,0.5-0.8,0.9-1.3,1.4c0,0-0.1,0.1-0.1,0.2v0.1h0.1c0,0,0,0,0.1,0
	c0.3-0.3,0.6-0.7,0.9-1s0.5-0.6,0.8-0.9s0.6-0.7,0.8-1.1c0.2-0.3,0.5-0.6,0.7-0.8c0.3-0.3,0.7-0.4,1.2-0.5c0.6-0.1,1.2-0.1,1.9,0
	c0.3,0,0.6,0.2,0.8,0.3c0.3,0.2,0.5,0.5,0.6,0.9c0.1,0.2,0,0.4-0.2,0.6c-0.1,0-0.1,0.1-0.2,0.1c-0.1,0.1-0.1,0.1,0,0.2l0.1,0.1
	c0.3-0.1,0.5,0,0.6,0.2c0.2,0.2,0.3,0.4,0.4,0.6c0,0.1,0.1,0.3,0.1,0.4C31.5,26,31.5,26.4,31.5,26.9 M20.2,29.7
	c-0.3,0.1-0.6,0.2-0.9,0.3c-0.1,0-0.1,0.1-0.2,0.1c0,0-0.1,0-0.1-0.1v-0.1c0.1-0.4,0.1-0.9,0.1-1.3c0-0.1,0-0.2,0-0.2
	c0-0.1,0-0.3,0.1-0.3s0.2,0.2,0.2,0.3c0.3,0.4,0.6,0.7,1,0.9c0.1,0.1,0.2,0.1,0.3,0.3C20.6,29.7,20.4,29.7,20.2,29.7 M11.5,39.9
	c-0.1-0.4-0.1-0.8-0.2-1.2c-0.1-0.4-0.2-0.8-0.3-1.3c-0.1-1.1-0.1-2.1,0.1-3.1c0.1-0.5,0.2-0.9,0.4-1.4c0.1-0.4,0.4-0.8,0.6-1.2
	c0.4-0.6,0.7-1.2,1-1.8c0-0.1,0.1-0.1,0.1-0.1l0,0c0.2,0.7,0.4,1.4,0.6,2.1C14,32.2,14,32.6,14,33c0,0.6,0,1.1-0.1,1.7
	c-0.1,0.4,0,0.8-0.1,1.2c0,0.1-0.1,0.3-0.1,0.4c-0.3,1-0.7,2-1.3,2.9c-0.2,0.3-0.4,0.5-0.6,0.7C11.6,40,11.5,39.9,11.5,39.9
	 M12.5,41.6c0.1-0.1,0.2-0.2,0.3-0.3c0.2-0.3,0.4-0.5,0.6-0.8c0.7-0.9,1.5-1.6,2.5-2.2c0.3-0.2,0.7-0.4,1.1-0.6
	c1.1-0.6,2.2-1.2,3.4-1.7c0.3-0.1,0.7-0.3,1-0.4c0.5-0.2,1.1-0.5,1.5-0.8c0.2-0.2,0.5-0.4,0.8-0.5c0.3-0.2,0.6-0.5,0.8-0.7
	c0.4-0.3,0.7-0.7,1.1-1c0.1-0.1,0.2-0.2,0.3-0.2c0.1-0.1,0.2-0.2,0.3-0.2c0.1,0.1-0.1,0.2-0.1,0.3c-0.4,0.5-0.6,1.1-1,1.6
	c-0.2,0.3-0.4,0.5-0.5,0.8c-0.2,0.4-0.5,0.8-0.7,1.2c-0.3,0.5-0.6,1-1,1.4c-0.5,0.6-1,1.1-1.6,1.7c-0.1,0.1-0.1,0.2-0.2,0.2
	c-0.8,0.7-1.6,1.3-2.6,1.8c-0.6,0.3-1.3,0.5-1.9,0.6c-0.7,0.2-1.5,0.3-2.2,0.3c-0.3,0-0.6,0-1,0c-0.2,0-0.4,0-0.6,0
	c0,0-0.1,0-0.1-0.1s0-0.1,0.1-0.1c0.6-0.4,1.3-0.8,2-1c1.6-0.7,3.1-1.3,4.7-2.1c0.2-0.1,0.4-0.2,0.6-0.3c0.7-0.3,1.2-0.8,1.8-1.2
	c0.2-0.1,0.3-0.3,0.5-0.4c0.3-0.3,0.6-0.6,0.8-1c0.1-0.2,0.3-0.4,0.3-0.7c-0.2,0.2-0.4,0.3-0.5,0.5c-0.4,0.7-1,1.2-1.6,1.7
	c-0.8,0.7-1.8,1.1-2.8,1.6s-2.1,1-3.1,1.4c-0.1,0-0.1,0.1-0.2,0.1c-0.9,0.3-1.7,0.8-2.6,1.3c-0.1,0-0.2,0.1-0.2,0.1h-0.1
	C12.5,41.6,12.5,41.6,12.5,41.6 M33.1,24.8c0-0.3,0-0.6,0-0.8c-0.1-0.4-0.3-0.6-0.5-0.9c-0.2-0.2-0.4-0.3-0.6-0.3
	c-0.1,0-0.2-0.1-0.2-0.2c0-0.3-0.2-0.5-0.4-0.8c-0.2-0.2-0.4-0.4-0.7-0.5c-0.8-0.2-1.6-0.3-2.5-0.2c-0.4,0.1-0.4,0-0.2-0.3
	c0.1-0.2,0.1-0.5,0.1-0.7s-0.1-0.4-0.3-0.6c-0.3-0.2-0.5-0.4-0.9-0.4c-0.1,0-0.3,0-0.4,0c-0.2,0-0.2,0-0.2-0.2
	c0-0.3-0.2-0.6-0.5-0.7c-0.2-0.1-0.4-0.2-0.6-0.2c-0.4-0.1-0.7-0.2-1-0.5s-0.7-0.3-1.1-0.3c-0.3,0-0.5,0.1-0.7,0.4
	c-0.1,0.1-0.1,0.1-0.2,0.1s-0.2-0.1-0.3-0.1c-0.2-0.1-0.4-0.1-0.6-0.1c-0.6,0.1-1,0.3-1.5,0.7c-0.1,0.1-0.2,0.2-0.4,0.2
	c-0.1,0-0.2,0-0.3,0.1c-0.2,0.1-0.3,0.2-0.3,0.4V19c0,0.1,0,0.2-0.1,0.2s-0.1,0.1-0.2,0.1c-0.2,0.2-0.3,0.4-0.2,0.7
	c0.1,0.3,0.3,0.5,0.6,0.6c0.2,0.1,0.4,0.1,0.6,0.1s0.3,0.1,0.4,0.3c0.2,0.4,0.4,0.7,0.4,1.1c0,0.3,0,0.5,0,0.8
	c0,0.2-0.1,0.4-0.2,0.5s-0.2,0.3-0.3,0.4c-0.4,0.6-0.7,1.2-0.8,1.9c-0.1,0.5-0.2,1.1,0,1.6c0,0.1,0,0.3,0,0.4
	c-0.1,0.3-0.1,0.5-0.2,0.8c0,0.4-0.1,0.7-0.1,1.1c0,0.2,0,0.3-0.1,0.5c-0.2,0.4-0.4,0.9-0.7,1.2c-0.4,0.4-0.8,0.9-1.2,1.3
	c-0.2,0.3-0.4,0.5-0.6,0.9c-0.4,0.7-0.8,1.4-1.2,2.2c-0.2,0.4-0.4,0.8-0.6,1.2c-0.2,0.3-0.3,0.6-0.5,0.9c-0.3,0.4-0.6,0.8-0.9,1.3
	c-0.1,0.2-0.3,0.5-0.5,0.7c-0.2,0.3-0.5,0.5-0.6,0.8c-0.1,0.1-0.1,0.2-0.2,0.2h-0.1c0,0,0,0,0-0.1c0-0.2,0.2-0.4,0.3-0.6
	c0.3-0.3,0.6-0.7,0.8-1.1c0.1-0.2,0.2-0.3,0.3-0.5c0.5-0.8,0.8-1.7,1-2.7c0.2-0.8,0.2-1.7,0.3-2.5c0-0.6,0-1.2-0.1-1.8
	c-0.1-0.4-0.2-0.9-0.4-1.3c-0.1-0.3-0.1-0.5-0.2-0.8c0-0.2,0-0.4,0-0.6c0.1-0.4,0.2-0.7,0.2-1.1c0.1-0.5,0.1-1,0.2-1.4
	c0-0.1,0-0.3,0-0.4s0-0.1-0.1-0.2c-0.1,0-0.1,0.1-0.1,0.1c-0.1,0.6-0.2,1.3-0.3,1.9c-0.1,0.7-0.3,1.4-0.6,2.1
	c-0.2,0.4-0.4,0.7-0.6,1.1c-0.3,0.5-0.6,1-0.8,1.5c-0.4,0.8-0.6,1.6-0.7,2.5c-0.1,1.3-0.1,2.5,0.2,3.7c0.2,0.6,0.3,1.3,0.3,2
	c0,0.1,0,0.7-0.1,0.8c-0.2,0.3-0.4,0.5-0.6,0.8c-0.3,0.5-0.5,0.8-0.9,1.3c-0.2,0.2-0.6,0.7-0.8,0.9s-0.6,0.7-0.9,0.8
	c0.1,0,0.4-0.1,0.5,0c0.1-0.1,0.1-0.1,0.2-0.2c0.2-0.2,0.4-0.4,0.6-0.6c0.4-0.4,0.7-0.8,1-1.2c0.1-0.1,0.1-0.1,0.2-0.2
	c0.4,0,0.8-0.2,1.1-0.5c0.2-0.2,0.4-0.2,0.7-0.2c0.2,0,0.4,0,0.6-0.1c0.1,0,0.2,0,0.4,0c1.1,0,2.2-0.1,3.3-0.3c1-0.2,2-0.5,2.9-1.1
	c0.9-0.5,1.7-1.1,2.4-1.9c0.6-0.7,1.2-1.3,1.7-1.9c0.2-0.3,0.5-0.6,0.6-1c0.2-0.4,0.4-0.8,0.7-1.2c0.4-0.5,0.7-1,1-1.6
	s0.7-1.1,1.1-1.6c0.2-0.3,0.4-0.5,0.7-0.7c0.4-0.2,0.8-0.4,1.2-0.6c0.1,0,0.2-0.1,0.3-0.1c0,0,0,0,0-0.1c0,0,0,0-0.1,0s-0.2,0-0.3,0
	c-0.7,0.2-1.3,0.4-1.9,0.9c0,0-0.1,0.1-0.2,0.1c-0.7,0.5-1.4,1.1-2.1,1.7c-0.7,0.6-1.4,1.2-2.1,1.7c-0.3,0.2-0.7,0.4-1.1,0.6
	c-0.4,0.2-0.9,0.3-1.3,0.5c-1,0.4-2,0.9-3,1.5c-0.8,0.4-1.6,0.8-2.3,1.4c-0.5,0.4-1,0.8-1.4,1.3c-0.5,0.5-0.8,1.1-1.3,1.6
	c-0.2,0.2-0.3,0.3-0.4,0.5c-0.3,0.3-0.6,0.5-0.9,0.8c-0.1,0-0.1,0.1-0.2,0.1h-0.1v-0.1c0-0.1,0.1-0.1,0.1-0.2
	c0.2-0.5,0.6-0.8,0.9-1.2c0.7-0.8,1.3-1.6,1.9-2.4c0.3-0.5,0.7-0.9,1-1.5c0.6-1.1,1.2-2.2,1.8-3.3c0.4-0.8,1-1.4,1.5-2.1
	c0.2-0.3,0.5-0.5,0.6-0.8c0.3-0.4,0.6-0.7,1.1-0.9c0.3-0.1,0.6-0.2,0.9-0.3c0.2,0,0.4-0.1,0.6-0.1c0.1-0.1,0.3-0.1,0.4,0
	c0.5,0.2,1.1,0.2,1.7,0.1s1.1-0.3,1.6-0.6c0.8-0.4,1.6-0.9,2.4-1.3c0.3-0.2,0.5-0.2,0.8-0.2c0.2,0,0.4,0.1,0.6,0.1
	c0.3,0.1,0.6,0.1,0.8,0.2c0.4,0.1,0.9,0,1.3,0c0.1,0,0.2-0.1,0.2-0.1c0.3-0.1,0.5-0.3,0.7-0.5c0.1-0.1,0.1-0.2,0.2-0.2
	c0.2-0.1,0.3-0.3,0.4-0.5c0.1-0.3,0.3-0.5,0.5-0.7c0.3-0.3,0.5-0.6,0.5-1C33.1,24.9,33.1,24.8,33.1,24.8"/>
<path class="st0" d="M40.8,14.4L40.8,14.4c0.3-0.6,0.1-1.1-0.1-1.7c0-0.1-0.1-0.1-0.2,0c-0.1,0.2-0.3,0.4-0.4,0.6
	c-0.1,0.2-0.1,0.3,0.1,0.5C40.4,14.1,40.6,14.2,40.8,14.4C40.7,14.4,40.7,14.4,40.8,14.4 M27.6,15.3c0,0.3,0,0.6,0.1,0.8
	c0.1,0.4,0.1,0.4,0.4,0.1c0.4-0.3,0.8-0.6,1.1-0.8c0.1-0.1,0.1-0.1,0-0.2c-0.5-0.2-0.9-0.6-1.3-0.9c-0.1-0.1-0.1,0-0.2,0.1
	C27.7,14.7,27.6,15.1,27.6,15.3 M35.9,15C36,15,36,15.1,35.9,15c0.4,0.3,0.7,0.5,1,0.7s0.6,0.3,0.9,0.3c0.4,0.1,0.9,0,1.3-0.2
	c0.1,0,0.1-0.1,0-0.2c-0.5-0.3-1-0.6-1.5-0.7c-0.2,0-0.4-0.1-0.6-0.1c-0.2,0-0.5,0-0.7,0C36.2,14.9,36.1,14.9,35.9,15 M34.3,4.5
	L34.3,4.5c0,0.2,0,0.3,0,0.5c0,0.1,0,0.2,0.1,0.3c0.3,0.2,0.6,0.5,0.9,0.6c0.5,0.2,0.9,0.3,1.3,0.6h0.1c0,0,0,0,0-0.1
	c0-0.3-0.2-0.6-0.4-0.8c-0.2-0.2-0.4-0.4-0.7-0.5S35.1,4.8,35,4.5c-0.1-0.1-0.1-0.2-0.2-0.3C34.7,4.1,34.6,4,34.5,4
	c-0.1-0.1-0.2,0-0.2,0.1C34.3,4.3,34.3,4.4,34.3,4.5 M28.4,8.5c0,0.2,0,0.4-0.1,0.5v0.1h0.1c0.4-0.5,0.6-1,0.6-1.6
	c0-0.3-0.1-0.7-0.2-1c-0.2-0.5-0.2-1.1-0.1-1.7c0-0.1,0-0.2,0-0.3l-0.1-0.1c-0.1,0-0.1,0-0.2,0.1c-0.5,0.3-0.7,0.7-0.7,1.3
	c0,0.4,0.1,0.8,0.3,1.2c0.1,0.1,0.1,0.3,0.2,0.4C28.4,7.8,28.5,8.2,28.4,8.5 M23.2,14.1c-0.2-0.1-0.5-0.2-0.7-0.3
	c-0.4-0.1-0.9-0.2-1.3-0.3c-0.7-0.2-1.3-0.5-1.9-0.9c-0.1-0.1-0.2-0.2-0.3-0.2v-0.1h0.1c0.3,0.2,0.6,0.3,0.9,0.5
	c0.4,0.3,0.9,0.4,1.4,0.5c0.6,0.1,1.1,0.2,1.7,0.4c0.1,0,0.2,0.1,0.2,0v-0.1c-0.4-0.5-0.9-1-1.6-1.3c-0.6-0.2-1.1-0.5-1.7-0.6
	s-1.1-0.2-1.7-0.3c-0.2,0-0.4-0.1-0.6-0.1h-0.1v0.1c0.5,0.7,0.9,1.4,1.6,1.9c0.1,0.1,0.2,0.1,0.3,0.2c0.5,0.4,1.2,0.6,1.8,0.7
	c0.4,0.1,0.9,0.1,1.3,0.1C22.8,14.4,23,14.3,23.2,14.1 M35.4,17.9c0-0.1-0.3-0.1-0.4-0.2c-0.1-0.1-0.3-0.1-0.4-0.2
	c-0.7-0.3-1.4-0.4-2.2-0.3c-0.1,0-0.2,0-0.2,0c-0.6,0.1-1.1,0.2-1.6,0.4c-0.6,0.3-1.3,0.6-1.9,0.9c-0.1,0-0.3,0.1-0.3,0.2
	c0.1,0.1,0.5,0.2,0.7,0.3c0.8,0.3,1.6,0.5,2.4,0.3c0.8-0.1,1.5-0.4,2.2-0.7c0.5-0.2,1-0.5,1.5-0.7C35.1,18,35.3,18,35.4,17.9
	 M25,13.2c0-0.1,0-0.2,0-0.2c0-0.7,0-1.4,0-2.1c0-0.5,0.1-1.1,0-1.6c-0.1-0.6-0.1-1.1-0.3-1.7c-0.2-0.7-0.4-1.4-0.5-2.1
	c0-0.2-0.1-0.4-0.1-0.6c0,0,0-0.1-0.1-0.1c0,0-0.1,0-0.1,0.1l0,0C23.6,5.5,23.3,6,23,6.6c-0.2,0.4-0.3,0.7-0.4,1.1
	c-0.1,0.5-0.1,1,0,1.5c0,0.4,0.1,0.7,0.2,1.1c0.1,0.6,0.4,1.2,0.8,1.7c0.2,0.3,0.4,0.5,0.7,0.7c0,0,0,0,0.1,0l0,0c0-0.1,0-0.1,0-0.2
	c-0.2-0.7-0.4-1.4-0.5-2.1c-0.1-0.5-0.2-1.1-0.2-1.6c0-0.4,0-0.9,0.1-1.3c0,0.2,0,0.3,0,0.5c0,0.4,0,0.9,0.1,1.3c0.2,1,0.4,2,0.7,3
	C24.6,12.7,24.7,12.9,25,13.2 M27.4,18.4c0.1-0.1,0.1-0.2,0.1-0.3c0.1-0.6,0.1-1.2-0.1-1.8c-0.2-0.7-0.1-1.3,0.2-1.9
	c0-0.1,0-0.1,0-0.2c-0.4-0.5-0.4-1.2-0.4-1.8c0-0.7,0.2-1.3,0.5-1.9c0.1-0.2,0.1-0.3,0.2-0.5c0-0.2,0.1-0.5,0.1-0.7s0.1-0.4,0.1-0.6
	c0.1-0.4,0-0.8-0.3-1.1c-0.2-0.3-0.4-0.7-0.4-1.1c-0.1-0.5,0.1-1,0.3-1.4c0.1-0.2,0.3-0.3,0.5-0.4c0.1,0,0.1-0.1,0.2-0.1
	c0.3,0,0.4-0.2,0.4-0.4C28.9,4,29,3.9,29.1,3.8c0.3-0.3,0.8-0.3,1.1-0.1c0.3,0.2,0.5,0.2,0.8,0.1c0.1,0,0.2-0.1,0.3-0.2
	c0.2-0.1,0.5-0.2,0.7-0.3c0.2-0.1,0.4-0.1,0.5,0.1c0.2,0.2,0.4,0.3,0.7,0.3s0.5,0,0.7,0.3c0.1,0.1,0.2,0.1,0.3,0.1
	c0.4,0,0.6,0.2,0.8,0.4c0,0,0,0.1,0.1,0.1c0.2,0.3,0.4,0.6,0.8,0.8c0.3,0.1,0.5,0.4,0.7,0.6s0.2,0.4,0.3,0.6c0.1,0.3,0.2,0.7,0.1,1
	c0.1,0.1,0.2,0,0.3,0s0.3,0,0.4,0c0.3,0,0.4,0.2,0.6,0.4c0,0.1,0.1,0.1,0.1,0.2c0.1,0.2,0.2,0.3,0.3,0.4c0.2,0.1,0.3,0.3,0.4,0.5
	c0,0.1,0.1,0.1,0.2,0.1c0.1,0,0.3,0,0.4,0.1c0.6,0.2,0.9,0.8,0.6,1.4c0,0.1,0,0.1-0.1,0.1c-0.1,0.1-0.1,0.3,0,0.4
	c0.2,0.3,0.1,0.6-0.3,0.8h-0.1c0,0-0.1-0.1,0-0.1c0-0.1,0.1-0.1,0.1-0.2c0-0.1,0-0.2,0-0.3s-0.1-0.2-0.3-0.2c-0.1,0-0.2,0.1-0.3,0
	h-0.1v-0.1l0.1-0.1c0.1,0,0.1-0.1,0.2-0.1c0.4-0.3,0.5-0.7,0.3-1.1c-0.3-0.5-0.8-0.5-1.1-0.2c-0.1,0-0.1,0.1-0.2,0.1
	c-0.4,0.4-1,0.6-1.5,0.8l0,0h-0.1v-0.1c0.2-0.1,0.4-0.2,0.6-0.3c0.3-0.1,0.6-0.3,0.8-0.6c0.1-0.1,0.1-0.2,0.2-0.3
	c0.1-0.1,0-0.3-0.1-0.4c0,0-0.1-0.1-0.2-0.1c-0.2-0.1-0.3-0.2-0.3-0.4c0,0,0-0.1-0.1-0.1c-0.2-0.4-0.5-0.5-0.9-0.4
	c-0.2,0.1-0.5,0.2-0.7,0.3c-0.8,0.7-1.7,1.3-2.7,1.8c-0.2,0.1-0.4,0.2-0.6,0.3c-0.5,0.2-0.9,0.5-1.3,0.7c-0.1,0.1-0.2,0.2-0.3,0.4
	c0,0-0.1,0.1-0.2,0.3c0,0,0,0-0.1,0.1s-0.1,0.2-0.1,0.2s0-0.1,0-0.2v-0.1c0.2-0.5,0.7-0.9,0.7-0.9c0.4-0.2,0.8-0.5,1.3-0.6
	c0.4-0.2,0.8-0.4,1.2-0.7C34.4,9.2,34.7,9,35,8.8c0.3-0.2,0.6-0.5,0.9-0.7C36,8,36.1,7.9,36.2,7.8c0.1-0.1,0.1-0.1,0.1-0.2V7.5
	c0-0.5-0.2-0.7-0.6-0.9c-0.3-0.1-0.5-0.2-0.8-0.3c-0.4-0.1-0.7-0.4-1-0.6C34.1,5.4,34,5.2,34,4.9c0-0.2,0-0.4,0-0.5
	c0-0.2-0.1-0.4-0.3-0.6c-0.1-0.1-0.2-0.2-0.4-0.1c-0.1,0-0.2,0-0.4,0s-0.4-0.1-0.6-0.3c-0.1-0.1-0.2-0.1-0.4-0.1
	c-0.2,0.1-0.4,0.1-0.5,0.2c-0.2,0.1-0.5,0.3-0.7,0.3c-0.1,0-0.2,0.1-0.2,0.2c0,0.1,0,0.2,0,0.2c0,0.1-0.2,0.2-0.2,0.2s0-0.1,0-0.3
	l0,0c0.1-0.5-0.2-0.7-0.7-0.6c-0.3,0.1-0.4,0.2-0.5,0.4c-0.3,0.7-0.4,1.4-0.3,2.2c0.1,0.2,0.1,0.5,0.2,0.7s0.1,0.4,0.1,0.6
	c0.1,0,0.1-0.1,0.1-0.1c0.1-0.3,0.2-0.6,0.2-0.9c0,0,0-0.1,0-0.2s0.1-0.3,0.1-0.3l0.1,0.3c0,0.2,0,0.4-0.1,0.6
	c-0.1,0.3-0.2,0.6-0.2,0.9c0,0.1-0.1,0.3-0.2,0.4s-0.2,0.3-0.3,0.4c0.2,0.2,0.1,0.3,0,0.5s-0.2,0.3-0.3,0.5
	c-0.2,0.3-0.7,1.3-0.7,1.4c-0.2,0.6-0.3,1.2-0.2,1.9c0,0.2,0,0.3,0.1,0.5c0.1,0,0.1-0.1,0.1-0.2c0-0.4,0-0.7,0.2-1.1
	c0,0,0-0.1,0.1-0.2c0.1-0.1,0.1-0.1,0.1-0.1s0,0,0,0.2c0,0.1,0,0.1,0,0.1C28,12.2,28,12.7,28,13.1c0,0.2,0,0.4,0.2,0.6
	c0.1-0.2,0.1-0.3,0.2-0.5c0.1-0.4,0.3-0.8,0.6-1.2c0.2-0.3,0.3-0.4,0.6-0.6c0,0.1-0.1,0.2-0.1,0.2c-0.5,0.6-0.8,1.2-0.9,1.9
	c0,0.3-0.1,0.5,0,0.8c0,0.1,0.1,0.2,0.2,0.1c0.3-0.1,0.5-0.2,0.8-0.4s0.7-0.5,1-0.7c0.2-0.2,0.3-0.3,0.8-0.8
	c0.1-0.1,0.2-0.2,0.3-0.3v0.1c0,0,0,0,0,0.1c-0.2,0.4-0.4,0.7-0.8,0.9c-0.6,0.4-1.1,0.8-1.7,1.1l-0.1,0.1v0.1
	c0.2,0.1,0.3,0.2,0.5,0.2c0.4,0,0.9-0.1,1.3-0.2c0.4-0.2,0.7-0.4,1.1-0.6c0.1-0.1,0.2-0.1,0.2-0.2c0.1-0.1,0.1-0.1,0.1-0.1
	s0,0.2-0.1,0.3c-0.1,0.2-0.2,0.3-0.3,0.3c-0.1,0.1-0.1,0.1-0.2,0.1c-0.3,0.2-0.7,0.4-1.1,0.5c-0.2,0-0.4,0.1-0.6,0.1
	c0,0-0.1,0-0.1,0.1c0,0,0,0.1,0.1,0.1c0.5,0.2,1,0.4,1.5,0.4s1.1-0.1,1.6-0.2c0.3-0.1,0.6-0.2,0.9-0.3c0.4-0.2,0.9-0.3,1.3-0.4
	c0.8-0.1,1.6-0.2,2.4-0.1c0.4,0.1,0.8,0.2,1.2,0.4c0.1,0.1,0.3,0.2,0.5,0.3c0.5,0.3,1.2-0.1,1.4-0.7c0-0.1,0-0.2-0.1-0.3
	s-0.2-0.3-0.4-0.4c-0.2-0.2-0.2-0.5-0.1-0.7c0.1-0.1,0.2-0.3,0.2-0.4c0.1-0.2,0.1-0.4-0.2-0.4c-0.5-0.1-0.9-0.2-1.4-0.2
	c-0.7,0.1-1.4,0.1-2.1,0.4h-0.1c0.1-0.1,0.2-0.1,0.3-0.2c0.5-0.2,1.1-0.3,1.6-0.4c0.6-0.1,1.3,0,1.9,0.2c0.2,0.1,0.4,0.2,0.6,0.3
	l0.1,0.1c0.4,0.7,0.4,1.5-0.1,2.2c0,0,0,0,0,0.1c-0.3,0.2-0.5,0.5-0.9,0.7c-0.1,0-0.2,0.1-0.3,0.2c-0.2,0.2-0.4,0.3-0.7,0.4
	c-0.7,0.2-1.4,0.1-2-0.3c-0.2-0.1-0.5-0.3-0.7-0.4c-0.2-0.1-0.4-0.2-0.5-0.3c-0.2-0.2-0.5-0.2-0.8-0.1c-0.5,0.1-0.9,0.3-1.4,0.4
	c-0.9,0.3-1.8,0.5-2.7,0.4c-0.3,0-0.5-0.1-0.8-0.2c-0.4-0.2-0.7-0.1-0.9,0.1c-0.2,0.2-0.5,0.4-0.7,0.5c-0.3,0.2-0.5,0.6-0.5,1
	c-0.1,0.4-0.1,0.9-0.2,1.3c0,0.1,0,0.1,0,0.2s0.1,0.1,0.2,0.1c0.2-0.1,0.5-0.2,0.7-0.3c0.6-0.3,1.1-0.5,1.7-0.8
	c0.5-0.3,1.1-0.5,1.7-0.5c0.2,0,0.3,0,0.5-0.1c0.6-0.1,1.1,0,1.7,0.1c0.4,0.1,0.7,0.3,1.1,0.4c0.2,0.1,0.4,0.2,0.6,0.2
	c0.2,0.1,0.5,0.1,0.7,0.1c0.1,0,0.1,0,0.2,0c0,0,0,0,0.1,0v0.1c-0.1,0.1-0.3,0.1-0.5,0.1s-0.3,0-0.5,0c-0.4,0-0.8,0.2-1.2,0.3
	c-0.6,0.3-1.1,0.6-1.7,0.8c-0.4,0.2-0.9,0.3-1.4,0.4c-1,0.2-1.9,0.1-2.8-0.4c-0.2-0.1-0.4-0.2-0.5-0.4c-0.1-0.1-0.2-0.1-0.3,0
	c-0.2,0.1-0.4,0.2-0.6,0.4c-0.1,0.1-0.1,0.2-0.2,0.2c0,0-0.1,0-0.1-0.1v-0.1c0.1-0.6,0-1.1-0.1-1.6c-0.2-0.7-0.5-1.3-0.9-1.9
	c-0.2-0.2-0.3-0.5-0.4-0.7c-0.1-0.1-0.2-0.2-0.3-0.3c-0.2-0.1-0.5-0.3-0.7-0.4c-0.3-0.1-0.6-0.2-0.9-0.1c-0.3,0.1-0.5,0.1-0.8,0.3
	c-0.1,0-0.2,0.1-0.4,0.1c-1,0.1-2-0.1-3-0.6c-0.6-0.3-1.1-0.8-1.5-1.3c-0.2-0.4-0.5-0.7-0.7-1.1c-0.2-0.3-0.4-0.5-0.7-0.7
	c-0.2-0.2-0.5-0.3-0.7-0.5c-0.2-0.1-0.3-0.2-0.4-0.4c0-0.1,0.1,0,0.1,0c0.2,0.1,0.4,0.3,0.6,0.4c0.6,0.5,1.4,0.7,2.2,0.9
	c0.5,0.1,1,0.2,1.4,0.2c0.9,0.2,1.7,0.5,2.5,0.9c0.3,0.2,0.5,0.3,0.7,0.6c0.1,0.1,0.1,0.1,0.2,0.2c0.3,0.4,0.7,0.6,1.1,0.8
	c0.2,0.1,0.4,0.2,0.6,0.3h0.1v-0.1c-0.1-0.3-0.2-0.6-0.5-0.7c-0.1,0-0.2-0.1-0.2-0.2c-0.2-0.2-0.5-0.5-0.7-0.7
	c-0.5-0.4-0.7-0.9-1-1.5c-0.2-0.5-0.3-1-0.4-1.6c0-0.1,0-0.3-0.1-0.4c-0.1-0.9,0.1-1.7,0.4-2.4s0.6-1.3,1-1.9
	c0.3-0.5,0.5-1.1,0.7-1.7c0.1-0.4,0.2-0.7,0.2-1.1c0-0.1,0-0.1,0.1-0.1c0,0,0,0,0.1,0l0,0v0.1c0,0.2,0,0.4-0.1,0.6
	c-0.1,0.5-0.2,0.9-0.3,1.3c-0.1,0.2-0.1,0.3-0.1,0.5c0,0.4,0,0.8,0.2,1.1C24.8,6.4,25,7.2,25.2,8c0,0.1,0.1,0.3,0.1,0.4
	c0.1,0.9,0.2,1.8,0.1,2.7c0,0.6-0.1,1.2,0,1.8c0,0.1,0,0.2,0,0.4s0.1,0.4,0.1,0.6c0,0.2,0,0.3,0.1,0.5c0.3,0.5,0.5,1,0.9,1.5
	c0.4,0.6,0.8,1.3,0.9,2.1C27.3,18.1,27.3,18.2,27.4,18.4"/>
<path class="st0" d="M12.8,32.4c0.1,0.2,0,0.7-0.1,0.8c-0.2,1.2-0.3,2.3-0.3,3.5c0,0.5-0.1,0.9-0.2,1.4c-0.1,0.2-0.3,0.9-0.3,0.8
	C11.8,38.8,12,38.1,12,38c0.2-0.8,0.2-1.7,0.3-2.5c0-0.7,0.2-1.3,0.2-2C12.5,33.3,12.7,32.6,12.8,32.4"/>
<path class="st0" d="M30.6,18.8c0.2,0,0.5,0,0.9-0.1c0.2,0,0.5-0.1,0.8-0.2s0.6-0.3,0.7-0.4c0,0,0.2-0.1,0.4-0.2c0,0,0.2-0.1,0.4,0
	c0,0,0,0,0.1,0L34,18c0,0-0.1,0-0.2,0c-0.1,0-0.2,0-0.4,0.1c-0.4,0.1-0.6,0.4-1.2,0.6c-0.3,0.1-0.5,0.2-0.6,0.2s-0.2,0-0.3,0.1
	c0,0-0.5,0.1-1.2,0c0,0-0.1,0-0.2,0s-0.3-0.1-0.3-0.1s0.1,0,0.2,0C30,18.8,30.2,18.8,30.6,18.8"/>
</svg>
