<?xml version="1.0" encoding="utf-8"?>
<!-- Generator: Adobe Illustrator 23.0.1, SVG Export Plug-In . SVG Version: 6.00 Build 0)  -->
<svg version="1.1" id="Layer_1" xmlns="http://www.w3.org/2000/svg" xmlns:xlink="http://www.w3.org/1999/xlink" x="0px" y="0px"
	 viewBox="0 0 32 32" style="enable-background:new 0 0 32 32;" xml:space="preserve">
<path d="M26.5,3.5c0.4,0.2,0.4,0.2,0.4,0.6c0,7.5,0,15,0,22.5c0,2.7-2.3,5.3-5.1,5.3c-4,0-7.9,0-11.9,0c-2.6,0-5-2.4-5.1-5.3V4.2
	c0,0,0.3-1,1-0.6C6.1,3.7,6.2,4,6.2,4.2c0,7.5-0.1,15,0,22.5c0,2,1.7,4.1,3.7,4.2c4,0,8,0,11.9,0c2,0,3.8-2.1,3.8-4.2V4.2
	C25.6,3.8,26,3.4,26.5,3.5z M16.6,11.7v14.7c0,0.4-0.3,0.6-0.6,0.6c-0.4,0-0.6-0.3-0.6-0.6V11.7c0-0.4,0.3-0.6,0.6-0.6
	C16.3,11,16.6,11.3,16.6,11.7z M21.7,11.7v14.7c0,0.4-0.3,0.6-0.6,0.6s-0.6-0.3-0.6-0.6V11.7c0-0.4,0.3-0.6,0.6-0.6
	C21.4,11,21.7,11.3,21.7,11.7L21.7,11.7z M11.4,11.7v14.7c0,0.4-0.3,0.6-0.6,0.6c-0.4,0-0.6-0.3-0.6-0.6V11.7c0-0.4,0.3-0.6,0.6-0.6
	C11.1,11,11.4,11.3,11.4,11.7L11.4,11.7z M21.7,3.1h5.2c0,0,1,0.4,0.5,1.1c-0.1,0.1-0.3,0.2-0.5,0.2l-0.7,0H4.9l-0.1,0
	C4.3,4.3,4.3,4.1,4.3,3.8c0-0.4,0.3-0.7,0.6-0.7h5.2"/>
</svg>
