<?xml version="1.0" encoding="utf-8"?>
<!-- Generator: Adobe Illustrator 23.0.1, SVG Export Plug-In . SVG Version: 6.00 Build 0)  -->
<svg version="1.1" id="Layer_1" xmlns="http://www.w3.org/2000/svg" xmlns:xlink="http://www.w3.org/1999/xlink" x="0px" y="0px"
	 viewBox="0 0 32 32" style="enable-background:new 0 0 32 32;" xml:space="preserve">
<path d="M29.3,4.4H2.6l-0.1,0C2,4.3,2,4.1,2,3.8c0-0.4,0.3-0.7,0.6-0.7h7.4V1.2c0-0.6,0.5-1.1,1.1-1.2c3.1,0,6.3,0,9.4,0
	c0.6,0,1.1,0.5,1.1,1.2v1.9h7.6c0,0,1,0.4,0.5,1.1C29.7,4.3,29.5,4.4,29.3,4.4L29.3,4.4z M11.4,3.2h9.1V1.5h-9.1V3.2z"/>
</svg>
