<svg xmlns="http://www.w3.org/2000/svg" width="32" height="32" viewBox="0 0 32 32">
    <path fill="#000" fill-rule="nonzero" d="M6.971 3.089c.138.062.163.094.2.126a41.293 41.293 0 0 0 1.972 1.8s-.237.221.447-.175a13.151 13.151 0 0 1 3.436-1.361l.05-.012c.074-.915.116-1.833.128-2.751 0 0 .09-.495.624-.569a16.156 16.156 0 0 1 4.417.01s.512.076.553.559c.011.893.052 1.78.121 2.668 0 0-.324-.012.44.192 1.197.327 2.341.823 3.392 1.466l.044.028c.699-.595 1.378-1.214 2.035-1.855 0 0 .382-.346 1.245.353a16.023 16.023 0 0 1 2.627 2.7c.17.222.343.596.084.902a41.17 41.17 0 0 0-1.8 1.972s-.222-.237.174.447a13.14 13.14 0 0 1 1.362 3.436l.012.05c.915.074 1.832.116 2.75.128 0 0 .484-.036.588.769a16.17 16.17 0 0 1-.01 4.128c-.036.278-.178.663-.577.697a41.704 41.704 0 0 0-2.668.121s.011-.324-.192.44a13.147 13.147 0 0 1-1.467 3.392l-.027.044a41.03 41.03 0 0 0 1.855 2.036s.345.381-.354 1.244a15.95 15.95 0 0 1-2.816 2.716c-.577.433-1.191-.41-1.867-1.022-.39-.354-.954-.838-.954-.838l-.179.11a13.12 13.12 0 0 1-3.64 1.481l-.05.012a40.899 40.899 0 0 0-.128 2.751s-.09.496-.624.569a16.171 16.171 0 0 1-4.417-.01s-.512-.076-.553-.559a41.426 41.426 0 0 0-.121-2.668s.324.012-.44-.192a13.145 13.145 0 0 1-3.392-1.467l-.044-.027a40.91 40.91 0 0 0-2.036 1.855s-.414.286-.843-.04a16.163 16.163 0 0 1-3.117-3.13s-.308-.415.005-.785a41.03 41.03 0 0 0 1.8-1.973s.222.238-.174-.446a13.17 13.17 0 0 1-1.362-3.436l-.012-.05a40.711 40.711 0 0 0-2.751-.128s-.514-.026-.63-1.13a15.954 15.954 0 0 1 .072-3.912c.1-.71 1.13-.552 2.042-.597.526-.026 1.267-.083 1.267-.083l.05-.203A13.117 13.117 0 0 1 5.043 9.25l.027-.044A40.779 40.779 0 0 0 3.216 7.17s-.286-.414.04-.843a16.154 16.154 0 0 1 3.072-3.073s.219-.285.643-.165zm8.963-1.967c-.518.004-1.035.033-1.55.088l-.066.007c-.003.143-.007.286-.012.428-.029.803.026 1.627-.16 2.412-.116.491-.94.516-1.556.702a11.883 11.883 0 0 0-3.117 1.475s-.328.209-.67-.037a42.292 42.292 0 0 1-2.05-1.825l-.015-.015a15.186 15.186 0 0 0-2.296 2.276l-.084.104c.655.685 1.392 1.328 1.887 2.13.265.43-.3 1.027-.604 1.597A11.877 11.877 0 0 0 4.48 13.71s-.085.38-.5.448c-.914.082-1.826.135-2.74.159h-.021a15.161 15.161 0 0 0-.015 3.233l.015.133c.947.022 1.923-.045 2.84.172.479.113.51.912.68 1.487a11.893 11.893 0 0 0 1.496 3.186s.21.328-.037.67a42.475 42.475 0 0 1-1.825 2.05l-.015.015a15.186 15.186 0 0 0 2.276 2.296l.104.084c.686-.655 1.328-1.392 2.13-1.887.43-.265 1.028.3 1.597.605 1.016.542 2.113.932 3.246 1.16 0 0 .38.085.448.5.082.91.136 1.825.159 2.74v.022c1.073.12 2.158.124 3.233.014l.133-.014c.021-.948-.045-1.924.172-2.84.116-.492.94-.515 1.556-.702a11.891 11.891 0 0 0 3.117-1.475s.328-.21.67.037a42.113 42.113 0 0 1 2.05 1.825l.015.015a15.163 15.163 0 0 0 2.296-2.276l.083-.104c-.654-.685-1.391-1.328-1.886-2.13-.265-.43.3-1.027.604-1.597a11.892 11.892 0 0 0 1.161-3.246s.084-.38.5-.448c.91-.082 1.824-.135 2.74-.159h.021c.12-1.073.125-2.158.015-3.233l-.015-.133c-.947-.021-1.923.045-2.84-.172-.504-.12-.526-.99-.723-1.625a11.743 11.743 0 0 0-1.453-3.048s-.21-.328.037-.67a42.61 42.61 0 0 1 1.825-2.05l.014-.015a15.2 15.2 0 0 0-2.275-2.296l-.104-.084c-.686.655-1.328 1.392-2.13 1.887-.419.258-1.004-.283-1.533-.57a11.728 11.728 0 0 0-3.31-1.196s-.38-.084-.448-.5l-.035-.404a42.654 42.654 0 0 1-.124-2.336s-.868-.118-1.75-.116zm.11 8.14c3.081.03 5.985 2.396 6.573 5.464.576 3-1.172 6.287-3.994 7.481-3.14 1.329-7.195-.177-8.694-3.287-1.916-3.974 1.04-9.547 5.942-9.656l.173-.001zm-.08 1.124c-3.174.03-5.976 3.154-5.523 6.4.372 2.657 2.894 4.845 5.596 4.828 3.28-.02 6.148-3.407 5.464-6.745-.513-2.505-2.893-4.492-5.537-4.483z"/>
</svg>
