<?xml version="1.0" encoding="utf-8"?>
<!-- Generator: Adobe Illustrator 23.0.1, SVG Export Plug-In . SVG Version: 6.00 Build 0)  -->
<svg version="1.1" id="Layer_1" xmlns="http://www.w3.org/2000/svg" xmlns:xlink="http://www.w3.org/1999/xlink" x="0px" y="0px"
	 viewBox="0 0 32 32" style="enable-background:new 0 0 32 32;" xml:space="preserve">
<style type="text/css">
	.st0{stroke:#000000;stroke-width:0.16;}
</style>
<path class="st0" d="M6.9,11.1c-0.2,0.2-0.5,0.2-0.7,0c0,0,0,0,0,0c-0.2-0.2-0.2-0.6,0-0.8l8.8-9.6c0.5-0.6,1.4-0.7,2-0.1
	c0,0,0.1,0.1,0.1,0.1l8.8,9.6c0.2,0.2,0.2,0.6,0,0.8c-0.2,0.2-0.5,0.2-0.7,0c0,0,0,0,0,0l-8.5-9.3v21.8c0,0.3-0.2,0.6-0.5,0.6
	c-0.3,0-0.5-0.3-0.5-0.6V1.7L6.9,11.1L6.9,11.1z"/>
</svg>
