<svg xmlns="http://www.w3.org/2000/svg" viewBox="0 0 44 38">
    <defs>
        <style>
            .cls-1,.cls-2{fill:none;stroke:#000;stroke-miterlimit:10;stroke-width:.978px}.cls-2{stroke-linecap:round}
        </style>
    </defs>
    <g id="Archive_UP_S" transform="translate(-1736 -32)">
        <path id="Path_233" d="M289.405 23.59h-12.912a.94.94 0 0 1-.993-1V20.6a.94.94 0 0 1 .993-1h12.912a.94.94 0 0 1 .993 1v1.995a1 1 0 0 1-.993.995z" class="cls-1" data-name="Path 233" transform="translate(1475.001 32.048)"/>
        <g id="Group_130" data-name="Group 130" transform="translate(1736 32)">
            <path id="Path_234" d="M270.733 0a.546.546 0 0 0-.5.3L261 13.564c-.1.1-.1.2-.1.4V37.3a.642.642 0 0 0 .6.6h42.8a.642.642 0 0 0 .6-.6V13.863a.6.6 0 0 0-.1-.4L295.464.2a.546.546 0 0 0-.5-.3h-24.231c.099.1.099.1 0 .1zm.4 1.3h23.537l8.442 11.969h-40.424zm-8.939 13.265h41.517V36.7h-41.52z" data-name="Path 234" transform="translate(-260.9 .1)"/>
            <path id="Line_40" d="M0 0h19.368" class="cls-2" data-name="Line 40" transform="translate(12.316 4.987)"/>
            <path id="Line_41" d="M0 0h24.334" class="cls-2" data-name="Line 41" transform="translate(9.833 9.774)"/>
        </g>
    </g>
</svg>
