<svg xmlns="http://www.w3.org/2000/svg" width="58" height="48" viewBox="0 0 58 48">
    <defs>
        <style>
            .cls-1,.cls-2,.cls-3,.cls-6{fill:none}.cls-1,.cls-2,.cls-3,.cls-5{stroke:#4d4d4d}.cls-1,.cls-5{stroke-linejoin:round}.cls-1{stroke-width:1.79px}.cls-2,.cls-3,.cls-5{stroke-linecap:round;stroke-width:1.5px}.cls-2,.cls-5{stroke-miterlimit:10}.cls-4{fill:#fff}.cls-5,.cls-8{fill:#4d4d4d}.cls-7,.cls-8{stroke:none}
        </style>
    </defs>
    <g id="Group_1666" data-name="Group 1666" transform="translate(-180 -42)">
        <path id="Path_2603" d="M-14797.846 9204.8h14.088l4.383 3.942h24.662v30.319h-43.133z" class="cls-1" data-name="Path 2603" transform="translate(14982.186 -9157.299)"/>
        <g id="Group_1655" data-name="Group 1655" transform="translate(0 2)">
            <g id="Group_1648" data-name="Group 1648" transform="translate(202.082 55.896)">
                <path id="Line_263" d="M0 13.455V0" class="cls-2" data-name="Line 263" transform="translate(3.448)"/>
                <path id="Path_2554" d="M1413.989 60.115l-3.448 2.669-3.448-2.669" class="cls-2" data-name="Path 2554" transform="translate(-1407.093 -48.65)"/>
            </g>
            <path id="Path_2604" d="M-14520.837 9115.718h-11.27" class="cls-3" data-name="Path 2604" transform="translate(14731.854 -9042.833)"/>
        </g>
        <g id="Group_1649" data-name="Group 1649" transform="translate(10 -239)">
            <g id="Path_2602" class="cls-4" data-name="Path 2602">
                <path d="M10.976 21.056c-5.559 0-10.081-4.522-10.081-10.08C.895 5.417 5.417.895 10.975.895c5.56 0 10.081 4.522 10.081 10.08 0 2.222-.712 4.32-2.06 6.07-1.342 1.741-3.212 3.01-5.408 3.67l-.003.001-.003.001c-.532.164-1.496.34-2.606.34z" class="cls-7" transform="translate(204.024 305.135)"/>
                <path d="M10.976 1.79c-5.065 0-9.186 4.12-9.186 9.186 0 5.065 4.12 9.185 9.186 9.185 1.012 0 1.894-.16 2.342-.299l.006-.002.006-.002c2.016-.605 3.73-1.767 4.957-3.36a8.968 8.968 0 0 0 1.874-5.522c0-5.065-4.12-9.186-9.185-9.186m0-1.79C17.037 0 21.95 4.914 21.95 10.976c0 4.958-3.288 9.149-8.106 10.597-.7.216-1.766.378-2.87.378C4.915 21.951 0 17.037 0 10.976 0 4.914 4.914 0 10.976 0z" class="cls-8" transform="translate(204.024 305.135)"/>
            </g>
            <path id="Path_2580" d="M1407.093 60.115l4.6 5.806 4.6-5.806z" class="cls-5" data-name="Path 2580" transform="rotate(-90 940.929 787.22)"/>
        </g>
        <path id="Rectangle_806" d="M0 0h58v48H0z" class="cls-6" data-name="Rectangle 806" transform="translate(180 42)"/>
    </g>
</svg>
