<?xml version="1.0" encoding="utf-8"?>
<!-- Generator: Adobe Illustrator 23.0.1, SVG Export Plug-In . SVG Version: 6.00 Build 0)  -->
<svg version="1.1" id="Layer_1" xmlns="http://www.w3.org/2000/svg" xmlns:xlink="http://www.w3.org/1999/xlink" x="0px" y="0px"
	 viewBox="0 0 58 48" style="enable-background:new 0 0 58 48;" xml:space="preserve">
<style type="text/css">
	.st0{fill:none;stroke:#FF0000;stroke-width:1.79;stroke-linejoin:round;}
	.st1{fill:none;stroke:#FF0000;stroke-width:1.5;stroke-linecap:round;stroke-miterlimit:10;}
	.st2{fill:none;stroke:#FF0000;stroke-width:1.5;stroke-linecap:round;}
	.st3{fill:#FFFFFF;}
	.st4{fill:#FF0000;}
	.st5{fill:#FF0000;stroke:#FF0000;stroke-width:1.5;stroke-linecap:round;stroke-linejoin:round;stroke-miterlimit:10;}
	.st6{fill:none;}
</style>
<g id="Group_1666" transform="translate(-180 -42)">
	<path id="Path_2603" class="st0" d="M184.3,47.5h14.1l4.4,3.9h24.7v30.3h-43.1V47.5z"/>
	<g id="Group_1655" transform="translate(0 2)">
		<g id="Group_1648" transform="translate(202.082 55.896)">
			<path id="Line_263" class="st1" d="M3.4,13.5V0"/>
			<path id="Path_2554" class="st1" d="M6.9,11.5l-3.4,2.7L0,11.5"/>
		</g>
		<path id="Path_2604" class="st2" d="M211,72.9h-11.3"/>
	</g>
	<g id="Group_1649" transform="translate(10 -239)">
		<g id="Path_2602">
			<path class="st3" d="M215,326.2c-5.6,0-10.1-4.5-10.1-10.1c0-5.6,4.5-10.1,10.1-10.1c5.6,0,10.1,4.5,10.1,10.1
				c0,2.2-0.7,4.3-2.1,6.1c-1.3,1.7-3.2,3-5.4,3.7l0,0l0,0C217.1,326,216.1,326.2,215,326.2L215,326.2z"/>
			<path class="st4" d="M215,306.9c-5.1,0-9.2,4.1-9.2,9.2c0,5.1,4.1,9.2,9.2,9.2c1,0,1.9-0.2,2.3-0.3l0,0l0,0c2-0.6,3.7-1.8,5-3.4
				c1.2-1.6,1.9-3.5,1.9-5.5C224.2,311,220.1,306.9,215,306.9 M215,305.1c6.1,0,11,4.9,11,11c0,5-3.3,9.1-8.1,10.6
				c-0.7,0.2-1.8,0.4-2.9,0.4c-6.1,0-11-4.9-11-11C204,310,208.9,305.1,215,305.1z"/>
		</g>
		<path id="Path_2580" class="st5" d="M213.8,321.1l5.8-4.6l-5.8-4.6V321.1z"/>
	</g>
	<path id="Rectangle_806" class="st6" d="M180,42h58v48h-58V42z"/>
</g>
</svg>
