<svg xmlns="http://www.w3.org/2000/svg" id="Inspection_UP" viewBox="0 0 137.988 96">
    <defs>
        <style>
            .cls-1{fill:#1a1a1a}
        </style>
    </defs>
    <g id="Group_103" data-name="Group 103">
        <path id="Path_180" d="M15.9 0a1.77 1.77 0 0 0-1.4 1.1L.1 49.1a1.666 1.666 0 0 0 1.1 2h.1l53.4 14.4v22.1a4.951 4.951 0 0 1-5 5H1.6A1.58 1.58 0 0 0 0 94.2 1.636 1.636 0 0 0 1.6 96h47.9a8.237 8.237 0 0 0 8.2-8.2V66.5l38.1 10.3a1.627 1.627 0 0 0 1.7-.6l6.9-9.2 23.5 6.6a1.7 1.7 0 0 0 2-1l8-24a1.606 1.606 0 0 0-1-2h-.1l-14.2-4 7-9.5a1.579 1.579 0 0 0-.3-2.2l-.6-.3L16.5.1a1.268 1.268 0 0 0-.6-.1zm1.3 3.6L125.7 33l-30 40.4-92-24.8zm103.4 41.6l13.7 3.9-7 20.9-20.9-5.9z" class="cls-1" data-name="Path 180"/>
    </g>
</svg>
