<svg xmlns="http://www.w3.org/2000/svg" width="22" height="22" viewBox="0 0 22 22">
    <g fill="none" fill-rule="evenodd">
        <path fill="#1A1919" stroke="#FFF" stroke-width=".5" d="M2.65 6.32a.818.818 0 0 0-.825-.81.818.818 0 0 0-.825.81v3.276c0 .449.369.811.825.811h3.688a.818.818 0 0 0 .825-.811.818.818 0 0 0-.825-.812H3.826C4.973 5.722 7.99 3.623 11.34 3.623c4.417 0 8.01 3.533 8.01 7.877 0 4.344-3.593 7.877-8.01 7.877-3.384 0-6.417-2.105-7.55-5.237a.827.827 0 0 0-1.053-.492.803.803 0 0 0-.501 1.033C3.602 18.463 7.26 21 11.34 21 16.667 21 21 16.737 21 11.5S16.667 2 11.341 2C7.626 2 4.245 4.137 2.65 7.356V6.32z"/>
        <path fill="#000" fill-rule="nonzero" stroke="#000" stroke-width=".4" d="M14.977 8.393C14.79 7.69 13.412 7 11 7s-3.792.69-3.977 1.393a.163.163 0 0 0-.023.08V14.527c0 .027.007.052.019.074C7.208 15.402 8.899 16 11 16c2.097 0 3.785-.595 3.98-1.394a.164.164 0 0 0 .02-.079V8.473c0-.03-.01-.056-.023-.08zm-.31 4.168a.41.41 0 0 1-.041.108.557.557 0 0 1-.072.106.88.88 0 0 1-.058.064l-.042.039a1.323 1.323 0 0 1-.084.07l-.041.029c-.036.025-.074.05-.115.076l-.034.02a2.623 2.623 0 0 1-.152.08l-.02.01c-.06.03-.123.058-.19.085l-.006.003a6.091 6.091 0 0 1-1.378.356c-.105.016-.213.03-.324.042l-.056.006c-.096.01-.194.02-.295.027l-.141.008c-.076.005-.151.01-.229.012a12.064 12.064 0 0 1-.778 0c-.078-.003-.153-.008-.229-.013-.047-.002-.095-.004-.141-.008a9.355 9.355 0 0 1-.296-.027l-.055-.005a8.97 8.97 0 0 1-.324-.043h-.008a6.091 6.091 0 0 1-1.37-.356l-.006-.002a3.361 3.361 0 0 1-.19-.085l-.02-.01a2.526 2.526 0 0 1-.152-.081l-.034-.02a1.843 1.843 0 0 1-.115-.076l-.041-.03a1.323 1.323 0 0 1-.084-.069l-.042-.038a.847.847 0 0 1-.13-.17.511.511 0 0 1-.042-.108c-.005-.026-.012-.053-.012-.08 0-.018.002-.036.005-.054a.167.167 0 0 0-.005-.073v-1.215l.015.012c.035.032.07.063.11.093.603.466 1.808.829 3.555.829 1.74 0 2.942-.36 3.547-.823.048-.036.092-.073.133-.111v1.215a.167.167 0 0 0-.005.073.338.338 0 0 1 .005.055c0 .026-.007.053-.013.08zm.013-3.386v1.215a.167.167 0 0 0-.005.073.338.338 0 0 1 .005.055c0 .027-.007.053-.013.08a.41.41 0 0 1-.041.108.557.557 0 0 1-.072.105.88.88 0 0 1-.058.064l-.042.039a1.323 1.323 0 0 1-.084.07l-.041.03c-.036.025-.074.05-.115.075l-.034.02a2.623 2.623 0 0 1-.152.08l-.02.01c-.06.03-.123.058-.19.086l-.006.002a6.091 6.091 0 0 1-1.37.355l-.008.001c-.105.016-.213.03-.324.043l-.056.005c-.096.01-.194.02-.295.027-.046.004-.095.005-.141.008-.076.005-.151.01-.229.013a12.064 12.064 0 0 1-.778 0l-.229-.013-.141-.008a9.355 9.355 0 0 1-.296-.028l-.055-.005a8.97 8.97 0 0 1-.332-.043 6.091 6.091 0 0 1-1.376-.358 3.361 3.361 0 0 1-.19-.085l-.02-.01a2.526 2.526 0 0 1-.152-.08l-.034-.02a1.842 1.842 0 0 1-.115-.076l-.041-.03a1.323 1.323 0 0 1-.084-.07.847.847 0 0 1-.172-.208.511.511 0 0 1-.042-.108c-.005-.026-.012-.052-.012-.079 0-.018.002-.037.005-.055a.167.167 0 0 0-.005-.073V9.175l.062.053.034.03c.048.038.1.076.156.114l.037.022a2.723 2.723 0 0 0 .392.209l.031.014c.075.033.155.064.238.094l.07.024c.066.023.134.045.205.066l.076.022c.094.027.19.052.292.075l.043.01a7.158 7.158 0 0 0 .656.114l.073.01c.119.015.242.028.369.038l.095.007c.101.008.205.014.31.019l.117.005a12.251 12.251 0 0 0 .848 0l.116-.005c.106-.005.21-.011.311-.019l.095-.007c.127-.01.25-.023.37-.038l.072-.01a8.45 8.45 0 0 0 .656-.115l.043-.009c.101-.023.198-.048.292-.075l.076-.022c.07-.021.139-.043.205-.066l.07-.024c.083-.03.163-.061.238-.094l.03-.014a3.386 3.386 0 0 0 .393-.209l.037-.022c.056-.038.108-.076.156-.114l.034-.03c.02-.017.043-.035.062-.053zM11 7.327c2.169 0 3.68.647 3.68 1.228 0 .58-1.511 1.227-3.68 1.227-2.169 0-3.68-.647-3.68-1.227 0-.581 1.511-1.228 3.68-1.228zm3.68 7.152a.17.17 0 0 0-.005.022c-.09.566-1.59 1.172-3.675 1.172-2.086 0-3.584-.606-3.675-1.172a.182.182 0 0 0-.005-.022v-1.377c.004.005.01.009.015.013.035.032.07.063.11.093.603.466 1.808.828 3.555.828 1.74 0 2.942-.359 3.547-.822.048-.036.092-.074.133-.111v1.376z"/>
    </g>
</svg>
