<?xml version="1.0" encoding="utf-8"?>
<!-- Generator: Adobe Illustrator 21.1.0, SVG Export Plug-In . SVG Version: 6.00 Build 0)  -->
<svg version="1.2" baseProfile="tiny" id="Layer_1" xmlns="http://www.w3.org/2000/svg" xmlns:xlink="http://www.w3.org/1999/xlink"
	 x="0px" y="0px" viewBox="0 0 80 20" xml:space="preserve">
<g>
	<path fill-rule="evenodd" fill="#FFFFFF" d="M25.9,13.7c-0.7-1.3-1.9-1.8-3.4-1.8c-2.1,0-3.7,1.5-3.7,3.9c0,2.5,1.5,3.9,3.8,3.9
		c1.4,0,2.7-0.8,3.3-2l-1.6-0.8C24,17.8,23.4,18,22.8,18c-1.2,0-1.7-1-1.7-2.2c0-1.3,0.4-2.2,1.7-2.2c0.3,0,1,0.2,1.4,1L25.9,13.7z"
		/>
	<path fill-rule="evenodd" fill="#FFFFFF" d="M29.9,13.6c1.2,0,1.8,1,1.8,2.2c0,1.4-0.5,2.3-1.8,2.3c-1.2,0-1.8-1-1.8-2.2
		C28.1,14.5,28.6,13.6,29.9,13.6z M29.9,11.9c-2.3,0-4,1.4-4,3.9c0,2.5,1.6,3.9,4,3.9c2.3,0,4-1.4,4-3.9
		C33.8,13.3,32.2,11.9,29.9,11.9z"/>
	<path fill-rule="evenodd" fill="#FFFFFF" d="M34.3,19.5h2.2v-4.6c0-0.7,0.3-1.2,1.2-1.2c0.8,0,1.1,0.5,1.1,1.2v4.7h2.2v-4.6
		c0-0.8,0.4-1.3,1.1-1.3c0.8,0,1.1,0.5,1.1,1.5v4.4h2.2v-5.7c0-1.7-1.6-2-2.3-2c-0.9,0-1.7,0.3-2.4,1c-0.5-0.7-1.1-1-2-1
		c-0.7,0-1.6,0.2-2.2,0.9v-0.7h-2.2V19.5z"/>
	<path fill-rule="evenodd" fill="#FFFFFF" d="M46,19.5h2.2v-4.6c0-0.7,0.3-1.2,1.2-1.2c0.8,0,1.1,0.5,1.1,1.2v4.7h2.2v-4.6
		c0-0.8,0.4-1.3,1.1-1.3c0.8,0,1.1,0.5,1.1,1.5v4.4H57v-5.7c0-1.7-1.6-2-2.3-2c-0.9,0-1.7,0.3-2.4,1c-0.5-0.7-1.1-1-2-1
		c-0.7,0-1.6,0.2-2.2,0.9v-0.7H46V19.5z"/>
	<path fill-rule="evenodd" fill="#FFFFFF" d="M61.5,13.6c1.2,0,1.8,1,1.8,2.2c0,1.4-0.5,2.3-1.8,2.3c-1.2,0-1.8-1-1.8-2.2
		C59.7,14.5,60.2,13.6,61.5,13.6z M61.5,11.9c-2.3,0-4,1.4-4,3.9c0,2.5,1.6,3.9,4,3.9c2.3,0,4-1.4,4-3.9
		C65.4,13.3,63.8,11.9,61.5,11.9z"/>
	<path fill-rule="evenodd" fill="#FFFFFF" d="M66,19.5h2.2v-4.6c0-0.7,0.3-1.2,1.2-1.2c0.8,0,1.1,0.5,1.1,1.2v4.7h2.2V14
		c0-1.1-0.5-2.1-2.3-2.1c-0.7,0-1.6,0.2-2.2,0.9v-0.7H66V19.5z"/>
	<path fill-rule="evenodd" fill="#FFFFFF" d="M79.9,12.9c-1-0.7-2.1-1.1-3.3-1.1c-1.5,0-3.2,0.7-3.2,2.6c0,2.7,4.4,1.7,4.4,2.9
		c0,0.7-0.8,0.8-1.2,0.8c-1,0-1.7-0.4-2.4-1.1L73,18.3c1.1,1,2,1.5,3.6,1.5c1.6,0,3.4-0.7,3.4-2.7c0-2.8-4.4-1.7-4.4-3
		c0-0.4,0.4-0.6,0.9-0.6c0.7,0,1.6,0.3,2.1,0.8L79.9,12.9z"/>
	<path fill-rule="evenodd" fill="#FFFFFF" d="M25.9,5.1c-0.7-1.3-1.9-1.8-3.4-1.8c-2.1,0-3.7,1.5-3.7,3.9c0,2.5,1.5,3.9,3.8,3.9
		c1.4,0,2.7-0.8,3.3-2l-1.6-0.8c-0.4,0.8-0.9,1.1-1.6,1.1c-1.2,0-1.7-1-1.7-2.2c0-1.3,0.4-2.2,1.7-2.2c0.3,0,1,0.2,1.4,1L25.9,5.1z"
		/>
	<path fill-rule="evenodd" fill="#FFFFFF" d="M26.4,10.9h2.2V6.6c0-0.8,0.5-1.1,1.8-1.2l0.2,0l0-1.9c-0.8,0.1-1.6,0.3-2,0.8V3.5
		h-2.2V10.9z"/>
	<path fill-rule="evenodd" fill="#FFFFFF" d="M38.1,7.7c0-2.3-0.9-4.4-3.7-4.4c-2.3,0-3.7,1.5-3.7,4.2c0,2.1,1.3,3.7,3.7,3.7
		c1.7,0,2.9-0.7,3.6-2.1l-1.6-0.9c-0.6,0.9-1,1.3-1.8,1.3c-0.7,0-1.6-0.4-1.6-1.9H38.1z M32.9,6.3c0.1-1,0.9-1.4,1.5-1.4
		c0.6,0,1.4,0.3,1.5,1.4H32.9z"/>
	<path fill-rule="evenodd" fill="#FFFFFF" d="M43.1,7.8c0,1.1-0.6,1.7-1.5,1.7c-0.5,0-1-0.3-1-0.8c0-0.6,0.5-0.8,1.1-1l1.5-0.4V7.8z
		 M45.2,5.4c0-1.7-1.3-2.2-3.3-2.2c-1,0-3,0.2-3.1,2.3h2.1c0.1-0.7,0.4-1,1.2-1c0.6,0,1,0.2,1,0.8V6l-0.8,0.1
		c-2.4,0.3-3.8,1-3.8,2.8c0,1.4,1.1,2.2,2.5,2.2c0.8,0,1.9-0.4,2.2-1h0c0,0.3,0.1,0.5,0.1,0.8h2c-0.2-0.5-0.2-1-0.2-1.6V5.4z"/>
	<path fill-rule="evenodd" fill="#FFFFFF" d="M50.3,3.6H49V1.5h-2.2v2.2h-1.1V5h1.1v3.9c0,1.1,0.3,2.2,2.1,2.2
		c0.5,0,1.1-0.1,1.4-0.1V9.3c-0.1,0-0.4,0-0.7,0c-0.4,0-0.7-0.2-0.7-0.7V5h1.3V3.6z"/>
	<path fill-rule="evenodd" fill="#FFFFFF" d="M51.2,3.5v7.5h2.2V3.5H51.2z M53.4,2.6V1h-2.2v1.7H53.4z"/>
	<polygon fill-rule="evenodd" fill="#FFFFFF" points="56.3,10.9 58.5,10.9 61.1,3.5 58.7,3.5 57.4,8.8 57.4,8.8 56.1,3.5 53.8,3.5 	
		"/>
	<path fill-rule="evenodd" fill="#FFFFFF" d="M68.1,7.7c0-2.3-0.9-4.4-3.7-4.4c-2.3,0-3.7,1.5-3.7,4.2c0,2.1,1.3,3.7,3.7,3.7
		c1.7,0,2.9-0.7,3.6-2.1l-1.6-0.9c-0.6,0.9-1,1.3-1.8,1.3c-0.7,0-1.6-0.4-1.6-1.9H68.1z M63,6.3c0.1-1,0.9-1.4,1.5-1.4
		c0.6,0,1.4,0.3,1.5,1.4H63z"/>
	<g>
		<path fill-rule="evenodd" fill="#FFFFFF" d="M9.6,3.2C7.4,3.2,5.4,4,3.8,5.5c-1.6,1.6-2.4,3.7-2.4,5.8c0,2.2,0.8,4.2,2.4,5.8
			c1.6,1.6,3.6,2.4,5.8,2.4c2.2,0,4.3-0.9,5.9-2.5c1.5-1.5,2.3-3.5,2.3-5.8c0-2.2-0.8-4.3-2.4-5.8C13.9,4,11.9,3.2,9.6,3.2z
			 M9.6,4.6c1.8,0,3.5,0.7,4.8,2c1.3,1.3,1.9,2.9,1.9,4.8c0,1.8-0.7,3.5-1.9,4.7c-1.3,1.3-3,2-4.8,2c-1.8,0-3.4-0.7-4.7-2
			c-1.3-1.3-2-3-2-4.7c0-1.8,0.7-3.5,2-4.8C6.2,5.3,7.8,4.6,9.6,4.6z"/>
		<path fill-rule="evenodd" fill="#FFFFFF" d="M9.5,10C9.1,9.2,8.3,8.8,7.3,8.8c-1.3,0-2.4,0.9-2.4,2.5c0,1.6,1,2.5,2.4,2.5
			c0.9,0,1.7-0.5,2.2-1.3l-1-0.5c-0.2,0.5-0.6,0.7-1,0.7c-0.8,0-1.1-0.6-1.1-1.5c0-0.8,0.3-1.5,1.1-1.5c0.2,0,0.7,0.1,0.9,0.7
			L9.5,10z"/>
		<path fill-rule="evenodd" fill="#FFFFFF" d="M14.3,10c-0.5-0.8-1.3-1.2-2.2-1.2c-1.3,0-2.4,0.9-2.4,2.5c0,1.6,1,2.5,2.4,2.5
			c0.9,0,1.7-0.5,2.2-1.3l-1-0.5c-0.2,0.5-0.6,0.7-1,0.7c-0.8,0-1.1-0.6-1.1-1.5c0-0.8,0.3-1.5,1.1-1.5c0.2,0,0.7,0.1,0.9,0.7
			L14.3,10z"/>
	</g>
</g>
</svg>
